<?xml version="1.0" encoding="utf-8"?>
<!-- Generator: Adobe Illustrator 26.3.1, SVG Export Plug-In . SVG Version: 6.00 Build 0)  -->
<svg version="1.1" id="Layer_1" xmlns="http://www.w3.org/2000/svg" xmlns:xlink="http://www.w3.org/1999/xlink" x="0px" y="0px"
	 viewBox="0 0 20 20" style="enable-background:new 0 0 20 20;" xml:space="preserve">
<path d="M14.3,15.2c2.4,0,4.3-1.9,4.3-4.3c0-2.4-1.9-4.3-4.2-4.3c0.2-0.5,0.3-1.1,0.3-1.7c0-2.6-2.1-4.8-4.8-4.8S5.2,2.3,5.2,4.9
	c0,0.6,0.1,1.1,0.3,1.7c-2.3,0.1-4.2,2-4.2,4.3c0,2.4,1.9,4.3,4.3,4.3c1.8,0,3.3-1.1,4-2.6c-1.3,6.2-5.9,7.2-5.9,7.2h12.6
	c0,0-4.6-1-5.9-7.2C11,14.2,12.6,15.2,14.3,15.2z"/>
</svg>
