<?xml version="1.0" encoding="utf-8"?>
<!-- Generator: Adobe Illustrator 26.3.1, SVG Export Plug-In . SVG Version: 6.00 Build 0)  -->
<svg version="1.1" id="Layer_1" xmlns="http://www.w3.org/2000/svg" xmlns:xlink="http://www.w3.org/1999/xlink" x="0px" y="0px"
	 viewBox="0 0 20 20" style="enable-background:new 0 0 20 20;" xml:space="preserve">
<style type="text/css">
	.st0{fill:#010101;}
</style>
<g id="Layer_1-2">
	<path class="st0" d="M8.9,0.3c0.5-0.1,1.1-0.1,1.9,0c0.4,0,0.7,0.1,0.8,0.2c0.4,0.1,0.7,0.4,0.8,0.9c0.1,0.5,0.2,0.7,0.3,0.7
		c0.1,0,0.2,0.2,0.2,0.7c0,0.4,0,0.6,0.1,0.7c0.1,0.1,0.4,0.2,1,0.3c0.8,0.2,1.2,0.4,1.2,0.6c0,0.2,0.2,0.3,0.4,0.3
		c0.2,0,0.4,0.1,0.6,0.3c0,0,0.2,0.2,0.4,0.3c0.3,0.2,0.4,0.4,0.6,0.6c0.2,0.2,0.3,0.3,0.3,0.3c0,0,0.1,0.3,0.4,0.7
		c0.3,0.4,0.4,0.9,0.3,1.7c-0.1,0.6-0.4,1.5-1.1,2.7c-0.5,0.8-1,1.3-1.4,1.2c-0.1,0-0.3,0.1-0.5,0.2c-0.2,0.2-0.9,0.3-2.1,0.1
		l-1.7-0.2l0,1c0,0.6,0.1,1.2,0.4,1.9c0.3,0.7,0.6,1.1,0.9,1.2c0.4,0.2,0.5,0.7,0.4,1.5c0,0.3-0.1,0.5-0.3,0.6
		c-0.1,0.2-0.5,0.2-1,0.2c-1.3-0.2-2.3,0-2.9,0.4c-0.4,0.3-1.1,0.3-2.1,0.2c-0.2,0-0.4-0.1-0.5-0.1c-0.2-0.1-0.2-0.4-0.1-0.8
		c0.1-0.5,0.3-0.7,0.4-0.7c0.1-0.1,0.2-0.3,0.3-0.7c0-0.4,0.1-0.6,0.3-0.7c0.2-0.2,0.3-0.7,0.4-1.6L8,13.7l-1.8-0.2
		C5,13.3,4.4,13.2,4.4,13c-0.1-0.2-0.2-0.3-0.6-0.3c-0.3,0-0.7-0.3-1.2-0.7s-0.7-0.8-0.7-1c0-0.2,0-0.4-0.2-0.4
		c-0.2-0.1-0.2-0.7,0-1.8S2,6.9,2.2,6.8c0.2-0.1,0.3-0.3,0.3-0.7S2.7,5.5,3,5.4c0.3-0.1,0.5-0.3,0.5-0.5c0-0.2,0.3-0.4,1-0.6
		S5.6,4,5.9,4c0.2,0,0.4-0.2,0.4-0.7C6.4,2.7,6.7,2,7.3,1.4S8.4,0.4,8.9,0.3L8.9,0.3z"/>
</g>
</svg>
