<?xml version="1.0" encoding="UTF-8"?><svg id="Layer_2" xmlns="http://www.w3.org/2000/svg" viewBox="0 0 453.43 100.24"><defs><style>.cls-1{fill:#ed2024;}.cls-2{fill:#fff;}.cls-3{fill:#ed1c24;}.cls-4{fill:#2f736a;}</style></defs><g id="Layer_1-2"><g><g><path d="M248.37,64.44c-.44,2.69-.84,5.38-1.35,8.05-.12,.64-.04,.93,.49,1.29,6.28,4.34,11.44,9.68,14.42,16.83,1.12,2.7,1.88,5.55,2.78,8.34,.16,.51,.12,1.11-.47,1.27-.33,.09-.86-.1-1.14-.34-7.29-6.48-15.57-11.25-24.79-14.44-.59-.2-1.03-.14-1.56,.18-4.02,2.38-8.42,3.64-12.98,4.42-6.36,1.08-12.78,1.2-19.2,.86-6.25-.33-12.4-1.29-18.17-3.9-.97-.44-1.88-1.01-2.85-1.46-.33-.15-.8-.22-1.13-.11-9.16,3.06-17.38,7.76-24.62,14.17-.18,.16-.33,.38-.54,.46-.33,.12-.78,.28-1.02,.15-.25-.14-.47-.64-.43-.93,.14-.91,.39-1.79,.63-2.68,2.6-9.79,8.39-17.25,16.7-22.88,.37-.25,.57-.43,.43-.98-2.5-9.33-.92-18.05,4.26-26.08,5.62-8.7,13.42-14.75,23.24-18.14,.22-.08,.45-.2,.67-.22,1.56-.09,2.07-.98,2.32-2.46,1.37-7.95,2.86-15.88,4.3-23.81,.17-.92,.48-1.75,1.53-1.96,1.1-.23,1.97,.41,2.2,1.66,.84,4.46,1.67,8.92,2.49,13.38,.73,3.99,1.47,7.99,2.17,11.99,.11,.62,.47,.78,.99,.93,11.48,3.39,20.19,10.34,26.19,20.66,2.81,4.84,4.45,10.44,4.45,15.75,.08,.01-.07,.02,.01,.03Zm-66.97,15.55c2.1,2,4.47,3.43,7.07,4.52,5.59,2.34,11.5,3.11,17.48,3.35,4.87,.19,9.75,.14,14.61-.48,4.14-.53,8.19-1.39,12.02-3.1,2.4-1.07,4.63-2.4,6.49-4.3-14.89-11.85-41.15-12.81-57.67,0Zm10.12-23.35c-.39-1.42-.62-2.8-1.16-4.05-.6-1.39-1.85-1.38-2.5-.02-1.29,2.69-1.28,5.45,.01,8.14,.63,1.3,1.88,1.32,2.46,0,.56-1.27,.8-2.68,1.19-4.07Zm42.25-.08c-.36-1.32-.65-2.68-1.13-3.96-.16-.43-.82-.97-1.22-.94-.46,.03-1.09,.52-1.31,.98-1.26,2.6-1.23,5.27-.06,7.88,.22,.48,.89,1.06,1.34,1.05,.46,0,1.14-.59,1.32-1.07,.46-1.23,.69-2.54,1.05-3.94Z"/><path class="cls-2" d="M181.4,79.99c16.51-12.82,42.77-11.86,57.67,0-1.87,1.89-4.1,3.23-6.49,4.3-3.83,1.7-7.88,2.57-12.02,3.1-4.86,.62-9.73,.68-14.61,.48-5.98-.24-11.89-1.01-17.48-3.35-2.59-1.09-4.97-2.52-7.07-4.52Zm28.85-1.83c-.72-.91-1.34-1.71-1.98-2.48-1.01-1.23-2.2-1.23-3.2,0-.28,.35-.55,.7-.83,1.05-.97,1.23-1.94,2.45-2.92,3.69-.99-.74-1.9-1.41-2.81-2.08-.83-.6-1.2-.55-1.77,.27-.76,1.1-1.54,2.19-2.23,3.34-.19,.32-.26,1-.06,1.23,.4,.45,.84,.08,1.18-.31,.7-.79,1.41-1.57,2.11-2.35,.16,.12,.24,.17,.3,.23,.76,.71,1.51,1.43,2.27,2.14,1.07,1.01,1.55,1,2.61-.06,1.1-1.1,2.19-2.21,3.34-3.38,.69,1.13,1.31,2.14,1.93,3.15,1.13,1.83,2.94,1.82,4.07,0,.61-1,1.24-1.99,1.82-2.91,1.32,1.25,2.57,2.44,3.81,3.63,.83,.8,1.47,.77,2.26-.07,.86-.92,1.75-1.83,2.58-2.7,.73,.7,1.38,1.3,2.01,1.93,.39,.38,.77,.89,1.34,.4,.59-.5,.09-.97-.22-1.39-.7-.96-1.41-1.91-2.13-2.86-.59-.77-1.02-.82-1.79-.21-.9,.72-1.78,1.46-2.72,2.23-.15-.18-.26-.31-.37-.44-1.11-1.47-2.22-2.95-3.34-4.41-1.1-1.42-2.2-1.43-3.33-.05-.64,.78-1.26,1.57-1.95,2.43Z"/><path class="cls-2" d="M191.53,56.64c-.39,1.39-.64,2.8-1.19,4.07-.58,1.32-1.83,1.31-2.46,0-1.29-2.69-1.3-5.45-.01-8.14,.66-1.37,1.9-1.37,2.5,.02,.54,1.25,.77,2.63,1.16,4.05Z"/><path class="cls-2" d="M233.78,56.56c-.36,1.4-.59,2.71-1.05,3.94-.18,.48-.86,1.07-1.32,1.07-.45,0-1.12-.57-1.34-1.05-1.18-2.61-1.2-5.29,.06-7.88,.22-.45,.85-.95,1.31-.98,.4-.02,1.06,.51,1.22,.94,.48,1.28,.77,2.63,1.13,3.96Z"/><path d="M210.25,78.16c.69-.86,1.31-1.65,1.95-2.43,1.13-1.38,2.23-1.37,3.33,.05,1.13,1.46,2.23,2.94,3.34,4.41,.1,.14,.22,.26,.37,.44,.93-.77,1.82-1.51,2.72-2.23,.77-.62,1.2-.56,1.79,.21,.72,.95,1.44,1.9,2.13,2.86,.3,.42,.8,.89,.22,1.39-.57,.48-.96-.02-1.34-.4-.63-.63-1.28-1.24-2.01-1.93-.83,.87-1.72,1.78-2.58,2.7-.79,.85-1.43,.87-2.26,.07-1.24-1.19-2.49-2.37-3.81-3.63-.58,.92-1.2,1.91-1.82,2.91-1.13,1.83-2.94,1.84-4.07,0-.62-1.01-1.24-2.02-1.93-3.15-1.15,1.16-2.24,2.27-3.34,3.38-1.06,1.06-1.54,1.07-2.61,.06-.76-.71-1.51-1.43-2.27-2.14-.06-.06-.14-.11-.3-.23-.7,.78-1.41,1.56-2.11,2.35-.34,.38-.78,.76-1.18,.31-.2-.23-.13-.9,.06-1.23,.68-1.15,1.46-2.24,2.23-3.34,.57-.82,.94-.87,1.77-.27,.91,.66,1.82,1.34,2.81,2.08,.98-1.24,1.95-2.46,2.92-3.69,.28-.35,.55-.71,.83-1.05,1-1.22,2.18-1.23,3.2,0,.64,.78,1.26,1.58,1.98,2.48Z"/><circle cx="189.08" cy="57.14" r="6.43"/><circle cx="230.85" cy="56.76" r="6.43"/><path class="cls-2" d="M191.23,58.92c1.15,0,2.08-.93,2.08-2.08s-.9-2.05-2.02-2.08c.09-.25,.14-.52,.14-.8,0-1.26-1.02-2.29-2.28-2.29s-2.28,1.02-2.28,2.29c0,.28,.05,.55,.14,.8-1.12,.03-2.02,.95-2.02,2.08s.93,2.08,2.08,2.08c.85,0,1.59-.51,1.91-1.25-.64,2.99-2.84,3.47-2.84,3.47h6.04s-2.2-.48-2.84-3.47c.32,.74,1.05,1.25,1.91,1.25Z"/><path class="cls-2" d="M231.78,59.19c1.02,0,1.85-.83,1.85-1.85,0-2.74-3.69-4.84-3.7-4.85,0,0-3.7,2.11-3.7,4.85,0,1.02,.83,1.85,1.85,1.85,.76,0,1.41-.46,1.7-1.11-.57,2.66-2.53,3.09-2.53,3.09h5.37s-1.96-.43-2.53-3.09c.29,.65,.94,1.11,1.7,1.11Z"/></g><path class="cls-2" d="M2.77,62.1c.07,0,.21-.45,.43-1.36s.34-1.36,.37-1.36,.13-.33,.29-.98c.16-.66,.26-.98,.29-.98,.14-.07,.27-.53,.37-1.38,.11-.82,.25-1.35,.43-1.6,.03-.03,.06-.14,.08-.32,.02-.18,.04-.34,.05-.48,.02-.14,.04-.21,.08-.21,.11,0,.12-.19,.05-.56-.07-.37-.02-.56,.16-.56,.18-.04,.27-.09,.27-.16-.04-.04-.05-.12-.05-.27,0-.39,.06-.92,.19-1.6,.12-.67,.22-1.03,.29-1.06,.11-.04,.22-.42,.35-1.14,.12-.73,.22-1.11,.29-1.14,.07-.03,.2-.56,.4-1.57,.19-1.01,.31-1.53,.35-1.57,.07-.04,.14-.23,.21-.59,.07-.35,.13-.73,.19-1.12,.05-.39,.1-.6,.13-.64,.07-.14,.18-.72,.32-1.73,.14-1.01,.27-1.6,.37-1.78,.18-.43,.5-.64,.96-.64h.64l.05,1.28c.04,.82-.02,1.22-.16,1.22s-.21,.09-.21,.27c0,.11-.05,.25-.16,.43-.11,.18-.17,.33-.19,.45-.02,.12,.03,.26,.13,.4,.18,.14,.19,.21,.05,.21s-.2,.06-.16,.19c.04,.12-.02,.19-.16,.19-.21,0-.34,.43-.37,1.28,0,.25-.11,.44-.32,.59-.11,.07-.21,.54-.32,1.41-.11,.87-.2,1.34-.27,1.41-.04,.04-.09,.24-.16,.61-.07,.37-.14,.74-.21,1.09-.07,.36-.14,.53-.21,.53s-.19,.35-.35,1.06c-.16,.71-.24,1.28-.24,1.7,0,.28-.09,.62-.27,1.01-.18,.39-.27,.75-.27,1.06,0,.43-.11,.75-.32,.96-.21,.14-.36,.55-.43,1.22-.07,.67-.16,1.01-.27,1.01-.04,0-.09,.15-.16,.45-.07,.3-.14,.61-.21,.93l-.16,.48c-.07,.14-.21,.66-.43,1.54-.21,.89-.37,1.4-.48,1.54-.18,.28-.27,.71-.27,1.28,0,.43-.11,.9-.32,1.44s-.34,.98-.37,1.33c-.07,.67-.16,1.01-.27,1.01-.04,0-.09,.17-.16,.51-.07,.34-.14,.68-.21,1.04l-.16,.53c-.14,.07-.28,.46-.43,1.17-.14,.71-.21,1.31-.21,1.81,0,.99-.28,1.49-.85,1.49-.21,0-.41-.09-.59-.27-.14-.14-.21-.44-.21-.91,0-.43,.07-.71,.21-.85,.18-.18,.3-.53,.37-1.06,.07-.5,.18-.75,.32-.75,.04,0,.09-.2,.16-.61,.07-.41,.14-.83,.21-1.25l.16-.64c.07-.04,.23-.52,.48-1.46,.25-.94,.39-1.44,.43-1.52,.18-.25,.27-.66,.27-1.22,0-.53,.05-.8,.16-.8Z"/><path class="cls-2" d="M.96,75.4c.35-.36,.62-.37,.8-.05,0,.04,.24,.12,.72,.24s.72,.22,.72,.29c0,.14,.94,.32,2.82,.53,.71,.07,1.12,.2,1.22,.37,.11,.18,.27,.27,.48,.27,.18,0,.27,.05,.27,.16,0,.04,.4,.11,1.2,.24,.8,.12,1.61,.24,2.42,.35l1.22,.21c.07,.07,.59,.19,1.57,.35,.98,.16,1.69,.24,2.16,.24,.39,0,.62,.07,.69,.21,.03,.14,.57,.21,1.6,.21,.96,0,1.44,.04,1.44,.11s.43,.19,1.3,.37c.87,.18,1.53,.27,2,.27,.35,0,.67,.07,.96,.21,.07,.04,.59,.12,1.54,.27s1.47,.27,1.54,.37c.03,.11,.46,.16,1.28,.16h1.49c.53,0,.8,.18,.8,.53,0,.18-.02,.32-.05,.43l-.11,.58-2.24-.16c-1.46-.07-2.22-.18-2.29-.32-.07-.11-.35-.16-.85-.16-.57,0-1.03-.09-1.38-.27-1.14-.46-2.36-.69-3.67-.69-.53,0-.83-.09-.9-.27-.04-.11-.89-.25-2.55-.43-1.14-.07-2.34-.22-3.62-.45-1.28-.23-2.18-.38-2.71-.45-1.03-.14-1.58-.25-1.65-.32-.07-.07-.38-.18-.93-.32-.55-.14-.86-.27-.93-.37-.35-.39-.59-.41-.69-.05-.04,.14-.21,.11-.53-.11-.36-.21-.94-.36-1.76-.43-.85-.07-1.33-.16-1.44-.27-.07-.14-.34-.21-.8-.21-.39,0-.72-.11-.98-.32s-.4-.46-.4-.75c0-.21,.09-.41,.27-.58Z"/><path class="cls-2" d="M12.69,39.95c.48-.14,.72-.27,.72-.37s.32-.16,.96-.16c.92,0,1.51,.07,1.76,.21,.11,.07,.31,.23,.61,.48,.3,.25,.54,.41,.72,.48,.11,.04,.11,.28,0,.75-.14,.46-.34,.71-.59,.75-.25,.04-.54-.04-.88-.21-.34-.18-.51-.34-.51-.48s-.14-.24-.43-.29c-.28-.05-.6-.03-.96,.08-.32,.11-.65,.3-.98,.59-.34,.28-.51,.51-.51,.69,0,.14-.05,.21-.16,.21-.14,0-.27,.19-.4,.56-.12,.37-.19,.74-.19,1.09,0,.82,.16,1.22,.48,1.22,.14,0,.25,.07,.32,.21,.07,.18,.46,.27,1.17,.27,.64,0,.99-.07,1.06-.21,.07-.18,.3-.27,.69-.27,.32,0,.51,.04,.59,.11,.07,.07,.11,.27,.11,.59,0,.36-.12,.65-.37,.88-.25,.23-.57,.35-.96,.35-.28,0-.43,.07-.43,.21,0,.11-.3,.16-.91,.16s-.96-.05-1.06-.16c-.04-.11-.25-.19-.64-.27-.5-.11-.92-.43-1.28-.96-.35-.53-.53-1.1-.53-1.7,0-.21,.02-.37,.05-.48,.28-1.56,.53-2.34,.75-2.34,.11,0,.16-.19,.16-.59,0-.43,.12-.66,.37-.69,.25-.07,.41-.19,.48-.37,.04-.07,.29-.18,.77-.32Z"/><path class="cls-2" d="M35.29,42.88c0-.07-.26-.16-.77-.27-.51-.11-.77-.21-.77-.32,0-.07-.25-.19-.75-.35-.5-.16-.89-.24-1.17-.24-.25,0-.37-.05-.37-.16,0-.07-.15-.15-.45-.24-.3-.09-.63-.18-.98-.27-.35-.09-.57-.15-.64-.19-.43-.21-.99-.32-1.7-.32-.78,0-1.3-.09-1.54-.27-.25-.18-.6-.27-1.06-.27-.57,0-1.03-.09-1.38-.27-.99-.46-2.17-.69-3.51-.69-.39,0-.62-.07-.69-.21-.07-.11-.4-.21-.98-.32-.59-.11-.91-.19-.98-.27-.14-.11-.62-.23-1.44-.37-.82-.14-1.46-.21-1.92-.21-.39,0-.73-.1-1.01-.29-.28-.19-.43-.45-.43-.77,0-.57,.12-.85,.37-.85,.21,0,.32-.05,.32-.16,0-.03,.1-.03,.29,.03,.19,.05,.4,.14,.61,.27,.21,.12,.35,.22,.43,.29,.07,.07,.96,.23,2.66,.48,.6,.07,1.03,.2,1.28,.37,.25,.18,.59,.27,1.01,.27,.39,0,.59,.07,.59,.21,0,.11,.25,.16,.75,.16,.46,0,1.11,.07,1.94,.21,.83,.14,1.32,.27,1.46,.37,.03,.04,.22,.09,.56,.16,.34,.07,.66,.14,.96,.21,.3,.07,.47,.14,.51,.21,.03,.07,.59,.2,1.65,.37,1.06,.18,1.63,.3,1.7,.37,.11,.11,.41,.2,.9,.27,.32,.04,.74,.17,1.25,.4,.51,.23,.98,.36,1.41,.4,.6,.07,.94,.21,1.01,.43,.07,.18,.27,.27,.59,.27s.51,.05,.59,.16c.03,.11,.28,.2,.75,.27,1.35,.25,2.16,.44,2.42,.56,.27,.12,.4,.38,.4,.77,0,.28-.04,.44-.11,.48-.07,.04-.3,.05-.69,.05-.6,0-.94-.04-1.01-.11-.11-.11-.23-.16-.37-.16-1.1-.11-1.65-.27-1.65-.48Z"/><path d="M20.53,54.94c.08,0,.19-.07,.35-.2,.16-.13,.27-.2,.32-.2,.08,0,.21-.08,.39-.24,.19-.16,.28-.27,.28-.32,0-.04,.07-.12,.2-.25s.2-.25,.2-.37c0-.09,.04-.14,.11-.14,.06,0,.12-.08,.2-.25,.09-.17,.23-.25,.42-.25,.06,0,.18,.02,.37,.06,.17,.06,.25,.17,.25,.34,0,.13-.06,.34-.18,.63-.12,.29-.18,.45-.18,.47-.08,.24-.06,.46,.06,.65,.04,.04,.07,.05,.08,.03l.11,.14c.06,.09,.12,.19,.2,.28,.07,.09,.12,.14,.14,.14,.09,0,.14,.06,.14,.17,0,.08,.07,.15,.21,.21,.14,.07,.21,.13,.21,.18,0,.11,.03,.17,.08,.17,.04,0,.13,.13,.28,.39,.15,.26,.23,.39,.25,.39,.06,0,.08,.07,.08,.21s-.03,.23-.08,.27c-.08,.04-.11,.2-.11,.48,0,.23-.04,.48-.11,.76-.08,.28-.14,.42-.2,.42-.04,0-.08,.12-.14,.37-.06,.24-.11,.37-.17,.37s-.12,.12-.2,.37c-.08,.24-.13,.38-.17,.39-.09,.04-.14,.1-.14,.2,0,.11-.1,.24-.31,.37-.15,.13-.29,.2-.42,.2-.09,0-.25-.03-.48-.08-.09-.02-.19-.04-.28-.06-.09-.02-.17-.03-.23-.04-.06,0-.1-.01-.14-.01-.11,0-.17,.1-.17,.31s-.06,.44-.17,.71c-.13,.26-.2,.77-.2,1.52v1.16l-.28,.03c-.15,.04-.39-.02-.71-.17-.26-.13-.63-.22-1.1-.25-.47-.04-.71-.09-.71-.17,0-.04-.07-.08-.2-.11-.13-.06-.2-.13-.2-.23,0-.13,.16-.4,.49-.82,.33-.41,.53-.69,.61-.82,.11-.23,.21-.36,.28-.4,.09-.04,.14-.11,.14-.23,0-.06,.06-.2,.17-.42,.06-.11,.08-.22,.08-.31,0-.23-.2-.34-.59-.34-.3,0-.59-.08-.87-.25-.32-.19-.52-.43-.59-.73-.08-.28-.11-.65-.11-1.1,0-.79,.1-1.27,.31-1.44,.11-.07,.17-.13,.17-.17s.15-.2,.44-.49,.5-.47,.63-.55c.11-.08,.22-.19,.32-.34,.1-.15,.22-.26,.35-.34,.19-.09,.28-.16,.28-.2,0-.06,.07-.08,.2-.08Z"/><path class="cls-2" d="M27.78,73.96c0-1.14-.6-1.7-1.81-1.7-.5,0-.92,.1-1.28,.29-.36,.19-.69,.31-1.01,.35-.46,.07-.69,.18-.69,.32s-.2,.21-.59,.21c-.25,0-.42-.04-.51-.13s-.19-.31-.29-.67c-.11-.39-.14-.65-.11-.77,.04-.12,.19-.36,.48-.72,.32-.43,.82-.71,1.49-.85,.57-.07,.85-.19,.85-.37,0-.11,.59-.16,1.76-.16s1.7,.07,1.7,.21c0,.11,.09,.16,.27,.16,.14,0,.35,.17,.64,.51,.28,.34,.46,.65,.53,.93,.07,.35,.21,.53,.43,.53,.25,0,.34,.3,.27,.9,0,.21,.07,.39,.21,.53,.14,.18,.07,.55-.21,1.12-.21,.46-.67,1.07-1.36,1.84-.69,.76-1.13,1.14-1.3,1.14-.14,0-.21,.07-.21,.21,0,.07-.15,.16-.45,.27-.3,.11-.62,.2-.96,.29-.34,.09-.52,.15-.56,.19-.25,.14-.52,.21-.8,.21-.25,0-.59-.07-1.04-.21-.44-.14-.74-.23-.88-.27-.46-.07-.69-.2-.69-.37,0-.14-.13-.28-.4-.4-.27-.12-.4-.29-.4-.51,0-.71,.34-1.01,1.01-.9,.04,0,.11,0,.24,.03,.12,.02,.22,.03,.29,.03,.6,0,1.33-.07,2.18-.21s1.28-.27,1.28-.37c0-.21,.48-.5,1.44-.85,.32-.11,.48-.37,.48-.8Z"/><path class="cls-2" d="M32.41,69.71c0-.25,.1-.51,.29-.8,.19-.28,.29-.51,.29-.69,0-.57,.13-1.28,.4-2.13,.27-.85,.42-1.42,.45-1.7,.07-.6,.21-.94,.43-1.01,.18-.07,.27-.28,.27-.64,0-.32,.05-.66,.16-1.01,.11-.35,.23-.75,.37-1.17,.14-.43,.25-.75,.32-.96,.46-1.84,.75-2.8,.85-2.87,.03-.03,.16-.49,.37-1.36,.21-.87,.35-1.32,.43-1.36,.11-.07,.19-.35,.27-.85,.04-.35,.16-.81,.37-1.36,.21-.55,.34-1.02,.37-1.41,.04-.35,.16-.71,.37-1.06,.21-.35,.34-.67,.37-.96,.04-.14,.17-.69,.4-1.65,.23-.96,.35-1.61,.35-1.97,0-.5,.07-.76,.21-.8,.46-.21,.85-.12,1.17,.27,.39,.5,.44,.75,.16,.75-.07,0-.21,.45-.43,1.36s-.34,1.36-.37,1.36-.12,.26-.27,.77c-.14,.51-.23,.77-.27,.77l-.21,.69c-.14,.43-.28,.85-.43,1.28l-.21,.69s-.1,.24-.19,.61c-.09,.37-.17,.76-.24,1.17-.07,.41-.11,.63-.11,.67-.07,.14-.2,.58-.4,1.3-.2,.73-.35,1.18-.45,1.36-.21,.43-.32,.71-.32,.85s-.05,.32-.16,.53c-.39,.64-.59,1.53-.59,2.66,0,.32-.07,.48-.21,.48-.11,0-.2,.21-.27,.64-.07,.43-.3,1.06-.69,1.92-.14,.28-.21,.5-.21,.64,0,.18-.05,.37-.16,.59-.07,.11-.2,.61-.37,1.52-.18,.91-.32,1.41-.43,1.52,0,.04-.04,.2-.11,.48-.07,.29-.15,.55-.24,.8-.09,.25-.15,.37-.19,.37-.14,0-.21,.21-.21,.64,0,.29-.06,.52-.19,.72-.12,.2-.19,.42-.19,.67,0,.32-.05,.58-.16,.8-.53,.96-.87,1.9-1.01,2.82-.14,.78-.25,1.19-.32,1.22-.14,.07-.25,.43-.32,1.06-.07,.6-.27,.94-.59,1.01-.35,.07-.59,.05-.69-.05s-.12-.34-.05-.69c.04-.32,.12-.67,.27-1.06,.14-.39,.25-.82,.32-1.28,.14-.78,.28-1.21,.43-1.28,.07-.04,.18-.33,.32-.88,.14-.55,.23-.82,.27-.82,.11,0,.25-.45,.43-1.36,.18-.91,.3-1.36,.37-1.36,.11,0,.16-.14,.16-.43Z"/><path class="cls-2" d="M41.41,44.21c.11-.14,.31-.19,.61-.13,.3,.05,.47,.15,.51,.29,.07,.21,.11,.5,.11,.85s.05,.57,.16,.64c.14,.14,.25,.66,.32,1.54,.25,2.73,.41,4.12,.48,4.15,.14,.14,.27,.62,.37,1.44,.11,.67,.29,1.74,.56,3.19,.27,1.46,.49,2.84,.67,4.15,.07,.78,.19,1.44,.35,1.97s.27,1.37,.35,2.5c.21,1.77,.34,2.71,.37,2.82,.18,.36,.32,1.15,.43,2.4,.21,1.56,.35,2.38,.43,2.45,.07,.11,.15,.73,.24,1.86,.09,1.13,.15,1.76,.19,1.86,0,.04,.05,.4,.16,1.09,.11,.69,.21,1.35,.32,1.97,.11,.62,.19,.93,.27,.93,.11,0,.16,.14,.16,.43,0,.14,.02,.24,.05,.29,.03,.05,.16,.08,.37,.08l1.38-.11c1.14-.07,1.9-.18,2.29-.32,.28-.11,.69-.16,1.22-.16,.39,0,.9-.04,1.54-.13,.64-.09,1.33-.21,2.08-.37,.75-.16,1.28-.26,1.6-.29,.82-.11,1.37-.23,1.65-.37,.07-.07,.69-.2,1.86-.37s1.79-.28,1.86-.32c.89-.32,2.08-.58,3.57-.8,1.42-.21,2.25-.43,2.5-.64,.07-.04,.51-.12,1.33-.24,.82-.12,1.26-.22,1.33-.29,.07-.07,.59-.21,1.57-.4,.98-.2,1.5-.33,1.57-.4,.25-.18,.44-.2,.59-.05,.14,.14,.21,.41,.21,.8,0,.43-.12,.71-.35,.85-.23,.14-.81,.23-1.73,.27-.75,.07-1.14,.14-1.17,.21-.07,.11-.51,.26-1.33,.45-.82,.19-1.26,.31-1.33,.35-.11,.07-.74,.17-1.89,.29-1.15,.12-1.78,.22-1.89,.29-.21,.14-.66,.25-1.33,.32-.71,.07-1.06,.16-1.06,.27s-.43,.2-1.28,.27c-.75,.07-1.51,.21-2.29,.43-.6,.18-1.56,.34-2.87,.48-.82,.07-1.46,.19-1.92,.35-.46,.16-1.01,.26-1.65,.29-.75,.07-1.28,.18-1.6,.32-.11,.03-.46,.1-1.06,.19-.6,.09-1.16,.2-1.68,.32-.51,.12-.82,.24-.93,.35-.21,.21-.44,.32-.69,.32-.28,0-.54-.12-.77-.35-.23-.23-.35-.52-.35-.88,0-.32-.2-.58-.59-.8-.28-.14-.46-.45-.53-.93-.07-.48-.18-1.98-.32-4.5,0-.5-.05-.92-.16-1.28-.11-.36-.18-.82-.21-1.38-.04-.6-.17-1.42-.4-2.45-.23-1.03-.36-1.93-.4-2.71-.07-1.1-.16-1.65-.27-1.65s-.21-.56-.32-1.68c-.11-1.12-.25-2.45-.43-3.99-.18-1.54-.39-2.67-.64-3.38-.04-.07-.16-.75-.37-2.05-.21-1.29-.35-2-.43-2.1-.07-.07-.16-.65-.27-1.73-.11-1.08-.2-1.66-.27-1.73-.04-.07-.15-.74-.35-2-.2-1.26-.33-1.92-.4-2-.11-.11-.18-.33-.21-.67-.04-.34,0-.56,.11-.67Z"/><path class="cls-2" d="M68.66,37.4c.35-.11,.66-.16,.9-.16,.43,0,.66,.18,.69,.53,.07,.32,.04,.62-.11,.9-.11,.18-.65,.3-1.62,.37-.98,.07-3.61,.18-7.9,.32-.89,.07-1.38,.16-1.49,.27-.14,.14-.43,.21-.85,.21-.32,0-.73,.07-1.22,.21-.28,.07-1.3,.26-3.03,.56-1.74,.3-2.75,.49-3.03,.56-.57,.14-1.15,.21-1.76,.21-.71,0-1.06,.11-1.06,.32,0,.14,.14,.35,.43,.64,.35,.35,.64,.75,.85,1.17s.47,1.04,.77,1.84c.3,.8,.51,1.32,.61,1.57,.43,.85,.64,1.38,.64,1.6,0,.11,.07,.16,.21,.16s.25,.25,.32,.75c.04,.28,.27,.71,.72,1.28,.44,.57,.67,1.01,.67,1.33,0,.43-.16,.67-.48,.75-.07,.04-.18,.05-.32,.05-.21,0-.42-.12-.61-.37-.2-.25-.49-.75-.88-1.49-.5-.99-.94-1.49-1.33-1.49-.18,0-.44,.09-.8,.27-.35,.18-.67,.27-.96,.27-.75,0-1.12,.73-1.12,2.18,0,.82-.09,1.35-.27,1.6-.18,.18-.37,.27-.59,.27s-.34-.07-.37-.21c-.07-.71-.16-1.35-.27-1.92-.04-.53,.02-.87,.16-1.01,.11-.11,.24-.66,.4-1.65,.16-.99,.27-1.54,.35-1.65,.11-.14,.23-.67,.37-1.6,.14-.92,.21-1.65,.21-2.18,0-.57,.09-1.03,.27-1.38,.14-.25,.21-.43,.21-.53s-.07-.16-.21-.16c-.07,0-.2,.03-.4,.08-.2,.05-.35,.08-.45,.08-.71,.14-1.26,.21-1.65,.21-.43,0-.67,.07-.75,.21-.11,.18-.28,.24-.53,.19-.25-.05-.37-.17-.37-.35,0-.46,.39-.76,1.17-.9,.57-.07,.92-.18,1.06-.32,.04,0,.82-.11,2.34-.32,1.52-.21,2.31-.34,2.34-.37,.07-.11,.5-.23,1.28-.37,.25-.04,.68-.13,1.3-.29,.62-.16,1.2-.28,1.73-.37,.53-.09,1.01-.13,1.44-.13,.53,0,.83-.07,.9-.21,.07-.03,.71-.12,1.92-.27,1.21-.14,1.84-.25,1.92-.32,.11-.07,1.09-.21,2.95-.43s2.83-.34,2.9-.37c.21-.07,.41-.11,.59-.11,.11,0,.3,0,.59,.03,.28,.02,.5,.03,.64,.03,.28,0,.48-.02,.59-.05Z"/><path class="cls-4" d="M48.91,46.18c-.28-.5-.48-.75-.59-.75-.18,0-.32,.6-.43,1.81l-.11,1.28,.75-.11c.64-.11,.96-.35,.96-.75,0-.21-.2-.71-.59-1.49Z"/><path class="cls-3" d="M60.54,54.91s.08-.13,.25-.23c.17-.11,.4-.21,.68-.31,.29-.1,.56-.14,.83-.14h.18c.41,.02,.86,.28,1.37,.75,.48,.46,.72,.83,.72,1.11s.04,.53,.11,.72c.05,.19,.07,.32,.07,.4,0,.17-.04,.34-.11,.52s-.16,.37-.27,.56c-.11,.19-.19,.34-.23,.43-.22,.46-.47,.89-.75,1.29-.17,.22-.25,.38-.25,.5,0,.1-.14,.33-.41,.7-.28,.37-.55,.69-.81,.95-.19,.19-.35,.41-.47,.65-.14,.24-.42,.41-.83,.5-.41,.07-.7,0-.86-.22-.17-.22-.25-.37-.25-.47s-.05-.14-.14-.14c-.05,0-.32-.24-.83-.72-.5-.48-.79-.72-.86-.72-.12,0-.28-.12-.47-.36-.19-.19-.46-.4-.79-.63-.34-.23-.61-.45-.83-.66-.41-.38-.64-.79-.68-1.22,0-.05,0-.11-.02-.2-.01-.08-.02-.14-.02-.16,0-.22,.11-.58,.32-1.08,.29-.53,.49-.8,.61-.83,.14-.05,.22-.11,.22-.18,0-.1,.05-.14,.14-.14,.05,0,.29-.1,.72-.29,.43-.19,.96-.29,1.58-.29s.99,.08,1.11,.25c.19,.31,.36,.31,.5,0,.05-.12,.14-.18,.29-.18,.12,0,.18-.06,.18-.18Z"/><path class="cls-2" d="M64.35,67.05c0-.07-.12-.41-.37-1.01-.25-.6-.37-.96-.37-1.06,0-.25,.17-.41,.51-.48,.34-.07,.61,0,.83,.21,.28,.21,.51,.32,.69,.32,.25,0,.5,.21,.75,.64,.67,1.31,1.12,2.08,1.33,2.29,.03,.04,.14,.05,.32,.05,.78,0,1.4-.16,1.86-.48,.21-.14,.38-.49,.51-1.04,.12-.55,.22-.88,.29-.98,.04-.07,.11-.27,.21-.59s.22-.6,.35-.85c.12-.25,.26-.39,.4-.43,.28-.07,.48-.11,.59-.11,.5,0,.75,.25,.75,.75,0,.18-.02,.32-.05,.43,0,.07-.12,1.01-.37,2.82-.14,1.1-.38,2.25-.72,3.46-.34,1.21-.58,2.25-.72,3.14-.21,1.13-.43,1.77-.64,1.92-.14,.07-.25,.11-.32,.11-.39,0-.73-.3-1.01-.91-.11-.25-.39-.69-.85-1.33-.46-.64-.88-1.23-1.25-1.78s-.56-.93-.56-1.14c0-.11-.23-.46-.69-1.06-.46-.6-.73-1.12-.8-1.54-.07-.46-.2-.75-.37-.85-.18-.11-.27-.27-.27-.48Z"/><path class="cls-4" d="M69.83,70.77c.14-.89,.07-1.35-.21-1.38-.04,0-.09,0-.16-.03-.07-.02-.12-.03-.16-.03-.6,0-.9,.29-.9,.85,0,.32,.12,.75,.37,1.3,.25,.55,.44,.83,.59,.83,.21,0,.37-.51,.48-1.54Z"/><path class="cls-2" d="M71.22,38.25c.11-.14,.27-.19,.51-.13,.23,.05,.42,.17,.56,.35,.21,.25,.34,1.05,.37,2.4,.07,1.28,.18,2.08,.32,2.4,.14,.21,.43,2.47,.85,6.76,.07,.99,.18,1.77,.32,2.34,.14,.57,.25,1.33,.32,2.29,.07,1.17,.18,1.86,.32,2.08,.07,.07,.18,.75,.32,2.02,.11,.82,.25,1.63,.43,2.45,.18,.82,.3,1.58,.37,2.29,.43,3.12,.75,5.38,.96,6.76,.25,1.56,.44,2.38,.59,2.45,.07,.04,.11,.14,.11,.32,0,.25-.09,.52-.27,.83-.18,.3-.35,.45-.53,.45s-.32-.25-.43-.75c-.04-.36-.12-.75-.24-1.17-.12-.43-.22-.98-.29-1.65-.04-.28-.2-1.41-.48-3.38-.28-1.97-.53-3.45-.75-4.44-.14-.64-.21-1.31-.21-2.02,0-.6-.07-1.1-.21-1.49-.14-.39-.23-.92-.27-1.6-.04-.75-.16-1.55-.37-2.42-.21-.87-.34-1.68-.37-2.42-.07-.96-.18-1.6-.32-1.92-.11-.21-.2-1.15-.27-2.82,0-1.06-.09-1.9-.27-2.5-.18-.6-.28-1.22-.32-1.86-.04-.64-.13-1.18-.29-1.62-.16-.44-.26-.84-.29-1.2-.07-.57-.12-.87-.16-.9-.07-.07-.11-.39-.11-.96,0-.53,.04-.83,.11-.91Z"/><path class="cls-2" d="M77.87,72.42c.14,0,.3-.97,.48-2.9,.18-1.93,.34-2.9,.48-2.9,.07,0,.12-.54,.16-1.62,.04-1.08,.08-2.21,.13-3.38s.13-1.83,.24-1.97c.14-.14,.27-1.48,.4-4.02,.12-2.54,.19-4.8,.19-6.79,0-1.88,.09-2.96,.27-3.25,.21-.32,.21-.5,0-.53-.14-.07-.22-.28-.24-.64-.02-.35,.04-.57,.19-.64,.14-.14,.21-.89,.21-2.24,0-1.42-.07-2.13-.21-2.13s-.21-.19-.21-.59c0-.35,.07-.53,.21-.53s.21-.19,.21-.59c0-.28,.03-.45,.08-.51s.24-.08,.56-.08c.46,0,.69,.11,.69,.32,0,.07,0,.21,.03,.43,.02,.21,.03,.39,.03,.53,0,2.24-.09,3.44-.27,3.62-.11,.11-.2,1.53-.27,4.26-.04,2.09-.15,4.55-.35,7.37-.2,2.82-.31,4.69-.35,5.62-.14,2.77-.27,4.52-.37,5.27-.07,.32-.11,.67-.11,1.06,0,.28,.07,.5,.21,.64,.21,.21,.18,.41-.11,.59-.43,.28-.64,1.54-.64,3.78v1.92c0,.75-.11,1.28-.32,1.6-.21,.28-.37,.42-.48,.4s-.3-.19-.59-.5c-.32-.32-.48-.73-.48-1.22,0-.25,.07-.37,.21-.37Z"/><path class="cls-2" d="M106.24,36.17h.16c.39,0,1.07,.12,2.05,.37,.98,.25,1.62,.37,1.94,.37,.28,0,.46,.04,.53,.11,.07,.07,.11,.27,.11,.59v.75l-1.38-.16c-.92-.07-1.46-.18-1.6-.32-.07-.03-.67-.11-1.81-.21-1.14-.11-1.74-.19-1.81-.27-.39-.35-2.66-.53-6.81-.53-3.12,0-4.7-.05-4.74-.16-.11-.18-3.12-.3-9.05-.37-1.03,0-1.54-.3-1.54-.9,0-.03,0-.09,.03-.16,.02-.07,.03-.12,.03-.16,.07-.46,.19-.69,.37-.69l2.34,.32c3.26,.43,7.58,.67,12.93,.75,3.55,.04,5.73,.21,6.55,.53,.32,.11,.89,.16,1.7,.16Z"/><path class="cls-2" d="M82.66,76.47c.25-.25,.66-.37,1.22-.37,.5,0,.94,.02,1.33,.05,1.45,.07,2.24,.16,2.34,.27,.21,.14,3.65,.21,10.33,.21h10.49c.21,0,.32,.3,.32,.91,0,.57-.12,.87-.37,.9-.07,.04-.21,.05-.43,.05-.67,0-1.08-.11-1.22-.32-.07-.07-.27-.05-.59,.05-.32,.14-.6,.14-.85,0-.25-.14-.83-.21-1.76-.21-.85,0-1.35,.07-1.49,.21-.14,.14-.3,.14-.48,0-.21-.18-2.45-.28-6.71-.32-4.44-.07-6.78-.12-7.03-.16-.64-.11-1.63-.16-2.98-.16-1.6-.04-2.41-.16-2.45-.37-.07-.21,.03-.46,.32-.75Z"/><path class="cls-2" d="M87.82,46.98c-.14,0-.28-.17-.43-.51-.14-.34-.27-.51-.37-.51-.18,0-.35-.12-.53-.37-.14-.25-.43-.37-.85-.37h-.59l.11,1.33v.48c0,.99-.39,1.49-1.17,1.49-.46,0-.69-.21-.69-.64,0-.32,.03-.59,.11-.8,.14-.57,.21-2.02,.21-4.36,0-1.74-.05-2.64-.16-2.71-.14-.14-.21-.27-.21-.37,0-.39,.27-.73,.8-1.01,.35-.18,.66-.27,.9-.27,.03,0,.19,.02,.48,.05,.28,.04,.57,.05,.85,.05,.71,0,1.22,.16,1.54,.48,.32,.32,.53,.48,.64,.48,.14,0,.21,.09,.21,.27,0,.21,.18,.44,.53,.69,.39,.32,.59,.71,.59,1.17,0,.53-.09,.82-.27,.85-.21,.07-.32,.18-.32,.32,0,.21-.28,.6-.85,1.17-.14,.14-.21,.27-.21,.37s.25,.48,.75,1.12c.6,.75,.98,1.4,1.12,1.97,.14,.6,.25,.92,.32,.96,.25,.11,.34,.5,.27,1.17,0,.18-.13,.32-.4,.43s-.56,.12-.88,.05c-.32-.11-.48-.35-.48-.75s-.12-.75-.37-1.06c-.25-.25-.37-.51-.37-.8,0-.25-.09-.37-.27-.37Z"/><path class="cls-4" d="M86.54,40.17c0-.11-.2-.16-.59-.16-.25,0-.4,.04-.45,.13-.05,.09-.12,.38-.19,.88-.04,.21-.05,.5-.05,.85,0,.67,.19,1.06,.59,1.17,.14,.04,.34,.05,.59,.05,.5,0,.82-.28,.96-.85,.11-.35,.16-.66,.16-.9,0-.46-.2-.75-.59-.85-.28-.07-.43-.18-.43-.32Z"/><path d="M95.77,52.18c0-.16,.03-.25,.1-.28,.07-.03,.21-.04,.43-.04h.09c.24,0,.37,.01,.4,.03,.03,.02,.04,.13,.04,.33,0,.24,.08,.41,.24,.51,.14,.1,.21,.2,.21,.3,0,.14,.08,.27,.24,.39,.32,.34,.53,.7,.63,1.07,.12,.34,.2,.51,.24,.51,.02,0,.07,.11,.16,.33,.09,.22,.15,.34,.19,.36,.1,.04,.15,.13,.15,.27,0,.1,.06,.23,.18,.39,.12,.14,.18,.75,.18,1.82,0,.84-.05,1.37-.15,1.61-.18,.36-.77,.63-1.76,.81-.38,.06-.6,.17-.67,.34-.07,.17-.11,.67-.13,1.51-.04,1.06-.07,1.61-.09,1.67-.02,.1-.13,.16-.33,.19-.2,.03-.33,0-.39-.1-.04-.08-.41-.14-1.1-.18-.7-.06-1.09-.17-1.19-.33-.06-.08-.09-.15-.09-.21,0-.08,.09-.3,.27-.66,.22-.4,.33-.7,.33-.9s.05-.35,.15-.45c.2-.2,.3-.5,.3-.9,0-.12-.03-.21-.09-.27-.12-.1-.4-.15-.84-.15h-.42c-.28,.02-.48-.08-.6-.3-.14-.22-.23-.33-.27-.33-.06,0-.09-.08-.09-.24,0-.18-.05-.34-.15-.48-.12-.16-.18-.38-.18-.66,0-.16,.03-.24,.09-.24,.08,0,.14-.12,.18-.36,.02-.12,.09-.28,.21-.49s.18-.39,.18-.55c0-.12,.06-.22,.18-.31s.19-.18,.21-.28c.04-.16,.22-.42,.54-.78,.32-.32,.48-.52,.48-.6,0-.06,.06-.11,.18-.15,.14-.04,.29-.18,.45-.42,.24-.34,.46-.62,.66-.84,.3-.34,.45-.55,.45-.63s.04-.12,.12-.12c.06,0,.09-.07,.09-.21Z"/><path class="cls-2" d="M102.09,64.28c.07-.25,.16-.37,.27-.37,.25,0,.53,.18,.85,.53,.32,.35,.57,.73,.75,1.12,.28,.6,.46,.91,.53,.91,.11,0,.19,.16,.27,.48,.14,.6,.35,.58,.64-.05,.03-.11,.07-.21,.11-.32,.11-.39,.32-.78,.64-1.17,.32-.32,.51-.64,.59-.96,.07-.35,.25-.53,.53-.53,.32,0,.54,.1,.67,.29,.12,.2,.19,.61,.19,1.25s-.02,1.19-.05,1.65c-.07,1.67-.18,2.54-.32,2.61-.21,.14-.32,.75-.32,1.81,0,.35,.04,.67,.11,.96,.07,.21,.11,.53,.11,.96,0,.85-.16,1.28-.48,1.28-.25,0-.41,.07-.48,.21-.14,.14-.69,.21-1.65,.21s-1.54-.07-1.76-.21l-.32-.27c-.25-.18-.44-.3-.59-.37-.53-.39-.8-.8-.8-1.22,0-.18,.07-.27,.21-.27s.21-.27,.21-.8c0-.43,.04-.71,.13-.85,.09-.14,.38-.35,.88-.64,.71-.43,1.06-.82,1.06-1.17,0-.28-.23-.53-.69-.75-.32-.18-.5-.53-.53-1.06-.07-.53-.2-.89-.37-1.06-.28-.28-.43-.83-.43-1.65,0-.28,.02-.46,.05-.53Z"/><path class="cls-4" d="M104.96,72.53c-.14-.46-.3-.69-.48-.69s-.39,.13-.64,.4c-.25,.27-.37,.49-.37,.67s.14,.31,.43,.4c.28,.09,.57,.1,.85,.03,.21-.04,.33-.1,.35-.19,.02-.09-.03-.29-.13-.61Z"/><path class="cls-2" d="M111.56,42.35c.07-2.06,.32-3.09,.75-3.09,.07,0,.23,.09,.48,.27,.18,.18,.27,.46,.27,.85,0,.32-.02,.6-.05,.85-.07,.96-.16,1.49-.27,1.6-.11,.25-.2,1.51-.27,3.78-.04,2.34-.16,3.71-.37,4.1-.18,.35-.27,1.49-.27,3.41-.07,2.45-.18,4.17-.32,5.16-.11,.96-.16,1.83-.16,2.61v.48c.07,.53,.03,.98-.11,1.33-.14,.32-.25,1.99-.32,5-.04,2.38-.1,3.81-.19,4.31-.09,.5-.36,.75-.83,.75-.18,0-.3-.03-.37-.08-.07-.05-.11-.22-.11-.5,0-.04,.04-.55,.11-1.54,.07-1.28,.11-2.57,.11-3.89,0-1.42,.07-2.15,.21-2.18,.14-.07,.21-.44,.21-1.12,0-.78,.08-2.28,.24-4.5,.16-2.22,.24-3.36,.24-3.43,.07-1.17,.16-1.88,.27-2.13,.03-.11,.1-.88,.19-2.32,.09-1.44,.17-2.9,.24-4.39,.07-1.49,.11-2.29,.11-2.4,.07-.57,.14-1.54,.21-2.93Z"/><path class="cls-2" d="M137,30.05c0-.14,.27-.27,.8-.37,.53-.11,.96-.16,1.28-.16,.43,0,.64,.11,.64,.32,0,.14,.02,.28,.05,.43,.03,.14,.05,.23,.05,.27,0,.18-.32,.34-.96,.48-.71,.18-1.06,.32-1.06,.43s-.25,.16-.75,.16c-.53,0-.85,.09-.96,.27-.04,.04-.31,.12-.82,.27-.51,.14-1.02,.28-1.52,.4-.5,.12-.75,.2-.75,.24,0,.11-.11,.16-.32,.16-.18,0-.59,.13-1.25,.4-.66,.27-1.07,.42-1.25,.45-.43,.07-.64,.18-.64,.32,0,.11-.26,.21-.77,.32-.51,.11-.77,.2-.77,.27,0,.04-.3,.16-.91,.37-.67,.21-1.03,.39-1.06,.53-.04,.14-.25,.21-.64,.21-.32,0-.48,.05-.48,.16,0,.04-.28,.16-.85,.37-.57,.21-.85,.35-.85,.43,0,.11-.23,.21-.69,.32-.46,.11-.69,.2-.69,.27s-.32,.21-.96,.43-.96,.34-.96,.37-.36,.16-1.06,.37c-.71,.21-1.06,.34-1.06,.37,0,.07-.19,.16-.56,.27-.37,.11-.56,.21-.56,.32,0,.04-.2,.12-.61,.24-.41,.12-.83,.25-1.28,.37-.44,.12-.68,.19-.72,.19-.14,.07-.25,.11-.32,.11-.35,0-.55-.62-.59-1.86l-.05-1.44,.64-.05c.28-.03,.45-.03,.51,.03s.08,.28,.08,.67c0,.53,.05,.8,.16,.8s.45-.13,1.04-.4,.95-.4,1.09-.4c.39,0,.78-.11,1.17-.32,.89-.46,1.7-.8,2.45-1.01,.28-.07,.57-.19,.85-.35,.28-.16,.62-.26,1.01-.29,.46-.07,.69-.18,.69-.32,0-.07,.31-.25,.93-.53,.62-.28,1.02-.43,1.2-.43s.77-.23,1.78-.69c1.01-.46,1.57-.71,1.68-.75,.14-.04,.69-.25,1.65-.64,1.45-.67,2.71-1.14,3.78-1.38,.75-.21,1.12-.34,1.12-.37,0-.07,.35-.17,1.04-.29,.69-.12,1.04-.22,1.04-.29Z"/><path class="cls-2" d="M115.71,49.27c-.07,0-.2-.26-.37-.77-.18-.51-.3-.77-.37-.77-.04,0-.12-.2-.24-.61-.12-.41-.26-.82-.4-1.22-.14-.41-.23-.63-.27-.67-.18-.11-.27-.28-.27-.53,0-.18-.11-.41-.32-.69-.21-.28-.32-.76-.32-1.44,0-.35,.05-.57,.16-.64,.11-.11,.21-.16,.32-.16,.25,0,.5,.18,.75,.53,.25,.35,.37,.73,.37,1.12,0,.32,.05,.48,.16,.48s.25,.35,.43,1.06c.18,.71,.3,1.06,.37,1.06,.11,0,.16,.18,.16,.53s.09,.66,.27,.9c.14,.18,.32,.6,.53,1.28,.14,.6,.27,.9,.37,.9s.27,.23,.48,.69c.21,.46,.37,.94,.48,1.44,.07,.35,.19,.66,.35,.9,.16,.25,.27,.57,.35,.96,.07,.53,.19,.8,.37,.8s.27,.16,.27,.48c0,.25,.11,.52,.32,.83,.21,.3,.34,.58,.37,.82,.07,.43,.21,.75,.43,.96,.18,.18,.27,.39,.27,.64,0,.32,.12,.73,.37,1.22,.25,.5,.37,.8,.37,.9s.09,.25,.27,.43c.21,.21,.32,.46,.32,.75,0,.18,.12,.57,.37,1.17,.25,.6,.37,.99,.37,1.17,0,.14,.1,.38,.29,.72,.19,.34,.29,.58,.29,.72,0,.21,.11,.43,.32,.64,.07,.07,.17,.37,.29,.9,.12,.53,.24,.85,.35,.96,.11,.07,.33,.48,.67,1.22,.34,.75,.51,1.19,.51,1.33,0,.21,.05,.32,.16,.32,.07,0,.21,.38,.43,1.14s.34,1.14,.37,1.14c.07,0,.19,.29,.37,.88,.18,.59,.32,.88,.43,.88,.28,0,.28,.16,0,.48l-.32,.27c-.28,.14-.53,.18-.75,.11-.21-.07-.32-.23-.32-.48,0-.21-.07-.41-.21-.58-.14-.18-.23-.37-.27-.59-.07-.39-.16-.58-.27-.58s-.29-.45-.56-1.36c-.27-.91-.4-1.43-.4-1.57,0-.28-.09-.6-.27-.96-.46-1.06-.69-1.81-.69-2.24,0-.11-.14-.34-.43-.69-.14-.18-.29-.43-.45-.75-.16-.32-.32-.68-.48-1.09-.16-.41-.27-.7-.35-.88-.18-.35-.27-.66-.27-.9,0-.21-.05-.32-.16-.32-.14,0-.21-.16-.21-.48,0-.25-.06-.45-.19-.61-.12-.16-.19-.35-.19-.56,0-.32-.05-.48-.16-.48s-.21-.28-.32-.85c-.11-.57-.2-.85-.27-.85-.11,0-.23-.24-.37-.72-.14-.48-.25-.74-.32-.77-.07-.03-.18-.25-.32-.64-.14-.39-.27-.59-.37-.59s-.2-.25-.27-.75c-.07-.5-.21-.85-.43-1.06-.18-.18-.27-.35-.27-.53s-.09-.41-.27-.69c-.21-.28-.35-.75-.43-1.38-.07-.64-.2-.99-.37-1.06-.07-.04-.19-.25-.35-.64-.16-.39-.26-.59-.29-.59Z"/><path class="cls-2" d="M121.83,47.35c0,.07-.19,.2-.56,.37-.37,.18-.56,.32-.56,.43,0,.18-.05,.2-.16,.05-.04-.14-.21-.25-.53-.32-.18-.03-.36-.31-.56-.82-.2-.51-.36-.81-.51-.88-.25-.14-.37-.3-.37-.48s-.05-.27-.16-.27c-.14,0-.25-.27-.32-.8-.04-.35-.17-.64-.4-.85-.23-.21-.36-.48-.4-.8-.07-.43-.16-.64-.27-.64-.14,0-.21-.07-.21-.21,0-.32,.27-.75,.8-1.28,.57-.5,1.29-.83,2.18-1.01,.92-.14,1.47-.27,1.65-.37,.32-.18,.55-.18,.69,0,.04,.11,.23,.16,.59,.16,.28,0,.69,.3,1.22,.9l.8,.96c0,.35-.02,.9-.05,1.62-.04,.73-.05,1.27-.05,1.62l-1.22,1.22c-.71,.78-1.17,1.17-1.38,1.17-.14,0-.21,.07-.21,.21Z"/><path class="cls-4" d="M123.48,43.09c0-.6-.18-1.1-.53-1.49-.35-.39-.82-.59-1.38-.59-.46,.04-.95,.12-1.46,.24-.51,.12-.77,.24-.77,.35s-.09,.16-.27,.16c-.21,0-.32,.23-.32,.69,0,.43,.11,.64,.32,.64,.18,0,.27,.14,.27,.43,0,.25,.09,.41,.27,.48,.21,.07,.35,.3,.43,.69,.07,.35,.16,.53,.27,.53s.19,.16,.27,.48c.07,.32,.23,.5,.48,.53,.11-.07,.18-.14,.21-.21,0-.14,.07-.21,.21-.21s.51-.3,1.12-.9c.43-.43,.68-.73,.77-.9,.09-.18,.13-.48,.13-.9Z"/><path class="cls-2" d="M151.9,66.35c.21,0,.32-.05,.32-.16s.19-.21,.56-.32c.37-.11,.56-.23,.56-.37,0-.28,.16-.3,.48-.05,.21,.18,.35,.36,.43,.53,.21,.71,.11,1.14-.32,1.28-.25,.07-.37,.16-.37,.27s-.32,.2-.96,.27c-.6,.07-1.05,.21-1.33,.43-.18,.18-.39,.27-.64,.27-.21,0-.41,.09-.59,.27-.04,.04-.23,.12-.59,.27-.35,.14-.69,.28-1.01,.4-.32,.12-.48,.21-.48,.24,0,.07-.06,.14-.19,.21-.12,.07-.28,.13-.45,.19-.18,.05-.28,.1-.32,.13-.18,.14-.54,.35-1.09,.61-.55,.27-.91,.45-1.09,.56-.39,.25-.69,.37-.9,.37-.18,0-.44,.09-.8,.27-.35,.18-.53,.3-.53,.37,0,.11-.25,.19-.75,.27-.53,.07-.89,.19-1.06,.37-.18,.18-.32,.27-.43,.27s-.51,.18-1.22,.53c-.71,.35-1.1,.58-1.17,.69-.11,.14-.35,.29-.72,.45-.37,.16-.68,.24-.93,.24-.28,0-.46,.07-.53,.21-.07,.14-.39,.21-.96,.21-.6,0-.92,.09-.96,.27-.07,.18-.23,.27-.48,.27s-.37,.07-.37,.21c0,.11-.28,.19-.85,.27-.35,.04-.77,.2-1.25,.48-.48,.28-.95,.43-1.41,.43-.43,0-.68-.03-.77-.08-.09-.05-.13-.19-.13-.4,0-.71,.32-1.06,.96-1.06,.21,0,.43-.05,.64-.16l.64-.16c.39-.14,.78-.28,1.17-.4,.39-.12,.59-.2,.59-.24,0-.11,.28-.2,.85-.27,.5-.07,.78-.18,.85-.32,0-.04,.19-.12,.56-.24s.74-.24,1.09-.35l.53-.21s.11-.09,.32-.16c.21-.07,.43-.16,.64-.27l.37-.11c.07-.11,.26-.23,.56-.37,.3-.14,.52-.21,.67-.21,.21,0,.32-.05,.32-.16s.38-.33,1.14-.67c.76-.34,1.27-.51,1.52-.51,.28,0,.43-.07,.43-.21s.21-.27,.64-.37c.25-.11,.63-.32,1.14-.64,.51-.32,1-.55,1.46-.69,.82-.25,1.31-.43,1.49-.53,.28-.18,.55-.27,.8-.27,.14,0,.21-.05,.21-.16,0-.04,.22-.17,.67-.4,.44-.23,.67-.36,.67-.4,0-.07,.06-.13,.19-.19,.12-.05,.27-.12,.45-.19,.18-.07,.28-.12,.32-.16,.75-.43,1.22-.64,1.44-.64Z"/><path class="cls-3" d="M132.95,54.76s-.1-.1-.29-.16-.29-.13-.29-.19-.05-.1-.16-.1-.16-.18-.16-.55c0-.97,.08-1.58,.23-1.81,.11-.13,.1-.22-.03-.26-.11-.02-.11-.14,0-.36,.09-.22,.13-.53,.13-.94,0-.56,.06-1.24,.18-2.04,.12-.8,.22-1.24,.31-1.33,.19-.22,.31-.25,.36-.1,0,.09,.06,.15,.19,.19,.04,.02,.17,.11,.39,.26,.35,.32,.57,.49,.68,.49,.09,0,.13,.04,.13,.13,0,.06,.06,.1,.19,.1,.06,0,.21,.1,.44,.29s.36,.29,.4,.29,.17,.1,.37,.29c.2,.19,.34,.29,.4,.29,.11,0,.16,.05,.16,.16,0,.13,.16,.35,.49,.66,.32,.31,.55,.47,.68,.47,.09,0,.15,.02,.18,.05s.05,.14,.05,.31c0,.02-.02,.38-.06,1.07-.02,.67-.08,1.23-.16,1.68-.09,.45-.14,1.1-.16,1.94-.02,1.25-.11,1.94-.26,2.07-.15,.11-.25,.24-.29,.39-.06,.13-.18,.19-.36,.19-.3,0-.45-.1-.45-.29,0-.11-.03-.16-.1-.16-.04,0-.18-.17-.42-.52-.15-.26-.42-.57-.79-.94-.38-.37-.61-.55-.7-.55-.06,0-.1-.05-.1-.16s-.05-.16-.16-.16c-.13,0-.22-.05-.26-.16-.04-.15-.17-.26-.39-.32-.24-.11-.36-.18-.36-.23Z"/><path class="cls-2" d="M146.64,44.11c0-.14-.1-.43-.29-.85-.2-.43-.29-.67-.29-.75,0-.18-.09-.44-.27-.8-.11-.21-.32-.89-.64-2.02-.32-1.14-.59-1.79-.8-1.97-.07-.07-.2-.44-.37-1.12-.21-.78-.46-1.45-.75-2.02-.28-.57-.43-.96-.43-1.17,0-.14-.09-.38-.27-.72-.18-.34-.3-.51-.37-.51-.11,0-.16-.19-.16-.59,0-.35,.16-.62,.48-.8,.25-.11,.46-.16,.64-.16,.35,0,.62,.57,.8,1.7,.21,.89,.35,1.35,.43,1.38,.14,.07,.25,.37,.32,.9,.07,.53,.14,.8,.21,.8,.14,0,.25,.23,.32,.69,.07,.5,.23,.96,.48,1.38,.25,.43,.37,.78,.37,1.06,0,.21,.05,.32,.16,.32,.07,0,.21,.36,.43,1.06,.21,.71,.35,1.06,.43,1.06,.11,0,.16,.11,.16,.32,0,.25,.09,.51,.27,.8,.07,.11,.2,.59,.4,1.44,.19,.85,.35,1.33,.45,1.44,.11,.07,.21,.3,.32,.69,.11,.39,.21,.62,.32,.69,.11,.07,.19,.43,.27,1.06,.03,.43,.16,.82,.37,1.17,.21,.35,.34,.69,.37,1.01,.07,.46,.19,.87,.37,1.22,.21,.35,.32,.64,.32,.85,0,.14,.12,.41,.37,.8,.25,.39,.37,.67,.37,.85s.1,.44,.29,.8c.19,.35,.29,.64,.29,.85,0,.18,.12,.57,.37,1.17,.25,.6,.37,.98,.37,1.12s.13,.51,.4,1.09,.4,.97,.4,1.14c0,.28,.09,.51,.27,.69,.21,.21,.32,.37,.32,.48,0,.21,.09,.35,.27,.43,.18,.07,.3,.3,.37,.69,.07,.5,.21,.98,.43,1.44,.14,.32,.21,.62,.21,.9,0,.32-.21,.48-.64,.48-.39,0-.69-.25-.9-.75-.21-.35-.32-.69-.32-1.01,0-.18-.09-.39-.27-.64-.18-.25-.3-.59-.37-1.01-.04-.14-.2-.53-.48-1.17-.28-.64-.43-1.08-.43-1.33,0-.28-.05-.43-.16-.43-.14,0-.25-.28-.32-.85-.07-.5-.21-.89-.43-1.17-.18-.25-.27-.5-.27-.75,0-.21-.09-.41-.27-.59-.11-.11-.25-.52-.43-1.25-.18-.73-.32-1.14-.43-1.25-.04-.04-.11-.21-.21-.53s-.21-.62-.32-.9c-.11-.28-.2-.43-.27-.43s-.16-.26-.27-.77c-.11-.51-.21-.77-.32-.77-.04,0-.1-.15-.19-.45-.09-.3-.18-.62-.27-.96-.09-.34-.15-.54-.19-.61-.25-.46-.39-.87-.43-1.22-.07-.46-.2-.82-.37-1.06-.18-.25-.27-.46-.27-.64Z"/><path class="cls-2" d="M147.54,56.77c.28-.25,.69-.37,1.22-.37,.39,0,.62,.11,.69,.32,.03,.11,.19,.32,.45,.64s.4,.55,.4,.69c0,.18,.05,.27,.16,.27,.14,0,.25,.3,.32,.9,.04,.43,.16,.83,.37,1.22,.21,.39,.34,.78,.37,1.17,.07,.6,.18,.9,.32,.9,.11,0,.16,.09,.16,.27s.12,.43,.37,.75c.25,.28,.37,.53,.37,.75,0,.25-.2,.57-.59,.96-.39,.39-.64,.69-.75,.9-.07,.14-.35,.25-.85,.32-1.21,.14-1.81,.3-1.81,.48,0,.11-.37,.16-1.12,.16-1.06,0-1.79-.07-2.18-.21-.99-.32-1.54-1.08-1.65-2.29v-.43c0-.6,.06-1.29,.19-2.05,.12-.76,.24-1.14,.35-1.14s.16-.19,.16-.59,.11-.62,.32-.69c.18-.07,.27-.23,.27-.48,0-.14,.27-.52,.8-1.14,.53-.62,.87-.93,1.01-.93,.11,0,.32-.12,.64-.37Z"/><path class="cls-4" d="M148.76,59.86c0-.25-.11-.48-.32-.69s-.39-.3-.53-.27c-.14,.04-.39,.25-.75,.64-.75,.78-1.12,1.28-1.12,1.49,0,.18-.09,.39-.27,.64-.18,.28-.27,.76-.27,1.44,0,.5,.05,.78,.16,.85,.14,.07,.21,.27,.21,.59,0,.43,.44,.64,1.33,.64,.28,0,.58-.03,.88-.08,.3-.05,.55-.11,.75-.16,.19-.05,.29-.1,.29-.13,0-.07,.14-.14,.43-.21,.18-.03,.29-.11,.35-.21s.06-.39,.03-.85c-.07-.71-.21-1.28-.43-1.7-.25-.5-.37-.89-.37-1.17s-.07-.43-.21-.43c-.11,0-.16-.12-.16-.37Z"/><path class="cls-2" d="M274.6,33.53c.11-.32,.21-.48,.32-.48s.24-.29,.4-.88c.16-.58,.27-.88,.35-.88,.11,0,.16-.09,.16-.27s.25-.34,.75-.48l.32,.11c.21,.11,.32,.35,.32,.75s-.11,.64-.32,.75c-.18,.07-.27,.21-.27,.43,0,.18-.09,.27-.27,.27-.14,0-.28,.23-.4,.69-.12,.46-.24,.69-.35,.69s-.16,.11-.16,.32c0,.14-.12,.43-.37,.85s-.37,.73-.37,.9c0,.25-.09,.41-.27,.48-.14,.04-.28,.3-.43,.8-.14,.5-.28,.76-.43,.8-.18,.07-.27,.2-.27,.37s-.07,.34-.21,.48c-.07,.07-.22,.38-.45,.93-.23,.55-.4,.84-.51,.88s-.16,.2-.16,.48-.12,.48-.37,.59c-.25,.14-.41,.41-.48,.8-.07,.36-.27,.71-.58,1.07-.21,.21-.43,.66-.64,1.33-.14,.53-.46,1.1-.96,1.7-.04,.04-.12,.21-.24,.51-.12,.3-.25,.6-.37,.9-.12,.3-.21,.45-.24,.45-.07,0-.16,.16-.27,.48s-.2,.48-.27,.48c-.11,0-.21,.22-.32,.67-.11,.44-.23,.67-.37,.67-.21,0-.36,.18-.43,.53-.11,.5-.35,1.06-.72,1.68-.37,.62-.59,1.11-.67,1.46-.14,.53-.27,.8-.37,.8-.14,0-.25,.2-.32,.58-.07,.43-.23,.73-.48,.91-.25,.18-.37,.37-.37,.58,0,.18-.1,.34-.29,.48-.2,.14-.29,.32-.29,.53,0,.25-.11,.37-.32,.37-.18,0-.27,.18-.27,.53,0,.25-.13,.62-.4,1.12-.27,.5-.4,.83-.4,1.01,0,.29-.05,.43-.16,.43-.14,0-.21-.66-.21-1.97,0-1.03,.05-1.56,.16-1.6,.14-.07,.25-.27,.32-.59,.07-.35,.23-.66,.48-.9s.37-.5,.37-.75c0-.14,.1-.28,.29-.43,.19-.14,.29-.28,.29-.43,0-.21,.07-.32,.21-.32,.11,0,.26-.26,.45-.77,.19-.51,.31-.77,.35-.77,.07,0,.27-.33,.61-.98,.34-.66,.5-1.07,.5-1.25s.07-.27,.21-.27c.11,0,.16-.12,.16-.37,0-.5,.25-.99,.75-1.49,.18-.18,.27-.35,.27-.53,0-.14,.19-.44,.58-.91,.39-.46,.62-.85,.69-1.17,.03-.21,.15-.43,.35-.64,.19-.21,.31-.48,.35-.8,.07-.46,.21-.8,.43-1.01,.18-.18,.27-.34,.27-.48,0-.18,.11-.3,.32-.37,.18-.07,.27-.27,.27-.59,0-.21,.1-.46,.29-.75,.19-.28,.29-.51,.29-.69s.13-.37,.4-.59c.27-.21,.4-.41,.4-.58s.12-.46,.37-.85c.25-.39,.37-.66,.37-.8,0-.18,.05-.27,.16-.27s.19-.2,.27-.59c.07-.35,.2-.62,.37-.8,.32-.32,.69-1.06,1.12-2.24,.21-.43,.35-.64,.43-.64s.16-.16,.27-.48Z"/><path class="cls-2" d="M263.74,68.79c-.28-.19-.51-.29-.69-.29s-.46-.12-.85-.37c-.39-.25-.64-.37-.75-.37-.18,0-.27-.27-.27-.8,0-.5,.05-.75,.16-.75,.18,0,.48,.09,.9,.27,.43,.18,.66,.32,.69,.43,.07,.18,.28,.3,.64,.37,.14,.04,.64,.28,1.49,.75s1.37,.69,1.54,.69c.25,0,.37,.05,.37,.16,0,.14,.25,.21,.75,.21,.5,.07,.75,.14,.75,.21,.07,.14,.18,.21,.32,.21,.11,0,.62,.23,1.54,.69,.89,.43,1.68,.71,2.39,.85,.71,.07,1.1,.18,1.17,.32,.07,.14,.3,.25,.69,.32,.07,0,.21,.06,.43,.19,.21,.12,.42,.24,.61,.35,.19,.11,.31,.14,.35,.11h.05c.18,0,.56,.16,1.14,.48,.59,.32,.93,.55,1.04,.69,.04,.14,.3,.21,.8,.21,.28,0,.64,.13,1.06,.4,.43,.27,.8,.4,1.12,.4,.43,0,.64,.05,.64,.16,0,.14,.2,.21,.59,.21,.43,0,.85,.12,1.28,.37,.57,.28,.89,.43,.96,.43,.18,0,.3,.09,.37,.27,.07,.18,.3,.27,.69,.27,.35,0,.59,.12,.69,.37,.11,.21,.13,.46,.08,.75-.05,.28-.15,.43-.29,.43-.25,0-.66-.09-1.22-.27-.57-.18-.92-.32-1.06-.43-.18-.18-.37-.27-.59-.27-.11,0-.43-.12-.96-.37s-.85-.37-.96-.37c-.25,0-.37-.07-.37-.21,0-.11-.21-.16-.64-.16-.46,0-.73-.07-.8-.21s-.53-.37-1.38-.69c-.82-.32-1.33-.59-1.54-.8-.18-.25-.52-.37-1.01-.37-.39,0-.71-.08-.96-.24-.25-.16-.46-.26-.64-.29-.36-.07-.53-.18-.53-.32,0-.07-.19-.17-.56-.29-.37-.12-.77-.24-1.2-.35-.43-.11-.66-.18-.69-.21-.43-.21-.71-.32-.85-.32-.18,0-.32-.09-.43-.27-.21-.21-.57-.35-1.06-.43-.53-.07-.8-.16-.8-.27s-.11-.16-.32-.16c-.18,0-.3-.11-.37-.32-.07-.18-.41-.3-1.01-.37-.57-.07-.96-.21-1.17-.43-.18-.18-.39-.27-.64-.27-.18,0-.41-.1-.69-.29Z"/><path class="cls-2" d="M277.74,34.7c.11-.04,.43-.16,.98-.37,.55-.21,.93-.32,1.14-.32,.32,0,.75,.07,1.3,.21,.55,.14,.83,.27,.83,.37s.07,.16,.21,.16c.18,0,.35,.14,.53,.43,.18,.28,.27,.58,.27,.9,0,.82-.2,1.22-.58,1.22-.25,0-.51-.16-.77-.48-.27-.32-.4-.6-.4-.85,0-.21-.04-.34-.13-.37-.09-.04-.33-.05-.72-.05-.6,0-.99,.14-1.17,.43-.39,.53-.43,.83-.11,.91,.11,0,.27,.09,.48,.27,.21,.18,.32,.32,.32,.43,0,.04,.16,.21,.48,.53s.48,.66,.48,1.01c0,.32,.05,.48,.16,.48,.14,0,.21,.25,.21,.75,0,.53-.09,1.01-.27,1.44-.43,.99-1.14,1.49-2.13,1.49-.46,0-.69-.07-.69-.21,0-.11-.29-.16-.85-.16s-.94-.09-1.12-.27c-.18-.18-.37-.3-.58-.37-.29-.11-.43-.58-.43-1.44,0-1.1,.18-1.77,.53-2.02,.21-.07,.43-.11,.64-.11,.25,.04,.39,.48,.43,1.33,.03,.75,.13,1.18,.29,1.3,.16,.12,.67,.19,1.52,.19h.9v-.75c0-.46-.09-.78-.27-.96-.21-.21-.32-.41-.32-.58,0-.25-.25-.53-.75-.85-.36-.25-.57-.45-.64-.61-.07-.16-.12-.49-.16-.98,0-.11,0-.26-.03-.45-.02-.19-.03-.33-.03-.4,0-.71,.14-1.12,.43-1.22Z"/><path class="cls-1" d="M284.38,56.81c-.09,0-.18,.06-.26,.17-.08,.12-.18,.17-.29,.17-.16,0-.24,.05-.24,.14s-.07,.2-.22,.33c-.15,.13-.28,.19-.4,.19-.14,0-.25,.12-.34,.34-.11,.25-.39,.47-.82,.65-.46,.21-.69,.33-.69,.38,0,.07-.08,.1-.24,.1-.18,0-.27-.05-.27-.14,0-.07-.12-.1-.34-.1-.16,0-.27-.03-.33-.09-.06-.06-.1-.22-.12-.5v-.27c0-.16,.03-.31,.1-.45s.11-.31,.14-.52c.02-.23,.11-.53,.27-.89,.09-.18,.14-.52,.14-1,0-.41-.01-.76-.03-1.03-.05-1.08-.11-1.64-.21-1.68-.07-.05-.1-.15-.09-.31,.01-.16,.05-.24,.12-.24s.1-.08,.1-.24c0-.18,.15-.37,.45-.55,.3-.21,.45-.34,.45-.41s.12-.24,.36-.52c.24-.27,.38-.41,.43-.41,.09,0,.41-.27,.96-.82,.32-.32,.62-.55,.89-.69,.3-.16,.45-.27,.45-.34,0-.02,.17-.1,.52-.24,.16-.05,.38-.2,.67-.46,.29-.26,.54-.4,.77-.4,.14,0,.29,.03,.45,.1,.39,.18,.58,.77,.58,1.75,0,.48,.03,.72,.1,.72,.09,0,.14,.29,.14,.86,0,.39-.03,.65-.1,.79-.11,.32-.18,.92-.21,1.79-.02,.76-.06,1.23-.1,1.43-.05,.19-.15,.37-.31,.53-.18,.23-.34,.34-.48,.34-.05,0-.1,.03-.17,.1-.02,.07-.17,.19-.45,.38s-.45,.27-.52,.27c-.05,0-.19,.13-.43,.38-.24,.25-.38,.38-.43,.38Z"/><path class="cls-2" d="M282.79,32.46c0-.07-.39-.21-1.17-.43s-1.17-.34-1.17-.37c0-.07-.27-.14-.8-.21-.53-.03-.85-.23-.96-.58-.14-.39-.04-.75,.32-1.06,.25-.21,.44-.32,.58-.32,.07,0,.21,.08,.43,.24,.21,.16,.43,.24,.64,.24,.25,0,.41,.09,.48,.27,.07,.18,.35,.3,.85,.37,.46,.07,.8,.25,1.01,.53,.25,.25,.5,.37,.75,.37,.28,0,.51,.09,.69,.27,.14,.14,.59,.29,1.36,.43,.76,.14,1.23,.27,1.41,.37,.28,.18,.53,.27,.75,.27,.14,0,.21,.05,.21,.16,0,.07,.26,.18,.77,.32,.51,.14,.77,.25,.77,.32,0,.11,.12,.16,.37,.16,.18,0,.44,.11,.8,.32,.43,.32,.98,.64,1.68,.96,.69,.32,1.14,.48,1.36,.48,.25,0,.59,.11,1.04,.32s.72,.41,.83,.59c.07,.14,.3,.25,.69,.32,.28,.04,.55,.18,.8,.43,.11,.18,.25,.27,.43,.27,.11,0,.35,.13,.72,.4,.37,.27,.63,.4,.77,.4,.21,0,.44,.12,.69,.37,.18,.21,.51,.45,.98,.72,.48,.27,.83,.4,1.04,.4h.11c.18-.11,.34-.08,.48,.08,.14,.16,.21,.4,.21,.72,.04,.46-.11,.71-.43,.75-.78,.11-1.24-.07-1.38-.53-.04-.21-.34-.41-.9-.58-.53-.21-.8-.34-.8-.37,0-.03-.27-.16-.8-.37-.57-.21-.87-.39-.91-.53-.07-.18-.21-.27-.43-.27-.25,0-.37-.07-.37-.21,0-.11-.24-.23-.72-.37-.48-.14-.74-.25-.77-.32-.07-.18-.21-.27-.43-.27-.14,0-.41-.12-.8-.37-.39-.25-.64-.37-.75-.37-.18,0-.34-.1-.48-.29-.14-.19-.3-.29-.48-.29-.25,0-.46-.09-.64-.27-.14-.14-.62-.32-1.44-.53-.82-.18-1.22-.3-1.22-.37,0-.11-.26-.28-.77-.53-.51-.25-.98-.43-1.41-.53-.39-.07-.67-.19-.85-.37-.18-.18-.43-.23-.75-.16-.32,.07-.48,.04-.48-.11,0-.07-.32-.21-.96-.43s-.96-.34-.96-.37Z"/><path class="cls-2" d="M286.46,68.5c.18,0,.33,.17,.45,.51,.12,.34,.26,.51,.4,.51,.18,0,.27,.25,.27,.75s-.11,.94-.32,1.33c-.25,.39-.92,.89-2.02,1.49-.21,.11-.32,.21-.32,.32s-.3,.16-.91,.16c-.57,0-.85-.07-.85-.21s-.14-.21-.43-.21-.5-.04-.64-.11c-.43-.32-.64-.82-.64-1.49,0-.32-.07-.48-.21-.48s-.21-.12-.21-.37c0-.5,.16-.89,.48-1.17,.21-.21,.41-.32,.59-.32,.25,0,.39,.28,.43,.85,0,.28,.11,.67,.32,1.17,.18,.28,.31,.45,.4,.51,.09,.05,.27,.04,.56-.03,.5-.07,.87-.11,1.12-.11,.35,0,.64-.19,.85-.58,.21-.43,.21-.69,0-.8-.29-.14-.71-.5-1.28-1.06-.64-.6-.96-1.06-.96-1.38,0-.25-.09-.48-.27-.69-.18-.21-.27-.41-.27-.59,0-.04,0-.09,.03-.16,.02-.07,.03-.12,.03-.16,.07-.46,.18-.69,.32-.69,.11,0,.16-.12,.16-.37s.26-.67,.77-1.25c.51-.58,.91-.88,1.2-.88,.14,0,.23,.05,.27,.16,.07,.14,.37,.21,.9,.21,.71,0,1.46,.39,2.24,1.17,.89,.89,1.33,1.46,1.33,1.7,0,.14-.05,.34-.16,.58-.18,.5-.35,.75-.53,.75-.21,0-.39,.07-.53,.21-.18,.18-.36,.2-.56,.05-.2-.14-.29-.39-.29-.75,0-.43-.05-.64-.16-.64-.14,0-.21-.14-.21-.43,0-.18-.1-.33-.29-.45-.2-.12-.29-.26-.29-.4,0-.21-.23-.32-.69-.32-.64,0-1.14,.18-1.49,.53-.36,.35-.53,.78-.53,1.28,0,.21,.07,.32,.21,.32s.21,.11,.21,.32c0,.14,.1,.28,.29,.4s.29,.24,.29,.35c0,.32,.32,.48,.96,.48Z"/><path class="cls-2" d="M294.56,61.42c0-.14,.12-.4,.37-.77,.25-.37,.37-.65,.37-.83,0-.25,.09-.41,.27-.48,.11-.04,.23-.35,.37-.93,.14-.59,.28-.9,.43-.93,.21-.07,.32-.21,.32-.43s.05-.32,.16-.32,.21-.14,.32-.43c.53-1.1,.89-1.65,1.06-1.65,.11,0,.2-.18,.27-.53,.07-.35,.27-.87,.58-1.54,.32-.67,.53-1.05,.64-1.12,.04-.03,.13-.26,.29-.67,.16-.41,.27-.61,.35-.61,.11,0,.2-.23,.27-.69,.07-.46,.21-.73,.43-.8,.18-.07,.27-.16,.27-.27,0-.18,.17-.6,.51-1.28,.34-.67,.54-1.01,.61-1.01,.14,0,.25-.25,.32-.75,.21-1.03,.57-1.83,1.06-2.4,.11-.11,.24-.19,.4-.27,.16-.07,.29-.09,.4-.05,.11,.04,.16,.11,.16,.21s.09,.16,.27,.16,.37,.14,.58,.43c.21,.28,.32,.55,.32,.8,0,.21-.18,.35-.53,.43-1.03,.25-1.69,.87-1.97,1.86-.14,.64-.29,.96-.43,.96-.11,0-.21,.19-.32,.56-.11,.37-.2,.56-.27,.56-.11,0-.16,.07-.16,.21,0,.11-.18,.53-.53,1.28s-.57,1.15-.64,1.22c-.04,.04-.11,.16-.21,.37s-.22,.43-.35,.64c-.12,.21-.2,.32-.24,.32-.11,0-.16,.12-.16,.37,0,.14-.16,.44-.48,.88-.32,.44-.48,.72-.48,.83,0,.14-.14,.5-.43,1.06s-.48,.87-.58,.9c-.18,.07-.55,.8-1.12,2.18-.21,.46-.55,1.03-1.01,1.7-.21,.25-.32,.55-.32,.9,0,.29-.07,.43-.21,.43-.07,0-.15,.08-.24,.24-.09,.16-.17,.33-.24,.51-.07,.18-.14,.3-.21,.37-.18,.18-.3,.51-.37,1.01-.07,.53-.18,.8-.32,.8-.11,0-.16,.09-.16,.27,0,.21-.09,.35-.27,.43-.07,.04-.21,.31-.43,.82-.21,.52-.37,.77-.48,.77s-.16,.14-.16,.43c0,.25-.11,.55-.32,.9-.04,.07-.11,.24-.21,.51-.11,.27-.2,.48-.29,.64-.09,.16-.21,.24-.35,.24s-.21,.16-.21,.48c0,.36-.07,.55-.21,.58-.14,.04-.32,.32-.53,.85-.46,1.28-.8,1.92-1.01,1.92-.11,0-.16,.14-.16,.43,0,.25-.05,.48-.16,.69-.07,.11-.2,.19-.37,.27-.18,.07-.34,.1-.48,.08-.14-.02-.21-.1-.21-.24,0-.25,.1-.67,.29-1.25,.2-.58,.36-.95,.51-1.09,.14-.21,.21-.43,.21-.64,0-.25,.11-.37,.32-.37,.14,0,.27-.22,.4-.67,.12-.44,.22-.67,.29-.67,.11,0,.19-.18,.27-.53,.04-.25,.17-.51,.4-.77,.23-.27,.36-.54,.4-.83,.07-.39,.16-.59,.27-.59,.04,0,.15-.26,.35-.77,.19-.51,.33-.77,.4-.77,.11,0,.23-.2,.37-.59,.14-.39,.25-.6,.32-.64,.21-.07,.32-.3,.32-.69,0-.28,.09-.51,.27-.67,.18-.16,.27-.36,.27-.61,0-.28,.09-.43,.27-.43,.35,0,.53-.32,.53-.96Z"/><path class="cls-2" d="M306.26,37.15c.11-.04,.23-.05,.37-.05,.18,0,.32,.07,.43,.21s.2,.35,.29,.61c.09,.27,.15,.45,.19,.56,.07,.07,.2,.72,.4,1.94,.19,1.22,.31,1.85,.35,1.89,.14,.14,.25,.57,.32,1.28,.04,.5,.17,1.06,.4,1.68,.23,.62,.36,1.14,.4,1.57,.07,.64,.14,.96,.21,.96s.28,.84,.64,2.53,.53,2.62,.53,2.79c0,.28,.11,.6,.32,.96,.18,.36,.27,.78,.27,1.28,0,.46,.11,1.08,.32,1.86s.34,1.4,.37,1.86c.03,.75,.12,1.24,.27,1.49,.07,.07,.21,.64,.43,1.7,.21,1.07,.34,1.63,.37,1.7,.11,.21,.16,.55,.16,1.01,0,.39,.11,.69,.32,.91,.11,.07,.16,.48,.16,1.22,0,.32,.07,.91,.21,1.76,.39,1.7,.58,2.82,.58,3.35,0,.35-.14,.53-.43,.53h-.32l-.64-.05-.05-1.28c-.07-.89-.14-1.37-.21-1.44-.18-.21-.34-1.33-.48-3.35,0-.43-.05-.81-.16-1.14-.11-.34-.18-.74-.21-1.2-.07-.75-.16-1.12-.27-1.12-.14,0-.25-.37-.32-1.12-.21-2.06-.39-3.09-.53-3.09-.11,0-.16-.3-.16-.9,0-.64-.09-1.14-.27-1.49-.46-1.06-.69-2.13-.69-3.19,0-.53-.05-.82-.16-.85-.14-.07-.25-.5-.32-1.28-.04-.53-.16-1.11-.37-1.73-.21-.62-.34-1.13-.37-1.52-.04-.35-.16-.72-.37-1.09-.21-.37-.34-.72-.37-1.04-.04-.32-.14-.7-.32-1.14-.18-.44-.28-.91-.32-1.41-.07-.71-.16-1.06-.27-1.06l-.8-3.78c-.14-.14-.2-.38-.16-.72,.04-.34,.12-.54,.27-.61Z"/><path class="cls-2" d="M315.42,73.77c.35,0,.84-.1,1.46-.29,.62-.2,1.07-.29,1.36-.29,.39,0,.64-.05,.75-.16,.04-.07,.96-.22,2.77-.45,1.81-.23,2.75-.36,2.82-.4,.04-.04,.29-.09,.77-.16,.48-.07,.96-.14,1.44-.21,.48-.07,.72-.12,.72-.16,0-.07,.41-.19,1.22-.35,.82-.16,1.42-.24,1.81-.24s.64-.05,.75-.16c.07-.07,.82-.22,2.24-.45s2.16-.38,2.24-.45c.18-.18,.44-.27,.8-.27,.39,0,.6-.05,.64-.16,.11-.11,.57-.19,1.38-.27,.78-.07,1.4-.21,1.86-.43,.46-.25,.82-.39,1.06-.43,.25-.11,.37-.28,.37-.53,0-.28-.05-.76-.16-1.44-.04-.18-.08-.46-.13-.85-.05-.39-.12-.88-.19-1.46-.07-.58-.14-1.07-.21-1.46-.46-3.23-.8-5.11-1.01-5.64-.04-.07-.15-1.13-.35-3.19-.2-2.06-.33-3.14-.4-3.25-.18-.18-.48-2.29-.91-6.33-.18-2.02-.32-3.09-.43-3.19-.14-.14-.25-.82-.32-2.02-.04-.89-.12-1.57-.27-2.05-.14-.48-.23-1.04-.27-1.68-.07-.96-.21-1.54-.43-1.76-.18-.18-.27-.35-.27-.53,0-.07-.11-.21-.32-.43-.28-.28-.44-.51-.48-.69-.11-.43-.57-.64-1.38-.64-.14,0-.25,.02-.32,.05-.25,.07-1.24,.14-2.98,.21-1.81,.07-3.21,.2-4.21,.37-.39,.07-1.17,.2-2.34,.37-1.17,.18-2.23,.35-3.17,.51-.94,.16-1.48,.29-1.62,.4-.07,.07-.87,.2-2.4,.37-1.53,.18-2.32,.3-2.39,.37-.25,.11-.78,.2-1.6,.27-.89,.07-1.51,.21-1.86,.43-.28,.14-.53,.21-.75,.21h-.27c-.25,0-.48,.04-.69,.11-.32,.11-.71,.12-1.17,.05-.32-.07-.48-.32-.48-.75,0-.35,.09-.59,.27-.69,.18-.11,.58-.16,1.22-.16,.6,0,.98-.07,1.12-.21s.69-.25,1.65-.32c.99-.07,1.49-.16,1.49-.27,0-.07,.38-.15,1.14-.24,.76-.09,1.54-.18,2.34-.27,.8-.09,1.23-.19,1.3-.29,0-.04,.51-.12,1.54-.24,1.03-.12,1.54-.22,1.54-.29,0-.14,.25-.21,.75-.21,.32,0,1.12-.11,2.4-.32,2.34-.39,4.67-.59,6.97-.59,1.13,0,1.77-.07,1.92-.21,.25-.25,.83-.37,1.76-.37,.53-.07,.8,.14,.8,.64,0,.32,.16,.48,.48,.48,.35,0,.61,.11,.77,.32,.16,.21,.27,.62,.35,1.22,.04,.53,.21,1.83,.53,3.89,.07,.53,.19,1.03,.37,1.49,.18,.46,.28,1.17,.32,2.13,.07,1.38,.16,2.18,.27,2.39,.07,.11,.19,.95,.37,2.53,.18,1.58,.25,2.63,.21,3.17,0,.32,.06,.6,.19,.85,.12,.25,.19,.53,.19,.85,0,.57,.09,1.06,.27,1.49,.21,.57,.37,1.67,.48,3.3,.07,1.67,.19,2.64,.37,2.93,.03,.11,.13,.73,.29,1.86,.16,1.14,.26,1.74,.29,1.81,.11,.11,.19,.82,.27,2.13,.07,1.24,.21,2.08,.43,2.5,.28,.57,.43,1.1,.43,1.6,0,.39-.11,.69-.32,.9-.25,.29-.34,.5-.27,.64,.11,.18,.1,.39-.03,.64-.12,.25-.29,.37-.51,.37-.25,0-.37,.05-.37,.16,0,.14-.21,.21-.64,.21-1.21,0-2.24,.2-3.09,.59-.53,.21-1.67,.44-3.41,.69-.5,.07-.75,.16-.75,.27,0,.07-.26,.17-.77,.29-.51,.12-.77,.22-.77,.29,0,.03-.51,.11-1.52,.21-1.01,.11-2.15,.26-3.41,.45-1.26,.19-2.12,.42-2.58,.67-.14,.11-.95,.25-2.42,.43-1.47,.18-2.28,.3-2.42,.37-.11,.07-.53,.16-1.28,.27s-1.17,.21-1.28,.32c-.28,.21-1.01,.32-2.18,.32-.32,0-.53-.02-.64-.05-.35-.07-.57-.25-.64-.53,0-.04,0-.07-.03-.11-.02-.04-.03-.07-.03-.11,0-.46,.51-.69,1.54-.69Z"/><path class="cls-2" d="M314.94,35.66c.11-.11,.32-.16,.64-.16,.35,0,.6,.19,.75,.56,.14,.37,.28,1.18,.43,2.42,.07,.85,.19,1.55,.37,2.1s.28,1.18,.32,1.89v.59c0,.99-.3,1.49-.9,1.49-.25,0-.41-.53-.48-1.6-.07-1.13-.2-1.72-.37-1.76-.04-.03-.18-.05-.43-.05-.32,0-.69,.04-1.12,.13-.43,.09-.64,.17-.64,.24s-.14,.14-.43,.21c-.32,.04-.46,.27-.43,.69,.07,.5,.19,.83,.37,1.01,.18,.18,.27,.44,.27,.8,0,.46-.12,.82-.37,1.06-.29,.28-.46,.43-.53,.43-.18,0-.43-.42-.75-1.25-.32-.83-.48-1.48-.48-1.94,0-.25-.07-.44-.21-.59-.21-.21-.32-1.58-.32-4.1,0-.67,.04-1.12,.11-1.33,.07-.14,.28-.21,.64-.21,.25,0,.41,.04,.48,.11,.07,.07,.12,.27,.16,.59,.07,.57,.11,1.15,.11,1.76,0,.64,.14,1.01,.43,1.12,.11,.04,.3,.05,.59,.05,1.17,0,1.86-.18,2.08-.53,.07-.21,.11-.46,.11-.75,0-.99-.11-1.56-.32-1.7-.11-.07-.17-.28-.19-.64-.02-.35,.03-.57,.13-.64Z"/><path d="M324.45,45.76c.26-.09,.6-.13,1.02-.13,.22,0,.37,.01,.46,.03,.24,.02,.41,.16,.49,.43,.09,.24,.16,.36,.23,.36s.12,.12,.16,.36c.02,.2,.06,.32,.12,.36,.05,.04,.24,.08,.54,.1,.44,.04,.68,.12,.72,.23,.02,.09,.11,.13,.26,.13,.11,0,.23,.04,.36,.13,.02,.02,.1,.08,.25,.16s.27,.18,.39,.26,.18,.14,.18,.16,.09,.14,.26,.36c.18,.2,.26,.49,.26,.89,0,.33-.14,.84-.43,1.54-.24,.5-.46,.76-.66,.76-.07,0-.15,.06-.26,.16-.11,.13-.48,.2-1.12,.2h-.95l.07,.56c.04,.31,.16,.65,.36,1.02,.2,.37,.38,.58,.56,.62,.22,.07,.33,.34,.33,.82,0,.18-.03,.3-.1,.36-.07,.11-.25,.16-.56,.16-.74,0-1.26,.14-1.54,.43-.18,.18-.56,.26-1.15,.26-.13,0-.22-.01-.26-.03-.13-.04-.16-.2-.1-.46,.04-.26,.11-.39,.2-.39,.07-.04,.1-.17,.1-.39,0-.2,.04-.34,.13-.43,.11-.11,.14-.41,.1-.89l-.03-.76h-1.02c-.64,0-.97-.05-1.02-.16-.04-.09-.15-.13-.33-.13s-.41-.11-.71-.33c-.3-.22-.44-.39-.44-.53,0-.11-.04-.19-.13-.23-.09-.04-.13-.37-.13-.99s.04-.94,.13-.99c.09-.04,.13-.17,.13-.39s.08-.37,.23-.46c.18-.09,.26-.19,.26-.3,0-.09,.16-.22,.49-.39s.57-.26,.72-.26c.13,0,.2-.13,.2-.39,0-.37,.13-.75,.39-1.13,.26-.38,.54-.62,.82-.71Z"/><path class="cls-2" d="M336.34,56.73c0-.18,.15-.27,.45-.27s.52,.07,.67,.21c.04,.07,.14,1.21,.32,3.41s.28,3.34,.32,3.41c.04,.11,.18,.59,.43,1.44s.43,1.37,.53,1.54c.18,.28,.27,.57,.27,.85,0,.43-.12,.64-.37,.64-.18,0-.27,.07-.27,.21,0,.32-.3,.18-.91-.43-.46-.43-.69-.89-.69-1.38,0-.53-.12-1.08-.37-1.65-.14-.43-.26-.67-.35-.75-.09-.07-.33-.09-.72-.05-.6,.07-1.05,.18-1.33,.32-.28,.14-.46,.28-.53,.4-.07,.12-.11,.42-.11,.88,0,.75,.12,1.35,.37,1.81,.21,.46,.32,.89,.32,1.28,0,.5-.2,.83-.58,1.01-.07,.04-.18,.05-.32,.05-.6,0-.94-.67-1.01-2.02-.11-1.03-.2-1.68-.29-1.94-.09-.27-.27-.43-.56-.51-.32-.04-.48-.25-.48-.64,0-.35,.18-.6,.53-.75,.57-.25,.66-.57,.27-.96-.14-.14-.25-.98-.32-2.5-.04-.53-.05-1.08-.05-1.65,0-.5,.09-.76,.27-.8,.21-.07,.43-.05,.64,.05s.34,.28,.37,.53c0,.39,.09,1.21,.27,2.45,.11,.96,.19,1.54,.27,1.76,.07,.21,.19,.32,.37,.32,.28,0,.5-.07,.64-.21l.85-.37,.75-.21-.05-2.55c0-1.67,.07-2.52,.21-2.55,.14-.07,.21-.2,.21-.37Z"/><path class="cls-2" d="M343.36,44.44c.11-.14,.31-.19,.61-.13,.3,.05,.47,.15,.51,.29,.07,.21,.11,.5,.11,.85s.05,.57,.16,.64c.14,.14,.25,.66,.32,1.54,.25,2.73,.41,4.12,.48,4.15,.14,.14,.27,.62,.37,1.44,.11,.67,.29,1.74,.56,3.19,.27,1.46,.49,2.84,.67,4.15,.07,.78,.19,1.44,.35,1.97,.16,.53,.27,1.37,.35,2.5,.21,1.77,.34,2.71,.37,2.82,.18,.36,.32,1.15,.43,2.4,.21,1.56,.35,2.38,.43,2.45,.07,.11,.15,.73,.24,1.86,.09,1.13,.15,1.76,.19,1.86,0,.04,.05,.4,.16,1.09,.11,.69,.21,1.35,.32,1.97,.11,.62,.19,.93,.27,.93,.11,0,.16,.14,.16,.43,0,.14,.02,.24,.05,.29,.04,.05,.16,.08,.37,.08l1.38-.11c1.13-.07,1.9-.18,2.29-.32,.28-.11,.69-.16,1.22-.16,.39,0,.9-.04,1.54-.13,.64-.09,1.33-.21,2.08-.37,.75-.16,1.28-.26,1.6-.29,.82-.11,1.37-.23,1.65-.37,.07-.07,.69-.2,1.86-.37s1.79-.28,1.86-.32c.89-.32,2.08-.58,3.57-.8,1.42-.21,2.25-.43,2.5-.64,.07-.04,.51-.12,1.33-.24,.82-.12,1.26-.22,1.33-.29,.07-.07,.59-.21,1.57-.4,.98-.2,1.5-.33,1.57-.4,.25-.18,.44-.2,.59-.05s.21,.41,.21,.8c0,.43-.12,.71-.35,.85s-.81,.23-1.73,.27c-.75,.07-1.14,.14-1.17,.21-.07,.11-.51,.26-1.33,.45-.82,.19-1.26,.31-1.33,.35-.11,.07-.74,.17-1.89,.29-1.15,.12-1.78,.22-1.89,.29-.21,.14-.66,.25-1.33,.32-.71,.07-1.06,.16-1.06,.27s-.43,.2-1.28,.27c-.75,.07-1.51,.21-2.29,.43-.6,.18-1.56,.34-2.87,.48-.82,.07-1.46,.19-1.92,.35-.46,.16-1.01,.26-1.65,.29-.75,.07-1.28,.18-1.6,.32-.11,.03-.46,.1-1.06,.19-.6,.09-1.16,.2-1.68,.32-.51,.12-.83,.24-.93,.35-.21,.21-.44,.32-.69,.32-.29,0-.54-.12-.77-.35s-.35-.52-.35-.88c0-.32-.2-.58-.58-.8-.29-.14-.46-.45-.53-.93-.07-.48-.18-1.98-.32-4.5,0-.5-.05-.92-.16-1.28-.11-.36-.18-.82-.21-1.38-.04-.6-.17-1.42-.4-2.45-.23-1.03-.36-1.93-.4-2.71-.07-1.1-.16-1.65-.27-1.65s-.21-.56-.32-1.68c-.11-1.12-.25-2.45-.43-3.99-.18-1.54-.39-2.67-.64-3.38-.04-.07-.16-.75-.37-2.05-.21-1.29-.35-2-.43-2.1-.07-.07-.16-.65-.27-1.73s-.2-1.66-.27-1.73c-.04-.07-.15-.74-.35-2-.2-1.26-.33-1.92-.4-2-.11-.11-.18-.33-.21-.67-.04-.34,0-.56,.11-.67Z"/><path class="cls-2" d="M370.61,37.63c.35-.11,.66-.16,.9-.16,.43,0,.66,.18,.69,.53,.07,.32,.04,.62-.11,.91-.11,.18-.65,.3-1.62,.37-.98,.07-3.61,.18-7.9,.32-.89,.07-1.38,.16-1.49,.27-.14,.14-.43,.21-.85,.21-.32,0-.73,.07-1.22,.21-.28,.07-1.3,.26-3.03,.56-1.74,.3-2.75,.49-3.03,.56-.57,.14-1.15,.21-1.76,.21-.71,0-1.06,.11-1.06,.32,0,.14,.14,.36,.43,.64,.35,.36,.64,.75,.85,1.17,.21,.43,.47,1.04,.77,1.84,.3,.8,.51,1.32,.61,1.57,.43,.85,.64,1.38,.64,1.6,0,.11,.07,.16,.21,.16s.25,.25,.32,.75c.04,.29,.27,.71,.72,1.28,.44,.57,.67,1.01,.67,1.33,0,.43-.16,.67-.48,.75-.07,.04-.18,.05-.32,.05-.21,0-.42-.12-.61-.37-.2-.25-.49-.75-.88-1.49-.5-.99-.94-1.49-1.33-1.49-.18,0-.44,.09-.8,.27-.36,.18-.67,.27-.96,.27-.75,0-1.12,.73-1.12,2.18,0,.82-.09,1.35-.27,1.6-.18,.18-.37,.27-.59,.27s-.34-.07-.37-.21c-.07-.71-.16-1.35-.27-1.92-.04-.53,.02-.87,.16-1.01,.11-.11,.24-.66,.4-1.65,.16-.99,.27-1.54,.35-1.65,.11-.14,.23-.67,.37-1.6,.14-.92,.21-1.65,.21-2.18,0-.57,.09-1.03,.27-1.38,.14-.25,.21-.43,.21-.53s-.07-.16-.21-.16c-.07,0-.21,.03-.4,.08-.2,.05-.35,.08-.45,.08-.71,.14-1.26,.21-1.65,.21-.43,0-.67,.07-.75,.21-.11,.18-.28,.24-.53,.19-.25-.05-.37-.17-.37-.35,0-.46,.39-.76,1.17-.91,.57-.07,.92-.18,1.06-.32,.04,0,.82-.11,2.34-.32,1.52-.21,2.31-.34,2.34-.37,.07-.11,.5-.23,1.28-.37,.25-.03,.68-.13,1.3-.29,.62-.16,1.2-.28,1.73-.37,.53-.09,1.01-.13,1.44-.13,.53,0,.83-.07,.91-.21,.07-.04,.71-.12,1.92-.27,1.21-.14,1.84-.25,1.92-.32,.11-.07,1.09-.21,2.95-.43,1.86-.21,2.83-.34,2.9-.37,.21-.07,.41-.11,.59-.11,.11,0,.3,0,.58,.03,.28,.02,.5,.03,.64,.03,.28,0,.48-.02,.59-.05Z"/><path class="cls-4" d="M350.87,46.41c-.28-.5-.48-.75-.58-.75-.18,0-.32,.6-.43,1.81l-.11,1.28,.75-.11c.64-.11,.96-.35,.96-.75,0-.21-.2-.71-.59-1.49Z"/><path class="cls-1" d="M362.41,55.56s.07-.11,.22-.21c.15-.1,.35-.19,.61-.27,.26-.09,.5-.13,.74-.13h.16c.36,.02,.77,.25,1.22,.67,.43,.41,.64,.74,.64,.99s.03,.47,.1,.64c.04,.17,.06,.29,.06,.35,0,.15-.03,.3-.1,.46-.06,.16-.14,.33-.24,.5-.1,.17-.17,.3-.21,.38-.19,.41-.42,.79-.67,1.15-.15,.19-.22,.34-.22,.45,0,.09-.12,.29-.37,.63-.25,.33-.49,.61-.72,.85-.17,.17-.31,.36-.42,.58-.13,.21-.37,.36-.74,.45-.36,.06-.62,0-.77-.19s-.22-.33-.22-.42-.04-.13-.13-.13c-.04,0-.29-.21-.74-.64s-.71-.64-.77-.64c-.11,0-.25-.11-.42-.32-.17-.17-.41-.36-.71-.56-.3-.2-.54-.4-.74-.59-.36-.34-.57-.71-.61-1.09,0-.04,0-.1-.02-.18-.01-.07-.02-.12-.02-.14,0-.19,.1-.51,.29-.96,.26-.47,.44-.72,.55-.74,.13-.04,.19-.1,.19-.16,0-.09,.04-.13,.13-.13,.04,0,.26-.09,.64-.26,.38-.17,.85-.26,1.41-.26s.89,.08,.99,.22c.17,.28,.32,.28,.45,0,.04-.11,.13-.16,.26-.16,.11,0,.16-.05,.16-.16Z"/><path class="cls-2" d="M366.3,67.27c0-.07-.12-.41-.37-1.01-.25-.6-.37-.96-.37-1.06,0-.25,.17-.41,.51-.48,.34-.07,.61,0,.83,.21,.28,.21,.51,.32,.69,.32,.25,0,.5,.21,.75,.64,.67,1.31,1.12,2.08,1.33,2.29,.03,.04,.14,.05,.32,.05,.78,0,1.4-.16,1.86-.48,.21-.14,.38-.49,.51-1.04,.12-.55,.22-.88,.29-.98,.04-.07,.11-.27,.21-.58,.11-.32,.22-.6,.35-.85,.12-.25,.26-.39,.4-.43,.28-.07,.48-.11,.58-.11,.5,0,.75,.25,.75,.75,0,.18-.02,.32-.05,.43,0,.07-.12,1.01-.37,2.82-.14,1.1-.38,2.25-.72,3.46-.34,1.21-.58,2.25-.72,3.14-.21,1.13-.43,1.77-.64,1.92-.14,.07-.25,.11-.32,.11-.39,0-.73-.3-1.01-.91-.11-.25-.39-.69-.85-1.33s-.88-1.23-1.25-1.78c-.37-.55-.56-.93-.56-1.14,0-.11-.23-.46-.69-1.06-.46-.6-.73-1.12-.8-1.54-.07-.46-.2-.75-.37-.85s-.27-.27-.27-.48Z"/><path class="cls-4" d="M371.79,71c.14-.89,.07-1.35-.21-1.38-.04,0-.09,0-.16-.03s-.12-.03-.16-.03c-.6,0-.91,.29-.91,.85,0,.32,.12,.75,.37,1.3,.25,.55,.44,.83,.58,.83,.21,0,.37-.51,.48-1.54Z"/><path class="cls-2" d="M373.17,38.48c.11-.14,.27-.19,.51-.13,.23,.05,.42,.17,.56,.35,.21,.25,.34,1.05,.37,2.39,.07,1.28,.18,2.08,.32,2.4,.14,.21,.43,2.47,.85,6.76,.07,.99,.18,1.77,.32,2.34,.14,.57,.25,1.33,.32,2.29,.07,1.17,.18,1.86,.32,2.08,.07,.07,.18,.75,.32,2.02,.11,.82,.25,1.63,.43,2.45,.18,.82,.3,1.58,.37,2.29,.43,3.12,.75,5.38,.96,6.76,.25,1.56,.44,2.38,.59,2.45,.07,.04,.11,.14,.11,.32,0,.25-.09,.52-.27,.83-.18,.3-.35,.45-.53,.45s-.32-.25-.43-.75c-.04-.36-.12-.75-.24-1.17-.12-.43-.22-.98-.29-1.65-.04-.28-.2-1.41-.48-3.38-.29-1.97-.53-3.45-.75-4.44-.14-.64-.21-1.31-.21-2.02,0-.6-.07-1.1-.21-1.49-.14-.39-.23-.92-.27-1.6-.04-.75-.16-1.55-.37-2.42-.21-.87-.34-1.68-.37-2.42-.07-.96-.18-1.6-.32-1.92-.11-.21-.2-1.15-.27-2.82,0-1.06-.09-1.9-.27-2.5-.18-.6-.28-1.22-.32-1.86-.04-.64-.13-1.18-.29-1.62-.16-.44-.26-.84-.29-1.2-.07-.57-.12-.87-.16-.91-.07-.07-.11-.39-.11-.96,0-.53,.04-.83,.11-.9Z"/><path class="cls-2" d="M379.82,72.65c.14,0,.3-.97,.48-2.9,.18-1.93,.34-2.9,.48-2.9,.07,0,.12-.54,.16-1.62,.04-1.08,.08-2.21,.13-3.38,.05-1.17,.13-1.83,.24-1.97,.14-.14,.27-1.48,.4-4.02,.12-2.54,.19-4.8,.19-6.79,0-1.88,.09-2.96,.27-3.25,.21-.32,.21-.5,0-.53-.14-.07-.22-.28-.24-.64-.02-.35,.04-.57,.19-.64,.14-.14,.21-.89,.21-2.24,0-1.42-.07-2.13-.21-2.13s-.21-.2-.21-.59c0-.35,.07-.53,.21-.53s.21-.19,.21-.58c0-.28,.03-.45,.08-.51s.24-.08,.56-.08c.46,0,.69,.11,.69,.32,0,.07,0,.21,.03,.43,.02,.21,.03,.39,.03,.53,0,2.24-.09,3.44-.27,3.62-.11,.11-.2,1.53-.27,4.26-.04,2.09-.15,4.55-.35,7.37-.2,2.82-.31,4.69-.35,5.62-.14,2.77-.27,4.52-.37,5.27-.07,.32-.11,.67-.11,1.06,0,.28,.07,.5,.21,.64,.21,.21,.18,.41-.11,.59-.43,.28-.64,1.54-.64,3.78v1.92c0,.75-.11,1.28-.32,1.6-.21,.28-.37,.42-.48,.4s-.3-.19-.59-.5c-.32-.32-.48-.73-.48-1.22,0-.25,.07-.37,.21-.37Z"/><path class="cls-2" d="M408.19,36.4h.16c.39,0,1.07,.12,2.05,.37,.98,.25,1.62,.37,1.94,.37,.28,0,.46,.04,.53,.11,.07,.07,.11,.27,.11,.59v.75l-1.38-.16c-.92-.07-1.46-.18-1.6-.32-.07-.04-.67-.11-1.81-.21-1.14-.11-1.74-.19-1.81-.27-.39-.35-2.66-.53-6.81-.53-3.12,0-4.7-.05-4.74-.16-.11-.18-3.12-.3-9.05-.37-1.03,0-1.54-.3-1.54-.91,0-.04,0-.09,.03-.16,.02-.07,.03-.12,.03-.16,.07-.46,.19-.69,.37-.69l2.34,.32c3.26,.43,7.58,.67,12.93,.75,3.55,.04,5.73,.21,6.55,.53,.32,.11,.89,.16,1.7,.16Z"/><path class="cls-2" d="M384.61,76.69c.25-.25,.66-.37,1.22-.37,.5,0,.94,.02,1.33,.05,1.46,.07,2.24,.16,2.34,.27,.21,.14,3.65,.21,10.33,.21h10.49c.21,0,.32,.3,.32,.91,0,.57-.12,.87-.37,.9-.07,.04-.21,.05-.43,.05-.67,0-1.08-.11-1.22-.32-.07-.07-.27-.05-.59,.05-.32,.14-.6,.14-.85,0s-.83-.21-1.76-.21c-.85,0-1.35,.07-1.49,.21-.14,.14-.3,.14-.48,0-.21-.18-2.45-.28-6.71-.32-4.44-.07-6.78-.12-7.03-.16-.64-.11-1.63-.16-2.98-.16-1.6-.04-2.41-.16-2.45-.37-.07-.21,.04-.46,.32-.75Z"/><path class="cls-2" d="M389.78,47.21c-.14,0-.28-.17-.43-.51-.14-.34-.27-.5-.37-.5-.18,0-.35-.12-.53-.37-.14-.25-.43-.37-.85-.37h-.58l.11,1.33v.48c0,.99-.39,1.49-1.17,1.49-.46,0-.69-.21-.69-.64,0-.32,.04-.59,.11-.8,.14-.57,.21-2.02,.21-4.36,0-1.74-.05-2.64-.16-2.71-.14-.14-.21-.27-.21-.37,0-.39,.27-.73,.8-1.01,.35-.18,.66-.27,.91-.27,.03,0,.19,.02,.48,.05,.28,.04,.57,.05,.85,.05,.71,0,1.22,.16,1.54,.48s.53,.48,.64,.48c.14,0,.21,.09,.21,.27,0,.21,.18,.44,.53,.69,.39,.32,.58,.71,.58,1.17,0,.53-.09,.82-.27,.85-.21,.07-.32,.18-.32,.32,0,.21-.28,.6-.85,1.17-.14,.14-.21,.27-.21,.37s.25,.48,.75,1.12c.6,.75,.98,1.4,1.12,1.97,.14,.6,.25,.92,.32,.96,.25,.11,.34,.5,.27,1.17,0,.18-.13,.32-.4,.43-.27,.11-.56,.12-.88,.05-.32-.11-.48-.35-.48-.75s-.12-.75-.37-1.06c-.25-.25-.37-.51-.37-.8,0-.25-.09-.37-.27-.37Z"/><path class="cls-4" d="M388.5,40.39c0-.11-.2-.16-.59-.16-.25,0-.4,.04-.45,.13-.05,.09-.12,.38-.19,.88-.04,.21-.05,.5-.05,.85,0,.67,.19,1.06,.58,1.17,.14,.04,.34,.05,.59,.05,.5,0,.82-.28,.96-.85,.11-.35,.16-.66,.16-.9,0-.46-.2-.75-.58-.85-.29-.07-.43-.18-.43-.32Z"/><path d="M397.72,52.44c0-.16,.03-.25,.1-.28,.07-.03,.21-.04,.43-.04h.09c.24,0,.37,.01,.4,.03,.03,.02,.04,.13,.04,.33,0,.24,.08,.41,.24,.51,.14,.1,.21,.2,.21,.3,0,.14,.08,.27,.24,.39,.32,.34,.52,.69,.62,1.07,.12,.34,.2,.51,.24,.51,.02,0,.07,.11,.16,.33,.09,.22,.15,.34,.19,.36,.1,.04,.15,.13,.15,.27,0,.1,.06,.23,.18,.39,.12,.14,.18,.74,.18,1.81,0,.83-.05,1.37-.15,1.6-.18,.36-.76,.62-1.75,.8-.38,.06-.6,.17-.67,.34-.07,.17-.11,.67-.13,1.5-.04,1.05-.07,1.6-.09,1.66-.02,.1-.13,.16-.33,.19-.2,.03-.33,0-.39-.1-.04-.08-.41-.14-1.1-.18-.69-.06-1.09-.17-1.19-.33-.06-.08-.09-.15-.09-.21,0-.08,.09-.3,.27-.65,.22-.4,.33-.69,.33-.89s.05-.35,.15-.45c.2-.2,.3-.49,.3-.89,0-.12-.03-.21-.09-.27-.12-.1-.4-.15-.83-.15h-.42c-.28,.02-.48-.08-.59-.3-.14-.22-.23-.33-.27-.33-.06,0-.09-.08-.09-.24,0-.18-.05-.34-.15-.48-.12-.16-.18-.38-.18-.65,0-.16,.03-.24,.09-.24,.08,0,.14-.12,.18-.36,.02-.12,.09-.28,.21-.49,.12-.21,.18-.39,.18-.55,0-.12,.06-.22,.18-.31,.12-.09,.19-.18,.21-.28,.04-.16,.22-.42,.53-.77,.32-.32,.48-.51,.48-.59,0-.06,.06-.11,.18-.15,.14-.04,.29-.18,.45-.42,.24-.34,.45-.61,.65-.83,.3-.34,.45-.54,.45-.62s.04-.12,.12-.12c.06,0,.09-.07,.09-.21Z"/><path class="cls-2" d="M404.04,64.51c.07-.25,.16-.37,.27-.37,.25,0,.53,.18,.85,.53,.32,.36,.57,.73,.75,1.12,.28,.6,.46,.9,.53,.9,.11,0,.19,.16,.27,.48,.14,.6,.35,.58,.64-.05,.03-.11,.07-.21,.11-.32,.11-.39,.32-.78,.64-1.17,.32-.32,.51-.64,.58-.96,.07-.35,.25-.53,.53-.53,.32,0,.54,.1,.67,.29,.12,.2,.19,.61,.19,1.25s-.02,1.19-.05,1.65c-.07,1.67-.18,2.54-.32,2.61-.21,.14-.32,.75-.32,1.81,0,.35,.04,.67,.11,.96,.07,.21,.11,.53,.11,.96,0,.85-.16,1.28-.48,1.28-.25,0-.41,.07-.48,.21-.14,.14-.69,.21-1.65,.21s-1.54-.07-1.76-.21l-.32-.27c-.25-.18-.44-.3-.59-.37-.53-.39-.8-.8-.8-1.22,0-.18,.07-.27,.21-.27s.21-.27,.21-.8c0-.43,.04-.71,.13-.85,.09-.14,.38-.35,.88-.64,.71-.43,1.06-.82,1.06-1.17,0-.28-.23-.53-.69-.75-.32-.18-.5-.53-.53-1.06-.07-.53-.2-.89-.37-1.06-.28-.28-.43-.83-.43-1.65,0-.28,.02-.46,.05-.53Z"/><path class="cls-4" d="M406.91,72.76c-.14-.46-.3-.69-.48-.69s-.39,.13-.64,.4c-.25,.27-.37,.49-.37,.67s.14,.31,.43,.4c.28,.09,.57,.1,.85,.03,.21-.04,.33-.1,.35-.19,.02-.09-.03-.29-.13-.61Z"/><path class="cls-2" d="M413.51,42.58c.07-2.06,.32-3.09,.75-3.09,.07,0,.23,.09,.48,.27,.18,.18,.27,.46,.27,.85,0,.32-.02,.6-.05,.85-.07,.96-.16,1.49-.27,1.6-.11,.25-.2,1.51-.27,3.78-.04,2.34-.16,3.71-.37,4.1-.18,.36-.27,1.49-.27,3.41-.07,2.45-.18,4.17-.32,5.16-.11,.96-.16,1.83-.16,2.61v.48c.07,.53,.04,.98-.11,1.33-.14,.32-.25,1.99-.32,5-.04,2.38-.1,3.81-.19,4.31-.09,.5-.36,.75-.83,.75-.18,0-.3-.03-.37-.08-.07-.05-.11-.22-.11-.5,0-.04,.04-.55,.11-1.54,.07-1.28,.11-2.57,.11-3.89,0-1.42,.07-2.15,.21-2.18,.14-.07,.21-.44,.21-1.12,0-.78,.08-2.28,.24-4.5,.16-2.22,.24-3.36,.24-3.43,.07-1.17,.16-1.88,.27-2.13,.04-.11,.1-.88,.19-2.32,.09-1.44,.17-2.9,.24-4.39,.07-1.49,.11-2.29,.11-2.4,.07-.57,.14-1.54,.21-2.93Z"/><path class="cls-2" d="M419.69,37.57c.07,0,.16-.64,.27-1.92s.21-1.92,.32-1.92c.11-.07,.16-.34,.16-.8,0-.43,.09-.82,.27-1.17,.14-.25,.35-.37,.64-.37s.5,.11,.64,.32c.04,.04,.05,.18,.05,.43,0,.39-.04,.82-.13,1.28-.09,.46-.19,.69-.29,.69s-.2,.59-.27,1.76c-.04,.82-.13,1.47-.29,1.97-.16,.5-.26,1.12-.29,1.86-.04,.85-.14,1.78-.32,2.77-.18,.99-.3,1.7-.37,2.13-.07,.64-.25,1.59-.53,2.85-.28,1.26-.43,2.55-.43,3.86,0,.85-.09,1.31-.27,1.38-.21,.07-.32,.48-.32,1.22,0,.82-.05,1.24-.16,1.28-.04,.04-.18,1.14-.43,3.3-.25,2.17-.37,3.26-.37,3.3-.04,.04-.12,.56-.27,1.57-.14,1.01-.25,1.54-.32,1.57-.11,.07-.16,.35-.16,.85,0,1.31-.27,2.11-.8,2.39-.25,.18-.47,.19-.67,.03-.2-.16-.29-.43-.29-.83,0-1.42,.25-2.93,.75-4.52,.14-.5,.21-.92,.21-1.28,0-.43,.05-.69,.16-.8,.18-.18,.32-.87,.43-2.08,.21-1.31,.34-1.99,.37-2.02,.04-.04,.12-.68,.27-1.94,.14-1.26,.25-1.91,.32-1.94,.04-.04,.16-.91,.37-2.61,.14-1.67,.28-2.57,.43-2.71,.04-.07,.12-.51,.27-1.33,.14-.82,.23-1.26,.27-1.33,.14-.32,.25-.99,.32-2.02,.25-3.48,.41-5.22,.48-5.22Z"/><path class="cls-2" d="M416.01,70.25v-.75l1.7,.16c.78,.04,1.6,.17,2.45,.4,.85,.23,1.6,.36,2.24,.4,.96,.07,1.51,.18,1.65,.32,.21,.14,1.1,.25,2.66,.32,1.63,.07,2.48,.14,2.55,.21,.07,.14,.41,.21,1.01,.21,.75,0,1.93,.07,3.57,.21,1.63,.14,2.45,.25,2.45,.32s.85,.11,2.56,.11c3.44,0,5.23-.07,5.38-.21,.53-.53,.85-.35,.96,.53,.07,.53,.07,.87,0,1.01-.07,.07-.67,.11-1.81,.11-.25,0-.71,0-1.38-.03s-1.22-.03-1.65-.03c-7.45-.21-11.27-.46-11.44-.75-.11-.14-1.19-.27-3.25-.37-2.98-.14-4.95-.36-5.91-.64-.46-.18-1.05-.27-1.76-.27-.64,0-1.03-.11-1.17-.32-.18-.18-.35-.27-.53-.27s-.27-.23-.27-.69Z"/><path class="cls-2" d="M424.05,34.59c.03-.85,.11-1.45,.24-1.81,.12-.35,.4-.53,.83-.53h.21c.5,.11,.75,.25,.75,.43s-.05,.48-.16,.9c-.07,.5-.11,.82-.11,.96,0,.64,.16,.96,.48,.96,.14,0,.39-.14,.75-.43,.32-.25,.53-.37,.64-.37,.07,0,.28-.18,.64-.53,.28-.32,.62-.48,1.01-.48s.62-.09,.69-.27c.04-.18,.34-.27,.91-.27,.39,0,.61,.03,.67,.08,.05,.05,.06,.22,.03,.51-.04,.28-.11,.48-.21,.58s-.36,.21-.75,.32c-.6,.18-.98,.35-1.12,.53-.18,.18-.36,.27-.53,.27s-.27,.07-.27,.21c0,.11-.09,.16-.27,.16s-.37,.21-.58,.64c-.18,.43-.18,.69,0,.8,.07,.07,.19,.62,.37,1.65s.28,1.58,.32,1.65c.11,.25,.2,.67,.27,1.28,.07,.67-.02,1.17-.27,1.49-.43,.5-.85,.59-1.28,.27-.14-.07-.25-.89-.32-2.45-.07-1.53-.27-2.5-.58-2.93s-.55-.64-.69-.64-.32,.37-.53,1.12c-.18,.64-.41,1.26-.69,1.86-.25,.5-.37,.85-.37,1.06,0,.14-.15,.37-.45,.69-.3,.32-.52,.48-.67,.48-.07,0-.22-.16-.45-.48s-.35-.57-.35-.75c0-.11,.05-.16,.16-.16s.2-.06,.29-.19,.17-.3,.24-.53c.07-.23,.12-.38,.16-.45,.21-.35,.35-1.03,.43-2.02,.04-.71,.13-1.29,.29-1.76,.16-.46,.26-1.08,.29-1.86Z"/><path class="cls-2" d="M437.04,32.2c0-.11-.93-.21-2.79-.32s-2.79-.19-2.79-.27-.77-.16-2.32-.27c-1.54-.11-2.85-.16-3.91-.16h-.48l-1.38,.05v-.69c0-.43,.05-.67,.16-.75,.21-.04,.46-.05,.75-.05,.14,0,.41,0,.8,.03,.39,.02,.69,.03,.91,.03,.85,.07,2.02,.11,3.51,.11,.96,0,1.63,.07,2.02,.21,.67,.21,1.86,.35,3.57,.43,1.84,.07,2.77,.16,2.77,.27,0,.14,.46,.21,1.38,.21,.75,0,1.58,.06,2.5,.19,.92,.12,1.42,.24,1.49,.35,.04,.04,.55,.12,1.54,.27s1.51,.25,1.54,.32c.07,.14,.8,.25,2.18,.32,1.38,.07,2.2,.23,2.45,.48,.25,.25,.37,.41,.37,.48s-.12,.23-.37,.48c-.11,.11-.27,.21-.48,.29-.21,.09-.41,.12-.58,.11-.18-.02-.27-.08-.27-.19s-.35-.21-1.04-.32c-.69-.11-1.47-.22-2.34-.35-.87-.12-1.45-.26-1.73-.4-.32-.14-1.18-.29-2.58-.45-1.4-.16-2.58-.24-3.54-.24-.89,0-1.33-.05-1.33-.16Z"/><path class="cls-1" d="M431.14,52.97c0-.07-.15-.26-.45-.57-.3-.31-.45-.5-.45-.57,0-.09-.08-.19-.24-.31-.16-.09-.24-.26-.24-.52,0-.23,.01-.43,.03-.62,.05-.66,.1-1.02,.17-1.07,.09-.05,.16-.18,.21-.41,.02-.14,.23-.42,.62-.86l.48-.52,1.38,.07c.89,.02,1.39,.11,1.48,.28,.07,.11,.17,.17,.31,.17,.11,0,.17,.06,.17,.17,0,.14,.06,.23,.19,.28,.13,.05,.25,.04,.38-.02,.13-.06,.19-.13,.19-.22,0-.18,.15-.28,.45-.28,.09,0,.37,.02,.83,.07,.64,.11,.99,.25,1.03,.41,.02,.14,.16,.25,.41,.34,.18,.07,.28,.23,.28,.48,0,.05,0,.15-.02,.33-.01,.17-.02,.33-.02,.46-.05,.8-.1,1.27-.17,1.41-.07,.12-.14,.24-.21,.38s-.12,.24-.15,.31c-.03,.07-.08,.16-.12,.26-.05,.1-.09,.19-.14,.26-.05,.07-.11,.15-.19,.24s-.16,.18-.24,.28c-.08,.09-.18,.2-.29,.33-.11,.13-.25,.27-.41,.43-.6,.6-1.03,.95-1.31,1.07-.99,.37-1.48,.62-1.48,.76-.05,.21-.24,.16-.58-.14-.18-.14-.28-.29-.28-.45,0-.05-.06-.11-.19-.19-.13-.08-.19-.15-.19-.22,0-.11-.1-.28-.31-.48s-.36-.45-.45-.72c-.07-.28-.17-.41-.31-.41-.11,0-.17-.07-.17-.21Z"/><path class="cls-2" d="M439.38,61.84c0-.18-.1-.34-.29-.48-.2-.14-.29-.3-.29-.48,0-.25-.14-.55-.43-.9-.25-.35-.37-.76-.37-1.22,0-.32,.09-.6,.27-.85,.18-.21,.37-.32,.59-.32,.25,0,.48,.14,.69,.43,.21,.28,.34,.64,.37,1.06,.07,.6,.18,.96,.32,1.06,.18,.11,.27,.27,.27,.48,0,.11,.16,.34,.48,.69,.32,.36,.48,.59,.48,.69,0,.18,.07,.27,.21,.27,.11,0,.19,.2,.27,.59,.14,.75,.37,1.12,.69,1.12,.14,0,.21-.41,.21-1.22,0-.6,.06-1.06,.19-1.38,.12-.32,.2-.67,.24-1.06,.07-.64,.18-.96,.32-.96s.21-.09,.21-.27c0-.21,.23-.32,.69-.32h.64v1.06c0,.67-.09,1.14-.27,1.38-.21,.29-.32,.67-.32,1.17,0,.39-.06,.71-.19,.96-.12,.25-.19,.55-.19,.9,0,.57-.06,1.22-.19,1.97-.12,.75-.24,1.15-.35,1.22-.14,.07-.25,.37-.32,.91-.04,.32-.13,.62-.29,.9-.16,.29-.26,.57-.29,.85-.04,.29-.11,.46-.21,.53-.11,.07-.3,.11-.58,.11-.53,0-.8-.25-.8-.75,0-.18,.05-.51,.16-1.01s.16-.83,.16-1.01c0-.25-.03-.39-.08-.43-.05-.04-.22-.04-.5,0-.43,.07-.73,.23-.91,.48-.21,.28-.46,.43-.75,.43-.36,0-.58,.09-.69,.27-.21,.21-.57,.36-1.07,.43-.53,.07-.8,.2-.8,.37,0,.11-.08,.21-.24,.32-.16,.11-.31,.16-.45,.16-.07,0-.16-.18-.27-.53-.11-.35-.14-.6-.11-.75,.04-.14,.34-.35,.9-.64,2.77-1.28,4.24-2.09,4.42-2.45,.25-.18,.27-.39,.05-.64-.21-.25-.34-.44-.37-.58-.36-1.06-.67-1.72-.96-1.97-.18-.18-.27-.37-.27-.59Z"/><path class="cls-2" d="M451.94,35.02c.32-.11,.6-.16,.85-.16,.28,0,.46,.03,.53,.08,.07,.05,.11,.22,.11,.51,0,.39-.07,.59-.21,.59-.35,0-.53,.89-.53,2.66,0,.57-.08,1.01-.24,1.33s-.26,.73-.29,1.22c-.07,.75-.16,1.12-.27,1.12l-.75,5.11c-.04,.11-.12,.53-.27,1.28s-.25,1.17-.32,1.28c-.18,.25-.32,1.03-.43,2.34-.14,1.53-.25,2.36-.32,2.5-.11,.21-.24,.9-.4,2.05-.16,1.15-.24,2.05-.24,2.69,0,.57-.05,.89-.16,.96-.11,.04-.22,.77-.35,2.21-.12,1.44-.22,2.17-.29,2.21-.14,.14-.27,1.1-.37,2.87-.14,1.88-.27,2.82-.37,2.82-.11,.07-.16,.2-.16,.37,0,.14-.14,.36-.43,.64-.18,.18-.34,.27-.48,.27-.25,0-.37-.39-.37-1.17,0-.53,.08-1.39,.24-2.58,.16-1.19,.24-1.82,.24-1.89,.07-.64,.19-1.26,.35-1.86,.16-.6,.27-1.28,.35-2.02,.07-.99,.16-1.54,.27-1.65,.04-.07,.16-.92,.37-2.55,.21-1.63,.35-2.5,.43-2.61,.04-.07,.12-.67,.24-1.78,.12-1.12,.22-1.71,.29-1.78,.14-.07,.25-.53,.32-1.38,.18-2.16,.34-3.25,.48-3.25,.11,0,.19-.48,.27-1.44,.04-.64,.17-1.38,.4-2.24,.23-.85,.36-1.65,.4-2.39,.07-1.1,.18-1.65,.32-1.65,.11,0,.16-.25,.16-.75,0-.64,.08-1.44,.24-2.39,.16-.96,.29-1.47,.4-1.54Z"/></g></g></svg>