<svg id="Layer_2" xmlns="http://www.w3.org/2000/svg" viewBox="0 0 453.54 100.24"><defs><style>.cls-1,.cls-2{fill:#fff;}.cls-2{font-family:'RoyalFlush_Basic-Regular', 'Royal Flush _ Basic';font-size:53.23px;}</style></defs><g id="Layer_1-2"><g><g><path d="M248.48,64.44c-.44,2.69-.84,5.38-1.35,8.05-.12,.64-.04,.93,.49,1.29,6.28,4.34,11.44,9.68,14.42,16.83,1.12,2.7,1.88,5.55,2.78,8.34,.16,.51,.12,1.11-.47,1.27-.33,.09-.86-.1-1.14-.34-7.29-6.48-15.57-11.25-24.79-14.44-.59-.2-1.03-.14-1.56,.18-4.02,2.38-8.42,3.64-12.98,4.42-6.36,1.08-12.78,1.2-19.2,.86-6.25-.33-12.4-1.29-18.17-3.9-.97-.44-1.88-1.01-2.85-1.46-.33-.15-.8-.22-1.13-.11-9.16,3.06-17.38,7.76-24.62,14.17-.18,.16-.33,.38-.54,.46-.33,.12-.78,.28-1.02,.15-.25-.14-.47-.64-.43-.93,.14-.91,.39-1.79,.63-2.68,2.6-9.79,8.39-17.25,16.7-22.88,.37-.25,.57-.43,.43-.98-2.5-9.33-.92-18.05,4.26-26.08,5.62-8.7,13.42-14.75,23.24-18.14,.22-.08,.45-.2,.67-.22,1.56-.09,2.07-.98,2.32-2.46,1.37-7.95,2.86-15.88,4.3-23.81,.17-.92,.48-1.75,1.53-1.96,1.1-.23,1.97,.41,2.2,1.66,.84,4.46,1.67,8.92,2.49,13.38,.73,3.99,1.47,7.99,2.17,11.99,.11,.62,.47,.78,.99,.93,11.48,3.39,20.19,10.34,26.19,20.66,2.81,4.84,4.45,10.44,4.45,15.75,.08,.01-.07,.02,.01,.03Zm-66.97,15.55c2.1,2,4.47,3.43,7.07,4.52,5.59,2.34,11.5,3.11,17.48,3.35,4.87,.19,9.75,.14,14.61-.48,4.14-.53,8.19-1.39,12.02-3.1,2.4-1.07,4.63-2.4,6.49-4.3-14.89-11.85-41.15-12.81-57.67,0Zm10.12-23.35c-.39-1.42-.62-2.8-1.16-4.05-.6-1.39-1.85-1.38-2.5-.02-1.29,2.69-1.28,5.45,.01,8.14,.63,1.3,1.88,1.32,2.46,0,.56-1.27,.8-2.68,1.19-4.07Zm42.25-.08c-.36-1.32-.65-2.68-1.13-3.96-.16-.43-.82-.97-1.22-.94-.46,.03-1.09,.52-1.31,.98-1.26,2.6-1.23,5.27-.06,7.88,.22,.48,.89,1.06,1.34,1.05,.46,0,1.14-.59,1.32-1.07,.46-1.23,.69-2.54,1.05-3.94Z"/><path class="cls-1" d="M181.51,79.99c16.51-12.82,42.77-11.86,57.67,0-1.87,1.89-4.1,3.23-6.49,4.3-3.83,1.7-7.88,2.57-12.02,3.1-4.86,.62-9.73,.68-14.61,.48-5.98-.24-11.89-1.01-17.48-3.35-2.59-1.09-4.97-2.52-7.07-4.52Zm28.85-1.83c-.72-.91-1.34-1.71-1.98-2.48-1.01-1.23-2.2-1.23-3.2,0-.28,.35-.55,.7-.83,1.05-.97,1.23-1.94,2.45-2.92,3.69-.99-.74-1.9-1.41-2.81-2.08-.83-.6-1.2-.55-1.77,.27-.76,1.1-1.54,2.19-2.23,3.34-.19,.32-.26,1-.06,1.23,.4,.45,.84,.08,1.18-.31,.7-.79,1.41-1.57,2.11-2.35,.16,.12,.24,.17,.3,.23,.76,.71,1.51,1.43,2.27,2.14,1.07,1.01,1.55,1,2.61-.06,1.1-1.1,2.19-2.21,3.34-3.38,.69,1.13,1.31,2.14,1.93,3.15,1.13,1.83,2.94,1.82,4.07,0,.61-1,1.24-1.99,1.82-2.91,1.32,1.25,2.57,2.44,3.81,3.63,.83,.8,1.47,.77,2.26-.07,.86-.92,1.75-1.83,2.58-2.7,.73,.7,1.38,1.3,2.01,1.93,.39,.38,.77,.89,1.34,.4,.59-.5,.09-.97-.22-1.39-.7-.96-1.41-1.91-2.13-2.86-.59-.77-1.02-.82-1.79-.21-.9,.72-1.78,1.46-2.72,2.23-.15-.18-.26-.31-.37-.44-1.11-1.47-2.22-2.95-3.34-4.41-1.1-1.42-2.2-1.43-3.33-.05-.64,.78-1.26,1.57-1.95,2.43Z"/><path class="cls-1" d="M191.63,56.64c-.39,1.39-.64,2.8-1.19,4.07-.58,1.32-1.83,1.31-2.46,0-1.29-2.69-1.3-5.45-.01-8.14,.66-1.37,1.9-1.37,2.5,.02,.54,1.25,.77,2.63,1.16,4.05Z"/><path class="cls-1" d="M233.88,56.56c-.36,1.4-.59,2.71-1.05,3.94-.18,.48-.86,1.07-1.32,1.07-.45,0-1.12-.57-1.34-1.05-1.18-2.61-1.2-5.29,.06-7.88,.22-.45,.85-.95,1.31-.98,.4-.02,1.06,.51,1.22,.94,.48,1.28,.77,2.63,1.13,3.96Z"/><path d="M210.36,78.16c.69-.86,1.31-1.65,1.95-2.43,1.13-1.38,2.23-1.37,3.33,.05,1.13,1.46,2.23,2.94,3.34,4.41,.1,.14,.22,.26,.37,.44,.93-.77,1.82-1.51,2.72-2.23,.77-.62,1.2-.56,1.79,.21,.72,.95,1.44,1.9,2.13,2.86,.3,.42,.8,.89,.22,1.39-.57,.48-.96-.02-1.34-.4-.63-.63-1.28-1.24-2.01-1.93-.83,.87-1.72,1.78-2.58,2.7-.79,.85-1.43,.87-2.26,.07-1.24-1.19-2.49-2.37-3.81-3.63-.58,.92-1.2,1.91-1.82,2.91-1.13,1.83-2.94,1.84-4.07,0-.62-1.01-1.24-2.02-1.93-3.15-1.15,1.16-2.24,2.27-3.34,3.38-1.06,1.06-1.54,1.07-2.61,.06-.76-.71-1.51-1.43-2.27-2.14-.06-.06-.14-.11-.3-.23-.7,.78-1.41,1.56-2.11,2.35-.34,.38-.78,.76-1.18,.31-.2-.23-.13-.9,.06-1.23,.68-1.15,1.46-2.24,2.23-3.34,.57-.82,.94-.87,1.77-.27,.91,.66,1.82,1.34,2.81,2.08,.98-1.24,1.95-2.46,2.92-3.69,.28-.35,.55-.71,.83-1.05,1-1.22,2.18-1.23,3.2,0,.64,.78,1.26,1.58,1.98,2.48Z"/><circle cx="189.19" cy="57.14" r="6.43"/><circle cx="230.95" cy="56.76" r="6.43"/><path class="cls-1" d="M191.33,58.92c1.15,0,2.08-.93,2.08-2.08s-.9-2.05-2.02-2.08c.09-.25,.14-.52,.14-.8,0-1.26-1.02-2.29-2.28-2.29s-2.28,1.02-2.28,2.29c0,.28,.05,.55,.14,.8-1.12,.03-2.02,.95-2.02,2.08s.93,2.08,2.08,2.08c.85,0,1.59-.51,1.91-1.25-.64,2.99-2.84,3.47-2.84,3.47h6.04s-2.2-.48-2.84-3.47c.32,.74,1.05,1.25,1.91,1.25Z"/><path class="cls-1" d="M231.89,59.19c1.02,0,1.85-.83,1.85-1.85,0-2.74-3.69-4.84-3.7-4.85,0,0-3.7,2.11-3.7,4.85,0,1.02,.83,1.85,1.85,1.85,.76,0,1.41-.46,1.7-1.11-.57,2.66-2.53,3.09-2.53,3.09h5.37s-1.96-.43-2.53-3.09c.29,.65,.94,1.11,1.7,1.11Z"/></g><text class="cls-2" transform="translate(0 71.84)"><tspan x="0" y="0">card</tspan></text><text class="cls-2" transform="translate(261.24 72.06)"><tspan x="0" y="0">shark</tspan></text></g></g></svg>