<?xml version="1.0" encoding="UTF-8"?><svg id="Layer_2" xmlns="http://www.w3.org/2000/svg" viewBox="0 0 169.82 172.76"><defs><style>.cls-1{fill:#ed2024;}.cls-2{fill:#fff;}.cls-3{fill:#ed1c24;}.cls-4{fill:#2f736a;}</style></defs><g id="Layer_1-2"><g><g><path d="M116.14,52.89c-.36,2.21-.69,4.42-1.11,6.61-.1,.52-.03,.76,.4,1.06,5.15,3.56,9.39,7.95,11.84,13.81,.92,2.21,1.54,4.55,2.28,6.84,.13,.42,.1,.91-.39,1.04-.27,.07-.71-.08-.93-.28-5.99-5.32-12.78-9.24-20.35-11.85-.48-.17-.84-.11-1.28,.15-3.3,1.95-6.91,2.99-10.66,3.63-5.22,.89-10.49,.99-15.76,.7-5.13-.27-10.18-1.05-14.91-3.2-.8-.36-1.55-.83-2.34-1.19-.27-.12-.65-.18-.93-.09-7.52,2.51-14.27,6.37-20.21,11.63-.15,.13-.27,.31-.44,.37-.27,.1-.64,.23-.84,.12-.2-.11-.39-.52-.35-.77,.11-.74,.32-1.47,.51-2.2,2.13-8.04,6.89-14.16,13.7-18.78,.3-.2,.47-.35,.35-.8-2.05-7.65-.76-14.82,3.49-21.41,4.61-7.14,11.01-12.1,19.07-14.89,.18-.06,.37-.17,.55-.18,1.28-.08,1.7-.8,1.91-2.02,1.13-6.52,2.35-13.03,3.53-19.55,.14-.76,.4-1.43,1.26-1.61,.9-.19,1.62,.34,1.81,1.36,.69,3.66,1.37,7.32,2.04,10.99,.6,3.28,1.2,6.56,1.78,9.84,.09,.51,.39,.64,.81,.76,9.42,2.79,16.57,8.48,21.5,16.95,2.31,3.97,3.65,8.57,3.65,12.92,.07,.01-.06,.01,.01,.02Zm-54.97,12.76c1.72,1.64,3.67,2.82,5.8,3.71,4.59,1.92,9.44,2.55,14.35,2.75,4,.16,8,.12,11.99-.4,3.4-.44,6.72-1.14,9.86-2.54,1.97-.88,3.8-1.97,5.33-3.53-12.22-9.73-33.78-10.51-47.33,0Zm8.31-19.16c-.32-1.16-.51-2.3-.96-3.33-.49-1.14-1.52-1.14-2.05-.01-1.06,2.21-1.05,4.48,.01,6.68,.52,1.07,1.54,1.08,2.02,0,.46-1.04,.66-2.2,.98-3.34Zm34.68-.06c-.3-1.09-.53-2.2-.93-3.25-.13-.35-.67-.79-1-.78-.38,.02-.89,.43-1.07,.8-1.03,2.13-1.01,4.33-.05,6.47,.18,.4,.73,.87,1.1,.86,.38,0,.94-.48,1.08-.88,.38-1.01,.57-2.08,.86-3.23Z"/><path class="cls-2" d="M61.17,65.65c13.55-10.52,35.11-9.74,47.33,0-1.53,1.56-3.36,2.65-5.33,3.53-3.14,1.4-6.47,2.11-9.86,2.54-3.99,.51-7.99,.56-11.99,.4-4.91-.2-9.76-.83-14.35-2.75-2.13-.89-4.08-2.07-5.8-3.71Zm23.68-1.5c-.59-.74-1.1-1.4-1.63-2.04-.83-1.01-1.8-1.01-2.62,0-.23,.28-.45,.58-.68,.86-.8,1.01-1.59,2.01-2.39,3.03-.82-.6-1.56-1.16-2.31-1.7-.68-.49-.98-.45-1.45,.22-.62,.9-1.27,1.8-1.83,2.74-.16,.27-.21,.82-.05,1.01,.33,.37,.69,.06,.97-.25,.57-.65,1.16-1.29,1.73-1.93,.13,.1,.2,.14,.25,.19,.62,.58,1.24,1.17,1.86,1.76,.88,.83,1.28,.82,2.15-.05,.9-.91,1.8-1.82,2.75-2.77,.57,.92,1.07,1.75,1.58,2.58,.93,1.5,2.41,1.5,3.34,0,.5-.82,1.02-1.63,1.49-2.39,1.08,1.03,2.11,2,3.12,2.98,.68,.65,1.2,.64,1.85-.06,.71-.76,1.43-1.5,2.12-2.22,.6,.57,1.13,1.07,1.65,1.59,.32,.32,.64,.73,1.1,.33,.48-.41,.07-.8-.18-1.14-.57-.79-1.16-1.57-1.75-2.35-.48-.63-.84-.68-1.47-.17-.74,.59-1.46,1.2-2.23,1.83-.12-.15-.21-.25-.3-.36-.91-1.21-1.82-2.42-2.74-3.62-.9-1.17-1.8-1.18-2.74-.04-.52,.64-1.03,1.28-1.6,1.99Z"/><path class="cls-2" d="M69.48,46.49c-.32,1.14-.52,2.3-.98,3.34-.48,1.09-1.5,1.07-2.02,0-1.06-2.21-1.07-4.47-.01-6.68,.54-1.12,1.56-1.13,2.05,.01,.45,1.02,.63,2.16,.96,3.33Z"/><path class="cls-2" d="M104.16,46.43c-.29,1.15-.49,2.22-.86,3.23-.15,.4-.71,.88-1.08,.88-.37,0-.92-.47-1.1-.86-.97-2.15-.99-4.34,.05-6.47,.18-.37,.69-.78,1.07-.8,.33-.02,.87,.42,1,.78,.39,1.05,.63,2.16,.93,3.25Z"/><path d="M84.85,64.15c.57-.71,1.08-1.36,1.6-1.99,.93-1.13,1.83-1.13,2.74,.04,.93,1.2,1.83,2.41,2.74,3.62,.09,.11,.18,.22,.3,.36,.77-.63,1.49-1.24,2.23-1.83,.63-.51,.99-.46,1.47,.17,.59,.78,1.18,1.56,1.75,2.35,.25,.34,.66,.73,.18,1.14-.47,.4-.79-.01-1.1-.33-.52-.52-1.05-1.01-1.65-1.59-.69,.72-1.41,1.46-2.12,2.22-.65,.69-1.17,.71-1.85,.06-1.02-.98-2.04-1.95-3.12-2.98-.47,.76-.99,1.57-1.49,2.39-.93,1.5-2.41,1.51-3.34,0-.51-.83-1.02-1.66-1.58-2.58-.94,.95-1.84,1.87-2.75,2.77-.87,.87-1.27,.88-2.15,.05-.62-.58-1.24-1.17-1.86-1.76-.05-.05-.12-.09-.25-.19-.58,.64-1.16,1.28-1.73,1.93-.28,.32-.64,.62-.97,.25-.16-.19-.11-.74,.05-1.01,.56-.94,1.2-1.84,1.83-2.74,.47-.67,.77-.72,1.45-.22,.75,.55,1.49,1.1,2.31,1.7,.8-1.01,1.6-2.02,2.39-3.03,.23-.29,.45-.58,.68-.86,.82-1,1.79-1.01,2.62,0,.53,.64,1.04,1.29,1.63,2.04Z"/><circle cx="67.47" cy="46.9" r="5.28"/><circle cx="101.75" cy="46.59" r="5.28"/><path class="cls-2" d="M69.23,48.36c.94,0,1.71-.76,1.71-1.71s-.74-1.68-1.66-1.71c.08-.2,.12-.43,.12-.66,0-1.04-.84-1.88-1.88-1.88s-1.88,.84-1.88,1.88c0,.23,.04,.45,.12,.66-.92,.03-1.66,.78-1.66,1.71s.76,1.71,1.71,1.71c.7,0,1.3-.42,1.57-1.03-.53,2.45-2.33,2.85-2.33,2.85h4.95s-1.81-.39-2.33-2.85c.26,.6,.86,1.02,1.56,1.02Z"/><path class="cls-2" d="M102.52,48.58c.84,0,1.52-.68,1.52-1.52,0-2.25-3.03-3.98-3.04-3.98,0,0-3.04,1.73-3.04,3.98,0,.84,.68,1.52,1.52,1.52,.62,0,1.16-.38,1.39-.91-.47,2.18-2.08,2.54-2.08,2.54h4.41s-1.61-.35-2.08-2.54c.23,.54,.77,.91,1.39,.91Z"/></g><g><path class="cls-2" d="M18.6,102.68c.06,0,.2-.39,.42-1.18s.34-1.19,.37-1.19,.13-.28,.29-.86c.16-.57,.26-.86,.29-.86,.13-.06,.25-.46,.37-1.21,.12-.72,.26-1.18,.43-1.4,.03-.03,.06-.12,.08-.28,.02-.16,.04-.3,.06-.42,.02-.12,.05-.19,.08-.19,.09,0,.11-.16,.06-.49-.05-.33,0-.49,.16-.49,.16-.03,.24-.07,.24-.13-.03-.03-.04-.11-.04-.24,.01-.34,.08-.81,.21-1.4,.13-.59,.23-.9,.29-.93,.09-.03,.21-.36,.34-1,.13-.64,.23-.97,.29-1,.06-.03,.2-.49,.4-1.37,.2-.89,.32-1.34,.35-1.37,.06-.03,.13-.2,.21-.51,.07-.31,.14-.64,.2-.98,.06-.34,.1-.53,.14-.56,.07-.12,.18-.63,.34-1.52,.16-.89,.28-1.41,.38-1.56,.17-.37,.46-.55,.86-.53l.56,.02v1.13c.01,.72-.05,1.08-.17,1.08s-.19,.07-.2,.23c0,.09-.05,.22-.15,.37-.1,.15-.16,.28-.18,.39-.02,.11,.02,.23,.1,.36,.15,.13,.17,.19,.04,.19s-.17,.05-.15,.16c.03,.11-.02,.16-.15,.16-.19,0-.31,.37-.37,1.12,0,.22-.11,.39-.3,.51-.1,.06-.2,.47-.33,1.23-.12,.76-.21,1.18-.28,1.24-.03,.03-.09,.21-.16,.54-.07,.33-.15,.65-.22,.96-.07,.31-.14,.47-.2,.46s-.18,.31-.34,.93c-.16,.62-.25,1.12-.26,1.49,0,.25-.1,.55-.27,.88-.17,.34-.26,.65-.27,.93-.01,.38-.12,.65-.31,.84-.19,.12-.33,.47-.41,1.07-.08,.59-.17,.89-.27,.88-.03,0-.08,.13-.15,.39-.07,.26-.14,.54-.22,.82l-.16,.42c-.07,.12-.21,.57-.42,1.35-.22,.78-.37,1.22-.47,1.35-.17,.25-.26,.62-.27,1.12-.01,.38-.12,.79-.33,1.26s-.33,.85-.37,1.16c-.08,.59-.17,.89-.27,.88-.03,0-.08,.15-.16,.44-.07,.3-.15,.6-.22,.91l-.16,.46c-.13,.06-.26,.4-.41,1.02-.15,.62-.23,1.15-.24,1.59-.03,.88-.3,1.31-.8,1.29-.19,0-.36-.09-.51-.25-.12-.13-.17-.4-.16-.81,.01-.38,.08-.62,.21-.74,.16-.15,.28-.46,.36-.93,.08-.44,.18-.65,.3-.65,.03,0,.08-.18,.16-.54,.08-.36,.15-.72,.23-1.1l.16-.56c.06-.03,.22-.45,.47-1.28,.25-.82,.39-1.26,.42-1.32,.16-.21,.26-.57,.27-1.07,.02-.47,.07-.7,.17-.7Z"/><path class="cls-2" d="M16.59,114.36c.32-.3,.56-.31,.71-.02,0,.03,.21,.11,.63,.23s.63,.22,.62,.28c0,.12,.82,.31,2.47,.56,.62,.08,.98,.21,1.07,.37,.09,.16,.23,.24,.41,.25,.16,0,.23,.06,.23,.15,0,.03,.35,.11,1.05,.25,.7,.13,1.41,.26,2.13,.38l1.07,.23c.06,.07,.52,.18,1.37,.35,.86,.17,1.49,.26,1.89,.28,.34,.01,.54,.08,.6,.21,.03,.13,.49,.21,1.4,.24,.84,.03,1.27,.08,1.26,.14s.38,.18,1.14,.37c.76,.18,1.34,.28,1.75,.3,.31,.01,.59,.08,.84,.22,.06,.03,.51,.13,1.35,.28s1.29,.28,1.35,.38c.03,.09,.4,.15,1.12,.18l.47,.02,.84,.03c.47,.02,.7,.18,.69,.5,0,.16-.03,.28-.06,.37l-.11,.51-1.97-.21c-1.28-.11-1.95-.23-2.01-.35-.06-.1-.31-.15-.75-.17-.5-.02-.91-.11-1.21-.28-.99-.44-2.06-.68-3.22-.72-.47-.02-.73-.1-.79-.26-.03-.09-.77-.25-2.24-.45-1-.1-2.06-.27-3.18-.51-1.12-.24-1.91-.4-2.38-.48-.9-.16-1.39-.27-1.45-.33-.06-.07-.33-.17-.81-.31-.48-.14-.75-.26-.81-.36-.3-.36-.5-.38-.61-.07-.04,.12-.19,.09-.47-.11-.31-.2-.82-.34-1.54-.43-.75-.09-1.17-.18-1.26-.28-.06-.13-.29-.2-.7-.21-.34-.01-.63-.12-.86-.31s-.34-.42-.33-.67c0-.19,.09-.36,.25-.51Z"/><path class="cls-2" d="M28.05,83.46c.43-.11,.64-.21,.65-.31s.29-.13,.85-.11c.81,.03,1.33,.11,1.54,.24,.09,.07,.27,.21,.52,.44,.26,.23,.46,.38,.62,.44,.09,.03,.09,.25-.02,.66-.14,.4-.32,.62-.54,.64-.22,.02-.48-.05-.77-.22-.29-.17-.44-.31-.43-.44s-.12-.22-.37-.27c-.25-.06-.53-.04-.85,.04-.29,.08-.58,.25-.89,.49-.31,.24-.46,.44-.47,.59,0,.13-.05,.19-.15,.18-.13,0-.25,.16-.37,.48-.12,.32-.19,.64-.2,.96-.03,.72,.1,1.08,.38,1.09,.12,0,.22,.07,.28,.2,.06,.16,.4,.25,1.02,.27,.56,.02,.88-.03,.95-.15,.07-.15,.27-.23,.62-.21,.28,0,.45,.05,.51,.11,.06,.07,.09,.24,.08,.52-.01,.31-.13,.57-.36,.76-.23,.2-.51,.29-.86,.28-.25,0-.38,.05-.38,.17,0,.09-.27,.13-.8,.11s-.84-.08-.93-.17c-.03-.09-.21-.18-.56-.25-.44-.11-.8-.4-1.1-.88-.3-.48-.44-.99-.42-1.52,0-.19,.03-.33,.06-.42,.3-1.37,.54-2.05,.73-2.04,.09,0,.15-.17,.16-.51,.01-.38,.13-.57,.35-.6,.22-.05,.37-.16,.43-.31,.03-.06,.26-.15,.69-.26Z"/><path class="cls-2" d="M47.89,86.74c0-.06-.22-.15-.67-.26-.45-.11-.67-.21-.67-.31,0-.06-.21-.17-.65-.33-.43-.16-.78-.24-1.03-.25-.22,0-.33-.06-.32-.15,0-.06-.13-.14-.39-.23-.26-.09-.55-.18-.86-.27-.31-.09-.5-.15-.56-.18-.37-.2-.87-.31-1.49-.33-.69-.02-1.14-.12-1.35-.28-.21-.16-.52-.25-.93-.27-.5-.02-.91-.11-1.21-.28-.86-.44-1.89-.68-3.08-.72-.34-.01-.55-.08-.6-.21-.06-.1-.35-.2-.86-.31-.51-.11-.8-.2-.86-.27-.12-.1-.54-.22-1.26-.37-.72-.15-1.28-.23-1.68-.25-.34-.01-.64-.11-.88-.29-.24-.18-.36-.41-.35-.69,.02-.5,.14-.75,.36-.74,.19,0,.28-.04,.29-.13,0-.03,.09-.02,.26,.03,.17,.05,.35,.14,.53,.25,.18,.12,.31,.21,.37,.27,.06,.07,.84,.23,2.33,.51,.53,.08,.9,.2,1.12,.37,.21,.16,.51,.25,.88,.27,.34,.01,.51,.08,.51,.21,0,.09,.21,.15,.65,.16,.41,.01,.98,.1,1.71,.25,.73,.15,1.16,.28,1.28,.37,.03,.03,.19,.09,.49,.16,.29,.07,.57,.15,.84,.22,.26,.07,.41,.14,.44,.2,.03,.06,.51,.19,1.44,.38,.93,.19,1.43,.32,1.49,.38,.09,.1,.35,.18,.79,.26,.28,.04,.64,.17,1.09,.39,.45,.22,.86,.35,1.23,.4,.53,.08,.82,.22,.88,.41,.06,.16,.23,.24,.51,.25s.45,.06,.51,.16c.03,.09,.24,.18,.65,.26,1.18,.26,1.89,.45,2.12,.57,.23,.12,.34,.35,.33,.69,0,.25-.05,.39-.11,.42-.06,.03-.27,.04-.61,.03-.53-.02-.83-.06-.89-.13-.09-.1-.2-.15-.32-.15-.97-.13-1.45-.29-1.44-.47Z"/><path d="M34.5,96.91c.07,0,.17-.05,.32-.16,.14-.11,.24-.17,.29-.16,.07,0,.18-.06,.36-.2,.17-.13,.26-.23,.26-.28,0-.03,.06-.11,.18-.22s.18-.22,.19-.32c0-.08,.04-.12,.1-.12,.05,0,.11-.07,.18-.22,.09-.15,.21-.22,.38-.21,.05,0,.16,.02,.32,.06,.15,.06,.22,.16,.21,.31,0,.12-.06,.3-.18,.55-.12,.25-.18,.39-.18,.4-.07,.21-.06,.4,.03,.57,.03,.03,.06,.04,.07,.03l.1,.13c.05,.08,.1,.17,.17,.25,.06,.09,.1,.13,.12,.13,.08,0,.12,.05,.12,.15,0,.07,.06,.13,.18,.19,.12,.06,.18,.12,.18,.17,0,.1,.02,.15,.07,.15,.03,0,.11,.12,.24,.36,.12,.24,.19,.36,.21,.36,.05,0,.07,.06,.07,.19s-.03,.2-.08,.23c-.07,.03-.11,.17-.11,.42,0,.2-.05,.42-.12,.67-.08,.25-.14,.37-.19,.37-.03,0-.08,.11-.14,.32-.06,.21-.11,.32-.16,.32s-.11,.1-.19,.32c-.07,.21-.13,.33-.16,.34-.08,.03-.13,.09-.13,.17,0,.1-.1,.2-.29,.31-.14,.11-.26,.17-.38,.16-.08,0-.22-.03-.42-.09-.08-.02-.17-.04-.25-.06-.08-.02-.15-.03-.2-.04-.05,0-.09-.02-.12-.02-.1,0-.15,.09-.16,.27s-.06,.39-.17,.62c-.12,.23-.2,.67-.22,1.34l-.04,1.02-.25,.02c-.13,.03-.34-.03-.62-.17-.23-.12-.55-.21-.96-.26-.41-.05-.62-.11-.62-.17,0-.03-.06-.07-.17-.11-.11-.05-.17-.12-.17-.21,0-.12,.16-.35,.46-.71,.3-.35,.49-.59,.56-.7,.11-.2,.19-.31,.26-.34,.08-.03,.13-.1,.13-.19,0-.05,.06-.17,.16-.37,.05-.1,.08-.19,.08-.27,0-.2-.16-.3-.51-.32-.27,0-.52-.09-.76-.25-.28-.18-.44-.4-.5-.67-.06-.25-.08-.58-.07-.97,.02-.7,.13-1.12,.32-1.26,.1-.06,.15-.11,.15-.14s.13-.17,.4-.42,.46-.4,.58-.47c.1-.06,.2-.16,.3-.29,.1-.13,.2-.23,.32-.29,.17-.08,.25-.13,.25-.17,0-.05,.06-.07,.18-.07Z"/><path class="cls-2" d="M40.3,113.92c.04-1-.48-1.52-1.54-1.56-.44-.02-.82,.06-1.14,.22-.32,.16-.62,.25-.9,.27-.41,.05-.62,.13-.62,.26s-.18,.18-.52,.17c-.22,0-.37-.05-.44-.13s-.15-.28-.24-.6c-.08-.35-.11-.58-.07-.68,.03-.11,.18-.31,.44-.62,.29-.37,.74-.6,1.34-.7,.5-.04,.76-.14,.76-.3,0-.09,.52-.12,1.55-.09s1.5,.12,1.5,.24c0,.09,.07,.14,.23,.15,.12,0,.31,.16,.55,.47,.24,.31,.39,.59,.44,.84,.05,.31,.17,.48,.36,.48,.22,0,.29,.28,.21,.81,0,.19,.05,.35,.17,.48,.12,.16,.05,.49-.22,.98-.2,.4-.62,.93-1.25,1.58-.63,.65-1.03,.97-1.19,.97-.13,0-.19,.06-.19,.18,0,.06-.14,.14-.41,.22-.27,.08-.55,.16-.85,.23-.3,.07-.47,.12-.5,.15-.22,.12-.46,.17-.71,.16-.22,0-.52-.08-.91-.22-.39-.14-.64-.23-.77-.26-.4-.08-.6-.19-.6-.35,0-.13-.11-.25-.34-.36-.23-.12-.34-.27-.34-.46,.02-.63,.33-.88,.92-.77,.03,0,.1,.01,.21,.03,.11,.02,.19,.03,.26,.03,.53,.02,1.18-.02,1.93-.12s1.13-.19,1.14-.29c0-.19,.44-.42,1.29-.71,.28-.08,.43-.31,.45-.69Z"/><path class="cls-2" d="M44.52,110.31c0-.22,.1-.45,.28-.7,.18-.24,.27-.44,.28-.6,.02-.5,.16-1.12,.42-1.87,.26-.74,.41-1.24,.45-1.49,.08-.53,.22-.82,.41-.88,.16-.06,.24-.24,.25-.56,0-.28,.07-.58,.17-.89,.1-.31,.23-.65,.37-1.02,.14-.37,.24-.65,.31-.84,.46-1.61,.74-2.45,.84-2.51,.03-.03,.16-.42,.37-1.19,.21-.76,.35-1.15,.42-1.18,.1-.06,.18-.31,.26-.74,.04-.31,.17-.71,.37-1.19,.2-.48,.33-.89,.37-1.23,.04-.31,.16-.62,.36-.93,.2-.31,.32-.58,.36-.83,.04-.12,.17-.61,.4-1.44,.23-.84,.36-1.41,.37-1.73,.02-.44,.09-.67,.21-.7,.41-.17,.75-.08,1.02,.27,.33,.45,.37,.67,.12,.66-.06,0-.2,.39-.42,1.18s-.34,1.19-.37,1.19-.12,.22-.26,.67c-.14,.45-.23,.67-.26,.67l-.21,.6c-.14,.37-.28,.74-.42,1.11l-.21,.6s-.09,.21-.18,.53c-.09,.33-.17,.67-.25,1.03-.08,.36-.11,.55-.11,.58-.07,.12-.2,.5-.39,1.14-.2,.64-.34,1.03-.44,1.18-.2,.37-.3,.62-.31,.74s-.06,.28-.16,.46c-.36,.55-.56,1.33-.6,2.33,0,.28-.08,.42-.2,.42-.09,0-.18,.18-.25,.56-.08,.37-.3,.93-.67,1.67-.13,.25-.2,.43-.21,.56,0,.16-.06,.33-.16,.51-.07,.09-.19,.53-.38,1.33-.19,.79-.33,1.23-.42,1.33,0,.03-.04,.17-.11,.42-.07,.25-.15,.48-.24,.7-.09,.22-.15,.32-.18,.32-.13,0-.19,.18-.21,.56,0,.25-.07,.46-.19,.63-.12,.17-.18,.36-.18,.58,0,.28-.07,.51-.17,.7-.5,.83-.83,1.65-.98,2.46-.15,.68-.26,1.04-.32,1.07-.13,.06-.23,.37-.31,.93-.08,.53-.26,.82-.55,.87-.32,.05-.52,.03-.61-.07s-.1-.3-.03-.61c.04-.28,.13-.59,.27-.93,.14-.34,.24-.71,.32-1.12,.15-.68,.29-1.06,.42-1.11,.06-.03,.17-.28,.31-.77,.14-.48,.23-.72,.26-.72,.09,0,.23-.39,.42-1.18,.18-.79,.31-1.19,.37-1.19,.09,0,.15-.12,.15-.37Z"/><path class="cls-2" d="M53.24,88.1c.1-.12,.28-.15,.54-.1,.26,.06,.41,.15,.44,.27,.06,.19,.08,.44,.07,.75s.03,.5,.12,.57c.12,.13,.2,.59,.23,1.37,.13,2.42,.23,3.64,.29,3.68,.12,.13,.22,.56,.28,1.28,.07,.6,.2,1.54,.39,2.83,.19,1.29,.34,2.52,.46,3.68,.04,.69,.12,1.27,.24,1.75s.2,1.21,.23,2.22c.13,1.57,.21,2.4,.24,2.5,.14,.32,.25,1.03,.3,2.13,.14,1.38,.24,2.11,.3,2.17,.06,.1,.11,.65,.15,1.65,.04,1,.08,1.55,.11,1.65,0,.03,.03,.35,.11,.97,.07,.61,.15,1.2,.22,1.75,.07,.55,.14,.83,.21,.83,.09,0,.14,.13,.13,.38,0,.12,0,.21,.04,.26,.03,.05,.14,.07,.33,.08l1.22-.05c1-.03,1.68-.1,2.03-.21,.25-.09,.62-.12,1.08-.1,.34,.01,.8-.01,1.37-.07,.57-.06,1.18-.15,1.84-.26,.66-.12,1.13-.19,1.42-.21,.72-.07,1.21-.16,1.47-.28,.06-.06,.62-.15,1.65-.27s1.59-.19,1.65-.22c.79-.25,1.85-.45,3.17-.59,1.26-.14,2-.31,2.23-.49,.06-.03,.46-.09,1.18-.17,.72-.08,1.12-.16,1.18-.22,.06-.06,.53-.16,1.4-.3,.87-.14,1.33-.24,1.4-.3,.22-.15,.4-.16,.52-.03,.12,.13,.18,.37,.16,.71-.01,.38-.12,.62-.33,.74-.21,.12-.72,.18-1.53,.18-.66,.04-1.01,.09-1.04,.15-.07,.09-.46,.21-1.19,.36-.73,.15-1.12,.23-1.18,.26-.1,.06-.66,.13-1.68,.2-1.02,.07-1.58,.14-1.68,.2-.19,.12-.59,.2-1.18,.24-.63,.04-.94,.11-.95,.2s-.38,.16-1.14,.2c-.66,.04-1.34,.14-2.03,.3-.54,.14-1.39,.25-2.55,.33-.72,.04-1.29,.12-1.7,.25-.41,.13-.9,.2-1.46,.21-.66,.04-1.13,.12-1.42,.23-.09,.03-.41,.07-.94,.13-.54,.06-1.03,.14-1.49,.23-.46,.09-.73,.19-.83,.28-.19,.18-.4,.27-.62,.26-.25,0-.47-.12-.67-.33-.2-.21-.29-.47-.28-.79,0-.28-.15-.52-.49-.72-.25-.13-.39-.41-.44-.84-.05-.43-.1-1.75-.14-3.98,.02-.44-.02-.82-.1-1.13-.08-.32-.13-.73-.14-1.23-.01-.53-.1-1.26-.28-2.17-.17-.92-.26-1.72-.27-2.41-.03-.97-.09-1.46-.18-1.46s-.17-.5-.23-1.49c-.06-.99-.14-2.17-.25-3.53-.11-1.37-.26-2.37-.46-3-.03-.06-.12-.67-.26-1.82-.15-1.15-.25-1.77-.31-1.87-.06-.06-.12-.58-.18-1.53-.06-.96-.12-1.47-.18-1.53-.03-.06-.11-.65-.24-1.77-.13-1.12-.23-1.71-.29-1.77-.09-.1-.15-.29-.17-.59-.02-.3,.02-.49,.11-.58Z"/><path class="cls-2" d="M77.49,82.94c.32-.08,.58-.12,.8-.11,.38,.01,.57,.18,.59,.49,.05,.28,.01,.55-.12,.79-.1,.15-.58,.25-1.44,.28-.86,.03-3.19,.04-6.98,.04-.78,.04-1.23,.1-1.32,.19-.13,.12-.38,.17-.76,.16-.28,0-.64,.04-1.09,.15-.25,.05-1.15,.19-2.69,.4-1.54,.21-2.44,.35-2.69,.4-.51,.11-1.02,.15-1.56,.13-.63-.02-.94,.06-.95,.25,0,.13,.11,.32,.36,.58,.3,.32,.54,.68,.71,1.06s.38,.93,.62,1.64c.24,.71,.41,1.18,.49,1.4,.35,.76,.52,1.24,.51,1.43,0,.09,.06,.14,.18,.15s.21,.23,.26,.67c.02,.25,.22,.63,.59,1.15,.37,.51,.56,.91,.55,1.19-.01,.38-.16,.59-.45,.64-.06,.03-.16,.04-.28,.04-.19,0-.36-.12-.53-.35-.16-.22-.41-.67-.73-1.34-.41-.89-.78-1.34-1.13-1.36-.16,0-.39,.06-.71,.21-.32,.15-.6,.21-.85,.2-.66-.02-1.01,.61-1.05,1.89-.03,.72-.12,1.19-.28,1.4-.16,.15-.34,.22-.52,.22s-.3-.07-.32-.2c-.04-.63-.1-1.19-.18-1.7-.01-.47,.04-.77,.17-.89,.1-.09,.23-.57,.4-1.44,.17-.87,.29-1.35,.36-1.44,.1-.12,.22-.59,.38-1.4,.15-.81,.24-1.45,.26-1.92,.02-.5,.11-.9,.28-1.21,.13-.21,.2-.37,.2-.46s-.06-.14-.18-.15c-.06,0-.18,.02-.35,.06-.17,.04-.31,.06-.4,.06-.63,.1-1.12,.15-1.46,.14-.38-.01-.6,.04-.66,.16-.1,.15-.26,.2-.48,.15-.22-.05-.32-.16-.32-.32,.01-.41,.37-.66,1.06-.76,.5-.04,.82-.13,.95-.25,.03,0,.72-.07,2.08-.21,1.35-.14,2.04-.23,2.08-.26,.07-.09,.45-.19,1.14-.29,.22-.02,.61-.1,1.16-.22,.55-.12,1.06-.21,1.54-.27,.47-.06,.9-.09,1.27-.07,.47,.02,.74-.04,.8-.16,.06-.03,.63-.09,1.7-.18,1.07-.09,1.63-.16,1.7-.22,.1-.06,.97-.15,2.62-.28s2.51-.21,2.57-.24c.19-.06,.36-.08,.52-.08,.09,0,.27,.02,.52,.04,.25,.02,.44,.04,.56,.04,.25,0,.42,0,.52-.03Z"/><path class="cls-4" d="M59.8,90.07c-.24-.45-.4-.67-.49-.68-.16,0-.3,.52-.43,1.58l-.13,1.12,.66-.07c.57-.07,.86-.28,.87-.63,0-.19-.15-.63-.47-1.33Z"/><path class="cls-3" d="M69.78,98.14s.08-.11,.23-.2c.15-.09,.36-.17,.61-.25,.26-.08,.5-.11,.73-.1h.16c.36,.04,.75,.28,1.18,.71,.41,.42,.61,.75,.6,1.01s.02,.47,.07,.64c.04,.17,.05,.29,.05,.35,0,.15-.04,.3-.11,.46s-.15,.32-.26,.48c-.1,.17-.17,.29-.22,.37-.2,.39-.44,.77-.71,1.12-.16,.18-.23,.33-.24,.44,0,.08-.13,.29-.39,.61-.25,.32-.5,.59-.74,.82-.18,.16-.32,.35-.43,.56-.13,.21-.38,.35-.74,.42-.36,.05-.61-.02-.75-.22-.14-.2-.21-.34-.21-.42s-.04-.13-.12-.13c-.04,0-.28-.22-.71-.66-.43-.44-.68-.66-.74-.66-.11,0-.24-.11-.4-.33-.16-.17-.39-.37-.68-.58-.29-.21-.52-.42-.71-.61-.35-.35-.54-.72-.56-1.1,0-.04,0-.1,0-.18,0-.07-.01-.12-.01-.14,0-.19,.11-.5,.32-.94,.27-.46,.46-.69,.56-.71,.13-.04,.19-.09,.2-.15,0-.08,.05-.13,.13-.12,.04,0,.26-.08,.64-.23,.39-.16,.85-.22,1.4-.2s.87,.11,.97,.26c.16,.28,.31,.29,.44,.02,.05-.1,.13-.15,.26-.15,.11,0,.16-.05,.16-.15Z"/><path class="cls-2" d="M72.77,108.96c0-.06-.1-.36-.3-.9-.2-.54-.3-.86-.3-.95,0-.22,.16-.35,.46-.41,.3-.05,.54,.02,.72,.21,.24,.2,.44,.3,.6,.3,.22,0,.43,.2,.64,.59,.55,1.18,.92,1.87,1.1,2.06,.03,.03,.12,.05,.28,.06,.69,.02,1.24-.1,1.66-.36,.19-.12,.35-.42,.48-.9,.13-.48,.22-.77,.29-.86,.03-.06,.1-.23,.21-.51s.21-.53,.33-.74c.12-.21,.24-.34,.37-.36,.25-.05,.43-.08,.52-.08,.44,.02,.65,.24,.63,.68,0,.16-.03,.28-.06,.37,0,.06-.14,.89-.42,2.48-.16,.97-.41,1.98-.74,3.03-.34,1.05-.58,1.97-.73,2.75-.22,.99-.43,1.55-.62,1.67-.13,.06-.22,.09-.28,.08-.34-.01-.63-.29-.86-.83-.09-.22-.32-.62-.71-1.2-.39-.58-.74-1.12-1.05-1.61s-.46-.84-.46-1.03c0-.09-.19-.41-.58-.96-.39-.55-.61-1.01-.66-1.39-.05-.41-.15-.66-.3-.76-.15-.1-.23-.24-.22-.43Z"/><path class="cls-4" d="M77.49,112.41c.15-.78,.1-1.19-.14-1.23-.03,0-.08-.01-.14-.03-.06-.02-.11-.03-.14-.03-.53-.02-.81,.22-.82,.72,0,.28,.09,.67,.29,1.16,.2,.49,.37,.74,.49,.75,.19,0,.34-.44,.47-1.35Z"/><path class="cls-2" d="M79.72,83.77c.1-.12,.25-.16,.45-.1,.2,.05,.36,.16,.48,.32,.18,.23,.26,.93,.25,2.12,.02,1.13,.09,1.84,.21,2.12,.12,.19,.3,2.19,.54,5.99,.03,.88,.1,1.57,.21,2.08,.11,.51,.18,1.18,.21,2.03,.03,1.03,.1,1.65,.22,1.84,.06,.07,.13,.66,.22,1.79,.07,.72,.17,1.45,.3,2.17,.13,.73,.22,1.4,.26,2.03,.28,2.77,.49,4.76,.63,5.99,.17,1.39,.32,2.11,.44,2.18,.06,.03,.09,.13,.08,.28,0,.22-.09,.46-.26,.72-.17,.26-.33,.39-.48,.38s-.27-.23-.35-.67c-.02-.31-.08-.66-.18-1.04-.1-.38-.17-.87-.21-1.46-.02-.25-.13-1.25-.32-3-.19-1.75-.36-3.06-.52-3.94-.11-.57-.15-1.16-.12-1.79,.02-.53-.03-.97-.14-1.32-.11-.35-.18-.82-.19-1.42,0-.66-.09-1.37-.25-2.15-.16-.77-.25-1.49-.25-2.15-.03-.85-.11-1.41-.22-1.7-.09-.19-.14-1.02-.15-2.5,.03-.94-.02-1.68-.16-2.21-.14-.54-.21-1.09-.22-1.65-.01-.56-.08-1.04-.21-1.44-.13-.4-.2-.75-.22-1.07-.05-.5-.08-.77-.11-.8-.06-.06-.08-.35-.06-.85,.02-.47,.06-.73,.12-.8Z"/><path class="cls-2" d="M84.52,114.12c.12,0,.3-.84,.51-2.54,.22-1.7,.39-2.55,.51-2.54,.06,0,.13-.47,.19-1.43,.06-.95,.14-1.95,.22-2.98s.17-1.61,.27-1.73c.13-.12,.29-1.3,.48-3.53,.19-2.23,.31-4.23,.38-5.98,.06-1.66,.17-2.61,.34-2.86,.2-.28,.2-.43,.02-.47-.12-.07-.19-.26-.19-.57,0-.31,.06-.5,.18-.56,.13-.12,.22-.78,.26-1.97,.04-1.25,0-1.88-.12-1.88s-.18-.18-.17-.52c.01-.31,.08-.47,.2-.46s.19-.16,.21-.51c0-.25,.04-.4,.09-.44s.21-.06,.5-.05c.41,.01,.61,.12,.6,.3,0,.06,0,.19,.01,.38,0,.19,.01,.35,0,.47-.07,1.97-.19,3.03-.35,3.18-.1,.09-.22,1.34-.37,3.75-.1,1.85-.28,4.01-.53,6.49-.26,2.48-.42,4.13-.48,4.94-.21,2.44-.38,3.98-.49,4.64-.07,.28-.11,.59-.13,.94,0,.25,.05,.44,.17,.57,.18,.19,.14,.37-.11,.51-.38,.24-.61,1.34-.68,3.31l-.04,1.08-.02,.61c-.02,.66-.13,1.12-.33,1.4-.2,.24-.34,.36-.43,.34s-.26-.17-.5-.46c-.27-.29-.4-.66-.38-1.1,0-.22,.07-.33,.2-.32Z"/><path class="cls-2" d="M110.67,83.03h.14c.34,.02,.94,.15,1.8,.4,.85,.25,1.42,.38,1.7,.39,.25,0,.41,.05,.47,.11,.06,.07,.09,.24,.08,.52l-.02,.66-1.22-.18c-.81-.09-1.28-.2-1.4-.33-.06-.03-.59-.11-1.59-.24-1-.13-1.53-.23-1.59-.29-.33-.32-2.33-.55-5.99-.68-2.75-.1-4.15-.19-4.17-.29-.09-.16-2.75-.36-7.97-.61-.91-.03-1.35-.31-1.33-.85,0-.03,.01-.08,.03-.14,.02-.06,.03-.11,.03-.14,.08-.4,.19-.6,.35-.6l2.06,.35c2.87,.48,6.66,.83,11.38,1.06,3.13,.14,5.05,.37,5.76,.67,.28,.1,.78,.17,1.5,.19Z"/><path class="cls-2" d="M88.62,117.84c.23-.21,.59-.31,1.09-.29,.44,.02,.83,.04,1.17,.09,1.28,.11,1.97,.21,2.06,.31,.18,.13,3.22,.3,9.1,.51l9.25,.33c.19,0,.27,.28,.25,.81-.02,.5-.14,.76-.36,.79-.06,.03-.19,.04-.38,.03-.59-.02-.95-.13-1.07-.32-.06-.07-.23-.06-.52,.03-.29,.11-.54,.11-.75-.03-.21-.13-.73-.21-1.54-.24-.75-.03-1.19,.02-1.32,.14-.13,.12-.27,.12-.42-.01-.18-.16-2.15-.33-5.91-.49-3.91-.2-5.97-.32-6.19-.36-.56-.11-1.43-.19-2.62-.23-1.41-.08-2.12-.22-2.15-.4-.06-.19,.04-.41,.3-.65Z"/><path class="cls-2" d="M94.09,91.99c-.13,0-.25-.16-.36-.46-.11-.3-.22-.45-.31-.46-.16,0-.31-.12-.46-.35-.12-.22-.36-.34-.74-.36l-.52-.02,.05,1.18v.42c-.05,.88-.41,1.3-1.09,1.28-.41-.01-.6-.21-.59-.59,0-.28,.05-.52,.12-.7,.14-.5,.25-1.78,.32-3.84,.05-1.53,.04-2.33-.06-2.4-.12-.13-.18-.24-.18-.34,.01-.34,.26-.63,.74-.87,.32-.14,.59-.21,.81-.21,.03,0,.17,.02,.42,.06,.25,.04,.5,.06,.75,.07,.63,.02,1.07,.18,1.35,.47,.27,.29,.45,.44,.55,.44,.12,0,.19,.09,.18,.24,0,.19,.14,.4,.45,.63,.33,.29,.49,.64,.48,1.05-.02,.47-.1,.72-.26,.74-.19,.06-.29,.15-.29,.27,0,.19-.27,.52-.79,1.01-.13,.12-.2,.23-.2,.32s.2,.43,.62,1.01c.51,.68,.82,1.27,.92,1.77,.11,.54,.19,.82,.25,.85,.22,.1,.28,.45,.2,1.04,0,.16-.13,.28-.37,.36s-.5,.09-.78,.02c-.28-.1-.41-.33-.4-.67s-.09-.66-.3-.95c-.21-.23-.31-.46-.3-.72,0-.22-.07-.33-.22-.34Z"/><path class="cls-4" d="M93.18,85.94c0-.09-.17-.15-.51-.16-.22,0-.35,.03-.4,.1-.05,.08-.11,.33-.19,.77-.04,.19-.06,.44-.07,.75-.02,.59,.14,.94,.48,1.05,.12,.04,.3,.06,.51,.07,.44,.02,.73-.22,.87-.72,.1-.31,.16-.57,.17-.79,.01-.41-.15-.66-.49-.77-.25-.07-.37-.17-.37-.29Z"/><path d="M100.94,96.82c0-.14,.04-.22,.1-.25,.06-.02,.19-.03,.38-.03h.08c.21,.01,.33,.02,.35,.04,.03,.02,.04,.12,.03,.29,0,.21,.06,.36,.19,.46,.12,.09,.18,.18,.18,.27,0,.12,.06,.24,.2,.35,.27,.31,.44,.63,.52,.97,.09,.3,.16,.45,.19,.45,.02,0,.06,.1,.13,.29,.07,.2,.13,.3,.16,.32,.09,.04,.13,.12,.12,.24,0,.09,.05,.2,.15,.35,.1,.13,.13,.66,.1,1.61-.03,.74-.09,1.21-.18,1.42-.17,.31-.7,.53-1.58,.66-.34,.04-.54,.14-.6,.28-.07,.15-.12,.59-.17,1.33-.07,.93-.11,1.42-.13,1.47-.02,.09-.12,.14-.3,.16-.18,.02-.29-.01-.34-.1-.03-.07-.36-.14-.97-.19-.61-.07-.96-.18-1.04-.33-.05-.07-.07-.13-.07-.19,0-.07,.09-.26,.26-.57,.21-.34,.31-.6,.32-.78s.05-.31,.15-.39c.18-.17,.28-.43,.29-.78,0-.11-.02-.19-.07-.24-.1-.09-.35-.14-.73-.16h-.37c-.25,0-.42-.1-.52-.29-.12-.2-.19-.3-.23-.3-.05,0-.08-.07-.07-.21,0-.16-.03-.3-.12-.43-.1-.14-.15-.34-.14-.58,0-.14,.03-.21,.09-.21,.07,0,.13-.1,.17-.31,.02-.1,.09-.25,.2-.43s.17-.34,.18-.48c0-.11,.06-.2,.17-.27s.17-.16,.19-.24c.04-.14,.21-.36,.5-.67,.29-.27,.44-.44,.44-.51,0-.05,.06-.09,.16-.13,.12-.03,.26-.15,.41-.35,.22-.29,.42-.53,.61-.72,.27-.29,.41-.47,.41-.54s.04-.1,.11-.1c.05,0,.08-.06,.09-.18Z"/><path class="cls-2" d="M106.14,107.69c.07-.22,.15-.32,.25-.32,.22,0,.46,.17,.73,.5,.27,.32,.48,.66,.62,1.01,.23,.54,.38,.81,.44,.82,.09,0,.17,.15,.22,.43,.11,.54,.29,.53,.56-.03,.03-.09,.07-.19,.1-.28,.11-.34,.31-.68,.6-1.01,.29-.27,.47-.55,.55-.83,.07-.31,.24-.46,.49-.45,.28,0,.47,.1,.58,.28,.1,.18,.15,.55,.13,1.11s-.05,1.05-.1,1.45c-.11,1.47-.24,2.23-.36,2.29-.19,.12-.3,.65-.34,1.59-.01,.31,.01,.6,.06,.85,.06,.19,.08,.47,.06,.85-.03,.75-.18,1.12-.46,1.11-.22,0-.36,.05-.43,.17-.13,.12-.62,.17-1.46,.14s-1.36-.11-1.54-.24l-.27-.24c-.21-.17-.38-.28-.5-.35-.46-.36-.68-.73-.67-1.1,0-.16,.07-.23,.2-.23s.2-.23,.21-.7c.01-.38,.06-.62,.14-.75,.08-.12,.35-.3,.79-.54,.64-.35,.96-.69,.98-1,0-.25-.19-.48-.59-.68-.28-.17-.42-.48-.44-.96-.05-.47-.15-.79-.3-.95-.24-.26-.35-.75-.32-1.47,0-.25,.03-.41,.06-.47Z"/><path class="cls-4" d="M108.42,115.06c-.11-.41-.24-.62-.4-.63s-.35,.1-.58,.33c-.23,.23-.34,.42-.35,.57s.11,.28,.36,.37c.25,.09,.5,.1,.75,.05,.19-.03,.29-.08,.31-.15,.02-.08-.01-.26-.1-.54Z"/><path class="cls-2" d="M115.18,88.64c.13-1.81,.38-2.71,.75-2.7,.06,0,.2,.09,.41,.25,.15,.16,.22,.42,.21,.76,0,.28-.04,.53-.07,.75-.09,.84-.19,1.31-.28,1.4-.1,.22-.22,1.32-.35,3.32-.1,2.06-.26,3.27-.46,3.6-.17,.31-.28,1.31-.34,3-.14,2.16-.29,3.67-.44,4.54-.12,.84-.2,1.61-.22,2.3v.42c.03,.47-.01,.86-.15,1.17-.14,.28-.28,1.75-.44,4.4-.11,2.1-.21,3.36-.3,3.8-.09,.43-.34,.65-.75,.63-.16,0-.27-.03-.33-.08-.06-.05-.09-.2-.08-.45,0-.03,.05-.48,.14-1.36,.1-1.12,.17-2.27,.21-3.42,.04-1.25,.13-1.89,.26-1.92,.13-.06,.2-.38,.22-.98,.02-.69,.14-2.01,.35-3.96,.21-1.95,.32-2.96,.32-3.02,.1-1.03,.2-1.65,.3-1.87,.03-.09,.11-.77,.24-2.04,.12-1.26,.24-2.55,.35-3.87,.11-1.31,.17-2.02,.17-2.11,.08-.5,.17-1.36,.28-2.58Z"/><path class="cls-2" d="M138,78.59c0-.12,.24-.23,.72-.3,.47-.08,.85-.11,1.13-.1,.38,.01,.56,.11,.55,.3,0,.13,0,.25,.03,.38,.03,.13,.04,.21,.04,.24,0,.16-.29,.29-.86,.39-.63,.13-.95,.25-.95,.34s-.22,.13-.66,.12c-.47-.02-.75,.05-.85,.2-.03,.03-.28,.1-.74,.21-.46,.11-.91,.21-1.35,.3-.44,.09-.66,.16-.66,.19,0,.09-.1,.14-.29,.13-.16,0-.53,.1-1.12,.31-.59,.21-.96,.33-1.12,.36-.38,.05-.57,.14-.57,.26,0,.09-.23,.18-.69,.26-.46,.08-.69,.15-.69,.21,0,.03-.27,.13-.81,.3-.6,.17-.92,.31-.96,.44-.04,.12-.23,.18-.57,.17-.28,0-.42,.03-.43,.13,0,.03-.26,.13-.76,.3-.51,.17-.76,.29-.76,.35,0,.09-.21,.18-.62,.26-.41,.08-.62,.15-.62,.21s-.29,.18-.86,.35-.86,.27-.86,.3-.32,.13-.95,.3c-.63,.17-.95,.26-.95,.3,0,.06-.17,.14-.5,.22-.33,.08-.5,.17-.5,.26,0,.03-.18,.1-.55,.19-.36,.1-.74,.19-1.14,.29-.4,.1-.61,.14-.64,.14-.13,.06-.22,.09-.28,.08-.31-.01-.47-.56-.46-1.66v-1.27l.56-.03c.25-.02,.4,0,.45,.04s.06,.25,.05,.59c-.02,.47,.02,.71,.12,.71s.4-.1,.93-.32,.85-.32,.97-.32c.34,.01,.69-.07,1.04-.25,.8-.38,1.53-.65,2.19-.82,.25-.05,.51-.15,.76-.28,.26-.13,.55-.21,.9-.23,.41-.05,.62-.13,.62-.26,0-.06,.28-.21,.84-.44,.56-.23,.91-.34,1.07-.34s.69-.18,1.59-.55c.91-.38,1.41-.58,1.5-.61,.13-.03,.62-.2,1.48-.51,1.3-.55,2.43-.92,3.38-1.1,.66-.16,1-.26,1-.29,0-.06,.31-.14,.92-.23,.61-.09,.92-.16,.92-.23Z"/><path class="cls-2" d="M118.62,94.87c-.06,0-.16-.23-.3-.69-.14-.46-.24-.69-.3-.69-.03,0-.1-.18-.19-.55-.1-.36-.2-.73-.31-1.09-.11-.36-.18-.56-.21-.6-.15-.1-.23-.26-.22-.48,0-.16-.08-.36-.26-.62-.18-.26-.26-.68-.24-1.28,.01-.31,.06-.5,.16-.56,.1-.09,.19-.13,.29-.13,.22,0,.43,.17,.64,.49,.21,.32,.31,.65,.29,1,0,.28,.03,.42,.13,.43s.21,.32,.34,.95c.13,.63,.23,.95,.3,.95,.09,0,.14,.16,.12,.47s.06,.58,.21,.81c.12,.16,.26,.54,.43,1.14,.11,.54,.21,.81,.3,.81s.23,.21,.4,.63c.17,.41,.3,.84,.38,1.28,.05,.32,.14,.59,.28,.81,.13,.22,.22,.51,.28,.86,.05,.47,.15,.71,.3,.72s.23,.15,.22,.43c0,.22,.08,.47,.26,.74,.18,.27,.28,.52,.3,.74,.05,.38,.16,.66,.35,.86,.15,.16,.22,.35,.21,.57,0,.28,.09,.65,.29,1.09,.2,.45,.3,.72,.3,.81s.07,.22,.22,.38c.18,.19,.27,.42,.26,.67,0,.16,.09,.5,.29,1.04,.2,.54,.3,.89,.29,1.04,0,.13,.07,.34,.24,.64,.16,.3,.24,.52,.24,.64,0,.19,.08,.38,.26,.57,.06,.07,.14,.33,.23,.81,.09,.47,.18,.76,.28,.86,.09,.07,.27,.43,.55,1.1,.27,.67,.41,1.06,.4,1.19,0,.19,.04,.28,.13,.29,.06,0,.18,.34,.34,1.02s.26,1.02,.29,1.02c.06,0,.16,.26,.3,.79,.14,.52,.25,.79,.35,.79,.25,0,.24,.15-.01,.42l-.29,.23c-.26,.12-.47,.14-.66,.07-.19-.07-.27-.21-.27-.43,0-.19-.05-.36-.17-.52-.12-.16-.19-.34-.22-.53-.05-.35-.12-.52-.22-.52s-.24-.41-.45-1.21c-.21-.81-.31-1.27-.3-1.4,0-.25-.06-.53-.2-.85-.37-.95-.55-1.62-.54-1.99,0-.09-.11-.3-.35-.62-.12-.16-.24-.38-.38-.67-.13-.29-.26-.61-.39-.98-.13-.36-.22-.63-.28-.79-.15-.32-.21-.59-.21-.81,0-.19-.04-.28-.13-.29-.13,0-.18-.15-.17-.43,0-.22-.04-.4-.15-.55-.1-.14-.15-.31-.15-.5,0-.28-.03-.42-.13-.43s-.18-.26-.26-.76c-.08-.5-.15-.76-.21-.76-.09,0-.2-.22-.31-.65-.11-.43-.2-.66-.26-.69-.06-.03-.15-.22-.26-.57-.11-.35-.22-.52-.31-.53s-.17-.22-.21-.67c-.05-.44-.16-.76-.34-.95-.15-.16-.22-.32-.22-.48s-.07-.36-.21-.62c-.18-.26-.29-.67-.33-1.23-.04-.57-.14-.88-.3-.95-.06-.03-.16-.22-.29-.57-.13-.35-.21-.52-.24-.53Z"/><path class="cls-2" d="M124.08,93.37c0,.06-.17,.17-.5,.31-.33,.15-.5,.26-.51,.36,0,.16-.05,.17-.14,.04-.03-.13-.18-.22-.46-.3-.16-.04-.31-.28-.47-.74-.16-.46-.3-.72-.42-.79-.22-.13-.32-.28-.31-.43s-.04-.24-.13-.24c-.13,0-.21-.24-.26-.71-.02-.31-.13-.57-.33-.76-.2-.19-.31-.43-.33-.72-.05-.38-.12-.57-.21-.57-.13,0-.19-.07-.18-.19,0-.28,.26-.65,.74-1.1,.52-.42,1.17-.69,1.96-.82,.82-.1,1.31-.19,1.47-.28,.29-.15,.49-.14,.61,.02,.03,.09,.2,.15,.51,.16,.25,0,.6,.29,1.05,.84l.67,.87c-.01,.31-.04,.79-.1,1.43-.05,.64-.09,1.12-.1,1.43l-1.12,1.04c-.65,.67-1.07,1-1.26,.99-.13,0-.19,.06-.19,.18Z"/><path class="cls-4" d="M125.67,89.67c.02-.53-.12-.98-.42-1.33-.3-.36-.7-.54-1.2-.56-.41,.02-.84,.07-1.3,.17-.46,.09-.69,.19-.69,.28s-.08,.14-.24,.13c-.19,0-.29,.19-.3,.6-.01,.38,.07,.57,.26,.57,.16,0,.23,.13,.22,.38,0,.22,.06,.36,.22,.43,.19,.07,.3,.28,.35,.62,.05,.32,.12,.47,.22,.48s.17,.15,.22,.43c.05,.28,.19,.45,.41,.48,.1-.06,.16-.12,.19-.18,0-.12,.07-.19,.19-.18s.46-.25,1.01-.76c.39-.36,.62-.62,.71-.77,.08-.15,.13-.42,.15-.79Z"/><path class="cls-2" d="M150.01,111.07c.19,0,.28-.04,.29-.13s.17-.18,.5-.26c.33-.08,.5-.19,.5-.31,0-.25,.15-.26,.42-.03,.18,.16,.3,.32,.36,.48,.17,.63,.06,1.01-.32,1.12-.22,.06-.33,.13-.34,.22s-.29,.16-.85,.21c-.53,.04-.93,.16-1.19,.33-.16,.15-.35,.22-.57,.21-.19,0-.36,.07-.52,.22-.03,.03-.21,.1-.52,.22-.32,.11-.62,.22-.9,.32-.29,.1-.43,.17-.43,.2,0,.06-.06,.12-.17,.18-.11,.06-.25,.11-.4,.15-.16,.04-.25,.08-.29,.11-.16,.12-.49,.29-.98,.51-.49,.22-.82,.37-.98,.46-.35,.21-.62,.31-.81,.3-.16,0-.39,.06-.71,.21-.32,.14-.48,.25-.48,.31,0,.09-.23,.16-.67,.21-.47,.05-.79,.14-.95,.3-.16,.15-.29,.23-.38,.22s-.46,.14-1.1,.43c-.64,.29-.99,.48-1.05,.57-.1,.12-.31,.25-.65,.38-.33,.13-.61,.19-.83,.18-.25,0-.41,.05-.48,.17-.07,.12-.35,.18-.85,.16-.53-.02-.82,.05-.85,.2-.07,.15-.21,.23-.43,.22s-.33,.05-.34,.18c0,.09-.26,.16-.76,.21-.31,.02-.69,.15-1.12,.38-.43,.23-.85,.35-1.26,.33-.38-.01-.6-.04-.68-.09-.08-.05-.11-.17-.1-.36,.02-.63,.31-.93,.88-.91,.19,0,.38-.03,.57-.12l.57-.12c.35-.11,.7-.22,1.05-.32,.35-.1,.52-.16,.52-.19,0-.09,.26-.16,.76-.21,.44-.05,.69-.13,.76-.26,0-.03,.17-.1,.5-.19s.66-.19,.97-.27l.48-.17s.1-.08,.29-.13c.19-.06,.38-.13,.57-.22l.33-.08c.07-.09,.23-.2,.5-.31,.27-.12,.47-.17,.59-.17,.19,0,.28-.04,.29-.13s.35-.28,1.03-.55c.68-.27,1.13-.41,1.35-.4,.25,0,.38-.05,.38-.17s.2-.23,.57-.31c.22-.09,.57-.26,1.03-.53,.46-.27,.9-.45,1.31-.56,.73-.19,1.17-.33,1.33-.42,.26-.15,.49-.22,.71-.21,.12,0,.19-.04,.19-.13,0-.03,.2-.14,.6-.33,.4-.19,.6-.3,.6-.33,0-.06,.06-.12,.17-.16,.11-.04,.25-.09,.41-.15,.16-.06,.25-.1,.29-.13,.67-.35,1.1-.53,1.29-.52Z"/><path class="cls-3" d="M133.66,100.26s-.08-.09-.25-.15-.25-.12-.25-.18-.04-.09-.14-.09-.14-.17-.13-.49c.03-.86,.12-1.39,.26-1.59,.1-.11,.09-.19-.02-.23-.09-.02-.09-.13,.01-.31,.08-.19,.13-.46,.14-.82,.02-.49,.09-1.09,.22-1.79,.13-.7,.23-1.09,.31-1.16,.18-.18,.28-.21,.32-.07,0,.08,.05,.14,.17,.18,.04,.02,.15,.1,.33,.24,.29,.3,.49,.45,.58,.45,.08,0,.11,.04,.11,.12,0,.06,.05,.09,.17,.09,.06,0,.18,.09,.38,.27s.31,.27,.35,.27,.14,.09,.32,.27c.17,.18,.29,.27,.35,.27,.09,0,.14,.05,.14,.15,0,.11,.13,.31,.41,.6,.28,.29,.47,.43,.59,.44,.08,0,.13,.02,.16,.05s.04,.12,.03,.27c0,.02-.03,.33-.09,.94-.04,.59-.11,1.08-.2,1.48-.09,.4-.16,.97-.2,1.71-.06,1.1-.16,1.71-.29,1.82-.14,.09-.23,.2-.27,.33-.06,.11-.17,.17-.32,.16-.27,0-.4-.1-.39-.27,0-.1-.02-.14-.08-.15-.04,0-.16-.16-.36-.47-.13-.23-.35-.52-.67-.85-.32-.34-.52-.5-.6-.51-.06,0-.08-.05-.08-.15s-.04-.14-.14-.15c-.11,0-.19-.05-.22-.15-.03-.13-.14-.23-.33-.3-.21-.1-.31-.17-.31-.21Z"/><path class="cls-2" d="M146.06,91.28c0-.12-.07-.38-.23-.76-.16-.38-.24-.6-.23-.67,0-.16-.07-.39-.21-.71-.09-.19-.25-.79-.5-1.8-.25-1.01-.46-1.6-.64-1.76-.06-.06-.16-.4-.29-1-.16-.69-.36-1.3-.59-1.81-.23-.51-.35-.86-.34-1.05,0-.12-.07-.34-.21-.64-.15-.3-.25-.46-.31-.46-.09,0-.13-.18-.12-.52,.01-.31,.16-.54,.45-.69,.22-.09,.41-.13,.57-.12,.31,.01,.53,.52,.65,1.53,.16,.79,.27,1.2,.33,1.23,.12,.07,.21,.34,.25,.81,.05,.47,.1,.71,.16,.71,.12,0,.21,.21,.26,.62,.05,.44,.17,.85,.38,1.24,.21,.38,.3,.7,.3,.95,0,.19,.04,.28,.13,.29,.06,0,.18,.32,.34,.95,.17,.63,.28,.95,.34,.95,.09,0,.14,.1,.13,.29,0,.22,.06,.46,.21,.71,.06,.1,.16,.52,.31,1.28,.15,.76,.26,1.18,.35,1.28,.09,.07,.18,.27,.26,.62,.08,.35,.17,.55,.26,.62,.09,.07,.16,.38,.2,.95,.02,.38,.12,.73,.29,1.04,.18,.32,.28,.62,.3,.9,.05,.41,.14,.77,.29,1.09,.18,.32,.26,.57,.26,.76,0,.13,.1,.36,.3,.72,.21,.35,.31,.61,.3,.76s.07,.39,.23,.71c.16,.32,.24,.57,.23,.76,0,.16,.09,.51,.29,1.04,.2,.54,.3,.87,.29,1s.1,.45,.32,.97,.32,.87,.32,1.02c0,.25,.06,.46,.21,.62,.18,.19,.27,.34,.27,.43,0,.19,.07,.32,.22,.38,.15,.07,.26,.28,.31,.62,.05,.44,.16,.87,.33,1.28,.11,.29,.17,.55,.16,.8,0,.28-.2,.42-.58,.4-.34-.01-.6-.24-.77-.69-.18-.32-.26-.62-.25-.9,0-.16-.07-.35-.21-.57-.15-.22-.25-.53-.3-.9-.03-.13-.16-.48-.39-1.05-.23-.57-.34-.97-.33-1.19,0-.25-.03-.38-.13-.38-.13,0-.21-.26-.26-.76-.05-.44-.16-.79-.34-1.05-.15-.22-.22-.45-.21-.67,0-.19-.07-.36-.22-.52-.09-.1-.2-.47-.34-1.12-.13-.65-.25-1.02-.34-1.12-.03-.03-.09-.19-.17-.48s-.17-.55-.25-.81c-.09-.25-.16-.38-.22-.38s-.13-.23-.21-.69c-.08-.46-.16-.69-.26-.69-.03,0-.08-.14-.15-.41-.07-.27-.14-.55-.2-.85-.07-.3-.12-.48-.15-.55-.21-.41-.32-.78-.34-1.09-.05-.41-.15-.73-.3-.95-.15-.22-.22-.41-.21-.57Z"/><path class="cls-2" d="M146.46,102.48c.26-.21,.62-.31,1.09-.29,.34,.01,.54,.11,.6,.3,.03,.09,.15,.29,.38,.58s.34,.5,.33,.62c0,.16,.04,.24,.13,.24,.12,0,.21,.27,.25,.81,.02,.38,.11,.74,.29,1.09,.18,.35,.27,.7,.29,1.04,.04,.53,.13,.8,.25,.81,.09,0,.14,.08,.13,.24s.1,.38,.31,.67c.21,.26,.31,.48,.31,.67,0,.22-.19,.49-.55,.83-.36,.33-.58,.59-.69,.77-.07,.12-.32,.21-.76,.26-1.07,.09-1.61,.21-1.61,.37,0,.09-.33,.13-.99,.11-.94-.03-1.58-.12-1.92-.26-.87-.31-1.33-1-1.38-2.07v-.38c.03-.53,.11-1.13,.24-1.8,.13-.67,.25-1,.34-1s.15-.17,.16-.51,.11-.54,.3-.6c.16-.06,.24-.2,.25-.41,0-.12,.25-.45,.74-.98,.49-.53,.8-.79,.92-.79,.09,0,.29-.1,.57-.31Z"/><path class="cls-4" d="M147.45,105.24c0-.22-.08-.43-.26-.62s-.34-.28-.46-.25c-.13,.03-.35,.21-.68,.54-.68,.67-1.03,1.09-1.03,1.28,0,.16-.09,.34-.26,.56-.17,.25-.26,.66-.28,1.26-.02,.44,.02,.69,.11,.76,.12,.07,.18,.24,.17,.52-.01,.38,.37,.58,1.15,.6,.25,0,.51,0,.78-.04,.27-.04,.49-.08,.66-.12,.17-.04,.26-.08,.26-.11,0-.06,.13-.12,.38-.17,.16-.03,.26-.08,.31-.18s.07-.34,.05-.75c-.04-.63-.15-1.13-.32-1.52-.2-.45-.3-.79-.29-1.04s-.05-.38-.17-.38c-.09,0-.14-.11-.13-.33Z"/></g><g><path class="cls-2" d="M11.99,128.44c.1-.28,.19-.42,.28-.42s.21-.26,.36-.77c.14-.52,.25-.77,.31-.77,.09,0,.14-.08,.14-.23s.22-.3,.66-.42l.28,.1c.19,.09,.28,.31,.28,.66s-.1,.56-.29,.66c-.16,.06-.24,.19-.24,.37,0,.16-.08,.23-.24,.23-.13,0-.24,.2-.36,.61-.11,.41-.21,.61-.31,.61s-.14,.09-.14,.28c0,.12-.11,.38-.33,.75s-.33,.64-.33,.8c0,.22-.08,.36-.24,.42-.13,.03-.25,.27-.38,.7-.13,.44-.25,.67-.38,.7-.16,.06-.24,.17-.24,.33s-.06,.3-.19,.42c-.06,.06-.2,.34-.4,.82-.21,.48-.36,.74-.45,.77s-.14,.17-.14,.42-.11,.42-.33,.52c-.22,.12-.36,.36-.43,.7-.06,.31-.24,.63-.52,.94-.19,.19-.38,.58-.57,1.17-.13,.47-.41,.97-.85,1.5-.03,.03-.1,.18-.21,.45-.11,.27-.22,.53-.33,.8-.11,.27-.18,.4-.21,.4-.06,0-.14,.14-.24,.42s-.17,.42-.24,.42c-.09,0-.19,.19-.28,.59-.1,.39-.21,.59-.33,.59-.19,0-.31,.16-.38,.47-.1,.44-.31,.93-.64,1.48-.33,.55-.53,.98-.59,1.29-.13,.47-.24,.7-.33,.7-.12,0-.22,.17-.28,.51-.06,.38-.21,.64-.43,.8-.22,.16-.33,.33-.33,.51,0,.16-.09,.3-.26,.42-.17,.12-.26,.28-.26,.47,0,.22-.1,.33-.28,.33-.16,0-.24,.16-.24,.47,0,.22-.12,.55-.36,.99-.24,.44-.36,.73-.36,.89,0,.25-.05,.38-.14,.38-.12,0-.18-.58-.18-1.74,0-.91,.05-1.38,.15-1.41,.13-.06,.22-.23,.28-.52,.06-.31,.21-.58,.43-.8s.33-.44,.33-.66c0-.12,.09-.25,.26-.37,.17-.12,.26-.25,.26-.37,0-.19,.06-.28,.19-.28,.09,0,.23-.23,.4-.68,.17-.45,.28-.68,.31-.68,.06,0,.24-.29,.54-.87,.3-.58,.45-.94,.45-1.1s.06-.23,.19-.23c.09,0,.14-.11,.14-.33,0-.44,.22-.88,.66-1.31,.16-.16,.24-.31,.24-.47,0-.12,.17-.39,.52-.8,.35-.41,.55-.75,.62-1.03,.03-.19,.13-.38,.31-.56,.17-.19,.28-.42,.31-.7,.07-.41,.19-.7,.38-.89,.16-.16,.24-.3,.24-.42,0-.16,.1-.26,.28-.33,.16-.06,.24-.23,.24-.52,0-.19,.09-.41,.26-.66,.17-.25,.26-.45,.26-.61s.12-.33,.36-.52c.24-.19,.35-.36,.35-.51s.11-.41,.33-.75c.22-.34,.33-.58,.33-.7,0-.16,.05-.23,.14-.23s.17-.17,.24-.52c.06-.31,.18-.55,.33-.7,.28-.28,.62-.94,1-1.97,.19-.38,.32-.56,.38-.56s.14-.14,.24-.42Z"/><path class="cls-2" d="M2.25,159.51c-.25-.17-.45-.26-.61-.26s-.41-.11-.75-.33c-.34-.22-.56-.33-.66-.33-.16,0-.23-.24-.23-.71,0-.44,.05-.66,.14-.66,.16,0,.42,.08,.8,.24,.37,.16,.58,.28,.61,.38,.06,.16,.25,.27,.56,.33,.12,.03,.56,.25,1.31,.66s1.2,.62,1.36,.62c.22,0,.33,.05,.33,.14,0,.12,.22,.19,.66,.19,.44,.07,.66,.13,.66,.19,.06,.13,.16,.19,.28,.19,.09,0,.55,.21,1.36,.62,.78,.38,1.48,.64,2.11,.76,.63,.07,.97,.16,1.03,.29,.06,.13,.27,.22,.61,.28,.06,0,.19,.06,.37,.17,.19,.11,.37,.21,.54,.31,.17,.09,.27,.13,.3,.1h.05c.16,0,.49,.14,1.01,.43,.52,.28,.82,.49,.91,.62,.03,.12,.26,.19,.7,.19,.25,0,.56,.12,.94,.36,.37,.24,.7,.36,.98,.36,.38,0,.56,.05,.56,.14,0,.12,.17,.19,.52,.19,.38,0,.75,.11,1.13,.33,.5,.25,.78,.38,.84,.38,.16,0,.27,.08,.33,.24,.06,.16,.26,.24,.61,.24,.31,0,.52,.11,.61,.33,.09,.19,.12,.41,.07,.66-.05,.25-.14,.38-.26,.37-.22,0-.58-.08-1.08-.24-.5-.16-.81-.29-.94-.38-.16-.16-.33-.24-.52-.24-.09,0-.38-.11-.84-.33s-.75-.33-.84-.33c-.22,0-.33-.07-.33-.19,0-.09-.19-.14-.56-.14-.41,0-.64-.07-.7-.19s-.47-.33-1.22-.62c-.72-.29-1.17-.52-1.36-.71-.16-.22-.45-.33-.89-.33-.34,0-.63-.07-.84-.22-.22-.14-.41-.23-.56-.26-.31-.07-.47-.16-.47-.28,0-.06-.16-.15-.49-.26-.33-.11-.68-.21-1.06-.31-.38-.1-.58-.16-.61-.19-.37-.19-.63-.29-.75-.29-.16,0-.28-.08-.37-.24-.19-.19-.5-.32-.94-.38-.47-.06-.7-.14-.7-.24s-.09-.14-.28-.14c-.16,0-.27-.1-.33-.28-.06-.16-.36-.27-.89-.33-.5-.06-.84-.19-1.03-.38-.16-.16-.34-.24-.56-.24-.16,0-.36-.09-.61-.26Z"/><path class="cls-2" d="M14.76,129.49c.09-.03,.38-.14,.87-.32,.49-.19,.82-.28,1.01-.28,.28,0,.66,.07,1.15,.19,.48,.13,.73,.24,.73,.33s.06,.14,.19,.14c.16,0,.31,.13,.47,.38,.15,.25,.23,.52,.23,.8,0,.72-.18,1.08-.52,1.08-.22,0-.45-.14-.68-.43-.23-.28-.35-.53-.35-.75,0-.19-.04-.3-.12-.33-.08-.03-.29-.05-.63-.05-.53,0-.88,.12-1.04,.37-.35,.47-.38,.73-.1,.8,.09,0,.23,.08,.42,.24,.19,.16,.28,.28,.28,.38,0,.03,.14,.19,.42,.47s.42,.58,.42,.9c0,.28,.05,.42,.14,.42,.12,0,.19,.22,.18,.66,0,.47-.08,.89-.24,1.27-.38,.88-1.01,1.31-1.89,1.31-.41,0-.61-.07-.61-.19,0-.09-.25-.14-.75-.15s-.83-.08-.99-.24c-.16-.16-.33-.27-.51-.33-.25-.1-.37-.52-.37-1.27,0-.97,.16-1.57,.48-1.78,.19-.06,.38-.09,.56-.09,.22,.03,.34,.42,.37,1.18,.03,.66,.11,1.04,.25,1.15,.14,.11,.59,.17,1.34,.17h.8v-.65c0-.41-.07-.69-.23-.85-.19-.19-.28-.36-.28-.52,0-.22-.22-.47-.65-.75-.31-.22-.5-.4-.56-.54-.06-.14-.11-.43-.14-.87,0-.09,0-.23-.02-.4-.02-.17-.02-.29-.02-.35,0-.63,.13-.99,.38-1.08Z"/><path class="cls-1" d="M20.52,149.04c-.08,0-.16,.05-.23,.15-.07,.1-.16,.15-.26,.15-.14,0-.21,.04-.21,.12s-.07,.18-.2,.29c-.13,.11-.25,.17-.35,.16-.12,0-.22,.1-.3,.3-.1,.22-.35,.41-.73,.57-.41,.18-.61,.29-.61,.33,0,.06-.07,.09-.21,.09-.16,0-.24-.04-.24-.12,0-.06-.1-.09-.3-.09-.14,0-.24-.03-.29-.08-.05-.05-.09-.2-.1-.44v-.24c0-.14,.03-.27,.09-.39s.1-.27,.12-.45c.02-.2,.1-.46,.25-.79,.08-.16,.12-.45,.13-.88,0-.36,0-.67-.03-.91-.04-.95-.09-1.45-.17-1.49-.06-.04-.09-.13-.07-.27,.01-.14,.05-.21,.11-.21s.09-.07,.09-.21c0-.16,.13-.32,.4-.48,.26-.18,.4-.3,.4-.36s.11-.21,.32-.45c.21-.24,.34-.36,.38-.36,.08,0,.37-.24,.85-.72,.28-.28,.55-.48,.79-.6,.26-.14,.4-.24,.4-.3,0-.02,.15-.09,.46-.21,.14-.04,.34-.18,.59-.41,.25-.23,.48-.35,.68-.35,.12,0,.25,.03,.39,.09,.34,.16,.51,.68,.51,1.55,0,.42,.03,.64,.09,.64,.08,0,.12,.25,.12,.76,0,.34-.03,.58-.09,.7-.1,.28-.17,.81-.19,1.58-.02,.67-.06,1.09-.1,1.26-.04,.17-.13,.33-.28,.47-.16,.2-.3,.3-.43,.3-.04,0-.09,.03-.15,.09-.02,.06-.15,.17-.4,.33s-.4,.24-.46,.24c-.04,0-.17,.11-.38,.33-.21,.22-.34,.33-.38,.33Z"/><path class="cls-2" d="M19.23,127.54c0-.06-.34-.19-1.03-.38s-1.03-.3-1.03-.33c0-.06-.23-.13-.7-.19-.47-.03-.75-.21-.84-.52-.12-.35-.03-.66,.29-.94,.22-.19,.39-.28,.52-.28,.06,0,.19,.07,.37,.21,.19,.14,.37,.21,.56,.21,.22,0,.36,.08,.42,.24,.06,.16,.31,.27,.75,.33,.41,.07,.7,.22,.89,.47,.22,.22,.44,.33,.66,.33,.25,0,.45,.08,.61,.24,.12,.13,.52,.25,1.2,.38,.67,.13,1.09,.24,1.24,.34,.25,.16,.47,.24,.66,.24,.12,0,.19,.05,.19,.14,0,.06,.23,.16,.68,.29,.45,.13,.68,.22,.68,.29,0,.09,.11,.14,.33,.14,.16,0,.39,.1,.7,.29,.37,.28,.87,.57,1.48,.85,.61,.28,1.01,.43,1.2,.43,.22,0,.52,.1,.91,.29s.63,.36,.73,.52c.06,.13,.26,.22,.61,.28,.25,.03,.48,.16,.7,.38,.09,.16,.22,.24,.37,.24,.09,0,.3,.12,.63,.36,.33,.24,.55,.36,.68,.36,.19,0,.39,.11,.61,.33,.16,.19,.44,.4,.87,.64,.42,.24,.73,.36,.91,.36h.09c.16-.09,.3-.07,.42,.07,.12,.14,.19,.35,.18,.63,.03,.41-.1,.63-.38,.66-.69,.09-1.1-.07-1.22-.48-.03-.19-.3-.36-.8-.52-.47-.19-.7-.3-.7-.33,0-.03-.23-.14-.7-.33-.5-.19-.77-.35-.8-.47-.06-.16-.19-.24-.37-.24-.22,0-.33-.06-.33-.19,0-.09-.21-.2-.63-.33-.42-.13-.65-.22-.68-.29-.06-.16-.19-.24-.37-.24-.13,0-.36-.11-.7-.33-.34-.22-.56-.33-.66-.33-.16,0-.3-.09-.42-.26-.12-.17-.26-.26-.42-.26-.22,0-.41-.08-.56-.24-.13-.13-.55-.28-1.27-.48-.72-.16-1.08-.27-1.08-.33,0-.09-.23-.25-.68-.47-.45-.22-.87-.38-1.24-.48-.34-.06-.59-.17-.75-.33-.16-.16-.37-.21-.66-.14-.28,.06-.42,.03-.42-.1,0-.06-.28-.19-.84-.38s-.84-.3-.84-.33Z"/><path class="cls-2" d="M22.31,159.36c.16,0,.29,.15,.4,.45,.11,.3,.23,.45,.35,.45,.16,0,.23,.22,.23,.66s-.1,.83-.29,1.17c-.22,.34-.82,.78-1.79,1.31-.19,.09-.28,.19-.28,.28s-.27,.14-.8,.14c-.5,0-.75-.07-.75-.19s-.12-.19-.37-.19-.44-.03-.56-.1c-.37-.28-.56-.72-.56-1.32,0-.28-.06-.42-.19-.42s-.19-.11-.19-.33c0-.44,.14-.78,.43-1.03,.19-.19,.36-.28,.52-.28,.22,0,.34,.25,.37,.75,0,.25,.09,.6,.28,1.03,.15,.25,.27,.4,.35,.45,.08,.05,.24,.04,.49-.02,.44-.06,.77-.09,.99-.09,.31,0,.56-.17,.75-.51,.19-.37,.19-.61,0-.71-.25-.13-.63-.44-1.12-.95-.56-.53-.84-.94-.84-1.23,0-.22-.08-.42-.23-.61-.16-.19-.23-.36-.23-.52,0-.03,0-.08,.02-.14,.02-.06,.02-.11,.02-.14,.06-.41,.16-.61,.28-.61,.09,0,.14-.11,.14-.33s.23-.59,.69-1.1c.46-.51,.81-.77,1.06-.77,.12,0,.2,.05,.23,.14,.06,.13,.33,.19,.8,.19,.63,0,1.28,.35,1.97,1.04,.78,.79,1.17,1.29,1.17,1.51,0,.12-.05,.3-.14,.52-.16,.44-.32,.66-.47,.66-.19,0-.35,.06-.47,.19-.16,.16-.32,.17-.49,.04-.17-.13-.26-.35-.26-.66,0-.38-.04-.56-.14-.56-.13,0-.19-.13-.19-.38,0-.16-.09-.29-.26-.4-.17-.11-.26-.23-.26-.35,0-.19-.2-.28-.61-.28-.56,0-1,.15-1.32,.46-.32,.31-.47,.69-.48,1.12,0,.19,.06,.28,.19,.28s.19,.09,.19,.28c0,.12,.08,.24,.26,.35s.26,.21,.26,.31c0,.28,.28,.42,.84,.43Z"/><path class="cls-2" d="M29.48,153.15c0-.12,.11-.35,.33-.68,.22-.33,.33-.57,.33-.73,0-.22,.08-.36,.24-.42,.09-.03,.2-.3,.33-.82,.13-.52,.25-.79,.38-.82,.19-.06,.28-.19,.28-.37s.05-.28,.14-.28,.19-.12,.28-.37c.47-.97,.79-1.45,.95-1.45,.09,0,.17-.16,.24-.47,.06-.31,.24-.77,.52-1.36,.28-.59,.47-.92,.57-.98,.03-.03,.12-.23,.26-.59,.14-.36,.24-.54,.31-.54,.09,0,.17-.2,.24-.61,.06-.41,.19-.64,.38-.7,.16-.06,.24-.14,.24-.23,0-.16,.15-.53,.45-1.13,.3-.59,.48-.89,.55-.89,.12,0,.22-.22,.29-.66,.19-.91,.51-1.61,.95-2.11,.09-.09,.21-.17,.35-.23,.14-.06,.26-.08,.35-.05,.09,.03,.14,.09,.14,.19s.08,.14,.23,.14,.33,.13,.51,.38c.19,.25,.28,.49,.28,.71,0,.19-.16,.31-.47,.37-.91,.21-1.49,.76-1.75,1.63-.13,.56-.26,.84-.38,.84-.09,0-.19,.16-.28,.49-.1,.33-.17,.49-.24,.49-.09,0-.14,.06-.14,.19,0,.09-.16,.47-.48,1.12s-.51,1.02-.57,1.08c-.03,.03-.09,.14-.19,.33s-.2,.37-.31,.56c-.11,.19-.18,.28-.21,.28-.09,0-.14,.11-.14,.33,0,.13-.14,.38-.43,.77-.28,.39-.43,.63-.43,.73,0,.12-.13,.44-.38,.94s-.43,.76-.52,.8c-.16,.06-.49,.7-1,1.92-.19,.41-.49,.91-.9,1.5-.19,.22-.28,.48-.29,.8,0,.25-.07,.38-.19,.37-.06,0-.13,.07-.21,.21-.08,.14-.15,.29-.21,.45-.06,.16-.13,.27-.19,.33-.16,.16-.27,.45-.33,.89-.07,.47-.16,.7-.29,.7-.09,0-.14,.08-.14,.23,0,.19-.08,.31-.24,.37-.06,.03-.19,.27-.38,.73-.19,.45-.33,.68-.43,.68s-.14,.12-.14,.38c0,.22-.1,.49-.29,.8-.03,.06-.1,.21-.19,.45-.1,.23-.18,.42-.26,.56-.08,.14-.18,.21-.31,.21s-.19,.14-.19,.42c0,.31-.07,.49-.19,.52-.13,.03-.28,.28-.47,.75-.41,1.13-.71,1.69-.9,1.69-.09,0-.14,.12-.14,.38,0,.22-.05,.42-.14,.61-.06,.09-.17,.17-.33,.23-.16,.06-.3,.08-.42,.07-.13-.02-.19-.09-.19-.21,0-.22,.09-.59,.26-1.1,.18-.52,.33-.84,.45-.96,.13-.19,.19-.37,.19-.56,0-.22,.1-.33,.28-.33,.12,0,.24-.19,.36-.59,.11-.39,.2-.59,.26-.59,.09,0,.17-.16,.24-.47,.03-.22,.15-.45,.36-.68,.2-.23,.32-.48,.36-.73,.06-.34,.14-.52,.24-.52,.03,0,.13-.23,.31-.68,.17-.45,.29-.68,.36-.68,.09,0,.2-.17,.33-.52,.13-.34,.22-.53,.28-.56,.19-.06,.28-.26,.28-.61,0-.25,.08-.45,.24-.59,.16-.14,.24-.32,.24-.54,0-.25,.08-.38,.24-.38,.31,0,.47-.28,.47-.84Z"/><path class="cls-2" d="M39.92,131.78c.09-.03,.2-.05,.33-.04,.16,0,.28,.06,.37,.19s.18,.31,.26,.54c.08,.24,.13,.4,.16,.49,.06,.06,.18,.63,.34,1.72,.17,1.08,.26,1.64,.3,1.67,.12,.13,.22,.5,.28,1.13,.03,.44,.14,.93,.34,1.48,.2,.55,.32,1.01,.34,1.39,.06,.56,.12,.85,.18,.85s.25,.75,.55,2.23,.46,2.31,.46,2.47c0,.25,.09,.53,.28,.85,.15,.31,.23,.69,.23,1.13,0,.41,.09,.96,.27,1.65s.29,1.24,.32,1.65c.03,.66,.1,1.1,.23,1.32,.06,.06,.18,.56,.37,1.51,.18,.94,.29,1.44,.32,1.51,.09,.19,.14,.49,.14,.89,0,.34,.09,.61,.28,.8,.09,.06,.14,.42,.14,1.08,0,.28,.06,.8,.18,1.55,.34,1.5,.5,2.49,.5,2.96,0,.31-.13,.47-.38,.47h-.28l-.56-.05-.04-1.13c-.06-.78-.12-1.21-.18-1.27-.16-.19-.29-1.18-.41-2.96,0-.38-.04-.71-.14-1.01-.09-.3-.15-.65-.18-1.06-.06-.66-.14-.99-.23-.99-.13,0-.22-.33-.28-.99-.18-1.82-.33-2.73-.46-2.73-.09,0-.14-.27-.14-.8,0-.56-.07-1-.23-1.32-.4-.94-.6-1.88-.6-2.82,0-.47-.04-.72-.14-.75-.13-.06-.22-.44-.28-1.13-.03-.47-.14-.98-.32-1.53-.19-.55-.29-1-.32-1.34-.03-.31-.14-.64-.32-.97-.19-.33-.29-.64-.32-.92-.03-.28-.12-.62-.28-1.01-.15-.39-.25-.81-.28-1.25-.06-.63-.14-.94-.23-.94l-.69-3.34c-.13-.13-.17-.34-.14-.64,.03-.3,.11-.48,.24-.54Z"/><path class="cls-2" d="M47.84,164.14c.31,0,.74-.08,1.29-.25,.55-.17,.95-.25,1.2-.25,.34,0,.56-.04,.66-.14,.03-.06,.85-.19,2.44-.39,1.6-.2,2.43-.31,2.49-.34,.03-.03,.26-.08,.68-.14,.42-.06,.85-.12,1.27-.18,.42-.06,.63-.11,.63-.14,0-.06,.36-.16,1.08-.3,.72-.14,1.25-.21,1.6-.2s.56-.04,.66-.14c.06-.06,.72-.19,1.97-.39s1.91-.33,1.97-.39c.16-.16,.39-.23,.71-.23,.34,0,.53-.04,.56-.14,.09-.09,.5-.17,1.22-.23,.69-.06,1.24-.18,1.65-.37,.41-.22,.72-.34,.94-.37,.22-.09,.33-.25,.33-.47,0-.25-.04-.67-.13-1.27-.03-.16-.07-.41-.11-.75-.04-.34-.1-.78-.16-1.29-.06-.52-.12-.95-.18-1.29-.39-2.85-.68-4.51-.87-4.98-.03-.06-.13-1-.29-2.82-.16-1.82-.28-2.77-.34-2.87-.16-.16-.41-2.02-.77-5.59-.15-1.79-.27-2.73-.36-2.82-.12-.12-.22-.72-.27-1.79-.03-.78-.1-1.39-.23-1.81-.12-.42-.2-.92-.23-1.48-.06-.85-.18-1.36-.37-1.55-.16-.16-.23-.31-.23-.47,0-.06-.09-.19-.28-.38-.25-.25-.39-.46-.42-.61-.09-.38-.5-.57-1.22-.57-.12,0-.22,.02-.28,.05-.22,.06-1.1,.12-2.63,.17-1.6,.06-2.84,.16-3.71,.31-.35,.06-1.03,.17-2.07,.32-1.03,.15-1.97,.3-2.8,.43-.83,.14-1.31,.25-1.43,.35-.06,.06-.77,.17-2.12,.32-1.35,.15-2.05,.26-2.12,.32-.22,.09-.69,.17-1.41,.23-.78,.06-1.33,.18-1.65,.37-.25,.12-.47,.19-.66,.18h-.24c-.22,0-.42,.03-.61,.09-.28,.09-.63,.11-1.03,.04-.28-.06-.42-.28-.42-.66,0-.31,.08-.52,.24-.61,.16-.09,.52-.14,1.08-.13,.53,0,.86-.06,.99-.18s.61-.22,1.46-.27c.88-.06,1.32-.13,1.32-.23,0-.06,.34-.13,1.01-.21,.67-.07,1.36-.15,2.07-.22,.7-.07,1.09-.16,1.15-.25,0-.03,.45-.1,1.36-.2,.91-.1,1.36-.19,1.36-.25,0-.12,.22-.19,.66-.18,.28,0,.99-.09,2.12-.27,2.07-.33,4.12-.5,6.16-.49,1,0,1.57-.05,1.69-.18,.22-.22,.74-.32,1.55-.32,.47-.06,.7,.13,.7,.57,0,.28,.14,.42,.42,.42,.31,0,.54,.1,.68,.29,.14,.19,.24,.55,.3,1.08,.03,.47,.18,1.61,.45,3.43,.06,.47,.17,.91,.32,1.32,.15,.41,.24,1.03,.27,1.88,.06,1.22,.13,1.93,.22,2.11,.06,.09,.17,.84,.32,2.23,.15,1.39,.21,2.33,.17,2.8,0,.28,.05,.53,.16,.75,.11,.22,.16,.47,.16,.75,0,.5,.07,.94,.23,1.32,.19,.5,.32,1.47,.41,2.92,.06,1.47,.16,2.33,.32,2.58,.03,.09,.11,.64,.25,1.65,.14,1,.22,1.54,.25,1.6,.09,.09,.17,.72,.23,1.88,.06,1.1,.18,1.83,.36,2.21,.25,.5,.37,.97,.37,1.41,0,.34-.1,.61-.29,.8-.22,.25-.3,.44-.24,.56,.09,.16,.08,.35-.03,.56-.11,.22-.26,.33-.45,.33-.22,0-.33,.04-.33,.14,0,.13-.19,.19-.56,.18-1.07,0-1.97,.16-2.73,.5-.47,.19-1.47,.38-3.01,.59-.44,.06-.66,.14-.66,.23,0,.06-.23,.15-.68,.26-.45,.11-.68,.19-.68,.26,0,.03-.45,.09-1.34,.18-.89,.09-1.9,.22-3.01,.38-1.11,.17-1.87,.36-2.28,.58-.13,.09-.84,.21-2.14,.36-1.3,.15-2.01,.26-2.14,.32-.09,.06-.47,.14-1.13,.23s-1.03,.18-1.13,.28c-.25,.19-.89,.28-1.93,.27-.28,0-.47-.02-.56-.05-.31-.07-.5-.22-.56-.47,0-.03,0-.06-.02-.09-.02-.03-.02-.06-.02-.09,0-.41,.46-.61,1.36-.6Z"/><path class="cls-2" d="M47.59,130.5c.09-.09,.28-.14,.56-.14,.31,0,.53,.17,.66,.5,.12,.33,.24,1.04,.36,2.14,.06,.75,.16,1.37,.32,1.86s.25,1.04,.27,1.67v.52c0,.88-.28,1.31-.81,1.31-.22,0-.36-.47-.42-1.41-.06-1-.16-1.52-.32-1.55-.03-.03-.16-.05-.38-.05-.28,0-.61,.04-.99,.11-.38,.08-.56,.15-.56,.21s-.13,.13-.38,.19c-.28,.03-.41,.23-.38,.61,.06,.44,.17,.74,.32,.89,.16,.16,.23,.39,.23,.71,0,.41-.11,.72-.33,.94-.25,.25-.41,.37-.47,.37-.16,0-.37-.37-.65-1.11-.28-.74-.42-1.31-.41-1.72,0-.22-.06-.39-.19-.52-.19-.19-.27-1.39-.26-3.62,0-.59,.04-.99,.1-1.17,.06-.12,.25-.19,.56-.18,.22,0,.36,.03,.42,.1,.06,.06,.11,.24,.14,.52,.06,.5,.09,1.02,.09,1.55,0,.56,.12,.89,.37,.99,.09,.03,.27,.05,.52,.05,1.03,0,1.64-.15,1.83-.46,.06-.19,.1-.41,.1-.66,0-.88-.09-1.38-.27-1.5-.09-.06-.15-.25-.16-.56-.01-.31,.03-.5,.12-.56Z"/><path d="M55.93,139.46c.23-.08,.53-.11,.9-.11,.19,0,.33,.01,.41,.03,.21,.02,.36,.15,.43,.38,.08,.21,.14,.32,.2,.32s.11,.11,.14,.32c.02,.17,.05,.28,.1,.32,.05,.04,.21,.07,.48,.09,.39,.04,.6,.11,.64,.21,.02,.08,.1,.12,.23,.12,.1,0,.2,.04,.32,.12,.02,.02,.09,.07,.22,.15s.24,.16,.35,.23,.16,.13,.16,.15,.08,.13,.23,.32c.15,.17,.23,.44,.23,.78,0,.29-.13,.74-.38,1.36-.22,.44-.41,.66-.58,.66-.06,0-.14,.05-.23,.14-.1,.12-.43,.17-.99,.17h-.84l.06,.49c.04,.27,.14,.57,.31,.9,.17,.33,.34,.51,.49,.55,.19,.06,.29,.3,.29,.73,0,.15-.03,.26-.09,.32-.06,.1-.22,.14-.49,.14-.66,0-1.11,.12-1.36,.37-.16,.15-.49,.23-1.02,.23-.12,0-.19-.01-.23-.03-.12-.04-.14-.17-.09-.41,.04-.23,.1-.35,.18-.35,.06-.04,.09-.15,.09-.35,0-.17,.04-.3,.12-.38,.1-.1,.13-.36,.09-.78l-.03-.67h-.9c-.56,0-.86-.06-.9-.15-.04-.08-.14-.12-.29-.12s-.36-.1-.62-.29c-.26-.19-.39-.35-.39-.47,0-.1-.04-.16-.11-.2-.08-.04-.11-.33-.11-.87s.04-.83,.12-.87c.08-.04,.12-.15,.12-.35s.07-.33,.2-.4c.16-.08,.23-.16,.23-.26,0-.08,.15-.19,.44-.35s.5-.23,.64-.23c.12,0,.17-.12,.18-.35,0-.33,.12-.66,.35-1,.23-.34,.48-.54,.73-.62Z"/><path class="cls-2" d="M66.38,149.2c0-.16,.13-.23,.4-.23s.46,.07,.59,.19c.03,.06,.12,1.07,.27,3.01s.24,2.95,.27,3.01c.03,.09,.15,.52,.37,1.27s.37,1.21,.46,1.36c.15,.25,.23,.5,.23,.75,0,.38-.11,.56-.33,.56-.16,0-.24,.06-.24,.19,0,.28-.27,.16-.8-.38-.4-.38-.61-.79-.6-1.22,0-.47-.11-.96-.32-1.46-.12-.38-.22-.6-.3-.66-.08-.06-.29-.08-.63-.05-.53,.06-.92,.15-1.18,.28-.25,.12-.41,.24-.47,.35-.06,.11-.1,.37-.1,.77,0,.66,.1,1.19,.32,1.6,.19,.41,.28,.78,.28,1.13,0,.44-.18,.74-.52,.89-.06,.03-.16,.05-.28,.05-.53,0-.83-.6-.88-1.79-.09-.91-.17-1.48-.25-1.72-.08-.24-.24-.38-.49-.45-.28-.03-.42-.22-.42-.57,0-.31,.16-.53,.47-.66,.5-.22,.58-.5,.24-.84-.12-.13-.21-.86-.27-2.21-.03-.47-.04-.96-.04-1.46,0-.44,.08-.67,.24-.7,.19-.06,.38-.04,.56,.05s.3,.25,.33,.47c0,.34,.07,1.06,.22,2.16,.09,.85,.16,1.36,.23,1.55,.06,.19,.17,.28,.33,.28,.25,0,.44-.06,.56-.18l.75-.33,.66-.18-.03-2.25c0-1.47,.07-2.22,.2-2.25,.13-.06,.19-.17,.19-.33Z"/><path class="cls-2" d="M72.63,138.39c.09-.12,.27-.16,.54-.11,.27,.05,.41,.14,.45,.26,.06,.19,.09,.44,.09,.75s.04,.5,.14,.56c.12,.13,.22,.58,.27,1.36,.21,2.41,.34,3.64,.4,3.67,.12,.13,.23,.55,.32,1.27,.09,.6,.25,1.54,.48,2.82,.23,1.29,.42,2.51,.57,3.67,.06,.69,.16,1.27,.3,1.74,.14,.47,.24,1.21,.29,2.21,.18,1.57,.28,2.4,.32,2.49,.15,.31,.28,1.02,.36,2.12,.18,1.38,.3,2.1,.36,2.16,.06,.09,.13,.64,.2,1.65,.07,1,.12,1.55,.16,1.64,0,.03,.05,.35,.14,.96,.09,.61,.18,1.19,.27,1.74,.09,.55,.17,.82,.23,.82,.09,0,.14,.13,.14,.38,0,.12,.01,.21,.05,.26,.03,.05,.14,.07,.33,.07l1.22-.09c1-.06,1.68-.15,2.02-.27,.25-.09,.61-.14,1.08-.13,.34,0,.8-.04,1.36-.11,.56-.08,1.18-.18,1.83-.32,.66-.14,1.13-.22,1.41-.25,.72-.09,1.21-.2,1.46-.32,.06-.06,.61-.17,1.65-.32s1.58-.24,1.65-.27c.78-.28,1.84-.51,3.15-.69,1.25-.18,1.99-.37,2.21-.55,.06-.03,.45-.1,1.18-.21,.72-.11,1.11-.19,1.18-.25,.06-.06,.52-.18,1.39-.35,.86-.17,1.32-.28,1.39-.35,.22-.16,.39-.17,.52-.04s.19,.36,.18,.71c0,.38-.11,.63-.31,.75s-.71,.2-1.53,.23c-.66,.06-1,.12-1.03,.18-.06,.09-.46,.22-1.18,.39-.72,.17-1.11,.27-1.18,.3-.09,.06-.65,.14-1.67,.25-1.02,.1-1.57,.19-1.67,.25-.19,.12-.58,.22-1.18,.28-.63,.06-.94,.14-.94,.23s-.38,.17-1.13,.23c-.66,.06-1.33,.18-2.02,.37-.53,.15-1.38,.29-2.54,.41-.72,.06-1.29,.16-1.69,.3-.41,.14-.89,.22-1.46,.25-.66,.06-1.13,.15-1.41,.27-.09,.03-.41,.08-.94,.16-.53,.08-1.03,.17-1.48,.27-.45,.11-.73,.21-.82,.3-.19,.19-.39,.28-.61,.28-.25,0-.48-.11-.68-.31s-.3-.46-.3-.78c0-.28-.17-.52-.51-.71-.25-.13-.41-.4-.47-.82-.06-.42-.15-1.75-.26-3.97,0-.44-.04-.81-.14-1.13-.09-.31-.15-.72-.18-1.22-.03-.53-.14-1.25-.34-2.16-.2-.91-.31-1.71-.34-2.4-.06-.97-.13-1.46-.23-1.46s-.19-.49-.27-1.48c-.09-.99-.21-2.16-.36-3.53-.15-1.36-.33-2.36-.55-2.99-.03-.06-.14-.67-.32-1.81-.18-1.14-.3-1.76-.37-1.86-.06-.06-.14-.57-.23-1.53s-.16-1.46-.23-1.53c-.03-.06-.13-.65-.3-1.76-.17-1.11-.28-1.7-.34-1.76-.09-.09-.16-.29-.18-.59-.03-.3,0-.49,.1-.59Z"/><path class="cls-2" d="M96.71,132.5c.31-.09,.58-.14,.8-.14,.38,0,.58,.16,.61,.47,.06,.28,.03,.55-.1,.8-.09,.16-.57,.26-1.44,.32-.86,.06-3.19,.14-6.98,.25-.78,.06-1.22,.14-1.32,.23-.13,.12-.38,.19-.75,.18-.28,0-.64,.06-1.08,.18-.25,.06-1.14,.22-2.68,.48-1.54,.26-2.43,.42-2.68,.48-.5,.12-1.02,.18-1.55,.18-.63,0-.94,.09-.94,.28,0,.13,.12,.31,.37,.57,.31,.32,.56,.66,.75,1.04,.19,.38,.41,.92,.67,1.62,.26,.71,.44,1.17,.53,1.39,.37,.75,.56,1.22,.56,1.41,0,.09,.06,.14,.19,.14s.22,.22,.28,.66c.03,.25,.24,.63,.63,1.13,.39,.5,.58,.9,.58,1.18,0,.38-.14,.59-.43,.66-.06,.03-.16,.05-.28,.05-.19,0-.37-.11-.54-.33-.17-.22-.43-.66-.77-1.32-.43-.88-.82-1.32-1.17-1.32-.16,0-.39,.08-.71,.23-.31,.16-.6,.23-.85,.23-.66,0-.99,.64-1,1.92,0,.72-.08,1.19-.24,1.41-.16,.16-.33,.23-.52,.23s-.3-.06-.33-.19c-.06-.63-.13-1.19-.23-1.69-.03-.47,.02-.77,.15-.89,.09-.09,.22-.58,.36-1.45,.15-.88,.25-1.36,.31-1.45,.09-.12,.21-.59,.34-1.41,.13-.81,.2-1.45,.2-1.92,0-.5,.08-.91,.24-1.22,.13-.22,.19-.37,.19-.47s-.06-.14-.19-.14c-.06,0-.18,.02-.35,.07-.17,.05-.31,.07-.4,.07-.63,.12-1.11,.18-1.46,.18-.38,0-.6,.06-.66,.18-.09,.16-.25,.21-.47,.16-.22-.05-.33-.15-.33-.31,0-.41,.35-.67,1.04-.79,.5-.06,.82-.15,.94-.28,.03,0,.72-.09,2.07-.27,1.35-.18,2.04-.29,2.07-.32,.06-.09,.44-.2,1.13-.32,.22-.03,.6-.11,1.15-.25,.55-.14,1.06-.25,1.53-.32,.47-.08,.89-.11,1.27-.11,.47,0,.74-.06,.8-.18,.06-.03,.63-.11,1.69-.23,1.07-.12,1.63-.21,1.69-.27,.09-.06,.96-.18,2.61-.36,1.64-.18,2.5-.28,2.56-.32,.19-.06,.36-.09,.52-.09,.09,0,.27,0,.52,.03,.25,.02,.44,.03,.56,.03,.25,0,.42-.01,.52-.04Z"/><path class="cls-4" d="M79.25,140.16c-.25-.44-.42-.66-.51-.66-.16,0-.28,.53-.38,1.6l-.1,1.13,.66-.09c.56-.09,.85-.31,.85-.65,0-.19-.17-.63-.51-1.32Z"/><path class="cls-1" d="M89.39,148.28s.07-.1,.2-.18c.13-.08,.31-.16,.54-.24,.23-.07,.44-.11,.65-.11h.14c.32,.02,.68,.22,1.07,.6,.38,.36,.56,.65,.56,.88s.03,.42,.08,.57c.04,.15,.06,.26,.05,.31,0,.13-.03,.27-.09,.41-.06,.14-.13,.29-.21,.44-.09,.15-.15,.26-.19,.34-.17,.36-.37,.7-.6,1.02-.13,.17-.2,.3-.2,.4,0,.08-.11,.26-.33,.55-.22,.29-.43,.54-.64,.75-.15,.15-.28,.32-.37,.51-.11,.19-.33,.32-.65,.39-.32,.05-.55,0-.68-.17s-.2-.29-.2-.37-.04-.11-.11-.11c-.04,0-.25-.19-.65-.57s-.62-.57-.68-.57c-.09,0-.22-.1-.37-.28-.15-.15-.36-.32-.62-.5-.26-.18-.48-.36-.65-.53-.32-.3-.5-.63-.53-.97,0-.04,0-.09-.01-.16,0-.07-.01-.11-.01-.13,0-.17,.09-.45,.26-.85,.23-.41,.39-.63,.48-.65,.11-.04,.17-.08,.17-.14,0-.08,.04-.11,.11-.11,.04,0,.23-.07,.57-.22,.34-.15,.76-.22,1.25-.22s.78,.07,.88,.2c.15,.25,.28,.25,.4,0,.04-.09,.11-.14,.23-.14,.09,0,.14-.05,.14-.14Z"/><path class="cls-2" d="M92.77,158.64c0-.06-.11-.36-.32-.89-.22-.53-.32-.85-.32-.94,0-.22,.15-.36,.45-.42,.3-.06,.54,0,.73,.19,.25,.19,.45,.28,.61,.28,.22,0,.44,.19,.65,.57,.59,1.16,.98,1.84,1.16,2.03,.03,.03,.12,.05,.28,.05,.69,0,1.24-.13,1.65-.41,.19-.12,.34-.43,.45-.91,.11-.48,.2-.77,.26-.87,.03-.06,.1-.23,.19-.52,.1-.28,.2-.53,.31-.75,.11-.22,.23-.34,.35-.37,.25-.06,.42-.09,.52-.09,.44,0,.66,.22,.65,.66,0,.16-.02,.28-.05,.38,0,.06-.11,.89-.34,2.49-.13,.97-.35,1.99-.65,3.05-.3,1.06-.52,1.99-.65,2.77-.19,1-.38,1.56-.57,1.69-.13,.06-.22,.09-.28,.09-.34,0-.64-.27-.89-.8-.09-.22-.34-.61-.75-1.18s-.77-1.09-1.1-1.58c-.33-.49-.49-.82-.49-1.01,0-.09-.2-.41-.61-.94-.4-.53-.64-.99-.7-1.37-.06-.41-.17-.66-.33-.75s-.23-.24-.23-.42Z"/><path class="cls-4" d="M97.6,161.96c.13-.78,.07-1.19-.18-1.22-.03,0-.08,0-.14-.02s-.11-.02-.14-.02c-.53,0-.8,.25-.8,.75,0,.28,.11,.67,.32,1.15,.22,.49,.39,.73,.51,.73,.19,0,.33-.45,.43-1.36Z"/><path class="cls-2" d="M98.97,133.26c.09-.12,.24-.16,.45-.12,.2,.05,.37,.15,.49,.31,.19,.22,.29,.93,.32,2.12,.06,1.13,.15,1.83,.27,2.12,.12,.19,.36,2.18,.72,5.97,.06,.88,.15,1.57,.27,2.07,.12,.5,.21,1.18,.27,2.02,.06,1.03,.15,1.64,.27,1.83,.06,.06,.15,.66,.27,1.79,.09,.72,.21,1.44,.36,2.16,.15,.72,.26,1.4,.32,2.02,.36,2.76,.63,4.75,.81,5.97,.21,1.38,.38,2.1,.51,2.16,.06,.03,.09,.13,.09,.28,0,.22-.08,.46-.24,.73-.16,.26-.31,.4-.47,.4s-.28-.22-.37-.66c-.03-.31-.1-.66-.21-1.03-.11-.38-.19-.86-.25-1.46-.03-.25-.17-1.25-.41-2.98-.24-1.74-.45-3.05-.64-3.93-.12-.57-.18-1.16-.18-1.79,0-.53-.06-.97-.18-1.32-.12-.34-.2-.81-.23-1.41-.03-.66-.13-1.37-.32-2.14-.18-.77-.29-1.48-.32-2.14-.06-.85-.15-1.41-.27-1.69-.09-.19-.17-1.02-.22-2.49,0-.94-.07-1.68-.22-2.21-.15-.53-.25-1.08-.27-1.65-.03-.56-.11-1.04-.25-1.43-.14-.39-.22-.74-.25-1.06-.06-.5-.11-.77-.14-.8-.06-.06-.09-.34-.09-.85,0-.47,.03-.74,.1-.8Z"/><path class="cls-2" d="M104.68,163.45c.12,0,.27-.85,.44-2.56,.17-1.71,.31-2.56,.44-2.56,.06,0,.11-.48,.15-1.43,.04-.95,.08-1.95,.13-2.98,.05-1.03,.13-1.61,.22-1.74,.13-.12,.25-1.31,.37-3.54,.12-2.24,.19-4.23,.19-5.99,0-1.66,.09-2.61,.25-2.86,.19-.28,.19-.44,0-.47-.13-.06-.19-.25-.21-.56-.01-.31,.04-.5,.17-.56,.13-.12,.19-.78,.2-1.97,0-1.25-.05-1.88-.18-1.88s-.19-.17-.19-.52c0-.31,.07-.47,.19-.47s.19-.17,.19-.52c0-.25,.03-.4,.07-.45s.21-.07,.49-.07c.41,0,.61,.1,.61,.28,0,.06,0,.19,.02,.38,.01,.19,.02,.34,.02,.47-.01,1.97-.09,3.04-.25,3.19-.09,.09-.18,1.35-.25,3.76-.04,1.85-.15,4.02-.34,6.5-.19,2.49-.3,4.14-.33,4.95-.14,2.44-.26,3.99-.35,4.65-.06,.28-.1,.6-.1,.94,0,.25,.06,.44,.18,.56,.19,.19,.15,.36-.1,.52-.38,.25-.57,1.36-.58,3.33v1.69c-.01,.66-.11,1.13-.3,1.41-.19,.25-.33,.37-.42,.35s-.27-.17-.51-.45c-.28-.28-.42-.65-.42-1.08,0-.22,.06-.33,.19-.33Z"/><path class="cls-2" d="M129.88,131.59h.14c.34,0,.95,.12,1.81,.34,.86,.22,1.43,.34,1.71,.34,.25,0,.41,.03,.47,.1,.06,.06,.09,.24,.09,.52v.66l-1.22-.15c-.81-.07-1.28-.16-1.41-.29-.06-.03-.6-.1-1.6-.2-1-.1-1.53-.18-1.6-.24-.34-.31-2.35-.48-6.01-.5-2.76-.01-4.15-.07-4.18-.16-.09-.16-2.75-.28-7.98-.37-.91,0-1.36-.27-1.36-.81,0-.03,0-.08,.02-.14,.02-.06,.02-.11,.02-.14,.06-.41,.17-.61,.33-.61l2.07,.29c2.88,.39,6.68,.63,11.41,.72,3.13,.05,5.06,.21,5.78,.5,.28,.1,.78,.14,1.5,.15Z"/><path class="cls-2" d="M108.89,167.04c.22-.22,.58-.33,1.08-.32,.44,0,.83,.02,1.17,.05,1.28,.07,1.97,.15,2.07,.25,.19,.13,3.22,.2,9.11,.24l9.25,.05c.19,0,.28,.27,.28,.8,0,.5-.11,.77-.33,.8-.06,.03-.19,.05-.38,.05-.59,0-.95-.1-1.08-.29-.06-.06-.24-.05-.52,.04-.28,.12-.53,.12-.75,0s-.74-.19-1.55-.2c-.75,0-1.19,.06-1.32,.18-.13,.12-.27,.12-.42,0-.19-.16-2.16-.26-5.92-.31-3.92-.08-5.98-.14-6.2-.17-.56-.1-1.44-.15-2.63-.15-1.41-.04-2.13-.15-2.16-.34-.06-.19,.03-.41,.29-.66Z"/><path class="cls-2" d="M113.58,141.04c-.13,0-.25-.15-.37-.45-.12-.3-.23-.45-.33-.45-.16,0-.31-.11-.47-.33-.12-.22-.37-.33-.75-.33h-.52l.09,1.17v.42c0,.88-.35,1.31-1.04,1.31-.41,0-.61-.19-.61-.57,0-.28,.03-.52,.1-.7,.13-.5,.2-1.78,.21-3.85,0-1.53-.03-2.33-.13-2.4-.13-.12-.19-.24-.19-.33,0-.34,.24-.64,.71-.89,.31-.15,.58-.23,.8-.23,.03,0,.17,.02,.42,.05,.25,.03,.5,.05,.75,.05,.63,0,1.08,.15,1.36,.43s.47,.43,.56,.43c.12,0,.19,.08,.19,.24,0,.19,.15,.39,.47,.61,.34,.28,.51,.63,.51,1.04,0,.47-.08,.72-.24,.75-.19,.06-.28,.16-.28,.28,0,.19-.25,.53-.76,1.03-.13,.13-.19,.23-.19,.33s.22,.42,.65,.99c.53,.66,.85,1.24,.98,1.74,.12,.53,.21,.82,.28,.85,.22,.1,.3,.44,.23,1.03,0,.16-.12,.28-.35,.37-.23,.09-.49,.11-.78,.04-.28-.1-.42-.31-.42-.66s-.11-.66-.32-.94c-.22-.22-.33-.46-.33-.71,0-.22-.08-.33-.23-.33Z"/><path class="cls-4" d="M112.49,135.02c0-.09-.17-.14-.52-.14-.22,0-.35,.04-.4,.12-.05,.08-.1,.34-.17,.77-.03,.19-.05,.44-.05,.75,0,.6,.17,.94,.51,1.04,.12,.03,.3,.05,.52,.05,.44,0,.72-.25,.85-.75,.1-.31,.14-.58,.14-.8,0-.41-.17-.66-.51-.75-.25-.06-.37-.16-.37-.28Z"/><path d="M120.57,145.69c0-.14,.03-.22,.09-.25,.06-.03,.19-.04,.38-.04h.08c.21,0,.33,.01,.35,.03,.03,.02,.04,.11,.04,.29,0,.21,.07,.36,.21,.45,.12,.09,.18,.18,.18,.26,0,.12,.07,.24,.21,.34,.28,.3,.46,.61,.55,.95,.1,.3,.17,.45,.21,.45,.02,0,.06,.1,.14,.29,.08,.19,.13,.3,.17,.32,.09,.04,.13,.11,.13,.24,0,.09,.05,.2,.16,.34,.1,.12,.15,.66,.15,1.6,0,.73-.05,1.21-.14,1.41-.16,.31-.68,.55-1.55,.7-.33,.05-.53,.15-.59,.3-.06,.15-.1,.59-.12,1.32-.04,.93-.07,1.41-.09,1.47-.02,.09-.11,.14-.29,.17-.18,.03-.29,0-.34-.09-.03-.07-.36-.12-.97-.16-.61-.06-.96-.15-1.05-.29-.05-.07-.08-.13-.08-.18,0-.07,.08-.26,.24-.58,.19-.35,.29-.61,.29-.78s.04-.31,.13-.39c.17-.17,.26-.44,.27-.78,0-.1-.03-.18-.08-.24-.1-.09-.35-.13-.73-.13h-.37c-.24,.01-.42-.07-.52-.27-.12-.19-.2-.29-.23-.29-.05,0-.08-.07-.08-.21,0-.16-.04-.3-.13-.42-.1-.14-.16-.33-.15-.58,0-.14,.03-.21,.08-.21,.07,0,.12-.1,.16-.31,.02-.1,.08-.25,.19-.43,.11-.18,.16-.34,.16-.48,0-.1,.05-.2,.16-.27,.11-.08,.17-.16,.18-.25,.04-.14,.19-.37,.48-.68,.28-.28,.42-.45,.42-.52,0-.05,.05-.1,.16-.13,.12-.03,.25-.16,.4-.36,.21-.3,.4-.54,.58-.73,.26-.3,.4-.48,.4-.55s.04-.1,.11-.1c.05,0,.08-.06,.08-.18Z"/><path class="cls-2" d="M126.09,156.37c.06-.22,.14-.33,.24-.33,.22,0,.47,.16,.75,.47,.28,.32,.5,.64,.65,.99,.25,.53,.4,.8,.47,.8,.09,0,.17,.14,.23,.42,.12,.53,.31,.52,.56-.04,.03-.09,.06-.19,.1-.28,.1-.34,.29-.69,.57-1.03,.28-.28,.46-.56,.52-.84,.06-.31,.22-.47,.47-.47,.28,0,.48,.09,.59,.26,.11,.17,.16,.54,.16,1.1s-.02,1.05-.05,1.46c-.07,1.47-.17,2.24-.29,2.3-.19,.12-.29,.66-.29,1.6,0,.31,.03,.59,.09,.85,.06,.19,.09,.47,.09,.85,0,.75-.15,1.13-.43,1.13-.22,0-.36,.06-.42,.19-.13,.12-.61,.18-1.46,.18s-1.36-.07-1.55-.2l-.28-.24c-.22-.16-.39-.27-.52-.33-.47-.35-.7-.71-.7-1.08,0-.16,.06-.23,.19-.23s.19-.23,.19-.7c0-.38,.04-.63,.12-.75,.08-.12,.34-.31,.78-.56,.63-.37,.94-.71,.94-1.03,0-.25-.2-.47-.61-.66-.28-.16-.44-.47-.46-.94-.06-.47-.17-.78-.32-.94-.25-.25-.37-.74-.37-1.46,0-.25,.02-.41,.05-.47Z"/><path class="cls-4" d="M128.59,163.67c-.12-.41-.26-.61-.42-.61s-.35,.12-.57,.35c-.22,.23-.33,.43-.33,.59s.12,.27,.37,.35c.25,.08,.5,.09,.75,.03,.19-.03,.29-.08,.31-.16,.02-.08-.02-.26-.11-.54Z"/><path class="cls-2" d="M134.55,137.06c.07-1.81,.3-2.72,.67-2.72,.06,0,.2,.08,.42,.24,.16,.16,.23,.41,.23,.75,0,.28-.02,.53-.05,.75-.07,.85-.15,1.31-.24,1.41-.1,.22-.18,1.33-.25,3.33-.04,2.07-.16,3.27-.35,3.61-.16,.31-.24,1.31-.25,3.01-.07,2.16-.18,3.68-.31,4.55-.1,.85-.15,1.61-.15,2.3v.42c.06,.47,.02,.86-.1,1.17-.13,.28-.23,1.75-.3,4.41-.04,2.1-.1,3.37-.18,3.8-.08,.44-.32,.66-.73,.65-.16,0-.27-.02-.33-.07-.06-.05-.09-.2-.09-.45,0-.03,.03-.49,.1-1.36,.07-1.13,.11-2.27,.11-3.43,0-1.25,.07-1.89,.2-1.92,.13-.06,.19-.39,.19-.99,0-.69,.08-2.01,.23-3.97,.15-1.96,.23-2.97,.23-3.03,.07-1.03,.15-1.66,.24-1.88,.03-.09,.09-.77,.18-2.04,.08-1.27,.16-2.56,.23-3.87,.07-1.31,.1-2.02,.1-2.11,.06-.5,.13-1.36,.2-2.58Z"/><path class="cls-2" d="M140.02,132.67c.06,0,.14-.56,.24-1.69s.2-1.69,.29-1.69c.09-.06,.14-.3,.14-.7,0-.38,.08-.72,.24-1.03,.13-.22,.31-.33,.57-.33s.44,.1,.56,.28c.03,.03,.05,.16,.05,.38,0,.34-.04,.72-.12,1.13-.08,.41-.17,.61-.26,.61s-.18,.52-.24,1.55c-.04,.72-.12,1.3-.27,1.74-.14,.44-.23,.98-.27,1.64-.04,.75-.13,1.57-.29,2.44-.16,.88-.27,1.5-.34,1.88-.07,.56-.23,1.4-.48,2.51-.26,1.11-.39,2.25-.39,3.4,0,.75-.08,1.16-.24,1.22-.19,.06-.28,.42-.29,1.08,0,.72-.05,1.1-.15,1.13-.03,.03-.16,1-.39,2.91-.23,1.91-.34,2.88-.34,2.91-.03,.03-.11,.49-.24,1.38-.13,.89-.23,1.35-.29,1.38-.09,.06-.14,.31-.15,.75,0,1.16-.24,1.86-.72,2.11-.22,.16-.42,.16-.59,.02-.17-.14-.26-.38-.25-.73,0-1.25,.23-2.58,.68-3.99,.13-.44,.19-.81,.19-1.13,0-.38,.05-.61,.14-.7,.16-.16,.29-.77,.39-1.83,.19-1.16,.31-1.75,.34-1.78,.03-.03,.11-.6,.24-1.71,.13-1.11,.23-1.68,.29-1.71,.03-.03,.15-.8,.34-2.3,.13-1.47,.26-2.27,.39-2.39,.03-.06,.11-.45,.24-1.17,.13-.72,.21-1.11,.24-1.17,.13-.28,.22-.88,.29-1.78,.23-3.07,.38-4.6,.45-4.6Z"/><path class="cls-2" d="M136.63,161.5v-.66l1.51,.15c.69,.04,1.41,.16,2.16,.36,.75,.21,1.41,.33,1.97,.36,.85,.07,1.33,.16,1.46,.29,.19,.13,.97,.22,2.35,.29,1.44,.07,2.19,.14,2.25,.2,.06,.13,.36,.19,.89,.19,.66,0,1.71,.07,3.15,.2,1.44,.13,2.16,.23,2.16,.29s.75,.1,2.26,.11c3.04,.02,4.62-.04,4.74-.16,.47-.47,.75-.31,.84,.47,.06,.47,.06,.77,0,.89-.06,.06-.6,.09-1.6,.09-.22,0-.63-.01-1.22-.03s-1.08-.03-1.46-.03c-6.58-.22-9.94-.46-10.1-.71-.09-.13-1.05-.24-2.86-.34-2.63-.14-4.37-.34-5.21-.59-.41-.16-.92-.24-1.55-.24-.56,0-.91-.1-1.03-.29-.16-.16-.31-.24-.47-.24s-.23-.2-.23-.61Z"/><path class="cls-2" d="M143.89,130.06c.03-.75,.11-1.28,.22-1.6,.11-.31,.35-.47,.73-.47h.19c.44,.1,.66,.22,.66,.38s-.05,.42-.15,.8c-.07,.44-.1,.72-.1,.85,0,.56,.14,.85,.42,.85,.12,0,.34-.12,.66-.37,.28-.22,.47-.33,.57-.33,.06,0,.25-.15,.57-.47,.25-.28,.55-.42,.9-.42s.55-.07,.61-.23c.03-.16,.3-.23,.8-.23,.34,0,.54,.03,.59,.07,.05,.05,.05,.2,.02,.45-.03,.25-.1,.42-.19,.52s-.31,.19-.66,.28c-.53,.15-.86,.31-.99,.46-.16,.16-.31,.23-.47,.23s-.23,.06-.24,.19c0,.09-.08,.14-.24,.14s-.33,.19-.52,.56c-.16,.37-.16,.61,0,.7,.06,.06,.17,.55,.32,1.46s.24,1.39,.27,1.46c.09,.22,.17,.6,.23,1.13,.06,.6-.02,1.03-.24,1.31-.38,.44-.75,.51-1.13,.23-.12-.06-.21-.78-.27-2.16-.06-1.35-.22-2.21-.5-2.59s-.48-.57-.61-.57-.28,.33-.47,.98c-.16,.56-.37,1.11-.62,1.64-.22,.44-.33,.75-.33,.94,0,.13-.14,.33-.4,.61-.27,.28-.47,.42-.59,.42-.06,0-.2-.14-.4-.42s-.3-.5-.3-.66c0-.09,.05-.14,.14-.14s.18-.05,.26-.16,.15-.27,.21-.47c.06-.2,.11-.34,.14-.4,.19-.31,.32-.91,.39-1.78,.03-.63,.12-1.14,.27-1.55,.14-.41,.23-.95,.27-1.64Z"/><path class="cls-2" d="M155.36,128.01c0-.09-.82-.19-2.46-.29s-2.46-.18-2.46-.25-.68-.14-2.04-.25c-1.36-.1-2.51-.15-3.45-.16h-.42l-1.22,.04v-.61c0-.38,.05-.59,.15-.66,.19-.03,.41-.05,.66-.04,.12,0,.36,.01,.7,.03,.34,.02,.61,.03,.8,.03,.75,.07,1.78,.1,3.1,.11,.85,0,1.44,.07,1.78,.2,.59,.19,1.64,.32,3.15,.39,1.63,.07,2.44,.15,2.44,.25,0,.13,.41,.19,1.22,.19,.66,0,1.39,.06,2.21,.18,.81,.11,1.25,.22,1.31,.31,.03,.03,.48,.11,1.36,.24s1.33,.23,1.36,.29c.06,.13,.7,.22,1.92,.29,1.22,.07,1.94,.21,2.16,.43,.22,.22,.33,.36,.33,.42s-.11,.2-.33,.42c-.09,.09-.24,.18-.42,.26-.19,.08-.36,.11-.52,.09-.16-.02-.23-.07-.23-.17s-.3-.19-.91-.29c-.61-.1-1.3-.2-2.07-.32-.77-.11-1.28-.23-1.52-.36-.28-.13-1.04-.26-2.28-.41-1.24-.15-2.28-.22-3.12-.23-.78,0-1.17-.05-1.17-.15Z"/><path class="cls-1" d="M150.06,146.31c0-.06-.13-.23-.39-.5-.26-.27-.39-.44-.39-.5,0-.08-.07-.17-.21-.27-.14-.08-.21-.23-.21-.46,0-.2,.01-.38,.03-.55,.04-.59,.1-.9,.16-.94,.08-.04,.14-.16,.18-.36,.02-.12,.2-.37,.55-.76l.43-.45,1.21,.07c.79,.02,1.22,.11,1.3,.25,.06,.1,.15,.15,.27,.15,.1,0,.15,.05,.15,.15,0,.12,.05,.2,.17,.24,.11,.04,.22,.04,.33-.01,.11-.05,.17-.11,.17-.2,0-.16,.13-.24,.4-.24,.08,0,.32,.02,.73,.06,.57,.1,.87,.23,.91,.37,.02,.12,.14,.22,.36,.31,.16,.06,.24,.2,.24,.43,0,.04,0,.14-.02,.29-.01,.15-.02,.29-.02,.41-.04,.71-.1,1.12-.16,1.24-.06,.1-.12,.21-.18,.33s-.11,.21-.14,.27c-.03,.06-.07,.14-.11,.23-.04,.09-.08,.17-.12,.23-.04,.06-.1,.13-.17,.21s-.14,.16-.21,.24c-.07,.08-.16,.18-.26,.29-.1,.11-.22,.24-.37,.38-.53,.52-.91,.83-1.16,.93-.87,.32-1.31,.54-1.31,.66-.04,.18-.21,.14-.52-.12-.16-.12-.24-.25-.24-.4,0-.04-.06-.1-.17-.17-.11-.07-.17-.14-.17-.2,0-.1-.09-.24-.27-.43s-.31-.4-.39-.64c-.06-.24-.15-.36-.27-.37-.1,0-.15-.06-.15-.18Z"/><path class="cls-2" d="M157.29,154.18c0-.16-.09-.3-.26-.42-.17-.13-.26-.27-.26-.42,0-.22-.12-.49-.37-.8-.22-.31-.33-.67-.32-1.08,0-.28,.08-.53,.24-.75,.16-.19,.33-.28,.52-.28,.22,0,.42,.13,.61,.38,.19,.25,.29,.57,.32,.94,.06,.53,.15,.85,.28,.94,.16,.09,.23,.24,.23,.42,0,.09,.14,.3,.42,.61,.28,.32,.42,.52,.42,.61,0,.16,.06,.23,.19,.24,.09,0,.17,.17,.23,.52,.12,.66,.32,.99,.61,.99,.12,0,.19-.36,.19-1.08,0-.53,.06-.94,.17-1.22,.11-.28,.18-.59,.22-.94,.07-.56,.16-.84,.29-.84s.19-.08,.19-.23c0-.19,.2-.28,.61-.28h.56v.94c0,.6-.09,1-.25,1.22-.19,.25-.28,.59-.29,1.03,0,.35-.06,.63-.17,.85-.11,.22-.17,.48-.17,.8,0,.5-.06,1.08-.17,1.74-.11,.66-.22,1.02-.31,1.08-.13,.06-.22,.33-.29,.8-.03,.28-.12,.55-.26,.8-.14,.25-.23,.5-.26,.75-.03,.25-.1,.41-.19,.47-.09,.06-.27,.09-.52,.09-.47,0-.7-.22-.7-.66,0-.16,.05-.45,.15-.89s.14-.73,.15-.89c0-.22-.02-.34-.07-.38-.05-.03-.2-.03-.45,0-.38,.06-.64,.2-.8,.42-.19,.25-.41,.37-.66,.37-.31,0-.52,.08-.61,.23-.19,.19-.5,.31-.94,.37-.47,.06-.71,.17-.71,.33,0,.09-.07,.19-.21,.28-.14,.09-.28,.14-.4,.14-.06,0-.14-.16-.23-.47-.09-.31-.12-.53-.09-.66,.03-.12,.3-.31,.8-.56,2.45-1.11,3.75-1.83,3.91-2.14,.22-.15,.24-.34,.05-.56-.19-.22-.3-.39-.33-.52-.31-.94-.59-1.52-.84-1.74-.16-.16-.23-.33-.23-.52Z"/><path class="cls-2" d="M168.5,130.57c.28-.09,.53-.14,.75-.14,.25,0,.41,.03,.47,.07,.06,.05,.09,.2,.09,.45,0,.34-.07,.52-.19,.52-.31,0-.47,.78-.48,2.35,0,.5-.07,.89-.22,1.17s-.23,.64-.26,1.08c-.07,.66-.15,.99-.24,.98l-.68,4.51c-.03,.09-.11,.47-.24,1.13s-.22,1.03-.29,1.13c-.16,.22-.29,.91-.39,2.06-.13,1.35-.23,2.08-.29,2.21-.09,.19-.22,.79-.36,1.81-.15,1.02-.22,1.81-.22,2.37,0,.5-.05,.78-.14,.84-.09,.03-.2,.68-.32,1.95-.12,1.27-.21,1.92-.27,1.95-.13,.13-.24,.97-.34,2.53-.13,1.66-.25,2.49-.34,2.49-.09,.06-.14,.17-.14,.33,0,.13-.13,.31-.38,.56-.16,.16-.3,.23-.42,.23-.22,0-.33-.35-.32-1.04,0-.47,.08-1.23,.22-2.28,.15-1.05,.22-1.6,.22-1.67,.07-.56,.17-1.11,.31-1.64,.14-.53,.25-1.13,.31-1.78,.07-.88,.15-1.36,.24-1.46,.03-.06,.15-.81,.34-2.25,.2-1.44,.32-2.21,.39-2.3,.03-.06,.1-.59,.22-1.57,.11-.99,.2-1.51,.27-1.57,.13-.06,.22-.47,.29-1.22,.17-1.91,.31-2.86,.44-2.86,.09,0,.17-.42,.24-1.27,.03-.56,.15-1.22,.36-1.97,.21-.75,.33-1.45,.36-2.11,.07-.97,.16-1.46,.29-1.46,.09,0,.14-.22,.14-.66,0-.56,.08-1.27,.22-2.11,.15-.84,.27-1.3,.36-1.36Z"/></g></g></g></svg>