<?xml version="1.0" encoding="UTF-8"?><svg id="Layer_2" xmlns="http://www.w3.org/2000/svg" viewBox="0 0 71.47 71.43"><defs><style>.cls-1{fill:#fff;}</style></defs><g id="Layer_1-2"><g><path d="M26.8,71.43c-.42-.35-.93-.63-1.23-1.07-.55-.8-.33-1.62,.18-2.41,1.55-2.39,2.58-4.98,3.03-7.8,.83-5.17-.17-9.97-2.92-14.43-.31-.51-.56-1.15-.56-1.74,0-1.11,.99-1.91,2.19-1.86,5.58,.21,9.8,2.74,12.59,7.56,.4,.69,.82,.82,1.52,.82,3.72-.03,6.51-1.59,8.15-4.95,1.81-3.72,.26-8.67-3.29-10.76-.05-.03-.12-.03-.27-.07,0,1.56,0,3.09,0,4.61,0,1.94-.78,2.75-2.73,2.62-5.52-.37-9.61-3.02-12.28-7.84-.28-.51-.57-.67-1.12-.66-3.52,.1-7.04,0-10.42-1.11C9.12,28.9,2.65,21.77,.41,10.87,.22,9.95,.14,9,0,8.06v-2.37c.5-.98,1.21-1.55,2.39-1.55,13.21,.02,26.42,.01,39.63,.01,2.5,0,4.97,.27,7.37,.96,.82,.24,1.34,.09,1.94-.5,2.42-2.38,5.3-4.03,8.68-4.36C63.19-.06,66.41,.02,69.62,0c.95,0,1.72,.86,1.83,1.81,.1,.81-.29,1.42-.83,1.98-1.82,1.91-3.01,4.17-3.2,6.81-.18,2.52-.11,5.06-.13,7.6,0,.21,.12,.44,.24,.64,3.26,5.72,4.54,11.85,3.68,18.38-1.05,7.87-4.71,14.32-10.85,19.32-5.53,4.49-11.92,6.62-19.05,6.51-.56,0-.85,.17-1.11,.67-1.66,3.08-4.1,5.34-7.37,6.61-1.3,.51-2.71,.75-4.07,1.11h-1.95Zm4.5-24.32c1.29,3.2,1.96,6.38,1.96,9.69,0,3.3-.68,6.47-1.96,9.67,2.81-1.28,4.68-3.22,5.77-5.91,.53-1.31,1.08-1.64,2.48-1.7,2.27-.09,4.58-.03,6.81-.42,14.48-2.51,23.77-16.92,20.16-31.11-2.85-11.18-12.89-18.96-24.59-18.98-12.3-.03-24.61,0-36.91,0-.22,0-.45,0-.68,0,0,.21-.01,.33,0,.44,.5,4.41,2.15,8.34,4.93,11.79,.16,.2,.55,.31,.84,.31,2.91,.02,5.81,0,8.72,.02,1.3,0,2.24,.87,2.25,2.07,.01,1.22-.93,2.11-2.28,2.12-1.12,0-2.23,0-3.35,0-.39,0-.79,0-1.18,0,4.63,3.29,9.75,4.5,15.3,4.14-.04-.62-.1-1.17-.11-1.73-.03-1.41,.8-2.38,2.04-2.41,1.24-.02,2.09,.91,2.14,2.33,.11,3.06,1.27,5.64,3.54,7.7,1.36,1.24,2.94,2.07,4.83,2.43,0-1.93,0-3.78,0-5.64,0-1.79,1.14-2.7,2.88-2.29,5.38,1.27,9.56,6.31,9.81,11.84,.26,5.63-3.23,10.7-8.58,12.55-2.21,.77-4.48,.68-6.76,.68-1.16,0-1.74-.47-2.25-1.52-.52-1.06-1.08-2.11-1.78-3.06-.99-1.34-2.34-2.28-4.03-2.99ZM65.14,4.21c-3.82-.32-7.29,.27-10.3,2.86,3.08,1.51,5.76,3.45,8.25,5.93-.08-3.2,.56-6.06,2.05-8.79Z"/><path class="cls-1" d="M31.3,47.11c1.69,.71,3.04,1.66,4.03,2.99,.7,.94,1.26,2,1.78,3.06,.51,1.05,1.09,1.52,2.25,1.52,2.28,0,4.55,.09,6.76-.68,5.35-1.85,8.84-6.92,8.58-12.55-.25-5.53-4.43-10.58-9.81-11.84-1.73-.41-2.87,.5-2.88,2.29,0,1.86,0,3.72,0,5.64-1.89-.36-3.47-1.19-4.83-2.43-2.26-2.06-3.43-4.64-3.54-7.7-.05-1.42-.9-2.35-2.14-2.33-1.24,.02-2.08,1-2.04,2.41,.01,.56,.07,1.11,.11,1.73-5.55,.36-10.68-.85-15.3-4.14,.39,0,.79,0,1.18,0,1.12,0,2.23,0,3.35,0,1.34,0,2.29-.89,2.28-2.12-.01-1.19-.95-2.06-2.25-2.07-2.91,0-5.81,0-8.72-.02-.29,0-.67-.11-.84-.31-2.78-3.45-4.43-7.39-4.93-11.79-.01-.11,0-.23,0-.44,.23,0,.45,0,.68,0,12.3,0,24.61-.02,36.91,0,11.7,.02,21.75,7.8,24.59,18.98,3.61,14.19-5.68,28.6-20.16,31.11-2.23,.39-4.53,.32-6.81,.42-1.4,.06-1.95,.39-2.48,1.7-1.09,2.69-2.95,4.63-5.77,5.91,1.28-3.2,1.96-6.36,1.96-9.67,0-3.31-.66-6.49-1.96-9.69Zm-.14-28.28c0-2.09-.71-3.91-2.11-5.46-.91-1.01-2.18-1.12-3.09-.31-.91,.81-.92,2.07-.03,3.1,1.43,1.66,1.42,3.62-.02,5.3-.87,1.01-.86,2.24,.02,3.06,.9,.83,2.19,.74,3.09-.25,1.4-1.54,2.13-3.35,2.14-5.45Zm8.37,0c0-2.09-.71-3.91-2.11-5.46-.91-1.01-2.17-1.13-3.09-.31-.91,.81-.93,2.07-.03,3.1,1.43,1.66,1.43,3.62-.01,5.3-.89,1.03-.86,2.3,.06,3.1,.93,.8,2.18,.67,3.09-.34,1.37-1.53,2.08-3.33,2.09-5.39Zm-20.54-6.3c-1.13-.01-2.09,.92-2.11,2.05s.9,2.1,2.03,2.13c1.16,.03,2.15-.93,2.15-2.09,0-1.13-.94-2.08-2.07-2.1Z"/><path class="cls-1" d="M65.14,4.21c-1.48,2.73-2.12,5.59-2.05,8.79-2.49-2.48-5.18-4.41-8.25-5.93,3.01-2.59,6.48-3.19,10.3-2.86Z"/><path d="M31.17,18.83c-.01,2.09-.74,3.91-2.14,5.44-.9,.99-2.2,1.09-3.09,.25-.88-.81-.88-2.05-.02-3.06,1.44-1.68,1.45-3.64,.02-5.3-.9-1.04-.88-2.29,.03-3.1,.92-.81,2.18-.7,3.09,.31,1.4,1.55,2.11,3.36,2.11,5.46Z"/><path d="M39.54,18.83c0,2.07-.72,3.86-2.09,5.39-.91,1.02-2.16,1.15-3.09,.34-.92-.8-.95-2.07-.06-3.1,1.44-1.68,1.45-3.64,.01-5.3-.89-1.04-.88-2.3,.03-3.1,.92-.81,2.18-.7,3.09,.31,1.4,1.55,2.11,3.37,2.11,5.46Z"/><path d="M19.01,12.53c1.13,.01,2.07,.97,2.07,2.1,0,1.16-.99,2.12-2.15,2.09-1.13-.03-2.05-1-2.03-2.13s.98-2.06,2.11-2.05Z"/></g></g></svg>