<?xml version="1.0" encoding="utf-8"?>
<!-- Generator: Adobe Illustrator 26.3.1, SVG Export Plug-In . SVG Version: 6.00 Build 0)  -->
<svg version="1.1" id="Layer_1" xmlns="http://www.w3.org/2000/svg" xmlns:xlink="http://www.w3.org/1999/xlink" x="0px" y="0px"
	 viewBox="0 0 20 20" style="enable-background:new 0 0 20 20;" xml:space="preserve">
<style type="text/css">
	.st0{fill:#010101;}
</style>
<g id="Layer_1-2_00000050635594149083766520000000387332387268026543_">
	<path class="st0" d="M10.4,0.7c0-0.3,0-0.4,0.2-0.4c0.1,0,0.3-0.1,0.7-0.1h0.1c0.4,0,0.6,0,0.6,0s0.1,0.2,0.1,0.5
		c0,0.4,0.1,0.7,0.4,0.8c0.2,0.2,0.3,0.3,0.3,0.5c0,0.2,0.1,0.4,0.4,0.6c0.5,0.5,0.8,1.1,1,1.7c0.2,0.5,0.3,0.8,0.4,0.8
		c0,0,0.1,0.2,0.3,0.5s0.2,0.5,0.3,0.6c0.2,0.1,0.2,0.2,0.2,0.4c0,0.2,0.1,0.4,0.3,0.6c0.2,0.2,0.3,1.2,0.3,2.9
		c0,1.3-0.1,2.2-0.2,2.5c-0.3,0.6-1.2,1-2.8,1.3c-0.6,0.1-1,0.3-1.1,0.5s-0.2,1.1-0.2,2.4c-0.1,1.7-0.1,2.5-0.1,2.6
		c0,0.2-0.2,0.3-0.5,0.3s-0.5,0-0.6-0.2c-0.1-0.1-0.7-0.2-1.7-0.3c-1.1-0.1-1.7-0.3-1.9-0.5c-0.1-0.1-0.1-0.2-0.1-0.3
		c0-0.1,0.1-0.5,0.4-1c0.3-0.6,0.5-1.1,0.5-1.4s0.1-0.6,0.2-0.7C8.1,15,8.2,14.6,8.2,14c0-0.2,0-0.3-0.1-0.4
		c-0.2-0.2-0.6-0.2-1.3-0.2H6.1c-0.4,0-0.8-0.1-0.9-0.5c-0.2-0.3-0.4-0.5-0.4-0.5c-0.1,0-0.1-0.1-0.1-0.4c0-0.3-0.1-0.5-0.2-0.8
		c-0.2-0.3-0.3-0.6-0.3-1c0-0.3,0-0.4,0.1-0.4c0.1,0,0.2-0.2,0.3-0.6c0-0.2,0.1-0.4,0.3-0.8C5,8,5.1,7.8,5.1,7.5
		c0-0.2,0.1-0.3,0.3-0.5c0.2-0.1,0.3-0.3,0.3-0.4c0.1-0.3,0.3-0.7,0.8-1.2c0.5-0.5,0.8-0.8,0.8-0.9c0-0.1,0.1-0.2,0.3-0.2
		c0.2-0.1,0.5-0.3,0.7-0.7c0.4-0.5,0.7-1,1-1.3c0.5-0.5,0.7-0.9,0.7-1S10.2,1,10.3,1C10.4,1,10.4,0.9,10.4,0.7L10.4,0.7z"/>
</g>
</svg>
