<?xml version="1.0" encoding="UTF-8"?><svg id="Layer_2" xmlns="http://www.w3.org/2000/svg" viewBox="0 0 101.07 140"><defs><style>.cls-1{fill:#fff;}.cls-2{fill:#231f20;}</style></defs><g id="cards"><g><path class="cls-1" d="M98.04,0s-29.21,.79-47.5,.79S3.03,0,3.03,0C1.36-.04,0,1.28,0,2.95V135.9c0,1.67,1.36,3.08,3.03,3.13,0,0,29.21,.97,47.5,.97s47.5-.97,47.5-.97c1.67-.06,3.03-1.47,3.03-3.13V2.95c0-1.67-1.37-2.99-3.03-2.95Z"/><path class="cls-2" d="M8.65,11.13c-.29,.3-.48,.68-.57,1.15,.36-.51,.77-.77,1.23-.77,.37,0,.75,.18,1.15,.55l.54,.49c.33,.3,.6,.45,.81,.45,.16,0,.31-.09,.44-.26,.13-.17,.19-.38,.19-.61v-.07s-.01-.07-.01-.1c-.11,.08-.22,.12-.33,.12-.16,0-.3-.06-.41-.19-.11-.13-.16-.29-.16-.48,0-.21,.07-.4,.22-.55s.32-.23,.52-.23c.28,0,.51,.13,.67,.4,.17,.27,.25,.63,.25,1.08,0,.58-.14,1.07-.41,1.46-.27,.39-.6,.59-1,.59-.31,0-.73-.21-1.26-.62l-.59-.46c-.36-.28-.67-.42-.93-.42-.17,0-.33,.04-.46,.12s-.2,.18-.2,.28c0,.04,.04,.08,.13,.13,.17,.1,.26,.24,.26,.43,0,.36-.17,.54-.51,.54-.28,0-.51-.14-.67-.41-.17-.28-.25-.64-.25-1.1,0-.92,.24-1.68,.73-2.28,.35-.44,1.06-.9,2.15-1.4,.65-.29,1.1-.59,1.35-.89,.25-.31,.38-.7,.38-1.18,0-.54-.16-.98-.47-1.31-.31-.33-.72-.5-1.23-.5-.46,0-.85,.13-1.17,.4-.31,.27-.48,.61-.5,1.03,.41,.05,.61,.28,.61,.7,0,.25-.08,.47-.24,.64-.16,.18-.35,.26-.57,.26-.27,0-.49-.12-.65-.35-.16-.24-.24-.55-.24-.94,0-.76,.28-1.41,.83-1.93,.56-.52,1.25-.78,2.07-.78,.76,0,1.39,.26,1.88,.79,.49,.53,.73,1.2,.73,2.02,0,.5-.11,.98-.32,1.43-.21,.45-.5,.79-.86,1.02-.28,.18-.69,.39-1.23,.61-.83,.35-1.46,.74-1.89,1.16Z"/><path class="cls-2" d="M92.21,127.82c.29-.3,.48-.68,.57-1.15-.36,.51-.77,.77-1.23,.77-.37,0-.75-.18-1.15-.55l-.54-.49c-.33-.3-.6-.45-.81-.45-.16,0-.31,.09-.44,.26-.13,.17-.19,.38-.19,.61v.07s.01,.07,.01,.1c.11-.08,.22-.12,.33-.12,.16,0,.3,.06,.41,.19,.11,.13,.16,.29,.16,.48,0,.21-.07,.4-.22,.55s-.32,.23-.52,.23c-.28,0-.51-.13-.67-.4-.17-.27-.25-.63-.25-1.08,0-.58,.14-1.07,.41-1.46,.27-.39,.6-.59,1-.59,.31,0,.73,.21,1.26,.62l.59,.46c.36,.28,.67,.42,.93,.42,.17,0,.33-.04,.46-.12,.14-.08,.2-.18,.2-.28,0-.04-.04-.08-.13-.13-.17-.1-.26-.24-.26-.43,0-.36,.17-.54,.51-.54,.28,0,.51,.14,.67,.41,.17,.28,.25,.64,.25,1.1,0,.92-.24,1.68-.73,2.28-.35,.44-1.06,.9-2.15,1.4-.65,.29-1.1,.59-1.35,.89s-.38,.7-.38,1.18c0,.54,.16,.98,.47,1.31,.31,.33,.72,.5,1.23,.5,.46,0,.85-.13,1.17-.4,.31-.27,.48-.61,.5-1.03-.41-.05-.61-.28-.61-.7,0-.25,.08-.47,.24-.64,.16-.18,.35-.26,.57-.26,.27,0,.49,.12,.65,.35,.16,.24,.24,.55,.24,.94,0,.76-.28,1.41-.83,1.93-.56,.52-1.25,.78-2.07,.78-.76,0-1.39-.26-1.88-.79-.49-.53-.73-1.2-.73-2.02,0-.5,.11-.98,.32-1.43,.21-.45,.5-.79,.86-1.02,.28-.18,.69-.39,1.23-.61,.83-.35,1.46-.74,1.89-1.16Z"/><path class="cls-2" d="M57.18,52.32c3.67,0,6.64-2.97,6.64-6.64s-2.87-6.53-6.44-6.63c.3-.79,.46-1.65,.46-2.55,0-4.03-3.27-7.29-7.29-7.29s-7.29,3.27-7.29,7.29c0,.9,.16,1.76,.46,2.55-3.58,.1-6.44,3.03-6.44,6.63s2.97,6.64,6.64,6.64c2.72,0,5.06-1.64,6.08-3.99-2.05,9.55-9.08,11.08-9.08,11.08h19.26s-7.03-1.53-9.08-11.08c1.02,2.34,3.36,3.98,6.08,3.98Z"/><path class="cls-2" d="M57.18,100.32c3.67,0,6.64-2.97,6.64-6.64s-2.87-6.53-6.44-6.63c.3-.79,.46-1.65,.46-2.55,0-4.03-3.27-7.29-7.29-7.29s-7.29,3.27-7.29,7.29c0,.9,.16,1.76,.46,2.55-3.58,.1-6.44,3.03-6.44,6.63s2.97,6.64,6.64,6.64c2.72,0,5.06-1.64,6.08-3.99-2.05,9.55-9.08,11.08-9.08,11.08h19.26s-7.03-1.53-9.08-11.08c1.02,2.34,3.36,3.98,6.08,3.98Z"/><path class="cls-2" d="M12.75,25.92c1.38,0,2.49-1.11,2.49-2.49s-1.07-2.45-2.41-2.49c.11-.3,.17-.62,.17-.96,0-1.51-1.22-2.74-2.73-2.74s-2.73,1.22-2.73,2.74c0,.34,.06,.66,.17,.96-1.34,.04-2.41,1.14-2.41,2.49s1.11,2.49,2.49,2.49c1.02,0,1.9-.61,2.28-1.49-.77,3.58-3.4,4.15-3.4,4.15h7.22s-2.64-.58-3.4-4.15c.38,.88,1.26,1.49,2.28,1.49Z"/><path class="cls-2" d="M88.11,113.03c-1.38,0-2.49,1.11-2.49,2.49s1.07,2.45,2.42,2.49c-.11,.3-.17,.62-.17,.96,0,1.51,1.22,2.74,2.73,2.74s2.74-1.23,2.74-2.74c0-.34-.06-.66-.17-.96,1.34-.04,2.42-1.14,2.42-2.49s-1.11-2.49-2.49-2.49c-1.02,0-1.9,.61-2.28,1.49,.77-3.58,3.41-4.15,3.41-4.15h-7.22s2.64,.57,3.4,4.15c-.38-.88-1.26-1.49-2.28-1.49Z"/></g></g></svg>