<?xml version="1.0" encoding="UTF-8"?><svg id="Layer_2" xmlns="http://www.w3.org/2000/svg" viewBox="0 0 101.07 140"><defs><style>.cls-1{fill:#fff;}.cls-2{fill:#231f20;}</style></defs><g id="cards"><g><path class="cls-1" d="M98.04,0s-29.21,.79-47.5,.79S3.03,0,3.03,0C1.36-.04,0,1.28,0,2.95V135.9c0,1.67,1.36,3.08,3.03,3.13,0,0,29.21,.97,47.5,.97s47.5-.97,47.5-.97c1.67-.06,3.03-1.47,3.03-3.13V2.95c0-1.67-1.36-2.99-3.03-2.95Z"/><path class="cls-2" d="M56.25,95.32c3.21,0,5.81-2.6,5.81-5.81s-2.51-5.71-5.64-5.8c.26-.69,.4-1.45,.4-2.23,0-3.52-2.86-6.38-6.38-6.38s-6.38,2.86-6.38,6.38c0,.79,.14,1.54,.4,2.23-3.13,.09-5.64,2.65-5.64,5.8s2.6,5.81,5.81,5.81c2.38,0,4.43-1.44,5.32-3.49-1.79,8.35-7.94,9.69-7.94,9.69h16.86s-6.15-1.34-7.94-9.69c.9,2.05,2.94,3.49,5.32,3.49Z"/><path class="cls-2" d="M8.04,9.29c.25-.29,.63-.5,1.13-.64-.88-.37-1.32-1.05-1.32-2.05,0-.73,.24-1.32,.73-1.8,.48-.47,1.09-.71,1.83-.71s1.28,.23,1.73,.68c.45,.45,.67,1.04,.67,1.76,0,.96-.43,1.66-1.29,2.12,1.11,.36,1.67,1.17,1.67,2.45,0,.9-.27,1.63-.82,2.2s-1.25,.85-2.13,.85-1.53-.27-2.08-.82c-.56-.55-.83-1.23-.83-2.05,0-.77,.24-1.44,.71-1.99Zm2.22-.09c-.53,0-.97,.18-1.33,.55-.35,.37-.53,.83-.53,1.4,0,.6,.17,1.08,.52,1.46,.34,.38,.78,.56,1.31,.56s.99-.19,1.33-.56c.35-.38,.52-.86,.52-1.45s-.16-1.07-.49-1.43c-.33-.36-.77-.53-1.33-.53Zm.09-4.13c-.41,0-.74,.14-1,.43-.26,.28-.39,.64-.39,1.08s.13,.78,.39,1.06c.26,.28,.59,.43,.99,.43s.71-.14,.98-.43c.27-.29,.4-.64,.4-1.05s-.13-.78-.39-1.07c-.26-.29-.59-.43-.97-.43Z"/><path class="cls-2" d="M92.82,129.66c-.25,.29-.63,.5-1.13,.64,.88,.37,1.32,1.05,1.32,2.05,0,.73-.24,1.32-.73,1.8-.48,.47-1.09,.71-1.83,.71s-1.28-.23-1.73-.68-.67-1.04-.67-1.76c0-.96,.43-1.66,1.29-2.12-1.11-.36-1.67-1.17-1.67-2.45,0-.9,.27-1.63,.82-2.2,.55-.57,1.25-.85,2.13-.85s1.53,.27,2.08,.82c.56,.55,.83,1.23,.83,2.05,0,.77-.24,1.44-.71,1.99Zm-2.22,.09c.53,0,.97-.18,1.33-.55,.35-.37,.53-.83,.53-1.4,0-.6-.17-1.08-.52-1.46-.34-.38-.78-.56-1.31-.56s-.99,.19-1.33,.56c-.35,.38-.52,.86-.52,1.45s.16,1.07,.49,1.43c.33,.36,.77,.53,1.33,.53Zm-.09,4.13c.41,0,.74-.14,1-.43,.26-.28,.39-.64,.39-1.08s-.13-.78-.39-1.06c-.26-.28-.59-.43-.99-.43s-.71,.14-.98,.43c-.27,.29-.4,.64-.4,1.05s.13,.78,.39,1.07c.26,.29,.59,.43,.97,.43Z"/><path class="cls-2" d="M12.75,25.92c1.38,0,2.49-1.11,2.49-2.49s-1.08-2.45-2.41-2.49c.11-.3,.17-.62,.17-.96,0-1.51-1.23-2.74-2.74-2.74s-2.74,1.22-2.74,2.74c0,.34,.06,.66,.17,.96-1.34,.04-2.42,1.14-2.42,2.49s1.11,2.49,2.49,2.49c1.02,0,1.9-.61,2.28-1.49-.77,3.58-3.4,4.15-3.4,4.15h7.22s-2.64-.58-3.4-4.15c.38,.88,1.26,1.49,2.28,1.49Z"/><path class="cls-2" d="M88.11,113.03c-1.37,0-2.49,1.11-2.49,2.49s1.07,2.45,2.41,2.49c-.11,.3-.17,.62-.17,.96,0,1.51,1.22,2.74,2.73,2.74s2.74-1.23,2.74-2.74c0-.34-.06-.66-.17-.96,1.34-.04,2.42-1.14,2.42-2.49s-1.11-2.49-2.49-2.49c-1.02,0-1.9,.61-2.28,1.49,.77-3.58,3.4-4.15,3.4-4.15h-7.22s2.64,.57,3.4,4.15c-.38-.88-1.26-1.49-2.28-1.49Z"/><path class="cls-2" d="M56.31,55.32c3.21,0,5.81-2.6,5.81-5.81s-2.51-5.71-5.64-5.8c.26-.69,.4-1.45,.4-2.23,0-3.52-2.86-6.38-6.38-6.38s-6.38,2.86-6.38,6.38c0,.79,.14,1.54,.4,2.23-3.13,.09-5.64,2.65-5.64,5.8s2.6,5.81,5.81,5.81c2.38,0,4.43-1.44,5.32-3.49-1.79,8.35-7.94,9.69-7.94,9.69h16.86s-6.15-1.34-7.94-9.69c.9,2.05,2.94,3.49,5.32,3.49Z"/><path class="cls-2" d="M36.23,75.32c3.21,0,5.81-2.6,5.81-5.81s-2.51-5.71-5.64-5.8c.26-.69,.4-1.45,.4-2.23,0-3.52-2.86-6.38-6.38-6.38s-6.38,2.86-6.38,6.38c0,.79,.14,1.54,.4,2.23-3.13,.09-5.64,2.65-5.64,5.8s2.6,5.81,5.81,5.81c2.38,0,4.43-1.44,5.32-3.49-1.79,8.35-7.94,9.69-7.94,9.69h16.86s-6.15-1.34-7.94-9.69c.9,2.05,2.94,3.49,5.32,3.49Z"/><path class="cls-2" d="M36.23,35.32c3.21,0,5.81-2.6,5.81-5.81s-2.51-5.71-5.64-5.8c.26-.69,.4-1.45,.4-2.23,0-3.52-2.86-6.38-6.38-6.38s-6.38,2.86-6.38,6.38c0,.79,.14,1.54,.4,2.23-3.13,.09-5.64,2.65-5.64,5.8s2.6,5.81,5.81,5.81c2.38,0,4.43-1.44,5.32-3.49-1.79,8.35-7.94,9.69-7.94,9.69h16.86s-6.15-1.34-7.94-9.69c.9,2.05,2.94,3.49,5.32,3.49Z"/><path class="cls-2" d="M36.23,115.32c3.21,0,5.81-2.6,5.81-5.81s-2.51-5.71-5.64-5.8c.26-.69,.4-1.45,.4-2.23,0-3.52-2.86-6.38-6.38-6.38s-6.38,2.86-6.38,6.38c0,.79,.14,1.54,.4,2.23-3.13,.09-5.64,2.65-5.64,5.8s2.6,5.81,5.81,5.81c2.38,0,4.43-1.44,5.32-3.49-1.79,8.35-7.94,9.69-7.94,9.69h16.86s-6.15-1.34-7.94-9.69c.9,2.05,2.94,3.49,5.32,3.49Z"/><path class="cls-2" d="M76.23,75.32c3.21,0,5.81-2.6,5.81-5.81s-2.51-5.71-5.64-5.8c.26-.69,.4-1.45,.4-2.23,0-3.52-2.86-6.38-6.38-6.38s-6.38,2.86-6.38,6.38c0,.79,.14,1.54,.4,2.23-3.13,.09-5.64,2.65-5.64,5.8s2.6,5.81,5.81,5.81c2.38,0,4.43-1.44,5.32-3.49-1.79,8.35-7.94,9.69-7.94,9.69h16.86s-6.15-1.34-7.94-9.69c.9,2.05,2.94,3.49,5.32,3.49Z"/><path class="cls-2" d="M76.23,35.32c3.21,0,5.81-2.6,5.81-5.81s-2.51-5.71-5.64-5.8c.26-.69,.4-1.45,.4-2.23,0-3.52-2.86-6.38-6.38-6.38s-6.38,2.86-6.38,6.38c0,.79,.14,1.54,.4,2.23-3.13,.09-5.64,2.65-5.64,5.8s2.6,5.81,5.81,5.81c2.38,0,4.43-1.44,5.32-3.49-1.79,8.35-7.94,9.69-7.94,9.69h16.86s-6.15-1.34-7.94-9.69c.9,2.05,2.94,3.49,5.32,3.49Z"/><path class="cls-2" d="M76.23,115.32c3.21,0,5.81-2.6,5.81-5.81s-2.51-5.71-5.64-5.8c.26-.69,.4-1.45,.4-2.23,0-3.52-2.86-6.38-6.38-6.38s-6.38,2.86-6.38,6.38c0,.79,.14,1.54,.4,2.23-3.13,.09-5.64,2.65-5.64,5.8s2.6,5.81,5.81,5.81c2.38,0,4.43-1.44,5.32-3.49-1.79,8.35-7.94,9.69-7.94,9.69h16.86s-6.15-1.34-7.94-9.69c.9,2.05,2.94,3.49,5.32,3.49Z"/></g></g></svg>