<?xml version="1.0" encoding="UTF-8"?><svg id="Layer_2" xmlns="http://www.w3.org/2000/svg" viewBox="0 0 101.07 140"><defs><style>.cls-1{fill:#fff;}.cls-2{fill:#231f20;}</style></defs><g id="cards"><g><path class="cls-1" d="M98.04,0s-29.21,.79-47.5,.79S3.03,0,3.03,0C1.37-.04,0,1.28,0,2.95V135.9c0,1.67,1.36,3.08,3.03,3.13,0,0,29.21,.97,47.5,.97s47.5-.97,47.5-.97c1.67-.06,3.03-1.47,3.03-3.13V2.95c0-1.67-1.36-2.99-3.03-2.95Z"/><path class="cls-2" d="M36.33,35.32c3.21,0,5.81-2.6,5.81-5.81s-2.51-5.71-5.64-5.8c.26-.69,.4-1.45,.4-2.23,0-3.52-2.86-6.38-6.38-6.38s-6.38,2.86-6.38,6.38c0,.79,.14,1.54,.4,2.23-3.13,.09-5.64,2.65-5.64,5.8s2.6,5.81,5.81,5.81c2.38,0,4.43-1.44,5.32-3.49-1.79,8.35-7.94,9.69-7.94,9.69h16.86s-6.15-1.34-7.94-9.69c.9,2.05,2.94,3.49,5.32,3.49Z"/><path class="cls-2" d="M36.33,115.32c3.21,0,5.81-2.6,5.81-5.81s-2.51-5.71-5.64-5.8c.26-.69,.4-1.45,.4-2.23,0-3.52-2.86-6.38-6.38-6.38s-6.38,2.86-6.38,6.38c0,.79,.14,1.54,.4,2.23-3.13,.09-5.64,2.65-5.64,5.8s2.6,5.81,5.81,5.81c2.38,0,4.43-1.44,5.32-3.49-1.79,8.35-7.94,9.69-7.94,9.69h16.86s-6.15-1.34-7.94-9.69c.9,2.05,2.94,3.49,5.32,3.49Z"/><path class="cls-2" d="M76.33,35.32c3.21,0,5.81-2.6,5.81-5.81s-2.51-5.71-5.64-5.8c.26-.69,.4-1.45,.4-2.23,0-3.52-2.86-6.38-6.38-6.38s-6.38,2.86-6.38,6.38c0,.79,.14,1.54,.4,2.23-3.13,.09-5.64,2.65-5.64,5.8s2.6,5.81,5.81,5.81c2.38,0,4.43-1.44,5.32-3.49-1.79,8.35-7.94,9.69-7.94,9.69h16.86s-6.15-1.34-7.94-9.69c.9,2.05,2.94,3.49,5.32,3.49Z"/><path class="cls-2" d="M76.33,115.32c3.21,0,5.81-2.6,5.81-5.81s-2.51-5.71-5.64-5.8c.26-.69,.4-1.45,.4-2.23,0-3.52-2.86-6.38-6.38-6.38s-6.38,2.86-6.38,6.38c0,.79,.14,1.54,.4,2.23-3.13,.09-5.64,2.65-5.64,5.8s2.6,5.81,5.81,5.81c2.38,0,4.43-1.44,5.32-3.49-1.79,8.35-7.94,9.69-7.94,9.69h16.86s-6.15-1.34-7.94-9.69c.9,2.05,2.94,3.49,5.32,3.49Z"/><path class="cls-2" d="M10.93,11.46v-.33h-3c-.51,0-.77-.2-.77-.61,0-.21,.12-.51,.35-.9l3.05-5.1c.15-.25,.37-.38,.65-.38s.49,.08,.59,.23c.1,.15,.15,.45,.15,.9v4.83h.95c.36,0,.54,.16,.54,.48,0,.36-.22,.54-.65,.54h-.84v1.13c0,.54,.17,.81,.48,.81,.06,0,.15,0,.26-.03,.12-.02,.21-.03,.26-.03,.32,0,.48,.16,.48,.49,0,.15-.05,.27-.15,.37s-.23,.15-.38,.15c-.14,0-.37-.03-.67-.09-.3-.06-.54-.09-.72-.09-.19,0-.47,.03-.82,.09-.35,.06-.61,.09-.78,.09-.34,0-.51-.17-.51-.52,0-.33,.15-.49,.46-.49,.05,0,.14,.01,.26,.04,.13,.02,.22,.04,.29,.04,.27,0,.44-.22,.49-.65,0-.09,.01-.41,.01-.97Zm-2.68-1.35h2.68V5.6l-2.68,4.51Z"/><path class="cls-2" d="M89.93,127.49v.33h3c.51,0,.77,.2,.77,.61,0,.21-.12,.51-.35,.9l-3.05,5.1c-.15,.25-.37,.38-.65,.38s-.49-.08-.59-.23c-.1-.15-.15-.45-.15-.9v-4.83h-.95c-.36,0-.54-.16-.54-.48,0-.36,.22-.54,.65-.54h.84v-1.13c0-.54-.17-.81-.48-.81-.06,0-.15,0-.26,.03-.12,.02-.21,.03-.26,.03-.32,0-.48-.16-.48-.49,0-.15,.05-.27,.15-.37s.23-.15,.38-.15c.15,0,.37,.03,.67,.09s.54,.09,.72,.09c.19,0,.47-.03,.82-.09s.61-.09,.78-.09c.34,0,.51,.17,.51,.52,0,.33-.15,.49-.46,.49-.05,0-.14-.01-.26-.04-.13-.02-.22-.04-.29-.04-.27,0-.44,.22-.49,.65,0,.09-.01,.41-.01,.97Zm2.68,1.35h-2.68v4.51l2.68-4.51Z"/><path class="cls-2" d="M12.75,25.92c1.38,0,2.49-1.11,2.49-2.49s-1.08-2.45-2.42-2.49c.11-.3,.17-.62,.17-.96,0-1.51-1.23-2.74-2.74-2.74s-2.74,1.22-2.74,2.74c0,.34,.06,.66,.17,.96-1.34,.04-2.42,1.14-2.42,2.49s1.11,2.49,2.49,2.49c1.02,0,1.9-.61,2.28-1.49-.77,3.58-3.4,4.15-3.4,4.15h7.22s-2.64-.58-3.4-4.15c.38,.88,1.26,1.49,2.28,1.49Z"/><path class="cls-2" d="M88.11,113.03c-1.38,0-2.49,1.11-2.49,2.49s1.08,2.45,2.41,2.49c-.11,.3-.17,.62-.17,.96,0,1.51,1.22,2.74,2.73,2.74s2.74-1.23,2.74-2.74c0-.34-.06-.66-.17-.96,1.34-.04,2.42-1.14,2.42-2.49s-1.11-2.49-2.49-2.49c-1.02,0-1.9,.61-2.28,1.49,.77-3.58,3.41-4.15,3.41-4.15h-7.22s2.64,.57,3.4,4.15c-.38-.88-1.26-1.49-2.28-1.49Z"/></g></g></svg>