<?xml version="1.0" encoding="UTF-8"?><svg id="Layer_2" xmlns="http://www.w3.org/2000/svg" viewBox="0 0 101.07 140"><defs><style>.cls-1{fill:#fff;}.cls-2,.cls-3{fill:#231f20;}.cls-3,.cls-4{fill-rule:evenodd;}.cls-4{fill:#c4161c;}</style></defs><g id="cards"><g><path class="cls-1" d="M98.04,0s-29.21,.79-47.5,.79S3.03,0,3.03,0C1.36-.04,0,1.28,0,2.95V135.9c0,1.67,1.36,3.08,3.03,3.13,0,0,29.21,.97,47.5,.97s47.5-.97,47.5-.97c1.67-.06,3.03-1.47,3.03-3.13V2.95c0-1.67-1.37-2.99-3.03-2.95Z"/><path class="cls-2" d="M12.76,12.3c-.28,.58-.64,1.04-1.09,1.36v.93c0,.84,.19,1.26,.57,1.26s.55-.32,.55-.97c0-.46,.14-.68,.43-.68s.44,.23,.44,.68c0,.56-.13,1.01-.39,1.34-.26,.33-.61,.5-1.05,.5-.51,0-.86-.15-1.06-.46-.2-.31-.32-.85-.33-1.61v-.59c-.25,.05-.45,.07-.59,.07-.42,0-.83-.13-1.25-.39-.42-.26-.75-.59-.99-1-.54-.91-.81-2.12-.81-3.64s.29-2.67,.89-3.61c.59-.94,1.35-1.41,2.29-1.41s1.69,.46,2.24,1.38c.55,.92,.82,2.18,.82,3.79,0,1.15-.21,2.17-.63,3.06Zm-1.09-.58c0,.12-.01,.33-.04,.65,.22-.4,.38-.77,.46-1.1,.17-.68,.26-1.45,.26-2.31,0-1.18-.18-2.13-.55-2.84-.37-.71-.86-1.07-1.47-1.07-.72,0-1.24,.39-1.58,1.18-.38,.87-.57,1.83-.57,2.88,0,1.22,.16,2.18,.49,2.86,.04,.09,.12,.21,.23,.38-.05-.33-.07-.6-.07-.83,0-.47,.14-.86,.41-1.15,.27-.3,.62-.44,1.06-.44,.91,0,1.36,.6,1.36,1.8Zm-1.28,1.48c.09,0,.23-.02,.42-.07v-1.1c0-.77-.2-1.16-.59-1.16-.22,0-.41,.11-.57,.33-.15,.22-.23,.49-.23,.81s.09,.61,.28,.84c.19,.23,.42,.35,.69,.35Z"/><path class="cls-2" d="M88.1,126.65c.28-.58,.64-1.04,1.09-1.36v-.93c0-.84-.19-1.26-.57-1.26s-.55,.32-.55,.97c0,.46-.14,.68-.43,.68s-.44-.23-.44-.68c0-.56,.13-1.01,.39-1.34,.26-.33,.61-.5,1.05-.5,.51,0,.86,.15,1.06,.46,.2,.31,.32,.85,.33,1.61v.59c.25-.05,.45-.07,.59-.07,.42,0,.83,.13,1.25,.39,.42,.26,.75,.59,.99,1,.54,.91,.81,2.12,.81,3.64s-.29,2.67-.89,3.61c-.59,.94-1.35,1.41-2.29,1.41s-1.69-.46-2.24-1.38c-.55-.92-.82-2.18-.82-3.79,0-1.15,.21-2.17,.63-3.06Zm1.09,.58c0-.12,.01-.33,.04-.65-.22,.4-.38,.77-.46,1.1-.17,.68-.26,1.45-.26,2.31,0,1.18,.18,2.13,.55,2.84,.37,.71,.86,1.07,1.47,1.07,.72,0,1.24-.39,1.58-1.18,.38-.87,.57-1.83,.57-2.88,0-1.22-.16-2.18-.49-2.86-.04-.09-.12-.21-.23-.38,.05,.33,.07,.6,.07,.83,0,.47-.14,.86-.41,1.15-.27,.29-.62,.44-1.06,.44-.91,0-1.36-.6-1.36-1.8Zm1.28-1.48c-.09,0-.23,.02-.42,.07v1.1c0,.77,.2,1.16,.59,1.16,.22,0,.41-.11,.57-.33,.15-.22,.23-.49,.23-.81s-.09-.61-.28-.84c-.19-.23-.42-.35-.69-.35Z"/><path class="cls-2" d="M12.75,25.92c1.37,0,2.49-1.11,2.49-2.49s-1.08-2.45-2.42-2.49c.11-.3,.17-.62,.17-.96,0-1.51-1.23-2.74-2.74-2.74s-2.74,1.22-2.74,2.74c0,.34,.06,.66,.17,.96-1.34,.04-2.42,1.14-2.42,2.49s1.11,2.49,2.49,2.49c1.02,0,1.9-.61,2.28-1.49-.77,3.58-3.4,4.15-3.4,4.15h7.22s-2.64-.58-3.4-4.15c.38,.88,1.26,1.49,2.28,1.49Z"/><path class="cls-2" d="M88.11,113.03c-1.37,0-2.49,1.11-2.49,2.49s1.08,2.45,2.42,2.49c-.11,.3-.17,.62-.17,.96,0,1.51,1.22,2.74,2.74,2.74s2.73-1.23,2.73-2.74c0-.34-.06-.66-.17-.96,1.34-.04,2.42-1.14,2.42-2.49s-1.11-2.49-2.49-2.49c-1.02,0-1.9,.61-2.28,1.49,.77-3.58,3.4-4.15,3.4-4.15h-7.22s2.64,.57,3.4,4.15c-.38-.88-1.26-1.49-2.28-1.49Z"/><g><path class="cls-4" d="M69.26,34.93c-1.16,.74-1.44-1-1.71-1.58-2.64-5.64-6.22-12.07-8.42-17.64,.28,.06,.35-.09,.53-.13,.11-.02,.12,.05,.13,.13,3.37,6.11,6.64,13.02,9.48,19.22Z"/><path class="cls-3" d="M58.6,23.47c-1.04-.15-2.03-1.35-3.55-1.18-.99,.1-1.3,.85-2.24,1.05,.09-3.33,5.38-1.88,5.79,.13Z"/><path class="cls-3" d="M54.91,34.93c-1.1-.81-3.83-.34-5.13,0v-1.45c1.32,.05,3.1,.08,4.61-.26,.47,.28,.24,1.25,.53,1.71Z"/><path class="cls-3" d="M53.07,35.06c.51,.52-1.46,.87-1.45,.13,.31,.21,1.3,.23,1.45-.13Z"/><path class="cls-3" d="M53.59,36.9c-.53,.17-1.45-.37-2.11,.13,.04-1,1.83-.74,2.11-.13Z"/><path class="cls-4" d="M75.71,39.4c2.38-.8,2.36,3.24,.53,3.29-1.68,.05-2.07-2.77-.53-3.29Zm.4,2.63c.96,0,1.27-1.45,.39-2.11-1.92-.25-1.54,2.11-.39,2.11Z"/><path class="cls-3" d="M76.5,39.93c.88,.65,.57,2.11-.39,2.11-1.15,0-1.53-2.36,.39-2.11Zm-.92,1.32c.25,.06,.24,.38,.66,.26,1.23-.65-.87-2.01-.66-.26Z"/><path class="cls-4" d="M76.24,41.51c-.42,.11-.41-.21-.66-.26-.21-1.74,1.89-.39,.66,.26Z"/><path class="cls-4" d="M52.41,42.96h1.71c-.27,.22-1.44,.22-1.71,0Z"/><path class="cls-4" d="M45.96,52.7c-1.32,.07-2.79-.52-4.08-1.05-2.54-1.06-4.94-2.62-6.98-4.34-.98-.83-2.13-1.77-2.5-2.9,.36,.1,.26-.26,.53-.26,.11,.02,.13,.13,.26,.13,2.49,2.71,5.77,4.76,9.48,6.45,1.12,.51,2.7,.73,3.29,1.98Z"/><path class="cls-4" d="M62.28,52.04v1.05c-.54-.1-.68,.2-1.19,.13-.11-.46,.2-.51,.13-.92,.42-.02,.58-.3,1.05-.26Z"/><path class="cls-4" d="M53.33,52.57h2.76c-.62,.22-2.15,.22-2.76,0Z"/><path class="cls-4" d="M29.5,55.99c-.45,.06-.74-.05-1.05-.13-1.18-2.26,2.64-1.8,1.05,.13Z"/><path class="cls-4" d="M62.15,54.41c.4,2.01,.22,4.6,.26,6.98-2.54,1.94-4.09,4.86-5,8.43-.92-.09-.5-1.04-.39-1.58,.88-4.3,2.69-9.32,3.69-13.56,.48-.09,1.09-.05,1.45-.26Z"/><path class="cls-4" d="M46.49,54.81c.83,3.25,1.7,6.46,2.37,9.87-1.81-.78-3.59-1.58-6.32-1.45-.27-.73-.66-1.15-1.19-1.84-.16-.22-1.44-1.36-1.45-1.58-.03-.66,2.1-2.12,2.9-2.77,1.34-1.09,2.22-1.87,3.69-2.24Z"/><path class="cls-4" d="M52.41,57.97c.3,.27,.05,1.09,.13,1.58-.3-.27-.05-1.09-.13-1.58Z"/><path class="cls-4" d="M52.54,64.02c.3,.44,.05,1.45,.13,2.11-.3-.44-.05-1.45-.13-2.11Z"/><path class="cls-4" d="M24.5,66.39c.31,.32,.35,1.11,.13,1.58-.37,.16-.81,.16-1.19,0-.32-.78-.16-1.93,1.05-1.58Z"/><path class="cls-4" d="M36.75,67.31c.71,1,.42,3.19-.4,3.82-.21-.74,.25-2.61,.4-3.82Z"/><path class="cls-4" d="M64.92,69.29c.23,1.06-.17,2.64-.39,3.69-.66-1.03-.38-2.98,.39-3.69Z"/><path class="cls-4" d="M44.51,70.73c-1.1,5.13-2.57,9.9-3.82,14.88-.6,.06-1.08,.24-1.71,.26,.07-2.92-.18-3.94-.13-6.85,2.45-2.03,4.2-4.75,5-8.43,.37-.11,.34,.19,.66,.13Z"/><path class="cls-4" d="M76.5,73.63c-.38-1.32,.97-1.88,1.58-1.05,.42,1.36-.99,1.86-1.58,1.05Z"/><path class="cls-4" d="M48.59,74.55c.3,.14,.05,.83,.13,1.19-.17,0-.12-.23-.26-.26v-.13c.29-.02,.06-.56,.13-.79Z"/><path class="cls-4" d="M52.41,75.61c1.78,.81,3.55,1.63,6.32,1.45,.67,1.44,1.76,2.45,2.63,3.69-2,1.77-3.62,3.93-6.58,4.74-.72-3.36-1.6-6.56-2.37-9.87Z"/><path class="cls-4" d="M71.89,86.14c-.66-.53-.52-2.16,.79-1.84,.68,.47,.56,2.25-.79,1.84Z"/><path class="cls-4" d="M40.3,87.06c.04,.47-.24,.64-.26,1.05-.42-.06-.47,.24-.92,.13v-.92c.33-.16,.77-.19,1.18-.26Z"/><path class="cls-4" d="M55.31,87.45c4.99,.93,9.38,3.97,12.64,6.98,.4,.37,1.17,.95,.92,1.58-1.31-.06-2.09-1.35-3.03-2.11-2.86-2.32-6.48-4.2-10.4-5.66,.09-.4-.13-.48-.13-.79Z"/><path class="cls-4" d="M46.62,96.4c.23-.22,1.35-.22,1.58,0h-1.58Z"/><path class="cls-4" d="M46.62,96.8c.23-.22,1.35-.22,1.58,0h-1.58Z"/><path class="cls-4" d="M24.63,97.85c2.48-.98,2.7,3.94,0,3.16-1.24-.36-1.13-2.71,0-3.16Zm.13,2.5c.48,.04,.86-.02,1.18-.13,1.42-2.5-3.02-2-1.18,.13Z"/><path class="cls-3" d="M25.95,100.22c-.33,.11-.71,.17-1.18,.13-1.84-2.13,2.6-2.63,1.18-.13Zm-1.18-.53c.23,.12,.33,.37,.79,.26,.27-.31,.13-1.01-.13-1.18-.59-.06-.66,.39-.66,.92Z"/><path class="cls-4" d="M25.42,98.78c.27,.17,.4,.88,.13,1.18-.45,.1-.56-.15-.79-.26,0-.53,.07-.98,.66-.92Z"/><path class="cls-4" d="M46.75,99.04c.57,.08,1.49-.17,1.84,.13-.57-.08-1.49,.17-1.84-.13Z"/><path class="cls-3" d="M47.8,103.25c.62,.29,1.52,.36,2.11,0,0,.93-2.08,.91-2.11,0Z"/><path class="cls-3" d="M49.78,104.96c-.17,.23-1.28-.28-1.45,.26-.42-.57,1.16-.69,1.45-.26Z"/><path class="cls-4" d="M42.27,124.71c-1.31,.26-1.5-1.23-1.84-1.98-2.63-5.62-6.03-11.66-8.29-17.38,.17-.13,.49-.13,.66-.26,3.2,6.41,6.69,13.23,9.48,19.62Z"/><path class="cls-3" d="M51.36,105.36c.36,.15,.35,1.14,.13,1.45-1.57,.06-3.27-.09-4.87,.26-.03-.54,.13-1.27-.26-1.45,1.06,.18,3.81,.32,5-.26Z"/><path class="cls-3" d="M42.8,116.68c1.36,1.4,4.27,1.73,5.79,.26-.06,3.27-5.62,2.02-5.79-.26Z"/><path class="cls-4" d="M28.06,124.58h10.53c-3.2,.22-7.33,.22-10.53,0Z"/><path class="cls-3" d="M20.29,14.52h60.95V125.89H20.16V14.92c-.01-.19-.02-.37,.13-.39Zm1.05,1.45V53.09c4.43-4.96,10.68-9.24,17.24-12.51,.63-6.5,1.99-10.67,5-14.74,.82-1.1,2.76-2.46,3.03-3.55,.55-2.28-.41-4.3,0-6.71H21.47c-.15,.02-.14,.21-.13,.39Zm25.67,.66c.54-.12,1.24-.63,1.05-1.05h-.92c-.2,.19-.12,.67-.13,1.05Zm0,1.32c1-.46,2.18-1.4,2.24-2.37-.96,.58-2.05,1.02-2.24,2.37Zm1.98-.92c-.6,.67-1.85,.87-1.98,1.98,1.69-.47,3.18-1.82,3.29-3.42-.83,.09-.88,.96-1.32,1.45Zm.39,1.18c-.71,.66-2.21,.62-2.37,1.84,2.45-.45,3.46-2.33,4.34-4.34-.17,0-.18-.17-.4-.13-.61,.97-.78,1.89-1.58,2.63Zm10.27,6.19c-.4-1.01-.93-1.88-1.32-2.9-3.04-.95-4.68-3.3-6.06-5.92h-.4c-1.02,2.27-2.27,4.32-4.87,5v1.32c5.41-2.95,4.26,5.72,2.9,8.43,.35,.48,.96,.71,1.45,1.05,.03-.45,.39-.57,.79-.66,.67,.21,.86,.89,1.84,.79,.5-.2,.06-1.13,.26-1.32,.5,.12,.56,1.45,.13,1.71-.94,.47-1.63-.36-2.5-.4-.3,.14,.06,.94-.26,1.05-.74-.73-1.94-.97-2.11-1.97-.16-.97,.89-1.96,.66-3.29-.12-.36-.62,.67-.79,.26,.24-.46,.78-.63,.79-1.32-1.13,.3-1.94-.04-3.03-.13,.05,5.15,1.39,11.89,4.48,13.3,.41,.19,1.25,.19,1.71,.13,3.25-.4,5.5-3.63,7.24-5.79-1.8-1.9-2.25-6.53-.92-9.35Zm-4.21-5.92c-.94-.94-1.53-2.36-2.63-2.76,1.16,2.3,2.65,4.28,5.13,5.27-.18-1.32-1.67-1.67-2.5-2.5Zm1.84,.92c-.76-1.65-1.99-2.83-3.42-3.82,.45,1.45,2.09,2.82,3.42,3.82Zm-1.05-2.37c-.42-.45-.3-1.45-1.18-1.45-.14,.44,.86,1.48,1.18,1.45Zm3.55-1.32c0-.08-.02-.16-.13-.13-.18,.04-.25,.19-.53,.13,2.21,5.57,5.78,12,8.42,17.64,.27,.58,.55,2.32,1.71,1.58-2.84-6.2-6.11-13.11-9.48-19.22Zm14.61-.13c-2.2,5.93-.44,14.69,1.18,19.48-2.54-.35-4.88,.29-6.45,1.32,1.47,3.31,3.16,6.41,4.61,9.74-.81,.64-1.86,1.04-2.5,1.84,.3,.18,.31,.66,.66,.79,.07-.19-.15-.68,.13-.66,1.91,.21,2.85,2.06,3.95,2.63-.2-1.51-.12-3.31-.13-5-.49-.52-1.18-.84-1.32-1.71h-1.32c.18-.26,.12-.75,.26-1.05-1.09-.38-1.75-1.74-1.32-2.9,.29-.76,1.06-.65,1.32-1.32,.12-.44-.47-.83-.13-1.05h1.18c.3-1.9,3.39-1.8,3.42,.26,.49,.09,.57-.22,1.05-.13-.25,.19-.02,.86-.26,1.05,.56,.1,.82,.5,1.32,.66-.09-7.94,.18-16.24-.13-23.96h-5.53Zm-9.61,8.03c-.54-.78-.54-2.1-.53-3.42-1.74-.76-2.64-2.36-3.03-4.48h-.4c1.18,2.68,2.62,5.81,3.95,7.9Zm.26,.79c.66,1.62,1.5,3.06,2.24,4.61,.05-.96-.12-2.14,.13-2.9-1.06-.14-2.24-1.52-2.37-1.71Zm-3.29-8.69c.09,1.76,1.29,3.54,2.9,4.21-.18,3.21,.88,5.18,3.16,5.92,.08,.23-.16,.77,.13,.79-.11-.46,.2-.51,.13-.92-2.14-.73-3.54-2.84-3.03-5.79-1.49-1.01-2.65-2.35-3.29-4.21Zm5.92,11.19c-.12,2.58,.49,4.42,2.5,4.87-1.4-1.02-2.66-2.83-2.5-4.87Zm-3.95-10.14c-.03,.83-.19,1.31,.39,1.71,.1-2.27,2.04-1.19,3.42-1.18,1.39,.58,1.13,2.5,0,3.16,.12,1.15-.78,1.91-1.84,1.45,.64,.67,.96,1.67,1.45,2.5,.07-.66,.35-1.44,1.05-1.58,.65-.13,.94,.35,1.58,.53,.54,.15,.92-.2,1.32,.13,.58,.48,.3,1,.39,1.84-.96,.53-.75,2.24-1.84,2.63-.55,.07-.89-.07-1.18-.26,.49,.65,.6,1.68,.92,2.5-.02-.89,.49-1.27,1.19-1.45,.61,.44,1.66,.44,2.37,.79-.75-4.31-.66-9.77,.26-13.82h-10.4c-.03,.69,.65,.67,.92,1.05Zm1.71,2.37c-.05,.54,.13,.83,.66,.79,.27-.31,.13-1.01-.26-1.05-.03,.19-.29,.15-.39,.26Zm-18.17,4.34c.91-.09,2.35-.46,3.29,.26-.14-1.18-3.06-1.86-3.29-.26Zm.26,.66c1.17-.28,2.25-.06,3.03,.4-.31-1.15-2.37-1.36-3.03-.4Zm21.59,1.71c.18-.17,.13-.57,.13-.92-1.04-.35-1,1.1-.13,.92Zm-20.01,.26c.2-.28,.57-.39,.53-.92-.46,.07-.45,.61-1.19,.4-.12-.28,0-.79-.53-.66,.09,.7,.33,1.25,1.19,1.19Zm15.66,9.35c-.02-.46-.38-.59-.39-1.05-3.22-.6-4.83-3.19-4.48-6.98,.07-.8,.56-1.51,.13-2.24-.03-.1-.11-.15-.26-.13-1.48,4.81,.26,10.15,5,10.4Zm-15.01-9.61c.52,.16,.71-.46,.26-.53-.07,.19-.19,.33-.26,.53Zm14.22,7.9c-.09-1.14-1.33-1.07-1.97-1.71-1.3-1.28-1.12-3.21-1.32-5.4-.03-.15-.15-.2-.26-.26-.65,3.47,.25,7.05,3.55,7.37Zm-.66-1.45c-.73-1.51-1.29-3.19-2.24-4.48,.05,2.18,.6,3.88,2.24,4.48Zm-19.88,6.06c.73-1.41,.96-2.92,1.58-4.34,.6-1.38,1.4-2.62,1.97-3.95-.03-.15-.15-.21-.26-.26-1.54,2.41-2.71,5.19-3.29,8.56Zm27.38-7.64c-.4,0-.41,1.08,.13,.92,.46-.15,.47-.89-.13-.92Zm-26.72,7.37c1.2-.45,1.27-2.07,1.71-3.16,.48-1.18,1.22-2.32,1.45-3.55-.22,0-.07-.37-.26-.39-1.3,2.04-2.32,4.35-2.9,7.11Zm28.43-6.19c.23,1.41-.85,1.52-1.58,1.98,.48,.86,1.95-.32,3.16,0-.22-.96-.35-2.02-.92-2.63,0,.45-.39,.49-.66,.66Zm-2.9,1.84v-1.71c-.56,.03-.67-.38-1.05-.53,.32,.78,.62,1.58,1.05,2.24Zm-24.09,3.95c.87-1.41,1.36-3.21,2.11-4.74-.32,.05,.07-.6-.4-.39-.53,1.59-2.08,3.52-1.71,5.13Zm24.62-4.74c.03,.54-.13,1.27,.26,1.45-.03-.54,.13-1.27-.26-1.45Zm-23.83,4.34c.78-.65,1.63-2.54,1.32-3.42-.41,1.17-1.06,2.09-1.32,3.42Zm14.48-3.29c-1.76,2.07-5.07,7.08-9.21,5.79-1.44-.45-1.69-1.98-2.9-2.9-1.17,.37-2.38,.69-3.29,1.32,4.22,3.23,13.84,2.61,18.3,0,.01-.95,.35-1.58,.53-2.37-1.55-.21-2.49-1.02-3.42-1.84Zm-13.3,2.9c.21-.54,.75-1.44,.53-1.97-.14,.55-1.06,1.62-.53,1.97Zm.53-.26c.37,.11,.34-.18,.66-.13,0-.4-.12-.67-.4-.79,.01,.41-.16,.63-.26,.92Zm22.12,10.27c-.77-1.34-2.21-1.09-3.29-1.97-2.41-1.98-2.48-5.53-1.84-9.08h-.39c-1.94,5.22,.6,10.63,5.53,11.06Zm4.87-7.9c.51-.28,1.64-.43,2.11,0,1.44-2.66-3.18-2.88-2.11,0Zm-5.4,6.58c-.19-.25-.31-.57-.4-.92-2.8-.69-4.34-3.66-3.42-7.24-.27-.04-.12-.49-.39-.53-1.36,4.17,.7,8.56,4.21,8.69Zm-24.75-7.24c-.13,0-.16,.11-.26,.13-.16,.03-.08,.15,0,.26,3.6,2.65,10.59,2.91,15.27,1.58,1.37-.39,2.92-.64,3.55-1.58-4.84,2.63-14.22,2.98-18.56-.4Zm23.96,5.53c-1.05-1.72-1.7-3.83-2.76-5.53-.61,2.76,.77,5.37,2.76,5.53Zm-5.27-3.69c-2.67,.74-5.89,1.97-9.35,1.97-4.27,0-8.12-1.42-10.93-3.16h-.26c3.9,4.16,15.42,4.76,20.54,1.18Zm12.64,2.5c1.83-.06,1.85-4.09-.53-3.29-1.55,.52-1.16,3.34,.53,3.29Zm-23.83,.26c-2.23-.02-4-.66-5.66-1.32-1.71-.67-3.09-1.78-4.74-2.11,3.31,4.21,13.84,4.85,20.01,2.63,.53-.19,1.61-.32,1.58-1.05-2.47,.78-5.69,1.94-9.48,1.84h-1.71Zm21.98-.79c-.13-.77-.28-1.92,.13-2.5-2.67-1.19-2.32,3.84-.13,2.5Zm3.42-2.37c.44,.45,.26,1.72,.13,2.37,.43,0,.5,.38,1.05,.26,1.73-.71,.55-4.08-1.18-2.63Zm-17.64,3.42c-6.87,1.88-15.24,.02-18.96-3.42,0,.08-.02,.16-.13,.13-.13,0-.16,.11-.26,.13,4.15,4.08,14.04,5.56,20.93,3.42,.76-.24,2.32-.23,2.24-1.32-1.3-.12-2.49,.69-3.82,1.05Zm-19.88-2.76c-.32,.77-.87,1.32-1.18,2.11,.67,.6,1.29,1.26,2.24,1.58,.22-.88,.79-1.41,1.05-2.24-.71-.47-1.27-1.1-2.11-1.45Zm-5.27,2.5c.45,.95,1.39,1.42,2.11,2.11,.44-.75,1-1.37,1.32-2.24-.47-.26-.9-1.16-1.58-.79-.22,.36,.79,.61,.79,1.19-.28,.29-.41,.73-.79,.92-.35-.31-.79-.52-.92-1.05,.1-.3,.81-.67,.53-.92-.45,.3-.84,.65-1.45,.79Zm43.84,0c-.08,.4,.17,1.13-.13,1.32-.3-.1-.67-.12-.92-.26-.94,.97-.7,2.35-.66,4.21,.95-.9,1.38-3.01,2.5-3.29,.46,3.06-.2,6.11-1.45,7.9,.66,.14,.57,1.41,.4,1.97,.98,.08,.55,1.55,1.45,1.71-.09-4.74,.18-9.83-.13-14.35-.21,.4-.58,.65-1.05,.79Zm-3.82-.13c-.71,3.01,3.12,2.56,2.11,0-.7,.52-1.33,.39-2.11,0Zm-30.94,2.9c.89,.3,1.59,.78,2.5,1.05,.16-.98,.58-1.7,.79-2.63-.76-.33-1.52-.67-2.24-1.05-.32,.91-.8,1.66-1.05,2.63Zm11.98,6.85c4.65-.12,8.25-1.67,11.58-3.16,1.02-.46,2.46-.78,2.76-1.98-1.57,.08-2.8,1.21-4.21,1.84-1.48,.66-3.05,1.16-4.74,1.58-9.57,2.38-18.8-.7-24.35-5.13-1.08-.86-2.15-2.76-3.55-1.97,1.16,1.73,3.12,3.11,5.13,4.34,3.91,2.4,8.46,4.34,14.61,4.48,.62,.22,2.15,.22,2.76,0Zm6.71-8.82c-.54,.34-1.28,.47-1.97,.66-.01,1.11,.28,1.91,.4,2.9,.98-.16,1.7-.58,2.63-.79-.35-.92-.48-2.07-1.05-2.76Zm-20.14,6.98c-3.71-1.69-6.99-3.74-9.48-6.45-.13,0-.16-.11-.26-.13-.26,0-.17,.36-.53,.26,.37,1.12,1.52,2.07,2.5,2.9,2.04,1.72,4.44,3.29,6.98,4.34,1.29,.54,2.77,1.12,4.08,1.05-.59-1.24-2.17-1.46-3.29-1.98Zm-2.37-3.69c.73,.58,1.63,1,2.5,1.45,.27-.91,.69-1.68,.92-2.63-.85-.33-1.54-.83-2.37-1.19-.35,.79-.74,1.54-1.05,2.37Zm-8.43-2.24c-.27,.21-.54,.43-.92,.53,3.6,4.56,8.89,7.43,15.4,9.08,.09-.49-.23-.57-.13-1.05-6.22-1.41-10.67-4.6-14.35-8.56Zm18.43,0c-.35,.79-.35,1.94-.66,2.77,.87,.22,1.77,.42,2.76,.53,.24-.82,.1-2.01,.26-2.9-.77-.15-1.64-.2-2.37-.4Zm5.27,.4v2.9c1.26,.06,1.62-.12,2.63-.13-.11-.95-.22-1.89-.26-2.9-.9-.06-1.6,.06-2.37,.13Zm21.06,.4c-.65,.33-.28,1.41-.26,2.24,.05,2.14,.01,4.15,.26,5.92,.54-2.23-.2-5.4,0-8.16Zm-10.4,.13c-.57,.44-1.54,.48-1.97,1.05,.42,.72,.42,1.86,.92,2.5,.7-.44,1.39-.89,2.24-1.18-.31-.88-.58-1.79-1.18-2.37Zm12.9,.26c-.61,1.32-1.92,2.64-1.71,4.34,.57-.83,.78-2.03,1.58-2.63,.09,1.63-1.45,3.46-1.45,5,1.24-1.44,2.01-4.05,1.58-6.71Zm-32.38,1.32c-.05,.96-.5,1.52-.53,2.5,.85,.25,1.63,.56,2.63,.66,.13-.88,.36-1.66,.53-2.5-.85-.25-1.63-.56-2.63-.66Zm11.85,.92c.05,.92,.08,1.86,.26,2.63,.93-.12,1.64-.47,2.63-.53-.23-.86-.15-2.05-.79-2.5-.65,.18-1.46,.21-2.11,.39Zm-5.92,.4c-.04,.84,.11,1.87-.13,2.5h2.9c-.1-.82-.18-1.66-.13-2.63-.85,.07-2-.15-2.63,.13Zm23.3,4.87c-.97-1.01-2.71-1.94-2.63-3.55,.87,.75,1.39,1.85,2.5,2.37-.52-1.68-1.9-3.19-3.42-3.42,.66,2.06,1.41,4.03,3.55,4.61Zm-41.99-2.5c.1-.62-.19-.87-.39-1.19-.49-.21-1.38-.19-1.71,.13-.09,1.44-.72,3.92,1.19,3.95,.51-.23,.67-.82,.92-1.32,.53-.13,.83-.05,1.32,0,.18-.35,.16-.9,.26-1.32-.82-.21-.88,.16-1.58-.26Zm37.39-1.19c-2.83,3.83-4.78,8.09-5.53,13.69-.8,5.98-.27,11.32-2.9,15.8-1.79,3.05-4.55,4.6-7.24,6.45,1.59-.02,3.09-1.12,4.21-2.11,3.57-3.13,5.5-7.75,5.92-13.82,.3-4.21,.56-8,1.71-11.45,.89-2.68,1.98-4.54,3.42-6.45,.36-.48,1.2-1.21,.79-1.97-.17,0-.18-.17-.4-.13Zm-10,37.65c-.67-.56-1.28-1.17-1.84-1.84,.97-1,1.8-2.14,2.9-3.03,.44,.62,1.49,.91,1.45,1.58-.03,.54-1.36,.74-1.05,1.45,1.01-.06,1.64-1.6,2.37-2.37-.65-.62-1.41-1.13-1.84-1.97,.8-.91,1.2-2.23,1.97-3.16,.46,.41,1.08,.67,1.45,1.18-.09,.44-.95,1.36-.39,1.58,.64-.33,1.1-1.97,1.58-2.9-.83-.48-1.62-1.01-2.37-1.58,.38-1.07,.46-2.44,1.05-3.29,.55,.37,1.58,.27,1.97,.79,.05,.39-.59,1.24,0,1.32,.59-.55,.54-1.74,.79-2.63-.88-.3-1.94-.43-2.63-.92,.2-1.29,.08-2.9,.4-4.08,.72,.02,1.43,.06,1.97,.26,.15,.56-.31,1.71,.26,1.84,1.07-.11,.29-2.08,.53-3.03-.92-.13-1.99-.11-2.76-.4,.09-1.44,.11-2.96,.39-4.21,.72-.02,1.42-.01,1.97,.13-.13,.44-.51,2.14,.53,1.84,.4-.7,.39-1.8,.53-2.76-.82-.45-1.76-.79-2.5-1.32,.48-1.23,.85-2.57,1.45-3.69,.64,.28,1.32,.52,1.58,1.18-.08,.39-.85,1.33,0,1.45,.5-.12,.82-1.54,1.05-2.37-.45-.83-1.47-1.08-1.84-1.97,.72-1.3,1.86-2.18,2.37-3.69-1.22,.27-1.73,1.63-2.37,2.63-.66,1.04-1.33,2.13-1.84,3.29-1.48,3.37-1.73,7.06-2.11,11.32-.77,8.76-3.03,14.8-9.35,17.9,1.42,.43,3.17,1.22,4.34,1.45ZM27.66,53.62c-.55-.11-.62,.26-1.05,.26-.85,1-.27,2.76,1.18,2.63-.75,2.65,3.12,2.18,2.37-.13,2.27,.99,2.19-3.61-.13-2.5-.33,.49,.68,.59,.66,1.18-.74,.44-.87,1.96-1.58,1.97-.62,0-1-1.58-1.71-1.97,.56-.58,.92-1.36,1.58-1.84,.4,.12,.41,.64,.92,.66,1.33-2.53-3.01-2.89-2.24-.26Zm35.28,7.64c.43-2.61,.43-7.01,0-9.48h-.26c-.02,2.75,0,6.58,.26,9.48Zm-1.71-8.95c.06,.42-.24,.46-.13,.92,.51,.07,.64-.23,1.19-.13v-1.05c-.47-.03-.63,.24-1.05,.26Zm-19.35,2.5c-.02,.65-2.87,2.27-3.03,3.03-.39-.62-1.11-.91-1.32-1.71,.21-.53,1.24-.81,.92-1.45-.87,.15-1.6,1.55-2.24,2.37,.47,.76,1.35,1.11,1.71,1.98-.72,.99-1.12,2.3-1.98,3.16-.4-.43-1.1-.56-1.32-1.19-.02-.51,.93-1.29,.26-1.58-.51,.41-1.1,1.88-1.45,2.9,.66,.66,1.71,.92,2.24,1.71-.24,1.12-.51,2.21-.92,3.16-.74-.14-1.4-.35-1.97-.66-.14-.59,.63-1.42-.13-1.45-.38,.76-.54,1.74-.66,2.76,.9,.2,1.79,.41,2.5,.79-.13,1.37-.04,2.95-.4,4.08-.62-.09-1.58,.17-1.97-.13-.06-.72,.23-1.08,.13-1.84h-.66c-.25,.8-.09,2.02-.26,2.9,.82,.24,1.97,.13,2.76,.39-.04,1.54-.06,3.1-.39,4.34-.4-.3-1.47,.06-1.84-.26-.15-.56,.31-1.71-.26-1.84h-.39c-.22,.87-.41,1.78-.4,2.9,.89,.38,1.83,.72,2.5,1.32-.67,1.09-.82,2.69-1.58,3.69-.43-.49-1.24-.6-1.58-1.19,.33-.53,.9-1.59-.13-1.71-.23,.95-.65,1.72-.92,2.63,.67,.61,1.46,1.08,1.97,1.84-.75,1.27-1.85,2.19-2.37,3.69,1.23-.25,1.74-1.64,2.37-2.63,2.34-3.69,3.7-8.62,3.95-14.09,.43-9.29,3.07-15.29,9.35-18.43-1.75-.48-3.69-1.49-5.13-1.84,.27,.65,2.66,1.61,2.63,2.37Zm-4.08-2.37c-5.05,4.5-7.76,11.89-8.29,21.19-.25,4.46-.35,8.26-2.37,10.79-.56,.7-1.73,1.18-1.58,1.84,1.02,.73,1.3-1.01,2.24-1.19,.37,.51,1.01,.74,1.32,1.32-.31,.39-.98,.98-.66,1.58,.77-.55,1.14-1.5,1.71-2.24-.61-.62-1.48-.97-1.84-1.84,.53-1.14,.76-2.58,1.45-3.55,.59,.38,1.4,.53,1.84,1.05-.04,.48-.98,1.43-.13,1.58,.39-.71,.65-1.54,.92-2.37-.89-.38-1.83-.72-2.5-1.32,.43-1.11,.28-2.8,.79-3.82,.57,.18,1.48,0,1.97,.26,.15,.56-.31,1.71,.26,1.84,.66-.48,.21-2.07,.53-2.9-.79-.31-2.09-.1-2.76-.53-.1-1.55,.21-2.69,.13-4.21,.8,0,1.62-.04,2.11,.26,.18,.57-.41,1.9,.4,1.84,.59-.55,.32-1.96,.39-3.03-.91-.28-2-.37-2.63-.92,.37-1.3,.6-2.74,1.05-3.95,.58,.21,1.29,.29,1.71,.66,.05,.39-.58,1.24,0,1.32,.88,.4,.8-1.31,1.05-1.98-.81-.55-1.78-.94-2.37-1.71,.65-1.5,1.28-3.02,2.11-4.34,.49,.44,1.01,.84,1.45,1.32-.13,.59-.9,1.28-.39,1.71,.65-.49,.91-1.37,1.32-2.11-.54-.74-1.31-1.24-1.84-1.98,.57-.22,2.51-3.72,3.16-3.69,.45,.02,.74,1.16,1.18,1.58-.07,.75-1.51,.99-.79,1.71,.72-.13,1.42-1.37,2.11-1.97-1.16-.6-1.65-1.86-3.03-2.24Zm33.44,2.24c.67,.51,1.4,.96,1.84,1.71-.55,1.12-.81,2.53-1.45,3.55-.69-.23-1.3-.54-1.84-.92,.04-.58,.63-1.15,.26-1.71-.68,.47-.72,1.56-1.05,2.37,.76,.47,1.75,.7,2.37,1.32-.21,1.28-.29,2.7-.66,3.82-.76,.02-1.47-.02-1.97-.26-.17-.53,.39-1.8-.39-1.71-.5,.6-.31,1.89-.39,2.9,.97,.08,1.97,.14,2.76,.4-.22,1.36,.13,3.29-.4,4.34-.5-.25-1.52,.03-1.97-.26,.13-.53,.16-1.15,.13-1.84h-.79c.1,1.11-.18,1.84-.13,2.9,.86,.41,2.15,.39,2.76,1.05-.47,1.2-.67,2.66-1.05,3.95-.57-.31-1.36-.4-1.84-.79,.2-.33,.25-.8,.26-1.32-.37,.11-.34-.19-.66-.13-.33,.59-.39,1.45-.66,2.11,.84,.61,1.92,.98,2.5,1.84-.8,1.35-1.31,3-2.24,4.21-.49-.44-1.01-.84-1.45-1.32,.22-.44,.76-1.11,.53-1.58-.7-.1-.81,1.45-1.45,1.84,.39,.97,1.46,1.26,1.84,2.24-1,1.19-1.98,2.41-3.03,3.55-.52-.44-.96-.97-1.32-1.58,.2-.58,1.33-.82,.92-1.58-.91-.05-1.58,1.21-2.11,1.97,.89,.77,1.72,1.62,2.5,2.5,5.63-4.58,8.26-12.35,8.82-22.25,.31-5.51,.75-9.2,4.08-11.98-1.31-.53-1.42,.95-2.37,1.18-.4-.48-1.12-.64-1.32-1.32,.33-.38,.6-.8,.79-1.32-.17,0-.18-.17-.4-.13-.44,.79-1.13,1.32-1.45,2.24Zm-21.46,1.71c-.1-.8,.22-1.19,.26-1.84-.57-.27-.95-1.27-.26-1.71-.37,.11-.34-.19-.66-.13,.27,1.18,.23,2.67,.66,3.69Zm6.45-3.16c-.04,1.98,1.25,4.43-1.32,4.48-.47,1.16-.12,3.1,.66,3.82,.48-1.22-.61-1.78-.4-2.76,.17-.78,.93-.52,1.45-1.18,.73-.94,.13-1.71,.26-3.29,.26-.35,.58-.65,.53-1.32-.41,.07-.86,.11-1.18,.26Zm16.98,.79c.58,.55,.94-.27,1.32-.66-.53-.77-1.21-.08-1.32,.66Zm-23.56-.4c-.03,.55,.59,.46,.79,.79-.48,.84-.51,2.05-.4,3.16,.35,.13,.69,.27,1.19,.26,1.41,.84-.86,2.87,.26,3.69,.54-1.56,.93-4.08-.79-4.21-.65-1.57,.85-2.96,.13-4.21-.59-.02-1.2-.06-1.18,.53Zm1.71,3.82c.19-.11,.42-.2,.4-.53,.08-.52-.54-.34-.66-.66,.5-.62,.73-2.14,.4-3.16h-.4c.66,1.34-1.18,3.48,.26,4.34Zm3.29,.4c.29-.66,.18-1.41,.66-2.11-.72-.53-.25-2.1-.66-2.63-.21,1.28-.22,3.46,0,4.74Zm1.05-1.84c-.45,.21-.96,.99-.39,1.45,2.12-.34,.19-2.89,.79-4.34h-.92c-.39,1.13,.08,2.2,.53,2.9Zm21.46-1.97c.16,.06,.3,.14,.39,.26,.6-.11,.96-.45,.92-1.18-.6,.14-1.1,.39-1.32,.92Zm-16.32-.26c0,.23-.03,.41-.13,.53,.66,.09,.92-.22,1.58-.13v-.66c-.61-.04-1.04,.1-1.45,.26Zm-8.16,12.38v1.45c.5,.2,1.02,.38,1.58,.53-.08-.4,.17-1.13-.13-1.32-.03,.45-.28,.68-.79,.66-.77-.19-.61-1.49,.26-1.45,.41,.03,.4,.47,.66,.66v-12.64c-.27,.08-.87-.16-.92,.13,.59-.06,.66,.39,.66,.92-.21,.28-.49,.48-1.05,.39-.03-.19-.22-.22-.26-.39-.39-.73,.86-.97,.26-1.05-1.21-.51-.1,3.58-.53,3.95,.08,.49-.17,1.31,.13,1.58v4.48c.08,.66-.17,1.66,.13,2.11Zm24.09-12.11c-1.78,1.17-5.83,6.39-3.16,8.95,1.08,1.04,3.7,.76,4.74-.39-1.55-.72-1.06-2.68-1.97-3.95-.26,.62-.48,1.98-1.05,1.84,.58-.91,.65-2.33,.79-3.69,.92-.75,2.2-1.14,2.37-2.63-.44,0-.45,.43-.92,.39-.28-.16-.38-.5-.79-.53Zm-16.06,.66c-1,4.23-2.81,9.26-3.69,13.56-.11,.54-.53,1.49,.39,1.58,.91-3.56,2.47-6.49,5-8.43-.04-2.37,.14-4.97-.26-6.98-.36,.21-.97,.17-1.45,.26Zm-16.19,.13c-5.74,2.87-8.57,8.34-9.08,16.46-.46,7.16-1.84,13.08-5,17.25-.36,.47-1.34,1.12-.79,1.97,1.23-.76,1.92-2.24,2.63-3.55,2.37-4.41,3.19-9.73,3.55-16.06,.47-8.18,4.2-13.31,9.74-16.32-.58-.15-.87,.17-1.05,.26Zm-1.71,2.24c-.79,.64-2.92,2.11-2.9,2.77,0,.22,1.28,1.36,1.45,1.58,.53,.69,.91,1.12,1.19,1.84,2.72-.13,4.51,.67,6.32,1.45-.67-3.41-1.54-6.62-2.37-9.87-1.47,.36-2.34,1.15-3.69,2.24Zm9.08-.66c-.08-.4,.17-1.13-.13-1.32,.16,.59-.69,1.23,.13,1.32Zm24.62,.92c.4-.78,1.06,.36,1.45,.26,.63-.16,1.31-1.33,1.19-2.24-1.01-.4-2.13,1.02-2.63,1.97Zm-51.74-.92c-1.55,.19-2.79-2.48-3.42-.13-.04,.57,.73,.32,.66,.92-1.72,3.65,.97,6.68,3.95,4.74,.16,1.25,1.39,1.42,2.11,2.11,.14,.71-.31,.83-.39,1.32,1.5,.36,2.01-.82,1.58-1.98,1.12-.67,1.29-3.31-.13-3.29-1.12,.01-.94,1.44-.66,2.11-1.65,.19-1.34-1.69-1.05-2.77-.42,.02-.44-.35-.92-.26-.59,.88-1.56,2.6-3.16,1.97-1.21-.47-.82-4.16,.66-2.9-.59-.07-.56,.49-.53,1.05,1.71,1.12,2.72-1.98,1.32-2.9Zm52.79,1.71c.13,.48,.71,.52,.66,1.18,.85-.48,1.9-1.42,1.45-2.76-.17,0-.18-.17-.39-.13-.45,.69-.96,1.32-1.71,1.71Zm-1.32,.26c.37,.18,1.17-.19,1.32-.66v-.26c-.59-.32-1.32,.23-1.32,.92Zm3.29,.13c.25-.03,.29,.15,.53,.13-.08-.27,.21-.91-.26-.79,.02,.33-.21,.41-.26,.66Zm-28.04,0c-.2-.59-1.32-.76-1.32,.13,0,.48,.46,.5,.66,.79-.52,1.02-.62,3.15,.53,3.55,.52-.08,.63-.71,.4-1.18-.14-.31-.61,.28-.79-.13-.34-1.15,.53-1.94,.53-3.16Zm3.95,.13c-.19,1.18,1.18,2.37,.13,3.16-.4,.04-.51-.42-.79-.13-.3,.71,.21,1.19,.66,1.18,1.22,0,.99-2.55,.53-3.55,.47,.07,.58-.21,.79-.39,.16-1.27-1.01-.87-1.32-.26Zm21.59,1.19c.43,.08,.61-.09,.92-.13,.36-1.85-2.05-1.09-.92,.13Zm1.32-.26c.08,.44,.38,.68,.26,1.32,.63-.36,1.35-1.25,1.05-2.11-.76-.06-.66,.75-1.32,.79Zm-28.04,.66c.27-.31,.14-1.01-.26-1.05,.19,.25,0,.87,.26,1.05Zm6.19-.13c.11-.15,.17-.35,.13-.66h-.39c-.02,.33,.07,.55,.26,.66Zm23.56,.4c-.08-.27,.16-.87-.13-.92-.22,.29-.45,.86,.13,.92Zm-25.41,1.18c.44-.35,.18-1.47-.13-1.84,.08,.57-.17,1.49,.13,1.84Zm22.64-.66c.36,.32,.77,.24,1.18,0-.03-.41-.13-.74-.26-1.05-.8-.14-.97,.34-.92,1.05Zm1.84,1.19c.3-.44,.81-.68,.66-1.58-1.04-.12-1.28,1.05-.66,1.58Zm-1.45-.66c-.03,.6,.3,.84,.92,.79,.46-.63-.35-1.22-.92-.79Zm-40.02,3.03c.88-.35,1.48-.98,1.71-1.97-.89-1.44-2.17,.85-1.71,1.97Zm16.98-1.05c.43-.36,.41-.67-.13-.92,.08,.27-.16,.86,.13,.92Zm1.45,0c-.14-.34,.4-.63,0-.79-.24,.22-.37,.59,0,.79Zm-5.13,.39c.09,.4,.6,.37,.79,.66-.3,.48-.87,1.28-.53,1.98,.82-.48,.89-2.42,.53-3.29-.54-.05-.83,.14-.79,.66Zm4.21,2.63c-.34,.19-.63,.43-.53,1.05,.16,.15,.47,.15,.79,.13,.61-1.01-.15-1.98-.13-3.16,.37-.25,.74-.72,.39-1.32-1.75-.06-.89,2.49-.53,3.29Zm9.35-.4c1.18-.36,.54-1.89,.13-2.77-1.83,.19-.53,1.91-.13,2.77Zm-26.46-1.05c.58-.1,.42,.55,.79,.66,.55-.54,1.57-.63,1.58-1.71-.81-.89-2.01,.28-2.37,1.05Zm-15.27,.79c-2.12-.47-1.86,3.3,0,2.9-.51,2.96,3.13,1.93,2.37-.13,2.28,1.03,2.23-3.68-.13-2.5,0,.57,.66,.48,.66,1.05-.62,.6-.87,1.59-1.71,1.97-.37-.81-1.22-1.15-1.58-1.97,.56-.58,.9-1.38,1.58-1.84,.35,.03,.79,1.13,.92,.53,1.32-2.35-3.11-2.75-2.11,0Zm20.27-2.11c-.1,.03-.15,.11-.13,.26,0,.13,.11,.16,.13,.26,4.26,.23,6.42,2.1,9.08,3.82,1.61,1.04,3.16,2.68,5.4,2.37-5.65-1.41-7.69-6.44-14.48-6.71Zm30.01,.13c-.67,1.35,.41,2.93,1.45,3.42,.56-.14,.5-.91,.92-1.18,.54,.41,.7,1.81,.4,2.63h1.18c.1-1.22-.04-2.68,.92-3.03-.29,1.22,.66,2.2,1.71,2.5,.94-2.36-1.23-5.57-3.16-3.03-.62-1.25-3.03,0-3.42-1.32Zm-21.99,1.45c.11-.25,.22-.48,.26-.79-.18-.04-.25-.19-.53-.13,.05,.34,.07,.72,.26,.92Zm4.74,.39c-.12-.43,.51-1.21-.13-1.32-.39,.26-.11,.95,.13,1.32Zm8.03,1.45c0-.39,.05-.74,.53-.66-.22-.79-.69-1.33-1.05-1.98-1.93,.27-.18,2.25,.53,2.63Zm-25.01-.92c.23,.12,.29,.41,.26,.79,.85-.07,1.61-.23,2.11-.66v-.79c-.77-.65-2.03,.05-2.37,.66Zm15.67,.53c.45-.32,.2-1.16-.13-1.45,.08,.44-.17,1.22,.13,1.45Zm-2.37,.26c-.08-.49,.17-1.31-.13-1.58,0,.55-.67,1.41,.13,1.58Zm-14.48,1.97c-.03,1.56-1.04,2.56-1.45,3.82,1.77-.66,2.81-5.32,.92-7.11-.22,1.13,.55,2.08,.53,3.29Zm23.43-1.97c.07,.78,1.11,.92,1.84,1.32-.05-.58,.3-.75,.53-1.05-.35-1.27-2.51-1.92-2.37-.26Zm-16.98-.92c.25,.49-.08,.33-.39,.53,.08,.31,.19,.6,.13,1.05,.54,.12,.71,.61,1.19,.79,.06-.16,.14-.3,.26-.39,.62,.34,.85,1.08,1.58,1.32,.27-.04,.12-.49,.39-.53,.53,.52,.73,1.38,1.58,1.58,.02-.16-.02-.37,.13-.4,.55,.4,.97,1.79,1.71,1.19,.31,.56,.69,1.07,1.32,1.32,.02-.16-.02-.37,.13-.4,.62,.34,.85,1.08,1.58,1.32,.22,0,.07-.37,.26-.4,.65,.23,.87,.89,1.71,.92,.02-.15-.02-.37,.13-.39,.36,.3,.73,.58,1.32,.66,.57-.62,.38-2-.66-2.37-.42-.12-.27,.34-.53,.39-.44-.48-.69-1.15-1.45-1.32-.3-.04-.15,.38-.4,.39-.61-.36-.72-1.21-1.45-1.45-.22,0-.07,.37-.26,.4-.56-.39-.92-1.84-1.71-1.19-.29-.63-.75-1.09-1.32-1.45-.18,.08-.02,.51-.26,.53-.43-.54-.74-1.19-1.58-1.32-.22,0-.07,.36-.26,.4-.39-.48-.99-.77-1.58-1.05-.02,.2,.05,.49-.13,.53-.41-.3-.64-.77-1.45-.66Zm-5,1.45c.61,.31,.11,.82,.26,1.18,3.51,.58,1.81-3-.26-1.18Zm-2.76,3.55c.82-.63,1.1-2.82,.4-3.82-.15,1.21-.6,3.08-.4,3.82Zm27.78,3.56c.32-1.16-.66-2.57-.39-4.21,.19-1.19,1.05-1.82,1.32-2.76-.03-.1,0-.26-.13-.26-1.71,1.2-2.41,5.35-.79,7.24Zm-9.74-6.32c.5,.03,.56,.5,1.05,.53-.06-.42,.24-.47,.13-.92-.55,.07-.89-.07-1.19-.26v.66Zm5.92,.53c.53,.39,1.21,.64,2.11,.66-.1-.5,.16-.63,.13-1.05-.72-.26-2.38-1.43-2.24,.4Zm-21.19,.39c.52,.31,0,.69-.13,1.05,.93,.24,2.7,.94,2.5-.79-.48-.55-1.65-.63-2.37-.26Zm25.41,3.69c.23-1.05,.62-2.63,.39-3.69-.78,.7-1.05,2.66-.39,3.69Zm-8.03,2.9c-5.12-.66-7.71-5.39-12.51-6.32-.1,.03-.15,.11-.13,.26v.26c5.79,.91,8.02,6.99,14.61,6.19-.54-.72-1.44-.33-1.98-.39Zm3.42-4.87c.43,.4,1.44,.23,2.24,.26-.29-.58-.18-.69,.13-1.19-.84-.57-3.05-.65-2.37,.92Zm16.32,.66c-2.34-.93-2.08,3.94,.13,2.5-.12-.45-.63-.51-.66-1.05,.58-.56,.77-1.51,1.58-1.84,.68,.5,1.12,1.25,1.71,1.84-.62,.57-.85,1.52-1.71,1.84-.39-.08-.53-.85-.92-.53-.97,2.41,2.95,2.9,2.24,0,.48,.35,.96-.21,1.32-.39v-1.84c-.38-.28-.66-.65-1.45-.53,.98-2.31-2.89-2.7-2.24,0Zm-32.38-1.05c-.8,3.68-2.55,6.4-5,8.43-.05,2.9,.2,3.92,.13,6.85,.63-.03,1.11-.2,1.71-.26,1.25-4.98,2.72-9.75,3.82-14.88-.32,.05-.29-.24-.66-.13Zm-5.13,1.19c.64,.24,1.06,.7,1.84,.79,1.33-.97-.47-1.76-1.58-1.84,.11,.55-.26,.62-.26,1.05Zm9.87,2.76v-1.84c-1.07-.17-2.04-1.1-2.76-1.18v.92c.67-.31,1.26,.22,1.32,.92,.02-.37,.23-.56,.66-.53,.38,.06,.6,.28,.66,.66-.08,.4-.29,.67-.79,.66-.58-.09-.46-.6-.92-.53-.47,.17-.01,1.68,.26,1.05v2.24c-.26-.25-.61,.16-.66,.53,.42,.27,.45,.33,.66,.26v1.05c-.27-.28-.49,.17-.66,.4,.27,.45,.22,1.56,.66,1.45v5.66h1.84c-.06-3.46-.21-7.17-.13-10.53-.08-.36,.17-1.04-.13-1.19Zm-23.04-3.03h-1.32c.17,.88-.12,3-.79,3.03,.04-.31,.21-.49,.13-.92-.72-.34-1.09-2.11-2.24-1.18,.46,1.52-.13,4.08,2.37,3.55,.44-.22,.68-.64,1.19-.79,.48,1.05,3.18-.1,3.29,1.32,1.05-1.12-.38-2.28-.66-3.29-.31-.04-.49-.21-.92-.13-.41,.16-.32,.82-.66,1.05-.59-.36-.67-1.85-.39-2.63Zm34.23,.53c-.4,1.65,1.89,1.3,2.37,.66-.44-.34-.33-.53-.13-1.05-.89-.02-1.82-.06-2.24,.4Zm-21.85,1.05c.45,.51,.73,1.2,1.58,1.32,1.45-.76,.09-2.39-1.18-2.37,.2,.68-.31,.65-.39,1.05Zm8.16,2.63c-.13,.4-.79,.27-.66,.92,.17,.23,.27,.52,.66,.53,1.08-.61,.47-2.3,.13-3.29,.17-.36,.58-.47,.53-1.05-1.62-.96-.94,2.04-.66,2.9Zm-9.08-1.71c.48,.56,.45,1.68,1.18,1.71,1.44,.07,.34-2.25-.79-2.5,.25,.65-.44,.35-.39,.79Zm12.11,.66c.41-.16,.4-.74,.53-1.18-.2-.07-.33-.2-.53-.26v1.45Zm13.3-.39c-.02-.62-.34-.44-.13-1.05-3.36-.06-2.03,3.06,.13,1.05Zm-12.9,2.76c.64,.11,.89-.17,.92-.66-.13-.31-.57-.31-.79-.53,.11-.69,1.2-1.79,.13-2.11-.16,.99-.65,2.18-.26,3.29Zm-12.9-.13c1.95-.02,.57-2.22,0-2.77-.84,.62-.38,1.94,0,2.77Zm8.82-.92c.58-.14,.42-1.21,0-1.45,.17,.58-.29,1.19,0,1.45Zm15.4,.13c.04,.27,.36,.26,.4,.53,1.14,0,1.58-.7,1.97-1.45-.64,.2-.4-.48-.66-.66-.55,.55-1.56,.64-1.71,1.58Zm11.32,.92c-.87,.54-1.27,2.29-.39,3.16,.55,.07,.89-.07,1.18-.26,.4-.53-.14-1.49,0-1.71,1.35-.45,1.53,1.55,1.05,2.63,.33,.11,.52,.36,.92,.4,.08-1.62,3.26-3.09,3.82-1.19,.22,.74-.09,3.05-1.32,2.11,.28-.24,.67-.39,.53-1.05-2.32-1.59-2.93,3.77,0,2.9,.25,.62,.55,1.2,1.58,1.05,.17-.32,.48-.48,.4-1.05-.01-.51-.64-.41-.66-.92,1.77-3.05-.68-6.79-3.95-4.74-.06-1.39-1.61-1.29-2.11-2.24-.04-.61,.41-.73,.53-1.18-1.58-.39-1.97,.95-1.58,2.11Zm-22.25-1.32c.19,.07,.33,.19,.53,.26-.1-.3,.24-1.03-.26-.92,.02,.33-.21,.41-.26,.66Zm4.87,9.74c2.96-.81,4.58-2.96,6.58-4.74-.87-1.24-1.97-2.25-2.63-3.69-2.77,.18-4.54-.64-6.32-1.45,.77,3.31,1.65,6.51,2.37,9.87Zm7.5-7.24c1.23,.14,1.75-1.71,1.18-2.5-.58,.56-2.01,1.38-1.18,2.5Zm-33.83,.4c-.47-2.14-3.89-2.62-5.4-.79,1.46,.47,1.05,2.81,1.97,3.82,.32-.64,.19-1.74,1.05-1.84-.63,.86-.65,2.34-.79,3.69-1,.71-2.14,1.28-2.5,2.63,.68-.35,1.28-.26,1.84,.13,1.56-1.63,4.61-4.03,3.82-7.64Zm16.85-1.05c.03-.1,.11-.15,.26-.13,.02-.33-.2-.41-.39-.53,.07,.19-.15,.68,.13,.66Zm-.4,1.97c.05,.53,.48,.66,.4,1.32-.01,.43-.79,.09-.66,.66-.09,.4,.13,.48,.13,.79,2.39-.12,0-2.65,.79-3.69,.43-.08,.61,.09,.92,.13,.21-2.36-1.75-.96-1.58,.79Zm4.61-1.05c.29,.38,.82-.3,.92,.26,.16,1.43-.69,1.86-.53,3.29,.26,.19,.85,.43,1.18,.13,.21-.82-.36-.87-.53-1.32,.32-.96,.6-3.15-.53-3.42-.59-.07-.56,.49-.53,1.05Zm-26.46,.53c.02-.19,.32-.12,.53-.13,.11-.68-.21-.93-.79-.92-.27,.31-.14,1.01,.26,1.05Zm-1.45,.79c.62,0,.75-.48,1.05-.79-.39-.05-.11-.77-.39-.92-.44,.35-.98,1-.66,1.71Zm24.49,1.97c-.2,.62-1.42,.67-1.71,1.45-.35,.96,.14,1.33,.13,2.63-.16,.5-.7,.62-.53,1.45h.92c.66-1.14-.34-2.32-.13-3.82,.25-.75,1.34-.68,1.84-1.19-.06-1.43-.02-2.96-.92-3.55-.4,1.26,.75,1.93,.4,3.03Zm3.55-2.76c.25,.88-.76,2.55,0,3.55,.18,.26,.92-.04,.92,.4,.45,1.23-1.03,6.09,1.19,3.69-.06-.47-.71-.35-.79-.79,.36-.75,.57-2.17,.26-3.16-2.62,.03-.87-2.48-1.19-3.95,0,.22-.37,.07-.39,.26Zm-.26,.79c.18-.18,.25-.92-.13-.92,.08,.27-.16,.87,.13,.92Zm-26.33,.53h.79c.12-.32,.31-.57,.26-1.05-.82-.52-1.55,.21-1.05,1.05Zm15.14-.79c0,2.16-.01,4.98,0,7.11,0,.62-.24,1.69,.26,1.84,.5-2.58,0-6.36,0-9.22-.03-.1-.11-.15-.26-.13v.39Zm-16.45,2.11c.66-.09,.65-.84,1.32-.92-.32-.3-.11-1.12-.53-1.32-.3,.65-1.26,1.25-.79,2.24Zm-.26-.79c-.13-.53,.39-.4,.26-.92-.18,0-.29-.06-.39-.13,.08,.31-.17,.96,.13,1.05Zm29.75,.26c.02-.46-.04-.84-.26-1.05,0,.57-.28,.87,.26,1.05Zm-6.06-.39c-.27-.04-.03-.58-.4-.53-.14,.38,.14,.98,.4,.53Zm-21.85,.13c-.03,.75,.63,1.15,1.18,.92,.51-.97-.62-1.77-1.18-.92Zm-1.32,3.03c.61-.62,1.16-1.3,1.84-1.84-.54-.12-.49-.83-.92-1.05-.52,.62-2.24,2.09-.92,2.9Zm-.53-1.32c-.06-.41,.4-.3,.26-.79-.18,0-.29-.06-.39-.13,.08,.27-.16,.86,.13,.92Zm49.76,1.32c-2.25-.98-2.23,3.64,.13,2.5-.08-.54-.61-.62-.66-1.18,.53-.61,.8-1.49,1.58-1.84,.52,.62,1.2,1.08,1.58,1.84-.43,.71-.81,1.47-1.58,1.84-.3,0-.7-1.02-.79-.39-1.27,2.12,2.81,3.05,2.11,0,2.18,.25,1.89-3.07,0-2.9,.48-2.82-3.15-1.87-2.37,.13Zm-47.39-.92c.79,.04,1.3-.19,1.18-1.05-.7,.04-1.28,.21-1.18,1.05Zm22.12,1.58c.76,.34,.3,2.28,.66,2.63,.52-1.02,.27-3.5,.13-4.74-.52,.45-.11,1.59-.79,2.11Zm-23.3,.66c.73-.64,2.14-1.29,2.11-2.24-.4,.46-1.16,.23-1.32-.26-.45,.57-2.1,1.8-.79,2.5Zm22.64,1.97c.22,.23,.44-.12,.92,0,.35-1.24-.17-2.01-.53-2.9,.33-.24,.58-.56,.66-1.05-2.14-.95-.92,2.42-1.05,3.95Zm4.34-3.55c.04,.35,.55,.23,.66,.53-.53,.36-1.13,2.56-.26,3.03-.24-1.22,1.03-2.89,.26-4.21h-.53c-.11,.15-.17,.35-.13,.66Zm-28.3,14.35c.26,.25,.51-.62,1.05-.53v-1.45c.45,.03,.63,.33,1.18,.26,.78-.85,.7-2.54,.66-4.21-1.03,.98-1.2,2.83-2.63,3.42-.13-3.29,.14-6.18,1.58-7.9-.82,.04-.55-1.59-.39-2.11-1.12,.06-.53-1.57-1.45-1.71v14.22Zm28.17-12.51c-.06-.67,.31-.91,.4-1.45-.25,.03-.29-.15-.53-.13,.08,.49-.17,1.31,.13,1.58Zm1.71,.4c.39,.1,.57,.4,.79,.66-.09-.83-.14-1.71-.4-2.37-.13,.57-.2,1.2-.39,1.71Zm3.95,1.05c5.61,1.23,9.86,4.34,13.3,7.64,.41,.39,1.06,1.27,1.71,.53-.24-1.44-1.7-2.15-2.76-3.03-3.36-2.76-7.61-5.31-12.51-6.19,.07,.37,.19,.68,.26,1.05Zm-16.19-.66v.66c.48-.09,1-.14,1.45-.26-.05-.32,.24-.29,.13-.66-.5,.12-1.11,.11-1.58,.26Zm-15.93,1.05c.32-.38,.91-.49,1.18-.92-.53-.73-1.8,.14-1.18,.92Zm3.82-.26c.27,.08,.43,.28,.66,.4,.25-.32,.41-.73,.66-1.05-.5-.59-1.17,.12-1.32,.66Zm40.41,.79h-1.45v1.32c.52,.05,1.26-.12,1.58,.13-.07,.55,.07,.89,.26,1.19,.66,.23,1.09,.27,1.71,0,.3-1.09,.43-2.88-.13-3.82-1.2-.6-1.64,.5-1.97,1.18Zm-42.26,6.85c.03-2.31,0-5.71-.26-8.16-.48,2.25-.26,6.04,.26,8.16Zm.39-7.64c1.26,.8,2.34,1.78,2.76,3.42-1.02-.73-1.47-2.04-2.76-2.5,.6,1.73,1.7,2.95,3.42,3.55-.24-2.17-1.84-4.62-3.42-4.48Zm26.33,.53h.39c-.08-.23,.16-.77-.13-.79-.03,.35-.56,.5-.26,.79Zm-12.64-.26v.92c.46,.11,.51-.2,.92-.13,.02-.42,.3-.58,.26-1.05-.41,.07-.86,.11-1.18,.26Zm23.56,12.37c-.5,6.58-2.02,10.78-5,14.74-.82,1.09-2.78,2.64-3.03,3.69-.54,2.24,.4,4.24,0,6.58h25.41c-.09-12.51,.18-25.36-.13-37.65-4.45,5.51-10.55,9.37-17.25,12.64Zm-38.83-12.24c-1.31,1.55-2.1,4.3-1.71,7.11,.66-1.4,2.06-2.77,1.84-4.61-.61,.84-.95,1.95-1.58,2.76-.15-1.79,1.54-3.54,1.45-5.27Zm31.59,.79c3.91,1.46,7.54,3.34,10.4,5.66,.94,.76,1.71,2.05,3.03,2.11,.25-.63-.52-1.21-.92-1.58-3.25-3-7.65-6.05-12.64-6.98,0,.31,.23,.39,.13,.79Zm4.34,2.5c-3.24-1.63-6.77-2.81-11.06-3.03-4.96-.25-8.56,.5-12.11,1.84-2.13,.81-4.48,1.63-5.79,3.29,1.24,.24,2.23-.7,3.16-1.19,3.05-1.59,6.59-2.79,10.93-3.03,9.76-.54,16.02,3,20.8,7.24,.44,.39,1.15,1.55,1.97,.66-1.75-2.38-4.7-4.18-7.9-5.79Zm-13.56,1.18h2.37c.07-.98,.17-1.49,.13-2.76h-2.77c.03,1.27,.02,1.76,.26,2.76Zm-20.67,2.76c.44,.48,1.14,.7,1.18,1.58,.4,.08,1.13-.17,1.32,.13,.09,.49-.22,.57-.13,1.05,1.73,.18,1.82,3.81-.13,3.82-.05,.59,.52,1.06,.26,1.45-.22-.22-.77-.1-1.18-.13-.24,1.85-3.5,1.91-3.42-.26-.39-.07-.93,.37-1.05,.13-.03-.42,.23-.56,.13-1.05-.54,.13-1.07-.95-1.18-.39v23.7h5.79c1.82-6.27,.3-14.47-1.32-19.48,2.52,.35,5.08-.22,6.45-1.45-1.6-3.1-3.18-6.21-4.61-9.48,.78-.63,1.56-1.25,2.5-1.71-.17-.49-.44-.88-.79-1.19-.11,.34,.4,.72,0,.92-1.81-.51-2.96-1.69-3.95-3.03-.08,1.92,.23,3.46,.13,5.4Zm16.72-5.27c-.74,.32-1.75,.36-2.5,.66,.18,.83,.43,1.59,.53,2.5,.81-.16,1.59-.34,2.5-.4-.32-.97,.17-2.44-.53-2.76Zm9.74,3.03c.82,.23,1.72,.38,2.5,.66,.29-.81,.45-1.75,.66-2.63-.83-.26-1.71-.48-2.63-.66-.16,.89-.44,1.66-.53,2.63Zm-18.17,0c.44,.62,.62,1.49,1.05,2.11,.84-.12,1.37-.56,2.11-.79-.14-1.04-.47-1.9-.79-2.76-.67,.6-1.84,.71-2.37,1.45Zm23.83,2.11c.96,.18,1.36,.92,2.37,1.05,.22-.87,.75-1.44,.92-2.37-.71-.56-1.59-.95-2.37-1.45-.28,.95-.78,1.68-.92,2.77Zm-14.48-2.24c.05,1.05,.12,2.07,.26,3.03,.82-.05,1.68-.08,2.37-.26-.09-1.15-.03-1.88-.13-2.9-.97-.1-1.54,.21-2.5,.13Zm5.66-.13c.04,1.38-.19,1.66-.13,3.03,.9-.02,1.49,.26,2.37,.26,.23-.87,.45-1.75,.53-2.76-.87-.23-1.75-.45-2.76-.53Zm-11.45,1.84c.36,.78,.66,1.62,.92,2.5,.8-.16,1.52-.41,2.24-.66-.07-1.03-.39-1.8-.39-2.9-.98,.29-2.02,.52-2.76,1.05Zm-6.06-.13c3.35,1.06,5.75,3.53,5.27,8.03-.09,.88-.78,1.76-.26,2.63,2.66-4.64-.32-10.75-5.13-11.19-.01,.23,.03,.41,.13,.53Zm22.64,2.37c.8,.25,1.42,.68,2.24,.92,.36-.83,.68-1.69,1.05-2.5-.85-.34-1.54-.83-2.5-1.05-.28,.86-.59,1.69-.79,2.63Zm-21.85-.53c1.23,.38,2.09,.98,2.76,1.98,1.07,1.57,.66,3.78,.79,5.66,1.75-3.8-.47-8.19-3.95-8.82-.05,.58,.38,.68,.4,1.18Zm-8.03,1.84c.47-.56,1.75-.46,2.24,0,.67-3.17-3.17-2.63-2.24,0Zm40.02-2.24c-.4,.79-.97,1.4-1.32,2.24,.66,.17,.92,1.15,1.71,.79-.21-.49-.71-.69-.92-1.19,.26-.39,.5-.82,.92-1.05,.23,.43,.69,.62,.92,1.05-.15,.25-.78,.7-.53,.92,.43-.36,1.04-.54,1.45-.92-.78-.58-1.35-1.37-2.24-1.84Zm-15.93,1.05c4.02,.06,7.14,1.22,9.61,2.63,.87,.5,1.61,1.33,2.63,1.32-.36-.81-1.48-1.25-2.37-1.71-5.27-2.76-13.01-3.8-19.35-1.58-.42,.15-1.61,.28-1.32,1.05,1.23,.21,2.59-.68,4.08-1.05,1.51-.38,3.58-.68,5.13-.66h1.58Zm10.79,2.11c.7,.44,1.17,1.11,2.11,1.32,.26-.83,.85-1.34,1.19-2.11-.79-.48-1.41-1.13-2.24-1.58-.2,.94-.88,1.4-1.05,2.37Zm-23.7,3.55c.47-2.88-.75-4.98-2.76-5.79,.83,2.02,1.66,4.05,2.76,5.79Zm11.32-5.27c-2.02,.09-3.73,.35-5.4,.79-1.36,.36-3.05,.8-3.55,1.58,3.28-.92,7.19-2.16,11.58-1.84,3.08,.22,5.83,1.51,7.9,2.63,.71,.38,1.47,1.09,2.24,.79-2.31-2.18-6.8-3.82-11.19-3.95-.23-.22-1.35-.22-1.58,0Zm-21.98,4.21c2.7,.79,2.48-4.14,0-3.16-1.13,.44-1.24,2.8,0,3.16Zm16.59-2.37c-1.25,.32-2.86,.48-3.42,1.58,4.33-2.14,11.5-2.49,16.06-.92,1.67,.57,3.05,1.68,4.48,1.97-3.41-3.45-11.35-4.13-17.11-2.63Zm-17.64,1.84c-.52-.61-.27-1.43-.13-2.24-2.81-1.48-2.33,4.15,.13,2.24Zm3.29-2.24c.38,.72,.24,1.61,0,2.37,2.42,1.45,2.53-3.85,0-2.37Zm19.88,.79c-2.03,.28-3.89,.41-5.66,.92-1.25,.36-2.65,.82-3.16,1.58,4.04-1.95,10.55-2.79,15.14-1.19,1.38,.48,2.54,1.54,3.82,1.32-2.33-1.27-4.87-2.33-8.29-2.5-.35-.3-1.27-.05-1.84-.13Zm-9.08,3.03c-.18,.82-.34,1.68-.66,2.37,1.59,.21,2.49,1.1,3.55,1.84,1.67-2.18,4.6-6.18,8.29-5.92,2.03,.14,2.54,1.88,3.69,3.16,1.08-.46,2.21-.86,3.42-1.18-3.91-3.62-13.78-2.81-18.3-.26Zm13.56,12.11c.95-.55,1.9,0,3.03,0-.4-4.91-.95-11.02-4.08-13.03-.35-.22-.86-.36-1.18-.39-3.95-.45-6.21,3.66-8.29,5.92,1.99,1.87,2.31,6.56,.92,9.35,.57,.88,1.02,1.87,1.45,2.9,.52-.04,.66,.3,1.18,.26,1.57,1.02,2.7,2.21,3.69,3.69,.41,.62,.7,1.65,1.58,1.84,.94-2.35,2.36-4.22,4.87-5v-1.32c-5.27,3.01-4.46-5.33-3.03-8.42-.31-.43-.79-.71-1.32-.92-.23,.25-.38,.58-.92,.53-.61-.22-1.03-1.05-1.84-.66-.39,.41-.14,.79,0,1.32-.75-.2-.89-1.66-.13-1.97,1.14-.18,1.36,.57,2.37,.53,.3-.14-.06-.94,.26-1.05,.63,.73,1.69,1.03,2.11,1.97-.29,1.11-.71,2.1-.79,3.42,1.73-1.02-.05,.23,.13,1.05Zm-24.88-12.9c-.54,.32-1.54,.34-2.24,.13-1.17,2.85,3.41,2.53,2.24-.13Zm29.75,5.4c-.57,1.31-1.59,2.5-1.58,3.95,1.5-2.44,2.9-5,3.29-8.56,.14,0,.1-.17-.13-.13-.33,1.79-.94,3.27-1.58,4.74Zm.39-4.21c-.27,2.45-2.37,4.85-2.37,6.85,1.58-1.76,2.46-4.21,3.03-6.98-.03-.1-.11-.15-.26-.13-.03,.19-.29,.15-.4,.26Zm-2.5,5.4c.77-1.6,1.66-3.08,1.97-5.13h-.39c-.28,1.81-2.08,3.42-1.58,5.13Zm-.39-1.32c.54-1.08,.98-2.27,1.45-3.42h-.53c-.06,1.3-1.27,2.15-.92,3.42Zm-.53-1.18c.49-.24,1.18-1.59,.66-1.97-.19,.69-.41,1.34-.66,1.97Zm-.53-1.58c.06,.34,.18,.6,.39,.79,.1-.29,.28-.51,.26-.92-.32-.05-.29,.24-.66,.13Zm-15.53,2.24c2.41,.49,4.04,1.85,4.34,4.48,.2,1.67-.54,3.53,.13,4.87,1.67-4.68-.2-10.16-4.87-10.53-.07,.6,.26,.79,.39,1.19Zm-4.21-.92c-.17,.13-.49,.13-.66,.26,2.26,5.72,5.66,11.76,8.29,17.38,.35,.74,.53,2.24,1.84,1.98-2.79-6.38-6.27-13.21-9.48-19.62Zm-1.71,.79c-.5,.13-.1,1.46,.13,1.71,.04-.65-.02-1.21-.13-1.71Zm-3.95,.66c.31,.96,.58,1.96,.92,2.9,.69-1.02,.96-3.01,2.5-2.76-.3-.05,.02-.72-.39-.66-.84,.39-2.35,.36-3.03,.53Zm4.48-.13v1.84c.62-.09,.96,.79,1.32,.53-.54-.69-.77-1.68-1.32-2.37Zm7.9,2.11c1.28,1.56,.66,3.48,1.32,5.53,.86-3.5-.43-7.46-3.55-7.37,.21,1.05,1.51,.96,2.24,1.84Zm.66,4.08c.09-2.24-.68-4.32-2.24-4.48,.84,1.4,1.37,3.11,2.24,4.48Zm-8.95-4.08c.09,.66,.96,.82,1.45,1.45,.91,1.16,1.01,2.9,.53,4.61,2.15,.81,3.67,2.89,3.03,6.06,1.75,.66,2.56,2.27,3.29,3.95,.07-1.92-1.39-3.44-2.9-4.21,.29-3.32-.86-5.19-3.16-5.92,.61-2.52,.03-5.48-2.24-5.92Zm-1.05,1.05h.53c.28-.28,.07-.74-.13-.92-.49-.05-.68,.6-.39,.92Zm8.42,15.01c-.97-.44-.71-2.1-1.45-2.76-.02,1.02-.52,1.67-1.32,1.71-.54,.03-.37-.51-1.19-.66-.37-.07-.69,.24-.92,.13-1.48-.73-1.01-2.4,.13-3.03-.45-1.1,.93-1.94,1.84-1.71-.98-.34-.92-1.72-1.58-2.37-.42,2.97-1.82,.84-3.42,1.18-1.32-.63-.87-2.52,.13-3.16-.25-1.49,1.55-2.02,2.24-1.05-.5-.78-.79-1.76-1.05-2.76-.15,.73-.42,1.33-1.19,1.45-.85-.54-1.71-.29-2.5-.79,.78,4.13,.75,9.99-.26,13.82,3.2,.22,7.33,.22,10.53,0Zm-1.58-4.34c1.13,.23,1.58,1.14,2.24,1.84-1.65-3.71-3.39-7.32-5.27-10.79,.2,1.1,0,1.83,0,3.03,2.35,.64,3.21,2.76,3.03,5.92Zm3.42,4.34c-.06-.64-.76-1.78-1.18-2.5,.5,.73,.38,2.08,1.18,2.5Zm11.45-9.35c.13-.31,.23-.65,.79-.53,.42,.02,.17,.71,.66,.66,.33-1.51-2.05-1.41-1.45-.13Zm-19.35,.26c.19-.03,.22-.22,.39-.26,.13-1.7-1.83,0-.39,.26Zm18.56-.53c.35,.04,.43-.18,.4-.53-.35,0-.63,.3-.4,.53Zm2.63,1.19c-1.09,.44-2.12,.14-2.9-.4,.19,1.13,2.37,1.43,2.9,.4Zm.26,.66c-1.08,.35-2.38,.34-3.16-.26,0,1.17,3.09,1.93,3.16,.26Zm-10.27,3.56c.64,.37,1.27,.66,1.84,1.18,1.1,1,1.76,2.68,3.03,3.03-1.33-2.18-2.69-4.33-5.26-5.27,.08,.4,.28,.69,.39,1.05Zm6.32,4.34c1.1-.87,1.44-2.14,2.5-2.9,.62-.45,1.86-.49,1.84-1.58-2.38,.56-3.6,2.28-4.34,4.48Zm-14.88-3.29c.49,.05,.77-.11,.79-.53-.2-.83-1.42-.18-.79,.53Zm10.79,2.11c.44,.47,1.03,1.49,1.71,1.05-1.12-1.25-2.04-2.7-3.55-3.56,.35,1.18,1.1,1.7,1.84,2.5Zm5,1.18c.96,0,1.09-1.08,1.58-1.58,.57-.58,1.72-.71,1.84-1.71-1.84,.4-2.9,1.57-3.42,3.29Zm1.05,0c1.15-.39,2.01-1.06,2.37-2.24-1.15,.39-1.9,1.17-2.37,2.24Zm-5.53-.13c-.46-.42-.77-.98-1.32-1.32,.25,.55,.45,1.83,1.32,1.32Zm6.71,.13h1.05c-.08-.31,.16-.95-.13-1.05-.23,.42-.87,.45-.92,1.05ZM37.14,42.96c-.19-.03-.22-.22-.39-.26-.75,.51,.44,1.45,.39,.26Zm-8.69,12.9c.32,.08,.6,.19,1.05,.13,1.58-1.94-2.24-2.39-1.05-.13Zm-5,12.11c.37,.16,.81,.16,1.19,0,.21-.47,.17-1.26-.13-1.58-1.22-.35-1.37,.8-1.05,1.58Zm49.23,16.32c-1.31-.31-1.45,1.32-.79,1.84,1.35,.4,1.47-1.38,.79-1.84Zm5.4-11.72c-.61-.83-1.96-.27-1.58,1.05,.59,.81,2,.31,1.58-1.05Zm-13.95,24.75c.26,0,.17,.36,.53,.26-.05-.32,.24-.29,.13-.66-.27-.27-.67,0-.66,.4Z"/><path class="cls-3" d="M41.61,41.9c.01,.67-.46,.85-.53,1.45-.59-.11-.78-.62-1.32-.79,.31-.44,.45-1.04,.92-1.32,.42,.11,.67,.38,.92,.66Zm-.92-.13c-.08,.27-.28,.42-.39,.66,.25,.06,.33,.28,.66,.26-.02-.33,.21-.41,.26-.66-.2-.07-.33-.19-.53-.26Z"/><path class="cls-3" d="M23.05,56.78c.55-.3,.87-.17,1.58-.13,.92,.71,.45,3.28-.92,2.24-.16-.55,.56-.23,.66-.53-.86-2.05-2.57,.2-1.97,2.11,.28,.9,1.26,1.15,2.24,.92,1.08-.26,1.4-1.25,2.24-1.84-.44,1.49,.57,3.95,2.24,2.5-.17-.44-.74-.49-.53-1.32,.25-.06,.24-.38,.66-.26,1.03,.5,.39,2.38-.39,2.63,.15,.58,.42,2.09-.53,1.97,.79-2.29-2.4-1.6-2.11-3.82-.62,.33-1.43,1.05-2.5,.92-2.33-.28-1.85-2.91-1.45-5.27,.1-.54-.63-.25-.53-.79,.16-1.01,1.66-.39,1.32,.66Z"/><path class="cls-3" d="M52.94,58.75c-.23-.21-.33-.55-.26-1.05,1.11-1.16,2.04,1.36,.26,1.05Z"/><path class="cls-3" d="M53.99,61.91c-.67,.34-1.43,.04-1.18-.92,.59-.72,1.77,.06,1.18,.92Z"/><path class="cls-3" d="M53.99,63.63c-.67,.34-1.43,.04-1.18-.92,.59-.72,1.77,.06,1.18,.92Z"/><path class="cls-3" d="M53.99,65.34c-.67,.34-1.43,.04-1.18-.92,.59-.72,1.77,.06,1.18,.92Z"/><path class="cls-3" d="M76.5,65.6c.47-.76,2.35-1.46,2.9-.26-.03,.95-.03,1.87,.26,2.5-.95-.01-.85-1.09-1.58-1.32-.02-.59,.29-.85,.53-1.19-1.85-.58-1.48,2.1-2.11,3.16-.58-.82-.03-2.78-1.45-2.77-.28,.29-.02,1.12-.53,1.19-.9-.33-1.08-1.38-1.45-2.24,.76,.4,2.86-.18,3.42,.92Z"/><path class="cls-3" d="M26.34,74.55c.25-.33,.07-1.07,.53-1.19,.73,.54,1.11,1.43,1.45,2.37-.88-.68-2.91,.19-3.42-1.05-1.65,1.93-3.29,.74-3.16-2.24,.91-.03,.51,1.24,1.45,1.18,.1,.67-.14,1-.39,1.32,1.77,.63,1.59-1.83,1.97-3.03,.87,.54-.09,2.9,1.58,2.63Z"/><path class="cls-3" d="M47.14,76.79c.21-.23,.55-.33,1.05-.26,1.16,1.12-1.33,2.02-1.05,.26Z"/><path class="cls-3" d="M47.54,81.13c-1.48-2.21,3.11-.72,0,0h0Z"/><path class="cls-3" d="M47.28,85.08c.21-.23,.55-.33,1.05-.26,1.16,1.11-1.36,2.04-1.05,.26Z"/><path class="cls-4" d="M67.81,87.85c.04,.7-1.03,.28-1.58,.4,.28-.38,1.47,.16,1.58-.4Z"/><path class="cls-4" d="M47.67,90.74c-.06,.29-.7,.1-.79,0v-.66c.13-.28,1.21-.1,.79,.13,.02-.29-.47-.06-.66-.13v.66h.66Z"/><path class="cls-4" d="M45.3,93.64c.4,1.06-.7,1.31-1.32,.92,1,.25,1.27-.23,1.32-.92Z"/><path class="cls-4" d="M44.51,94.3c-.47,.08-.4-.39-.4-.79,.12-.1,.3-.14,.53-.13-.02,.15-.24,.11-.4,.13v.66c.15-.02,.23,.03,.26,.13Z"/><path class="cls-3" d="M54.91,50.59c-.36,.26-1.15,.08-1.71,.13-.05-.62,.04-1.1,.13-1.58h1.32c.2,.37,.13,1.02,.26,1.45Zm-1.18-.26c.53,.05,.76-.2,.66-.79h-.66c-.04,.31-.26,.54,0,.79Z"/><path class="cls-3" d="M47.14,78.5c.23-.36,1.09-.36,1.32,0,.34,1.39-1.61,1.3-1.32,0Z"/><path class="cls-3" d="M47.28,81.79c2.65-1.24,.34,2.9,0,0h0Z"/><path class="cls-3" d="M67.81,87.85c1.38-3.76,2.76,4.39-.13,2.11,.02-.38-.07-.86,.13-1.05-.64-.07-1.48,.08-1.71-.39-.02-.15,.03-.23,.13-.26,.55-.11,1.62,.3,1.58-.4Z"/><path class="cls-3" d="M48.07,91.14h-1.45c.02-.54-.23-.82-.13-1.45h1.71c.07,.6-.23,.82-.13,1.45Zm-.39-.92c.42-.23-.66-.41-.79-.13v.66c.09,.1,.73,.29,.79,0v-.53Z"/><path class="cls-3" d="M54.52,91.01c-.2,.37-.27,.87-.4,1.32-.54-.07-.85-.38-1.45-.4-.04-.61,.26-.88,.26-1.45,.63,.07,1.1,.3,1.58,.53Zm-.53,.13c-.31,0-.39-.23-.79-.13-.1,.59,.12,.84,.66,.79-.11-.37,.19-.34,.13-.66Z"/><path class="cls-3" d="M36.35,93.11c-.18,.43-.74,.49-1.19,.66-.2-.5-.38-1.02-.53-1.58,.54-.03,.74-.4,1.32-.4,.16,.42,.15,.99,.4,1.32Zm-.92-.79c-.5,.12-.1,.53-.13,.92,.25,.03,.29-.15,.53-.13,0-.39,.01-.8-.4-.79Z"/><path class="cls-3" d="M51.09,93.51c-.14,.38-.29,.76-.26,1.32-.61,.04-1.04-.1-1.45-.26-.02-.63,0-1.24,.26-1.58,.52,.14,1.11,.21,1.45,.53Zm-1.32,.79c.37-.11,.34,.19,.66,.13-.1-.4,.23-.39,.13-.79-.37,.11-.34-.19-.66-.13,0,.31-.23,.39-.13,.79Z"/><path class="cls-3" d="M60.18,93.51c-.08,.49-.37,.77-.53,1.18-.61-.05-.75-.57-1.32-.66,.05-.56,.37-.86,.53-1.32,.67,.04,.89,.51,1.32,.79Zm-1.05-.26c-.07,.2-.2,.33-.26,.53,.31,.04,.25,.46,.66,.39-.05-.32,.24-.29,.13-.66-.36,.1-.26-.26-.53-.26Z"/><path class="cls-3" d="M58.47,24.66c-.91-.63-2.93-1.9-4.08-.66,1.66-.52,3.44,.41,4.34,1.45-1.22,.47-2.71,1.55-4.34,.79-.05,.61,1.15,1.02,1.58,1.58-1.07,.06-1.76-1.4-2.9-1.71,.17-.4,.48-.66,.66-1.05-.11-.42-.39-.66-.4-1.19,1-.08,1.58-.86,2.63-.79,1.03,.07,2,.85,2.5,1.58Zm-2.9,1.71c.64-.11,1.03-.46,1.05-1.19-.54,.03-.29,.85-.92,.79-.44-.17-.55-.68-.92-.92-.08,.78,.43,.97,.79,1.32Zm-1.45-.79c-.04,.35,.18,.43,.53,.39,0-.35-.3-.63-.53-.39Z"/><path class="cls-3" d="M45.43,112.33c1.11,.38,1.54,1.44,2.76,1.71-.22,.81-.87,1.5-.13,2.24-.41,.23-1.23,.42-1.71,.92-1.83,.17-2.64-.69-3.55-1.45,.74,.1,2.98,2.02,4.08,.53-1.51,.65-3.42-.47-4.34-1.58,1.59-.15,2.7-1.49,4.47-.66-.27-.83-1.31-.88-1.58-1.71Zm-.53,2.76c.24-.25,.21-.76,.66-.79,.65,.01,.47,.85,1.05,.92,.25-1.69-2.54-1.18-1.71-.13Zm2.37-.66c-.23,.08-.55-.39-.66,0,.12,.29,.65,.66,.66,0Z"/><path class="cls-3" d="M45.3,44.27c.15-.59,.97,.2,1.32,.26-.06,.55-.25,.98-.4,1.45-.57-.09-.81-.51-1.32-.66,.12-.37,.17-.8,.4-1.05Zm.13,.92c.25-.03,.29,.15,.53,.13,.35-.36-.05-.72-.39-.79,.05,.32-.24,.29-.13,.66Z"/><path class="cls-3" d="M62.41,44.41c.44,.3,.53,.96,.66,1.58-.33,.24-1,.14-1.32,.4-.45-.21-.14-1.18-.39-1.58,.26-.22,.81-.15,1.05-.4Zm-.26,1.45c.02-.15,.21-.14,.39-.13-.07-.33,0-.79-.39-.79-.38-.01-.38,.93,0,.92Z"/><path class="cls-3" d="M52.02,45.72c.09,.66-.22,.92-.13,1.58-.69,.07-.98-.25-1.58-.26-.04-.66,.31-.92,.26-1.58,.61-.04,.88,.26,1.45,.26Zm-.53,1.05v-.79c-.88-.3-.88,1.09,0,.79Z"/><path class="cls-3" d="M41.61,45.72c.49-.26,.91,.54,1.45,.66-.22,.44-.44,.88-.66,1.32-.54-.17-.82-.58-1.32-.79,.14-.43,.38-.76,.53-1.19Zm.13,.53c.03,.25-.15,.29-.13,.53,.25,.06,.33,.28,.66,.26,.07-.19,.2-.33,.26-.53-.42,.06-.3-.4-.79-.26Z"/><path class="cls-3" d="M57.54,45.72v1.58h-1.45v-1.58h1.45Zm-1.05,1.19h.66v-.79h-.66v.79Z"/><path class="cls-3" d="M66.63,48.09c-.31,.21-.76,.3-1.05,.53-.42-.28-.44-.96-.53-1.58,.82-.79,1.67-.13,1.58,1.05Zm-.66-.13c.26-.25,.04-.48,0-.79-.76-.19-.51,.81,0,.79Z"/><path class="cls-3" d="M48.72,48.49c-.14,.47-.21,1.02-.4,1.45-.44-.22-1.01-.31-1.45-.53-.03-.56,.34-.71,.26-1.32,.51-.21,1.09,.19,1.58,.39Zm-1.32,.66c.31,.04,.54,.26,.79,0,.15-.59-.4-.47-.66-.66,.05,.32-.24,.29-.13,.66Z"/><path class="cls-3" d="M60.7,48.49c0,.56,.18,.96,.26,1.45-.44,.22-1.08,.24-1.58,.4-.25-.32-.08-1.06-.13-1.58,.41-.16,.83-.31,1.45-.26Zm-1.05,.53c-.02,.32-.02,.63,.13,.79,.37,.11,.34-.19,.66-.13,0-.39,.01-.8-.4-.79-.02,.15-.21,.14-.39,.13Z"/><path class="cls-3" d="M33.58,51.38c.41,.14,1.05-.02,1.58,.26v.26c-.02,.55-1.01,.13-1.45,.26-.33,.37-.25,1.15-.79,1.32-1.56-.05-.52-1.88-.92-3.03,.43-.93,2.02-.51,1.58,.92Z"/><path class="cls-3" d="M52.67,56.78c.59-3.04,2.34,1.56,0,0h0Z"/><path class="cls-3" d="M52.67,60.07c.61-3.06,2.32,1.59,0,0h0Z"/><path class="cls-3" d="M48.46,75.47c-.37,1.76-2.35-.66-.53-.79,.13,.26,.58,.21,.53,.66v.13Z"/><path class="cls-3" d="M73.08,75.21c0,.43-.22,.66-.13,1.18,.67,.96,2.34,.91,2.24,2.63,.56-.1,1.14-.88,1.98-.92,2.42-.11,2.84,2.72,1.84,5,.04,.62,.67,.65,.66,1.32-.45,.7-1.46,.1-1.45-.79-1.44,.56-2.41-.69-1.84-2.11,.37-.17,.99-.67,1.32-.13,.16,.55-.55,.23-.66,.53,1.07,2.63,2.91-1.39,1.58-2.76-2.04-1.03-3.12,.82-4.21,1.58,.75-1.88-.84-3.86-2.24-2.37,.35,.26,.81,.42,.66,1.18-.18,.13-.4,.22-.53,.4-1.31-.41-.65-2.28,.13-2.76-.16-.8-.32-1.97,.66-1.97Z"/><path class="cls-3" d="M48.59,84.16c-.21,.23-.55,.33-1.05,.26-.11-.11-.08-.36-.26-.4-.21-1.23,1.67-1.19,1.32,.13Z"/><path class="cls-3" d="M42.01,90.09c.08,.32,.15,.85,.13,1.58-.46,.07-.99,.06-1.32,.26-.36-.29-.28-1.03-.39-1.58,.52-.09,.94-.29,1.58-.26Zm-1.19,.53c0,.31,.23,.39,.13,.79h.53c.18-.17,.13-.57,.13-.92-.31,0-.39,.23-.79,.13Z"/><path class="cls-3" d="M43.98,94.56c-.21-.36-.27-.87-.26-1.45,.32-.25,1.06-.08,1.58-.13v.66c-.05,.7-.32,1.17-1.32,.92Zm.66-1.19c-.23-.01-.41,.03-.53,.13,0,.4-.08,.87,.4,.79h.26c.18-.18,.25-.92-.13-.92Z"/><path class="cls-3" d="M39.77,94.04c-.1,.67,.18,.96,.13,1.58-.35,.13-.69,.27-1.18,.26-.24-.38-.24-.99-.53-1.32,.29-.42,.96-.45,1.58-.53Zm-1.05,.66c-.05,.32,.24,.29,.13,.66h.66c.09-.4-.13-.48-.13-.79-.37-.11-.34,.18-.66,.13Z"/><path class="cls-3" d="M56.49,95.09c-.16,.37-.3,.76-.39,1.19-.67,.09-.78-.36-1.32-.4-.1-.68,.28-.86,.26-1.45,.66,.04,1,.41,1.45,.66Zm-1.32,.53c.32-.05,.29,.24,.66,.13-.03-.25,.15-.29,.13-.53-.36,.1-.26-.26-.53-.26-.13,.17-.13,.48-.26,.66Z"/><path class="cls-3" d="M61.49,97.85c-.15,.55-.55,.85-.79,1.32-.52-.05-.56-.58-1.05-.66,.06-.59,.42-.9,.53-1.45,.62,.08,.96,.45,1.32,.79Zm-1.19,.66c.49,.05,.55-.33,.66-.66-.36,.1-.26-.26-.53-.26,.02,.4-.46,.59-.13,.92Z"/></g></g></g></svg>