<?xml version="1.0" encoding="UTF-8"?><svg id="Layer_2" xmlns="http://www.w3.org/2000/svg" viewBox="0 0 101.07 140"><defs><style>.cls-1{fill:#fff;}.cls-2{fill:#231f20;}</style></defs><g id="cards"><g><path class="cls-1" d="M98.04,0s-29.21,.79-47.5,.79S3.03,0,3.03,0C1.36-.04,0,1.28,0,2.95V135.9c0,1.67,1.36,3.08,3.03,3.13,0,0,29.21,.97,47.5,.97s47.5-.97,47.5-.97c1.67-.06,3.03-1.47,3.03-3.13V2.95c0-1.67-1.36-2.99-3.03-2.95Z"/><g><path class="cls-2" d="M6.76,8.66v-2.76c-.03-.46-.16-.7-.4-.7-.08,0-.19,.02-.35,.05-.15,.03-.27,.05-.35,.05-.32,0-.47-.17-.47-.51,0-.15,.05-.28,.16-.38,.11-.1,.24-.15,.41-.15,.14,0,.31,.02,.52,.06,.21,.04,.41,.06,.58,.06,.15,0,.28-.01,.38-.04,.19-.08,.33-.12,.42-.12,.14,0,.22,.12,.22,.35v.15l-.04,.55c-.01,.48-.04,1.21-.09,2.19v1.22l.04,3.44c.02,.42,.06,.67,.11,.78,.05,.1,.19,.15,.4,.15,.09,0,.21,0,.38-.02,.16-.01,.29-.02,.38-.02,.34,0,.51,.17,.51,.49,0,.36-.17,.54-.52,.54-.18,0-.46-.03-.84-.09-.38-.06-.66-.09-.86-.09-.31,0-.65,.03-1.02,.09-.37,.06-.62,.09-.75,.09-.35,0-.52-.17-.52-.52s.15-.51,.45-.51c.08,0,.19,.01,.33,.04,.15,.02,.26,.04,.33,.04,.33,0,.5-.26,.51-.78,0-.11,0-.34,.03-.7,.04-.71,.06-1.68,.06-2.93Z"/><path class="cls-2" d="M11.27,12.8c-.61-.89-.91-2.13-.91-3.69s.31-2.8,.92-3.68c.61-.89,1.34-1.34,2.17-1.34,.9,0,1.64,.44,2.22,1.32,.62,.93,.93,2.17,.93,3.71s-.31,2.8-.92,3.69c-.61,.89-1.34,1.33-2.17,1.33-.88,0-1.62-.45-2.23-1.34Zm2.2-7.68c-.57,0-1.04,.38-1.42,1.13-.38,.75-.57,1.71-.57,2.86s.19,2.11,.57,2.87c.38,.76,.85,1.14,1.42,1.14s1.04-.38,1.42-1.13c.38-.75,.57-1.71,.57-2.86s-.19-2.11-.57-2.87c-.38-.76-.85-1.14-1.42-1.14Z"/></g><g><path class="cls-2" d="M94.1,130.29v2.76c.03,.46,.16,.7,.4,.7,.08,0,.19-.02,.35-.05,.15-.03,.27-.05,.35-.05,.32,0,.47,.17,.47,.51,0,.15-.05,.28-.16,.38-.11,.1-.24,.15-.41,.15-.14,0-.31-.02-.52-.06-.21-.04-.41-.06-.58-.06-.15,0-.28,.01-.38,.04-.19,.08-.33,.12-.42,.12-.14,0-.22-.12-.22-.35v-.15l.04-.55c.01-.48,.04-1.21,.09-2.19v-1.22l-.04-3.44c-.02-.42-.06-.67-.11-.78-.05-.1-.19-.15-.4-.15-.09,0-.21,0-.38,.02-.16,.01-.29,.02-.38,.02-.34,0-.51-.16-.51-.49,0-.36,.17-.54,.52-.54,.18,0,.46,.03,.84,.09,.38,.06,.66,.09,.86,.09,.31,0,.65-.03,1.02-.09,.37-.06,.62-.09,.75-.09,.35,0,.52,.17,.52,.52s-.15,.51-.45,.51c-.08,0-.19-.01-.33-.04-.14-.02-.26-.04-.33-.04-.33,0-.5,.26-.51,.78,0,.11,0,.34-.03,.7-.04,.71-.06,1.68-.06,2.93Z"/><path class="cls-2" d="M89.59,126.15c.61,.89,.91,2.13,.91,3.69s-.31,2.8-.92,3.68c-.61,.89-1.34,1.34-2.17,1.34-.9,0-1.64-.44-2.22-1.32-.62-.93-.93-2.17-.93-3.71s.31-2.8,.92-3.69c.61-.89,1.34-1.33,2.17-1.33,.88,0,1.62,.45,2.23,1.34Zm-2.21,7.68c.57,0,1.04-.38,1.42-1.13,.38-.75,.57-1.71,.57-2.86s-.19-2.11-.57-2.87c-.38-.76-.85-1.14-1.42-1.14s-1.04,.38-1.42,1.13c-.38,.75-.57,1.71-.57,2.86s.19,2.11,.57,2.87c.38,.76,.85,1.14,1.42,1.14Z"/></g><path class="cls-2" d="M12.75,25.92c1.37,0,2.49-1.11,2.49-2.49s-1.08-2.45-2.41-2.49c.11-.3,.17-.62,.17-.96,0-1.51-1.22-2.74-2.74-2.74s-2.73,1.22-2.73,2.74c0,.34,.06,.66,.17,.96-1.34,.04-2.42,1.14-2.42,2.49s1.11,2.49,2.49,2.49c1.02,0,1.9-.61,2.28-1.49-.77,3.58-3.4,4.15-3.4,4.15h7.22s-2.64-.58-3.4-4.15c.38,.88,1.26,1.49,2.28,1.49Z"/><path class="cls-2" d="M88.11,113.03c-1.37,0-2.49,1.11-2.49,2.49s1.08,2.45,2.42,2.49c-.11,.3-.17,.62-.17,.96,0,1.51,1.22,2.74,2.73,2.74s2.74-1.23,2.74-2.74c0-.34-.06-.66-.17-.96,1.34-.04,2.42-1.14,2.42-2.49s-1.12-2.49-2.49-2.49c-1.02,0-1.9,.61-2.28,1.49,.77-3.58,3.4-4.15,3.4-4.15h-7.22s2.64,.57,3.4,4.15c-.38-.88-1.26-1.49-2.28-1.49Z"/><path class="cls-2" d="M33.13,31.62c2.89,0,5.23-2.34,5.23-5.23s-2.26-5.14-5.07-5.22c.23-.63,.36-1.3,.36-2.01,0-3.17-2.57-5.74-5.74-5.74s-5.74,2.57-5.74,5.74c0,.71,.13,1.38,.36,2.01-2.82,.08-5.07,2.39-5.07,5.22s2.34,5.23,5.23,5.23c2.14,0,3.98-1.29,4.79-3.14-1.61,7.52-7.15,8.72-7.15,8.72h15.17s-5.54-1.21-7.15-8.72c.81,1.85,2.65,3.14,4.79,3.14Z"/><path class="cls-2" d="M33.13,61.62c2.89,0,5.23-2.34,5.23-5.23s-2.26-5.14-5.07-5.22c.23-.63,.36-1.3,.36-2.01,0-3.17-2.57-5.74-5.74-5.74s-5.74,2.57-5.74,5.74c0,.71,.13,1.38,.36,2.01-2.82,.08-5.07,2.39-5.07,5.22s2.34,5.23,5.23,5.23c2.14,0,3.98-1.29,4.79-3.14-1.61,7.52-7.15,8.72-7.15,8.72h15.17s-5.54-1.21-7.15-8.72c.81,1.85,2.65,3.14,4.79,3.14Z"/><path class="cls-2" d="M33.13,91.62c2.89,0,5.23-2.34,5.23-5.23s-2.26-5.14-5.07-5.22c.23-.63,.36-1.3,.36-2.01,0-3.17-2.57-5.74-5.74-5.74s-5.74,2.57-5.74,5.74c0,.71,.13,1.38,.36,2.01-2.82,.08-5.07,2.39-5.07,5.22s2.34,5.23,5.23,5.23c2.14,0,3.98-1.29,4.79-3.14-1.61,7.52-7.15,8.72-7.15,8.72h15.17s-5.54-1.21-7.15-8.72c.81,1.85,2.65,3.14,4.79,3.14Z"/><path class="cls-2" d="M33.13,121.62c2.89,0,5.23-2.34,5.23-5.23s-2.26-5.14-5.07-5.22c.23-.63,.36-1.3,.36-2.01,0-3.17-2.57-5.74-5.74-5.74s-5.74,2.57-5.74,5.74c0,.71,.13,1.38,.36,2.01-2.82,.08-5.07,2.39-5.07,5.22s2.34,5.23,5.23,5.23c2.14,0,3.98-1.29,4.79-3.14-1.61,7.52-7.15,8.72-7.15,8.72h15.17s-5.54-1.21-7.15-8.72c.81,1.85,2.65,3.14,4.79,3.14Z"/><path class="cls-2" d="M78.13,31.62c2.89,0,5.23-2.34,5.23-5.23s-2.26-5.14-5.07-5.22c.23-.63,.36-1.3,.36-2.01,0-3.17-2.57-5.74-5.74-5.74s-5.74,2.57-5.74,5.74c0,.71,.13,1.38,.36,2.01-2.82,.08-5.07,2.39-5.07,5.22s2.34,5.23,5.23,5.23c2.14,0,3.98-1.29,4.79-3.14-1.61,7.52-7.15,8.72-7.15,8.72h15.17s-5.54-1.21-7.15-8.72c.81,1.85,2.65,3.14,4.79,3.14Z"/><path class="cls-2" d="M78.13,61.62c2.89,0,5.23-2.34,5.23-5.23s-2.26-5.14-5.07-5.22c.23-.63,.36-1.3,.36-2.01,0-3.17-2.57-5.74-5.74-5.74s-5.74,2.57-5.74,5.74c0,.71,.13,1.38,.36,2.01-2.82,.08-5.07,2.39-5.07,5.22s2.34,5.23,5.23,5.23c2.14,0,3.98-1.29,4.79-3.14-1.61,7.52-7.15,8.72-7.15,8.72h15.17s-5.54-1.21-7.15-8.72c.81,1.85,2.65,3.14,4.79,3.14Z"/><path class="cls-2" d="M78.13,91.62c2.89,0,5.23-2.34,5.23-5.23s-2.26-5.14-5.07-5.22c.23-.63,.36-1.3,.36-2.01,0-3.17-2.57-5.74-5.74-5.74s-5.74,2.57-5.74,5.74c0,.71,.13,1.38,.36,2.01-2.82,.08-5.07,2.39-5.07,5.22s2.34,5.23,5.23,5.23c2.14,0,3.98-1.29,4.79-3.14-1.61,7.52-7.15,8.72-7.15,8.72h15.17s-5.54-1.21-7.15-8.72c.81,1.85,2.65,3.14,4.79,3.14Z"/><path class="cls-2" d="M78.13,121.62c2.89,0,5.23-2.34,5.23-5.23s-2.26-5.14-5.07-5.22c.23-.63,.36-1.3,.36-2.01,0-3.17-2.57-5.74-5.74-5.74s-5.74,2.57-5.74,5.74c0,.71,.13,1.38,.36,2.01-2.82,.08-5.07,2.39-5.07,5.22s2.34,5.23,5.23,5.23c2.14,0,3.98-1.29,4.79-3.14-1.61,7.52-7.15,8.72-7.15,8.72h15.17s-5.54-1.21-7.15-8.72c.81,1.85,2.65,3.14,4.79,3.14Z"/><path class="cls-2" d="M56.04,45.62c2.89,0,5.23-2.34,5.23-5.23s-2.26-5.14-5.07-5.22c.23-.63,.36-1.3,.36-2.01,0-3.17-2.57-5.74-5.74-5.74s-5.74,2.57-5.74,5.74c0,.71,.13,1.38,.36,2.01-2.82,.08-5.07,2.39-5.07,5.22s2.34,5.23,5.23,5.23c2.14,0,3.98-1.29,4.79-3.14-1.61,7.52-7.15,8.72-7.15,8.72h15.17s-5.54-1.21-7.15-8.72c.81,1.85,2.65,3.14,4.79,3.14Z"/><path class="cls-2" d="M56.04,105.62c2.89,0,5.23-2.34,5.23-5.23s-2.26-5.14-5.07-5.22c.23-.63,.36-1.3,.36-2.01,0-3.17-2.57-5.74-5.74-5.74s-5.74,2.57-5.74,5.74c0,.71,.13,1.38,.36,2.01-2.82,.08-5.07,2.39-5.07,5.22s2.34,5.23,5.23,5.23c2.14,0,3.98-1.29,4.79-3.14-1.61,7.52-7.15,8.72-7.15,8.72h15.17s-5.54-1.21-7.15-8.72c.81,1.85,2.65,3.14,4.79,3.14Z"/></g></g></svg>