<?xml version="1.0" encoding="UTF-8"?><svg id="Layer_2" xmlns="http://www.w3.org/2000/svg" viewBox="0 0 101.07 140"><defs><style>.cls-1{fill:#fff;}.cls-2{fill:#c4161c;}</style></defs><g id="cards"><g><path class="cls-1" d="M98.04,0s-29.21,.79-47.5,.79S3.03,0,3.03,0C1.36-.04,0,1.28,0,2.95V135.9c0,1.67,1.36,3.08,3.03,3.13,0,0,29.21,.97,47.5,.97s47.5-.97,47.5-.97c1.67-.06,3.03-1.47,3.03-3.13V2.95c0-1.67-1.36-2.99-3.03-2.95Z"/><polygon class="cls-2" points="10.26 16.91 5.97 23.58 10.26 30.25 14.55 23.58 10.26 16.91"/><path class="cls-2" d="M10.61,5.06c-.64,0-1.15,.33-1.54,.99-.39,.66-.61,1.56-.66,2.71,.38-.47,.73-.81,1.06-1,.33-.19,.72-.29,1.17-.29,.78,0,1.42,.3,1.92,.91,.5,.6,.75,1.38,.75,2.33,0,1-.27,1.82-.81,2.47-.54,.65-1.23,.97-2.06,.97-.51,0-.99-.14-1.44-.43-.44-.29-.78-.67-1-1.15-.43-.93-.64-2.06-.64-3.38,0-1.5,.3-2.72,.91-3.67,.61-.95,1.4-1.42,2.36-1.42,.62,0,1.14,.2,1.57,.6,.43,.4,.64,.9,.64,1.49,0,.65-.24,.97-.73,.97-.19,0-.35-.07-.48-.21-.13-.14-.19-.31-.19-.53,0-.25,.11-.46,.33-.63-.23-.48-.62-.72-1.18-.72Zm-.14,3.45c-.52,0-.96,.21-1.3,.62-.34,.41-.52,.93-.52,1.54,0,.69,.17,1.26,.52,1.73,.35,.46,.78,.7,1.29,.7s.94-.23,1.27-.67c.33-.45,.5-1.02,.5-1.7s-.16-1.19-.49-1.6c-.32-.41-.75-.61-1.28-.61Z"/><polygon class="cls-2" points="90.6 122.04 94.88 115.37 90.6 108.7 86.31 115.37 90.6 122.04"/><path class="cls-2" d="M90.25,133.88c.64,0,1.15-.33,1.54-.99,.39-.66,.61-1.56,.66-2.71-.38,.47-.73,.81-1.06,1-.33,.19-.72,.29-1.17,.29-.78,0-1.42-.3-1.92-.91-.5-.6-.75-1.38-.75-2.33,0-1,.27-1.82,.81-2.47,.54-.65,1.23-.97,2.06-.97,.51,0,.99,.14,1.44,.43,.44,.29,.78,.67,1,1.15,.43,.93,.64,2.06,.64,3.38,0,1.5-.3,2.72-.91,3.67-.61,.95-1.4,1.42-2.36,1.42-.62,0-1.14-.2-1.57-.6-.43-.4-.64-.9-.64-1.49,0-.65,.24-.97,.73-.97,.19,0,.35,.07,.48,.21,.13,.14,.19,.31,.19,.53,0,.25-.11,.46-.33,.63,.23,.48,.62,.72,1.18,.72Zm.14-3.45c.52,0,.96-.21,1.3-.62,.34-.41,.52-.93,.52-1.54,0-.69-.17-1.26-.52-1.73-.35-.46-.78-.7-1.29-.7s-.94,.23-1.27,.67c-.33,.45-.5,1.02-.5,1.7s.16,1.19,.49,1.6c.32,.41,.75,.61,1.28,.61Z"/><polygon class="cls-2" points="30.47 53.73 20.47 69.3 30.47 84.87 40.48 69.3 30.47 53.73"/><polygon class="cls-2" points="30.47 13.73 20.47 29.3 30.47 44.87 40.48 29.3 30.47 13.73"/><polygon class="cls-2" points="30.47 93.73 20.47 109.3 30.47 124.87 40.48 109.3 30.47 93.73"/><polygon class="cls-2" points="70.47 53.73 60.47 69.3 70.47 84.87 80.48 69.3 70.47 53.73"/><polygon class="cls-2" points="70.47 13.73 60.47 29.3 70.47 44.87 80.48 29.3 70.47 13.73"/><polygon class="cls-2" points="70.47 93.73 60.47 109.3 70.47 124.87 80.48 109.3 70.47 93.73"/></g></g></svg>