<?xml version="1.0" encoding="UTF-8"?><svg id="Layer_2" xmlns="http://www.w3.org/2000/svg" viewBox="0 0 101.07 140"><defs><style>.cls-1{fill:#fff;}.cls-2{fill:#c4161c;}</style></defs><g id="cards"><g><path class="cls-1" d="M98.04,0s-29.21,.79-47.5,.79S3.03,0,3.03,0C1.36-.04,0,1.28,0,2.95V135.9c0,1.67,1.36,3.08,3.03,3.13,0,0,29.21,.97,47.5,.97s47.5-.97,47.5-.97c1.67-.06,3.03-1.47,3.03-3.13V2.95c0-1.67-1.36-2.99-3.03-2.95Z"/><polygon class="cls-2" points="10.26 16.91 5.97 23.58 10.26 30.25 14.55 23.58 10.26 16.91"/><path class="cls-2" d="M8.04,9.29c.25-.29,.63-.5,1.13-.64-.88-.37-1.32-1.05-1.32-2.05,0-.73,.24-1.32,.73-1.8,.48-.47,1.09-.71,1.83-.71s1.28,.23,1.73,.68,.67,1.04,.67,1.76c0,.96-.43,1.66-1.29,2.12,1.11,.36,1.67,1.17,1.67,2.45,0,.9-.27,1.63-.82,2.2s-1.25,.85-2.13,.85-1.53-.27-2.08-.82c-.56-.55-.83-1.23-.83-2.05,0-.77,.24-1.44,.71-1.99Zm2.22-.09c-.53,0-.97,.18-1.33,.55-.35,.37-.53,.83-.53,1.4,0,.6,.17,1.08,.52,1.46,.34,.38,.78,.56,1.31,.56s.99-.19,1.33-.56c.35-.38,.52-.86,.52-1.45s-.16-1.07-.49-1.43c-.33-.36-.77-.53-1.33-.53Zm.09-4.13c-.41,0-.74,.14-1,.43-.26,.28-.39,.64-.39,1.08s.13,.78,.39,1.06c.26,.28,.59,.43,.99,.43s.71-.14,.98-.43c.27-.29,.4-.64,.4-1.05s-.13-.78-.39-1.07c-.26-.29-.59-.43-.97-.43Z"/><polygon class="cls-2" points="90.6 122.04 94.88 115.37 90.6 108.7 86.31 115.37 90.6 122.04"/><path class="cls-2" d="M92.82,129.66c-.25,.29-.63,.5-1.13,.64,.88,.37,1.32,1.05,1.32,2.05,0,.73-.24,1.32-.73,1.8-.48,.47-1.09,.71-1.83,.71s-1.28-.23-1.73-.68c-.45-.45-.67-1.04-.67-1.76,0-.96,.43-1.66,1.29-2.12-1.11-.36-1.67-1.17-1.67-2.45,0-.9,.27-1.63,.82-2.2,.55-.57,1.25-.85,2.13-.85s1.53,.27,2.08,.82c.56,.55,.83,1.23,.83,2.05,0,.77-.24,1.44-.71,1.99Zm-2.22,.09c.53,0,.97-.18,1.33-.55,.35-.37,.53-.83,.53-1.4,0-.6-.17-1.08-.52-1.46-.34-.38-.78-.56-1.31-.56s-.99,.19-1.33,.56c-.35,.38-.52,.86-.52,1.45s.16,1.07,.49,1.43c.33,.36,.77,.53,1.33,.53Zm-.09,4.13c.41,0,.74-.14,1-.43,.26-.28,.39-.64,.39-1.08s-.13-.78-.39-1.06c-.26-.28-.59-.43-.99-.43s-.71,.14-.98,.43c-.27,.29-.4,.64-.4,1.05s.13,.78,.39,1.07c.26,.29,.59,.43,.97,.43Z"/><polygon class="cls-2" points="50.44 73.73 40.43 89.3 50.44 104.87 60.44 89.3 50.44 73.73"/><polygon class="cls-2" points="50.5 33.73 40.49 49.3 50.5 64.87 60.5 49.3 50.5 33.73"/><polygon class="cls-2" points="30.42 53.73 20.41 69.3 30.42 84.87 40.42 69.3 30.42 53.73"/><polygon class="cls-2" points="30.42 13.73 20.41 29.3 30.42 44.87 40.42 29.3 30.42 13.73"/><polygon class="cls-2" points="30.42 93.73 20.41 109.3 30.42 124.87 40.42 109.3 30.42 93.73"/><polygon class="cls-2" points="70.42 53.73 60.41 69.3 70.42 84.87 80.42 69.3 70.42 53.73"/><polygon class="cls-2" points="70.42 13.73 60.41 29.3 70.42 44.87 80.42 29.3 70.42 13.73"/><polygon class="cls-2" points="70.42 93.73 60.41 109.3 70.42 124.87 80.42 109.3 70.42 93.73"/></g></g></svg>