<?xml version="1.0" encoding="UTF-8"?><svg id="Layer_2" xmlns="http://www.w3.org/2000/svg" viewBox="0 0 101.07 140"><defs><style>.cls-1{fill:#fff;}.cls-2{fill:#c4161c;}</style></defs><g id="cards"><g><path class="cls-1" d="M98.04,0s-29.21,.79-47.5,.79S3.03,0,3.03,0C1.36-.04,0,1.28,0,2.95V135.9c0,1.67,1.36,3.08,3.03,3.13,0,0,29.21,.97,47.5,.97s47.5-.97,47.5-.97c1.67-.06,3.03-1.47,3.03-3.13V2.95c0-1.67-1.36-2.99-3.03-2.95Z"/><polygon class="cls-2" points="10.26 16.91 5.97 23.58 10.26 30.25 14.55 23.58 10.26 16.91"/><path class="cls-2" d="M8.55,4.69v.38c.19-.33,.37-.55,.52-.65,.15-.11,.38-.16,.66-.16,.21,0,.55,.11,1.01,.34,.46,.23,.82,.34,1.08,.34,.09,0,.2-.02,.35-.06-.09-.09-.13-.19-.13-.32,0-.31,.16-.46,.49-.46,.5,0,.75,.45,.75,1.35,0,.74-.2,1.4-.61,2-.18,.28-.4,.56-.64,.84-.54,.65-.89,1.2-1.04,1.67-.17,.53-.26,1.17-.26,1.93v.22c0,.11,.01,.18,.01,.23,0,.3,.01,.55,.01,.74,0,.72-.21,1.07-.62,1.07-.33,0-.53-.21-.61-.62-.02-.12-.03-.45-.03-1,0-1.16,.22-2.21,.65-3.13,.26-.55,.71-1.2,1.35-1.94,.34-.39,.57-.69,.7-.92,.13-.23,.23-.53,.3-.91-.32,.26-.61,.39-.88,.39-.13,0-.27-.03-.42-.09-.08-.03-.27-.11-.57-.23-.42-.17-.76-.26-1.03-.26-.3,0-.55,.11-.75,.34-.2,.23-.3,.51-.3,.83,0,.14,0,.29,.03,.46,.03,.26,.04,.45,.04,.57,0,.49-.17,.74-.51,.74s-.51-.18-.51-.55c0-.19,.03-.45,.09-.77,.07-.38,.1-.73,.1-1.07,0-.15-.02-.39-.06-.7-.04-.31-.06-.54-.06-.7,0-.33,.15-.49,.45-.49,.28,0,.42,.2,.42,.59Z"/><polygon class="cls-2" points="90.59 122.04 94.88 115.37 90.59 108.7 86.31 115.37 90.59 122.04"/><path class="cls-2" d="M92.31,134.26v-.38c-.19,.33-.37,.55-.52,.65-.15,.11-.38,.16-.67,.16-.21,0-.55-.11-1.01-.34-.46-.23-.82-.34-1.08-.34-.09,0-.2,.02-.35,.06,.09,.09,.13,.19,.13,.32,0,.31-.16,.46-.49,.46-.5,0-.75-.45-.75-1.35,0-.74,.2-1.4,.61-2,.18-.28,.4-.56,.64-.84,.54-.65,.89-1.2,1.04-1.67,.17-.53,.26-1.17,.26-1.93v-.22c0-.11-.01-.18-.01-.23,0-.3-.01-.55-.01-.74,0-.72,.21-1.07,.62-1.07,.33,0,.53,.21,.61,.62,.02,.12,.03,.45,.03,1,0,1.16-.22,2.21-.65,3.13-.26,.55-.71,1.2-1.35,1.94-.34,.39-.57,.69-.7,.92-.13,.23-.23,.53-.3,.91,.32-.26,.61-.39,.88-.39,.13,0,.27,.03,.42,.09,.08,.03,.27,.11,.57,.23,.42,.17,.76,.26,1.03,.26,.3,0,.55-.11,.75-.34,.2-.23,.3-.51,.3-.83,0-.14,0-.29-.03-.46-.03-.26-.04-.45-.04-.57,0-.49,.17-.74,.51-.74s.51,.18,.51,.55c0,.19-.03,.45-.09,.77-.07,.38-.1,.73-.1,1.07,0,.15,.02,.39,.06,.7,.04,.31,.06,.54,.06,.7,0,.33-.15,.49-.45,.49-.28,0-.42-.2-.42-.59Z"/><polygon class="cls-2" points="50.46 33.73 40.45 49.3 50.46 64.87 60.46 49.3 50.46 33.73"/><polygon class="cls-2" points="30.37 53.73 20.37 69.3 30.37 84.87 40.38 69.3 30.37 53.73"/><polygon class="cls-2" points="30.37 13.73 20.37 29.3 30.37 44.87 40.38 29.3 30.37 13.73"/><polygon class="cls-2" points="30.37 93.73 20.37 109.3 30.37 124.87 40.38 109.3 30.37 93.73"/><polygon class="cls-2" points="70.37 53.73 60.37 69.3 70.37 84.87 80.38 69.3 70.37 53.73"/><polygon class="cls-2" points="70.37 13.73 60.37 29.3 70.37 44.87 80.38 29.3 70.37 13.73"/><polygon class="cls-2" points="70.37 93.73 60.37 109.3 70.37 124.87 80.38 109.3 70.37 93.73"/></g></g></svg>