<?xml version="1.0" encoding="UTF-8"?><svg id="Layer_2" xmlns="http://www.w3.org/2000/svg" viewBox="0 0 101.07 140"><defs><style>.cls-1{fill:#fff;}.cls-2{fill:#c4161c;}</style></defs><g id="cards"><g><path class="cls-1" d="M98.04,0s-29.21,.79-47.5,.79S3.03,0,3.03,0C1.37-.04,0,1.28,0,2.95V135.9c0,1.67,1.36,3.08,3.03,3.13,0,0,29.21,.97,47.5,.97s47.5-.97,47.5-.97c1.67-.06,3.03-1.47,3.03-3.13V2.95c0-1.67-1.36-2.99-3.03-2.95Z"/><path class="cls-2" d="M10.93,11.46v-.33h-3c-.51,0-.77-.2-.77-.61,0-.21,.12-.51,.35-.9l3.05-5.1c.15-.25,.37-.38,.65-.38s.49,.08,.59,.23c.1,.15,.15,.45,.15,.9v4.83h.95c.36,0,.54,.16,.54,.48,0,.36-.22,.54-.65,.54h-.84v1.13c0,.54,.17,.81,.48,.81,.06,0,.15,0,.26-.03,.12-.02,.21-.03,.26-.03,.32,0,.48,.16,.48,.49,0,.14-.05,.27-.15,.37s-.23,.15-.38,.15c-.14,0-.37-.03-.67-.09-.3-.06-.54-.09-.72-.09-.19,0-.47,.03-.82,.09-.35,.06-.61,.09-.78,.09-.34,0-.51-.17-.51-.52,0-.33,.15-.49,.46-.49,.05,0,.14,.01,.26,.04,.13,.02,.22,.04,.29,.04,.27,0,.44-.22,.49-.65,0-.09,.01-.41,.01-.97Zm-2.68-1.35h2.68V5.6l-2.68,4.51Z"/><path class="cls-2" d="M89.93,127.49v.33h3c.51,0,.77,.2,.77,.61,0,.21-.12,.51-.35,.9l-3.05,5.1c-.15,.25-.37,.38-.65,.38s-.49-.08-.59-.23c-.1-.15-.15-.45-.15-.9v-4.83h-.95c-.36,0-.54-.16-.54-.48,0-.36,.22-.54,.65-.54h.84v-1.13c0-.54-.17-.81-.48-.81-.06,0-.15,0-.26,.03-.12,.02-.21,.03-.26,.03-.32,0-.48-.16-.48-.49,0-.14,.05-.27,.15-.37s.23-.15,.38-.15c.15,0,.37,.03,.67,.09,.3,.06,.54,.09,.72,.09,.19,0,.47-.03,.82-.09,.35-.06,.61-.09,.78-.09,.34,0,.51,.17,.51,.52,0,.33-.15,.49-.46,.49-.05,0-.14-.01-.26-.04-.13-.02-.22-.04-.29-.04-.27,0-.44,.22-.49,.65,0,.09-.01,.41-.01,.97Zm2.68,1.35h-2.68v4.51l2.68-4.51Z"/><path class="cls-2" d="M15.75,21.05c0-1.51-1.23-2.74-2.74-2.74s-2.74,1.22-2.74,2.73c0-1.51-1.23-2.73-2.74-2.73s-2.74,1.23-2.74,2.74c0,4.06,5.46,7.17,5.48,7.18,0,0,5.48-3.12,5.48-7.18Z"/><path class="cls-2" d="M85.11,117.9c0,1.51,1.23,2.74,2.74,2.74s2.74-1.22,2.74-2.73c0,1.51,1.23,2.73,2.74,2.73s2.74-1.23,2.74-2.74c0-4.06-5.46-7.17-5.48-7.18,0,0-5.48,3.12-5.48,7.18Z"/><path class="cls-2" d="M43.33,23.14c0-3.53-2.86-6.4-6.4-6.4s-6.38,2.85-6.4,6.37c-.01-3.52-2.87-6.37-6.4-6.37s-6.4,2.86-6.4,6.4c0,9.47,12.73,16.73,12.79,16.76,0,0,12.79-7.29,12.79-16.76Z"/><path class="cls-2" d="M43.33,103.14c0-3.53-2.86-6.4-6.4-6.4s-6.38,2.85-6.4,6.37c-.01-3.52-2.87-6.37-6.4-6.37s-6.4,2.86-6.4,6.4c0,9.47,12.73,16.73,12.79,16.76,0,0,12.79-7.29,12.79-16.76Z"/><path class="cls-2" d="M83.33,23.14c0-3.53-2.86-6.4-6.4-6.4s-6.38,2.85-6.4,6.37c-.01-3.52-2.87-6.37-6.4-6.37s-6.4,2.86-6.4,6.4c0,9.47,12.73,16.73,12.79,16.76,0,0,12.79-7.29,12.79-16.76Z"/><path class="cls-2" d="M83.33,103.14c0-3.53-2.86-6.4-6.4-6.4s-6.38,2.85-6.4,6.37c-.01-3.52-2.87-6.37-6.4-6.37s-6.4,2.86-6.4,6.4c0,9.47,12.73,16.73,12.79,16.76,0,0,12.79-7.29,12.79-16.76Z"/></g></g></svg>