<?xml version="1.0" encoding="UTF-8"?><svg id="Layer_2" xmlns="http://www.w3.org/2000/svg" viewBox="0 0 101.07 140"><defs><style>.cls-1{fill:#fff;}.cls-2{fill:#c4161c;}</style></defs><g id="cards"><g><path class="cls-1" d="M98.04,0s-29.21,.79-47.5,.79S3.03,0,3.03,0C1.36-.04,0,1.28,0,2.95V135.9c0,1.67,1.36,3.08,3.03,3.13,0,0,29.21,.97,47.5,.97s47.5-.97,47.5-.97c1.67-.06,3.03-1.47,3.03-3.13V2.95c0-1.67-1.36-2.99-3.03-2.95Z"/><path class="cls-2" d="M9.52,8.33l2.19-2.96h-2.18c-.59,0-.88,.19-.88,.58,0,.1,.01,.26,.03,.49,.02,.15,.02,.3,.02,.45,0,.47-.16,.71-.48,.71s-.46-.21-.46-.62c0-.13,0-.35,.03-.67,.03-.29,.04-.52,.03-.68l-.06-.78c0-.42,.13-.62,.39-.62,.14,0,.33,.01,.57,.04,.28,.03,.47,.04,.57,.04h2.29l.98-.09h.07c.41,0,.61,.17,.61,.52,0,.18-.11,.42-.33,.71l-1.97,2.51h.16c.66,0,1.19,.25,1.6,.75,.41,.5,.61,1.17,.61,1.99,0,1.03-.28,1.86-.85,2.5-.57,.64-1.3,.96-2.2,.96-.82,0-1.51-.26-2.07-.78-.56-.52-.83-1.17-.83-1.94,0-.48,.1-.88,.31-1.2,.21-.31,.47-.47,.79-.47,.5,0,.75,.28,.75,.84,0,.49-.19,.74-.57,.74h-.22v.16c0,.44,.18,.82,.54,1.13,.36,.32,.78,.48,1.28,.48,.58,0,1.06-.23,1.44-.69,.38-.46,.57-1.04,.57-1.74,0-.54-.14-.97-.41-1.28-.28-.31-.66-.47-1.14-.47-.15,0-.32,.02-.49,.07-.27,.07-.43,.11-.48,.11-.26,0-.39-.13-.39-.39,0-.08,.06-.2,.19-.38Z"/><path class="cls-2" d="M91.34,130.62l-2.19,2.96h2.18c.59,0,.88-.19,.88-.58,0-.1-.01-.26-.03-.49-.02-.15-.02-.3-.02-.45,0-.47,.16-.71,.48-.71s.46,.21,.46,.62c0,.13,0,.35-.03,.67-.03,.29-.04,.52-.03,.68l.06,.78c0,.42-.13,.62-.39,.62-.14,0-.33-.01-.57-.04-.28-.03-.47-.04-.57-.04h-2.29l-.98,.09h-.07c-.41,0-.61-.17-.61-.52,0-.18,.11-.42,.33-.71l1.97-2.51h-.16c-.66,0-1.19-.25-1.6-.75-.41-.5-.61-1.17-.61-1.99,0-1.03,.28-1.86,.85-2.5,.57-.64,1.3-.96,2.2-.96,.82,0,1.51,.26,2.07,.78,.56,.52,.83,1.17,.83,1.94,0,.48-.1,.88-.31,1.2-.21,.31-.47,.47-.79,.47-.5,0-.75-.28-.75-.84,0-.49,.19-.74,.57-.74h.22v-.16c0-.44-.18-.82-.54-1.13-.36-.32-.78-.48-1.28-.48-.58,0-1.06,.23-1.44,.69-.38,.46-.57,1.04-.57,1.74,0,.54,.14,.97,.41,1.28,.28,.31,.66,.47,1.14,.47,.15,0,.32-.02,.49-.07,.27-.07,.43-.11,.48-.11,.26,0,.39,.13,.39,.39,0,.08-.06,.2-.19,.38Z"/><path class="cls-2" d="M63.35,63.14c0-3.53-2.86-6.4-6.4-6.4s-6.38,2.85-6.4,6.37c-.01-3.52-2.87-6.37-6.4-6.37s-6.4,2.86-6.4,6.4c0,9.47,12.73,16.73,12.79,16.76,0,0,12.79-7.29,12.79-16.76Z"/><path class="cls-2" d="M15.75,21.05c0-1.51-1.23-2.74-2.74-2.74s-2.74,1.22-2.74,2.73c0-1.51-1.23-2.73-2.74-2.73s-2.74,1.23-2.74,2.74c0,4.06,5.46,7.17,5.48,7.18,0,0,5.48-3.12,5.48-7.18Z"/><path class="cls-2" d="M85.11,117.9c0,1.51,1.23,2.74,2.74,2.74s2.73-1.22,2.74-2.73c0,1.51,1.23,2.73,2.74,2.73s2.74-1.23,2.74-2.74c0-4.06-5.46-7.17-5.48-7.18,0,0-5.48,3.12-5.48,7.18Z"/><path class="cls-2" d="M63.35,23.14c0-3.53-2.86-6.4-6.4-6.4s-6.38,2.85-6.4,6.37c-.01-3.52-2.87-6.37-6.4-6.37s-6.4,2.86-6.4,6.4c0,9.47,12.73,16.73,12.79,16.76,0,0,12.79-7.29,12.79-16.76Z"/><path class="cls-2" d="M63.35,103.14c0-3.53-2.86-6.4-6.4-6.4s-6.38,2.85-6.4,6.37c-.01-3.52-2.87-6.37-6.4-6.37s-6.4,2.86-6.4,6.4c0,9.47,12.73,16.73,12.79,16.76,0,0,12.79-7.29,12.79-16.76Z"/></g></g></svg>