<?xml version="1.0" encoding="UTF-8"?><svg id="Layer_2" xmlns="http://www.w3.org/2000/svg" viewBox="0 0 101.07 140"><defs><style>.cls-1{fill:#fff;}.cls-2{fill:#c4161c;}</style></defs><g id="cards"><g><path class="cls-1" d="M98.04,0s-29.21,.79-47.5,.79S3.03,0,3.03,0C1.36-.04,0,1.28,0,2.95V135.9c0,1.67,1.36,3.08,3.03,3.13,0,0,29.21,.97,47.5,.97s47.5-.97,47.5-.97c1.67-.06,3.03-1.47,3.03-3.13V2.95c0-1.67-1.36-2.99-3.03-2.95Z"/><path class="cls-2" d="M10.61,5.06c-.64,0-1.15,.33-1.54,.99-.39,.66-.61,1.56-.66,2.71,.38-.47,.73-.81,1.06-1,.33-.19,.72-.29,1.17-.29,.78,0,1.42,.3,1.92,.91,.5,.6,.75,1.38,.75,2.33,0,1-.27,1.82-.81,2.47-.54,.65-1.23,.97-2.06,.97-.51,0-.99-.14-1.44-.43-.44-.29-.78-.67-1-1.15-.43-.93-.64-2.06-.64-3.38,0-1.5,.3-2.72,.91-3.67,.61-.95,1.4-1.42,2.36-1.42,.62,0,1.14,.2,1.57,.6s.64,.9,.64,1.49c0,.65-.24,.97-.73,.97-.19,0-.35-.07-.48-.21-.13-.14-.19-.32-.19-.53,0-.25,.11-.46,.33-.63-.23-.48-.62-.72-1.18-.72Zm-.14,3.45c-.52,0-.96,.21-1.3,.62-.34,.41-.52,.93-.52,1.54,0,.69,.17,1.26,.52,1.73,.35,.46,.78,.7,1.29,.7s.94-.23,1.27-.67c.33-.45,.5-1.02,.5-1.7s-.16-1.19-.49-1.6c-.32-.41-.75-.61-1.28-.61Z"/><path class="cls-2" d="M90.25,133.88c.64,0,1.15-.33,1.54-.99,.39-.66,.61-1.56,.66-2.71-.38,.47-.73,.81-1.06,1-.33,.19-.72,.29-1.17,.29-.78,0-1.42-.3-1.92-.91-.5-.6-.75-1.38-.75-2.33,0-1,.27-1.82,.81-2.47,.54-.65,1.23-.97,2.06-.97,.51,0,.99,.14,1.44,.43,.44,.29,.78,.67,1,1.15,.43,.93,.64,2.06,.64,3.38,0,1.5-.3,2.72-.91,3.67-.61,.95-1.4,1.42-2.36,1.42-.62,0-1.14-.2-1.57-.6-.43-.4-.64-.9-.64-1.49,0-.65,.24-.97,.73-.97,.19,0,.35,.07,.48,.21,.13,.14,.19,.32,.19,.53,0,.25-.11,.46-.33,.63,.23,.48,.62,.72,1.18,.72Zm.14-3.45c.52,0,.96-.21,1.3-.62,.34-.41,.52-.93,.52-1.54,0-.69-.17-1.26-.52-1.73-.35-.46-.78-.7-1.29-.7s-.94,.23-1.27,.67c-.33,.45-.5,1.02-.5,1.7s.16,1.19,.49,1.6c.32,.41,.75,.61,1.28,.61Z"/><path class="cls-2" d="M15.75,21.05c0-1.51-1.23-2.74-2.74-2.74s-2.74,1.22-2.74,2.73c0-1.51-1.23-2.73-2.74-2.73s-2.74,1.23-2.74,2.74c0,4.06,5.46,7.17,5.48,7.18,0,0,5.48-3.12,5.48-7.18Z"/><path class="cls-2" d="M85.11,117.9c0,1.51,1.23,2.74,2.74,2.74s2.74-1.22,2.74-2.73c0,1.51,1.23,2.73,2.74,2.73s2.74-1.23,2.74-2.74c0-4.06-5.46-7.17-5.48-7.18,0,0-5.48,3.12-5.48,7.18Z"/><path class="cls-2" d="M43.29,63.14c0-3.53-2.86-6.4-6.4-6.4s-6.38,2.85-6.4,6.37c-.01-3.52-2.87-6.37-6.4-6.37s-6.4,2.86-6.4,6.4c0,9.47,12.73,16.73,12.79,16.76,0,0,12.79-7.29,12.79-16.76Z"/><path class="cls-2" d="M43.29,23.14c0-3.53-2.86-6.4-6.4-6.4s-6.38,2.85-6.4,6.37c-.01-3.52-2.87-6.37-6.4-6.37s-6.4,2.86-6.4,6.4c0,9.47,12.73,16.73,12.79,16.76,0,0,12.79-7.29,12.79-16.76Z"/><path class="cls-2" d="M43.29,103.14c0-3.53-2.86-6.4-6.4-6.4s-6.38,2.85-6.4,6.37c-.01-3.52-2.87-6.37-6.4-6.37s-6.4,2.86-6.4,6.4c0,9.47,12.73,16.73,12.79,16.76,0,0,12.79-7.29,12.79-16.76Z"/><path class="cls-2" d="M83.29,63.14c0-3.53-2.86-6.4-6.4-6.4s-6.38,2.85-6.4,6.37c-.01-3.52-2.87-6.37-6.4-6.37s-6.4,2.86-6.4,6.4c0,9.47,12.73,16.73,12.79,16.76,0,0,12.79-7.29,12.79-16.76Z"/><path class="cls-2" d="M83.29,23.14c0-3.53-2.86-6.4-6.4-6.4s-6.38,2.85-6.4,6.37c-.01-3.52-2.87-6.37-6.4-6.37s-6.4,2.86-6.4,6.4c0,9.47,12.73,16.73,12.79,16.76,0,0,12.79-7.29,12.79-16.76Z"/><path class="cls-2" d="M83.29,103.14c0-3.53-2.86-6.4-6.4-6.4s-6.38,2.85-6.4,6.37c-.01-3.52-2.87-6.37-6.4-6.37s-6.4,2.86-6.4,6.4c0,9.47,12.73,16.73,12.79,16.76,0,0,12.79-7.29,12.79-16.76Z"/></g></g></svg>