<?xml version="1.0" encoding="UTF-8"?><svg id="Layer_2" xmlns="http://www.w3.org/2000/svg" viewBox="0 0 101.07 140"><defs><style>.cls-1{fill:#fff;}.cls-2{fill:#c4161c;}</style></defs><g id="cards"><g><path class="cls-1" d="M98.04,0s-29.21,.79-47.5,.79S3.03,0,3.03,0C1.37-.04,0,1.28,0,2.95V135.9c0,1.67,1.36,3.08,3.03,3.13,0,0,29.21,.97,47.5,.97s47.5-.97,47.5-.97c1.67-.06,3.03-1.47,3.03-3.13V2.95c0-1.67-1.36-2.99-3.03-2.95Z"/><path class="cls-2" d="M7.96,11.03l1.68-6.14c.09-.29,.16-.47,.22-.55,.11-.16,.27-.25,.49-.25,.27,0,.45,.07,.55,.2,.1,.13,.22,.49,.36,1.08l1.67,6.63c.12,.42,.21,.69,.29,.82,.08,.13,.18,.2,.32,.2,.04,0,.13-.01,.26-.04,.03,0,.06,0,.1-.02h.07c.31,0,.46,.17,.46,.5,0,.38-.16,.57-.49,.57-.04,0-.26-.04-.67-.12-.2-.04-.42-.06-.64-.06-.17,0-.41,.03-.72,.09-.3,.06-.51,.09-.62,.09-.14,0-.26-.05-.36-.16-.11-.11-.16-.24-.16-.4,0-.34,.16-.51,.48-.51h.3c.22,0,.33-.15,.33-.46,0-.16-.03-.36-.09-.6l-.26-1.05c-.04-.15-.08-.24-.12-.28-.04-.03-.12-.05-.25-.05h-1.76c-.2,0-.35,.17-.44,.5l-.26,1.02c-.07,.27-.1,.48-.1,.64,0,.18,.09,.27,.26,.27h.33c.31,0,.46,.17,.46,.52,0,.37-.16,.55-.48,.55-.13,0-.32-.03-.59-.09-.27-.06-.48-.09-.64-.09-.21,0-.46,.03-.75,.09-.29,.06-.49,.09-.61,.09-.35,0-.52-.18-.52-.54s.15-.53,.45-.53c.06,0,.14,.01,.23,.04,.1,.02,.17,.04,.22,.04,.15,0,.3-.15,.44-.44,.14-.29,.31-.81,.52-1.57Zm3.23-1.83l-.8-3.57-.93,3.57c-.02,.08-.03,.13-.03,.16,0,.13,.09,.19,.28,.19h1.26c.16,0,.25-.06,.25-.17,0-.03,0-.09-.03-.17Z"/><path class="cls-2" d="M92.9,127.92l-1.68,6.14c-.09,.29-.16,.47-.22,.55-.11,.16-.27,.25-.49,.25-.27,0-.45-.07-.55-.2-.1-.13-.22-.49-.36-1.08l-1.67-6.63c-.12-.42-.21-.69-.29-.82-.08-.13-.18-.2-.32-.2-.04,0-.13,.01-.26,.04-.03,0-.06,0-.1,.02h-.07c-.31,0-.46-.17-.46-.5,0-.38,.16-.57,.49-.57,.04,0,.26,.04,.67,.12,.2,.04,.42,.06,.64,.06,.17,0,.41-.03,.72-.09,.3-.06,.51-.09,.62-.09,.14,0,.26,.05,.36,.16,.11,.11,.16,.24,.16,.4,0,.34-.16,.51-.48,.51h-.3c-.22,0-.33,.15-.33,.46,0,.16,.03,.36,.09,.6l.26,1.05c.04,.15,.08,.24,.12,.28,.04,.03,.12,.05,.25,.05h1.76c.2,0,.35-.17,.44-.5l.26-1.02c.07-.27,.1-.48,.1-.64,0-.18-.09-.27-.26-.27h-.33c-.31,0-.46-.17-.46-.52,0-.37,.16-.55,.48-.55,.13,0,.32,.03,.59,.09,.27,.06,.48,.09,.64,.09,.21,0,.46-.03,.75-.09,.29-.06,.49-.09,.61-.09,.35,0,.52,.18,.52,.54s-.15,.53-.45,.53c-.06,0-.14-.01-.23-.04-.1-.02-.17-.04-.22-.04-.15,0-.3,.14-.44,.43-.14,.29-.31,.81-.52,1.57Zm-3.23,1.83l.8,3.57,.93-3.57c.02-.08,.03-.13,.03-.16,0-.13-.09-.19-.28-.19h-1.26c-.16,0-.25,.06-.25,.17,0,.03,0,.09,.03,.17Z"/><path class="cls-2" d="M68.83,60.92c0-5.05-4.09-9.14-9.14-9.14s-9.12,4.07-9.14,9.1c-.02-5.03-4.1-9.1-9.14-9.1s-9.14,4.09-9.14,9.14c0,13.53,18.19,23.89,18.28,23.94,0,0,18.28-10.41,18.28-23.94Z"/><path class="cls-2" d="M15.75,21.05c0-1.51-1.23-2.74-2.74-2.74s-2.74,1.22-2.74,2.73c0-1.51-1.23-2.73-2.74-2.73s-2.74,1.23-2.74,2.74c0,4.06,5.46,7.17,5.48,7.18,0,0,5.48-3.12,5.48-7.18Z"/><path class="cls-2" d="M85.11,117.9c0,1.51,1.23,2.74,2.74,2.74s2.74-1.22,2.74-2.73c0,1.51,1.23,2.73,2.74,2.73s2.74-1.23,2.74-2.74c0-4.06-5.46-7.17-5.48-7.18,0,0-5.48,3.12-5.48,7.18Z"/></g></g></svg>