<?xml version="1.0" encoding="UTF-8"?><svg id="Layer_2" xmlns="http://www.w3.org/2000/svg" viewBox="0 0 101.07 140"><defs><style>.cls-1{fill:#fff;}.cls-2,.cls-3{fill:#c4161c;}.cls-4{fill:#231f20;}.cls-4,.cls-3{fill-rule:evenodd;}</style></defs><g id="cards"><g><path class="cls-1" d="M98.04,0s-29.21,.79-47.5,.79S3.03,0,3.03,0C1.37-.04,0,1.28,0,2.95V135.9c0,1.67,1.37,3.08,3.03,3.13,0,0,29.21,.97,47.5,.97s47.5-.97,47.5-.97c1.67-.06,3.03-1.47,3.03-3.13V2.95c0-1.67-1.36-2.99-3.03-2.95Z"/><path class="cls-2" d="M8.4,10.5c0-.14,.05-.29,.15-.44-.39,.19-.58,.57-.58,1.12s.14,1.01,.43,1.35c.29,.34,.66,.51,1.13,.51,.34,0,.65-.1,.94-.3,.29-.2,.5-.47,.62-.8,.12-.3,.19-.59,.22-.87,.03-.28,.04-.85,.04-1.71v-1.61c0-.97,0-1.45,0-1.44-.05-.73-.19-1.1-.42-1.1-.06,0-.14,.01-.24,.04-.1,.03-.18,.04-.24,.04-.14,0-.25-.05-.34-.15-.09-.1-.14-.22-.14-.35,0-.16,.05-.29,.16-.4,.11-.11,.24-.17,.39-.17,.15,0,.36,.03,.65,.08,.29,.05,.51,.08,.66,.08,.17,0,.42-.03,.73-.08,.31-.05,.53-.08,.67-.08,.15,0,.29,.06,.39,.17,.11,.11,.16,.25,.16,.4,0,.14-.05,.25-.14,.35-.09,.1-.21,.15-.34,.15-.03,0-.1-.01-.2-.04s-.2-.04-.28-.04c-.23,0-.37,.37-.42,1.1,0,0,0,.47,0,1.44v2.63c0,1.23-.27,2.16-.82,2.81-.55,.64-1.24,.96-2.07,.96-.74,0-1.35-.27-1.82-.82s-.7-1.25-.7-2.1c0-.63,.15-1.15,.45-1.55,.3-.41,.68-.61,1.13-.61,.31,0,.57,.11,.78,.34,.21,.23,.32,.52,.32,.86,0,.26-.06,.47-.19,.64-.13,.16-.29,.25-.49,.25-.39,0-.58-.22-.58-.65Z"/><path class="cls-2" d="M92.46,128.44c0,.15-.05,.29-.14,.44,.39-.19,.58-.57,.58-1.12s-.14-1.01-.43-1.35c-.29-.34-.66-.51-1.13-.51-.34,0-.65,.1-.94,.3-.29,.2-.5,.47-.62,.8-.12,.3-.19,.59-.22,.87-.03,.28-.04,.85-.04,1.71v1.61c0,.97,0,1.45,0,1.44,.05,.73,.19,1.1,.42,1.1,.06,0,.14-.01,.24-.04,.1-.03,.18-.04,.24-.04,.14,0,.25,.05,.34,.15,.09,.1,.14,.22,.14,.35,0,.16-.05,.29-.16,.4-.11,.11-.24,.17-.39,.17-.14,0-.36-.03-.65-.08-.29-.05-.51-.08-.66-.08-.17,0-.42,.03-.73,.08-.31,.05-.53,.08-.67,.08-.15,0-.29-.06-.39-.17-.11-.11-.16-.25-.16-.4,0-.14,.05-.25,.14-.35,.09-.1,.21-.15,.34-.15,.03,0,.1,.01,.2,.04,.11,.03,.2,.04,.28,.04,.23,0,.37-.37,.42-1.1,0,0,0-.47,0-1.44v-2.63c0-1.23,.27-2.16,.82-2.81,.55-.64,1.24-.96,2.07-.96,.74,0,1.35,.27,1.82,.82,.47,.55,.7,1.25,.7,2.1,0,.63-.15,1.15-.45,1.55-.3,.41-.68,.61-1.13,.61-.31,0-.57-.11-.78-.34-.21-.23-.32-.52-.32-.86,0-.26,.06-.47,.19-.64,.13-.16,.29-.25,.49-.25,.39,0,.58,.22,.58,.65Z"/><path class="cls-2" d="M15.75,21.05c0-1.51-1.23-2.74-2.74-2.74s-2.74,1.22-2.74,2.73c0-1.51-1.23-2.73-2.74-2.73s-2.74,1.23-2.74,2.74c0,4.06,5.46,7.17,5.48,7.18,0,0,5.48-3.12,5.48-7.18Z"/><path class="cls-2" d="M85.11,117.9c0,1.51,1.23,2.74,2.74,2.74s2.74-1.22,2.74-2.73c0,1.51,1.23,2.73,2.74,2.73s2.74-1.23,2.74-2.74c0-4.06-5.46-7.17-5.48-7.18,0,0-5.48,3.12-5.48,7.18Z"/><g><path class="cls-3" d="M39.92,14.42c.76,1.43,1.55,2.83,2.37,4.21,1.48-.37,3.23-.46,5.13-.39-.21-1.46-.92-2.42-1.18-3.82h1.71c.3,1.32,.77,2.47,1.18,3.69,1.74-.07,4.29,.07,6.06,.39,.74-1.1,.93-2.76,1.45-4.08h1.84c-.47,1.37-.75,2.94-1.18,4.34,1.68,.47,3.53,.77,5.13,1.32,1.54-1.58,2.46-3.77,3.69-5.66h1.71c-1.43,2.3-2.69,4.77-4.21,6.98-4.69-1.31-11.27-2.34-17.64-1.98-1.13,.06-2.6,.6-3.29,.39-.77-.22-1.59-2.05-1.98-2.63-.62-.92-1.23-1.76-1.84-2.63,.1-.3,.74-.05,1.05-.13Z"/><path class="cls-3" d="M41.37,14.42h3.29c.36,.86,.79,1.67,1.05,2.63-.93,.12-1.84,.27-2.9,.26-.48-.97-.97-1.93-1.45-2.9Z"/><path class="cls-3" d="M49.4,14.42h5.79c-.18,1.01-.39,1.98-.79,2.76-1.43-.06-2.81-.18-4.21-.26-.17-.93-.51-1.68-.79-2.5Z"/><path class="cls-3" d="M59.8,14.42h4.48c-.68,1.56-1.54,2.94-2.37,4.34-.88-.48-2.12-.6-3.03-1.05,.21-1.2,.68-2.13,.92-3.29Z"/><path class="cls-3" d="M79.28,19.95c.15-.02,.23,.03,.26,.13-.56,.98-1.79,1.98-2.5,2.37,.43-1.15,1.48-1.68,2.24-2.5Z"/><path class="cls-3" d="M79.54,21.13c-.48,1.19-1.59,1.74-2.5,2.5,.33-1.25,1.73-2.13,2.5-2.5Z"/><path class="cls-3" d="M76.25,21.53c-.09,.57,.17,1.49-.13,1.84,.09-.57-.17-1.49,.13-1.84Z"/><path class="cls-3" d="M79.54,22.32c-.55,.99-1.74,2.03-2.5,2.37,.45-1.09,1.66-2.12,2.5-2.37Z"/><path class="cls-3" d="M79.54,23.37c-.47,1.19-1.55,1.79-2.5,2.5,.43-1.24,1.47-1.86,2.5-2.5Z"/><path class="cls-3" d="M79.54,24.55c-.5,1.17-1.59,1.74-2.5,2.5,.33-1.25,1.72-2.14,2.5-2.5Z"/><path class="cls-3" d="M79.54,25.74c-.53,1.01-1.77,2-2.5,2.37,.44-1.1,1.64-2.13,2.5-2.37Z"/><path class="cls-3" d="M71.25,25.87h3.82c-.97,.22-2.85,.22-3.82,0Z"/><path class="cls-3" d="M79.54,26.79c-.47,1.2-1.57,1.77-2.5,2.5,.37-1.21,1.74-2.12,2.5-2.5Z"/><path class="cls-3" d="M70.86,26.79h4.48c-1.19,.22-3.29,.22-4.48,0Z"/><path class="cls-3" d="M71.12,27.84h2.5c-.53,.22-1.97,.22-2.5,0Z"/><path class="cls-3" d="M79.54,27.98c-.52,1.15-1.59,1.75-2.5,2.5,.33-1.25,1.72-2.14,2.5-2.5Z"/><path class="cls-4" d="M44.79,29.16c.67-.46,.75,.93,.53,1.45-.76,.65-1.79,.18-2.37-.4-.49-.14-.21,.49-.66,.4-.27-.3-.13-1.01,.13-1.18,1.27-.22,1.27,.83,2.11,1.05,.45,.06,.4-.39,.66-.53-.1-.29-.08-.71-.39-.79Z"/><path class="cls-3" d="M79.54,29.16c-.56,.98-1.75,2.02-2.5,2.37,.45-1.08,1.62-2.16,2.5-2.37Z"/><path class="cls-3" d="M79.54,30.21c-.47,1.19-1.58,1.75-2.5,2.5,.35-1.23,1.74-2.12,2.5-2.5Z"/><path class="cls-4" d="M44.39,32.58c.32-2.65,3.87,1.59,4.34-.26,.13-.52-.14-.91-.66-1.05,.45-.6,1.15,.36,1.18,.79,.22,2.54-3.58,.34-4.87,.53Z"/><path class="cls-3" d="M79.54,31.4c-.47,1.16-1.63,1.62-2.37,2.5-.09-1.1,1.66-2.2,2.37-2.5Z"/><path class="cls-3" d="M79.54,32.58c-.57,.97-1.76,2.01-2.5,2.37,.43-1.11,1.63-2.14,2.5-2.37Z"/><path class="cls-3" d="M76.12,32.85v1.71c-.22-.27-.22-1.44,0-1.71Z"/><path class="cls-3" d="M79.54,33.64c-.47,1.19-1.58,1.75-2.5,2.5,.34-1.24,1.74-2.12,2.5-2.5Z"/><path class="cls-3" d="M79.54,34.82c-.48,1.14-1.64,1.61-2.37,2.5-.08-1.09,1.64-2.22,2.37-2.5Z"/><path class="cls-3" d="M76.12,35.35c-.09,.66,.17,1.66-.13,2.11,.09-.66-.17-1.66,.13-2.11Z"/><path class="cls-3" d="M79.54,36.01c-.56,.98-1.79,1.98-2.5,2.37,.41-1.12,1.62-2.15,2.5-2.37Z"/><path class="cls-3" d="M79.54,37.06c-.48,1.19-1.59,1.74-2.5,2.5,.33-1.25,1.73-2.13,2.5-2.5Z"/><path class="cls-3" d="M79.54,38.24c-.48,1.14-1.65,1.6-2.37,2.5-.08-1.09,1.64-2.22,2.37-2.5Z"/><path class="cls-3" d="M75.99,38.64c.22,.27,.22,1.44,0,1.71v-1.71Z"/><path class="cls-3" d="M64.67,38.77c.35,.31,.79,.52,.92,1.05-4.65,7.24-9.21,14.57-13.69,21.98-.17-.18-.57-.13-.92-.13,3.68-6.06,7.39-12.09,11.06-18.17-1.1-.39-3.11,.13-4.21-.26,1.36-.09,3.07,.18,4.21-.13,1.02-1.1,2.08-2.83,2.5-4.08,.1-.03,.15-.11,.13-.26Z"/><path class="cls-3" d="M79.54,39.3c-.47,1.19-1.55,1.79-2.5,2.5,.43-1.24,1.47-1.86,2.5-2.5Z"/><path class="cls-3" d="M79.54,40.48c-.5,1.17-1.59,1.74-2.5,2.5,.33-1.25,1.73-2.13,2.5-2.5Z"/><path class="cls-3" d="M79.54,41.67c-.55,.99-1.74,2.03-2.5,2.37,.44-1.1,1.64-2.13,2.5-2.37Z"/><path class="cls-3" d="M79.54,42.72c-.45,1.09-1.34,1.74-2.37,2.24,.47-.98,1.63-1.96,2.37-2.24Z"/><path class="cls-3" d="M45.97,43.25h11.58c-3.55,.22-8.03,.22-11.58,0Z"/><path class="cls-3" d="M79.54,43.91c-.27,.76-1.01,1.68-1.71,1.58-.04-.55,1.24-1.55,1.71-1.58Z"/><path class="cls-3" d="M79.54,45.09c-.05,.57-.59,1.18-1.05,.92,.15-.43,.7-1.14,1.05-.92Z"/><path class="cls-3" d="M69.01,72.73c1.51-4.56,1.29-11.6-.39-16.19-.28-.77-.82-1.82-1.32-2.76-.48-.92-1.44-2.17-1.45-2.63-.03-1.38,2.07-2.56,2.11-3.82,3,2.1,5.94,6.89,7.11,11.72,.33,1.34,.98,4.22,.66,5.4-.25,.89-3,3.03-3.69,3.82-1.27,1.46-2.2,2.79-3.03,4.48Z"/><path class="cls-3" d="M29.78,48.51c-.08,.49,.17,1.31-.13,1.58,.08-.49-.17-1.31,.13-1.58Z"/><path class="cls-3" d="M27.68,50.22c.87,3.74-2.31,6.33-6.19,6.58,1.8-2.46,4.02-4.49,6.19-6.58Z"/><path class="cls-3" d="M35.71,52.46c.44,1.23,1.56,2.63,1.45,3.82-.16,1.7-2.85,2.69-3.03,4.48,.38-2.38,1.41-5.26,1.58-8.29Z"/><path class="cls-3" d="M27.41,54.17c.22,1.1-.49,2.41-.79,3.42-1.55,.34-4.19,1.22-5.27-.13,2.76-.35,4.77-1.46,6.06-3.29Z"/><path class="cls-3" d="M26.1,58.12c.5,.48-.59,1.58-.79,2.24-1.79-.19-3.56-.39-3.95-1.97,1.45,.4,3.55,.34,4.74-.26Z"/><path class="cls-3" d="M57.03,59.31c.27-.3,1.09-.05,1.58-.13-.27,.3-1.09,.05-1.58,.13Z"/><path class="cls-3" d="M21.36,59.7c1.03,.55,2.19,.97,3.55,1.19-.26,.62-.61,1.14-1.05,1.58-1.11-.65-2.39-1.12-2.5-2.76Z"/><path class="cls-3" d="M21.36,61.41c.83,.36,1.26,1.11,2.11,1.45-.17,.66-.6,1.07-1.18,1.32-.65-.58-1.13-1.33-.92-2.76Z"/><path class="cls-3" d="M21.36,64.05c.39,0,.49,.3,.66,.53-.06,.38-.28,.6-.66,.66v-1.19Z"/><path class="cls-3" d="M65.98,64.7c.22,.14,.22,1.17,0,1.32v-1.32Z"/><path class="cls-3" d="M31.89,65.23c-2.22,6.97-.67,17,3.16,21.46-.5,1.52-1.58,2.46-2.11,3.95-4.51-3.82-7.44-9.23-7.77-17.25,2.54-2.42,5.04-4.88,6.71-8.16Z"/><path class="cls-4" d="M46.9,67.6c.99-.21,1.36,.4,1.45,1.05,.25,1.87-2.63,2.41-2.5,.13,.03-.55,.26-1.02,1.05-1.18Zm.26,2.37c1.15-.08,.96-2.63-.39-1.97-.85,.41-.61,2.04,.39,1.97Z"/><path class="cls-4" d="M54.93,68c.99,2.71-2.54,2.85-2.24,.66,.14-1.02,1.4-1.58,2.24-.66Zm-1.05,1.97c1.24,.04,1.17-2.52-.26-1.97-.92,.35-.7,1.94,.26,1.97Z"/><path class="cls-3" d="M46.76,68c1.36-.66,1.54,1.9,.39,1.97-1,.07-1.24-1.57-.39-1.97Z"/><path class="cls-3" d="M53.61,68c1.44-.54,1.51,2.02,.26,1.97-.97-.03-1.18-1.63-.26-1.97Z"/><path class="cls-3" d="M35.31,72.08v1.58c-.22-.23-.22-1.35,0-1.58Z"/><path class="cls-3" d="M79.28,72.73c.53-.05,.15,.82,.26,1.19-.39,0-.49-.3-.66-.53-.06-.41,.35-.35,.39-.66Z"/><path class="cls-3" d="M78.36,73.66c.85,.51,1.41,1.31,1.18,2.9-.83-.36-1.19-1.18-2.11-1.45,.06-.73,.65-.93,.92-1.45Z"/><path class="cls-3" d="M76.91,75.37c1.15,.65,2.45,1.15,2.63,2.76-.87-.16-2.06-1.09-3.55-1.05,.13-.74,.75-1.01,.92-1.71Z"/><path class="cls-3" d="M79.54,79.45c-1.41-.21-3.4-.23-5,.26,.28-.78,.63-1.48,1.05-2.11,1.4,0,3.61,.33,3.95,1.84Z"/><path class="cls-3" d="M79.54,80.5c-2.95,.04-4.78,1.89-6.19,3.03,.15-1.13,.52-2.03,.79-3.03,1.22-.6,4.46-1.47,5.4,0Z"/><path class="cls-3" d="M79.41,81.03c-1.88,2.5-3.97,4.8-6.45,6.71-.22-4.61,2.7-6.08,6.45-6.71Z"/><path class="cls-3" d="M71.64,87.74v1.19c-.17,.37-.25-1.13,0-1.19Z"/><path class="cls-3" d="M21.75,91.3c.04,.34-.05,.57-.4,.53-.04-.34,.05-.57,.4-.53Z"/><path class="cls-3" d="M22.41,91.96c-.19,.51-.54,.86-1.05,1.05-.03-.69,.58-1.3,1.05-1.05Z"/><path class="cls-3" d="M23.07,92.61c-.49,.5-1.1,1.5-1.71,1.45,.24-.69,1.16-1.93,1.71-1.45Z"/><path class="cls-3" d="M23.73,93.01c-.54,.99-1.4,1.67-2.37,2.24,.49-1.04,1.25-1.83,2.37-2.24Z"/><path class="cls-3" d="M23.73,93.8c.06,1.2-1.51,1.91-2.37,2.63,.32-1.35,1.65-1.68,2.37-2.63Z"/><path class="cls-3" d="M23.86,95.11c-.48,1.07-1.72,2.04-2.5,2.37,.45-1.09,1.71-2.06,2.5-2.37Z"/><path class="cls-3" d="M24.91,95.51c-.09,1.36,.18,3.07-.13,4.21,.09-1.36-.17-3.07,.13-4.21Z"/><path class="cls-3" d="M23.73,96.04c.05,1.19-1.45,1.97-2.37,2.63,.4-1.27,1.66-1.68,2.37-2.63Z"/><path class="cls-3" d="M23.86,97.35c-.47,1.2-1.57,1.77-2.5,2.5,.35-1.23,1.74-2.12,2.5-2.5Z"/><path class="cls-3" d="M23.86,98.54c-.53,1.09-1.47,1.78-2.5,2.37,.45-1.09,1.69-2.08,2.5-2.37Z"/><path class="cls-3" d="M36.36,99.2c5.92,.09,12.2-.18,17.9,.13-5.92-.09-12.2,.18-17.9-.13Z"/><path class="cls-3" d="M23.73,99.46c.13,0,.1,.16,.13,.26-.58,1.05-1.57,1.68-2.5,2.37,.31-1.35,1.69-1.65,2.37-2.63Z"/><path class="cls-3" d="M23.86,100.78c-.5,1.05-1.72,2.04-2.5,2.37,.45-1.09,1.71-2.06,2.5-2.37Z"/><path class="cls-3" d="M23.73,101.7c.05,1.19-1.45,1.97-2.37,2.63,.39-1.28,1.65-1.69,2.37-2.63Z"/><path class="cls-3" d="M23.86,103.01c-.47,1.19-1.58,1.75-2.5,2.5,.35-1.23,1.74-2.12,2.5-2.5Z"/><path class="cls-3" d="M23.86,104.2c-.56,1.07-1.46,1.79-2.5,2.37,.45-1.09,1.69-2.08,2.5-2.37Z"/><path class="cls-4" d="M56.51,105.38c-.85,2.43-3.29-1.55-4.34,.26-.24,.73,.8,.86,.53,1.19-.56-.06-.83-.36-.92-.66-.67-2.23,2.59-1.79,3.55-.79,.58,0,.81-.49,1.18,0Z"/><path class="cls-3" d="M23.73,105.12c.03,1.18-1.46,1.96-2.37,2.63,.39-1.28,1.65-1.69,2.37-2.63Z"/><path class="cls-3" d="M23.86,106.44c-.48,1.19-1.59,1.74-2.5,2.5,.35-1.23,1.74-2.12,2.5-2.5Z"/><path class="cls-4" d="M58.74,107.49c.1,.63-.19,.87-.53,1.05-.95-.02-1.18-.75-1.71-1.18-.81,.03-.99,1.04-.4,1.45-1.89-.46,.72-3.07,1.71-1.19,.51,.12,.54-.51,.92-.13Z"/><path class="cls-3" d="M23.86,107.62c-.57,1.05-1.46,1.79-2.5,2.37,.46-1.08,1.67-2.1,2.5-2.37Z"/><path class="cls-3" d="M27.81,107.62c.49,.08,1.31-.17,1.58,.13-.49-.08-1.31,.17-1.58-.13Z"/><path class="cls-3" d="M45.45,108.28c.22,.18,.22,1.26,0,1.45v-1.45Z"/><path class="cls-3" d="M23.73,108.54c.05,1.19-1.49,1.93-2.37,2.63,.36-1.31,1.65-1.68,2.37-2.63Z"/><path class="cls-4" d="M53.21,109.33c1.71-.53,1.76,1.75,3.42,1.71,.06,.63-.67,.47-.66,1.05-.02,.85,.79,.88,.79,1.71-.78-.4-1.21,.45-1.97,.53-1.55,.17-3.01-1.01-3.69-2.11,1,.73,2.72,2.16,4.21,1.18-2.12,.3-3.46-1.15-4.48-2.37,.74-.13,1.05,.18,1.45,.39,.84-.22,1.25-.86,2.5-.66-.19-.82-.99-1.02-1.58-1.45Zm-.13,2.37c.21,.23,.49,.39,.79,.53,.2-.33,.47-.59,.53-1.05-.66-.04-1.22,0-1.32,.53Zm1.19,.66c.46,.01,.91-.66,.53-1.05-.17,.36-.59,.47-.53,1.05Z"/><path class="cls-3" d="M23.86,109.86c-.48,1.19-1.59,1.74-2.5,2.5,.33-1.25,1.73-2.13,2.5-2.5Z"/><path class="cls-3" d="M23.86,111.04c-.57,1.05-1.46,1.79-2.5,2.37,.47-1.07,1.64-2.13,2.5-2.37Z"/><path class="cls-3" d="M23.73,111.97c.06,1.2-1.51,1.91-2.37,2.63,.34-1.33,1.65-1.69,2.37-2.63Z"/><path class="cls-4" d="M50.71,113.02c1.51,1.31,3.26,2.1,6.19,1.71,.17,.32,.48,.48,.39,1.05-2.57,0-5.88-.19-6.58-2.76Z"/><path class="cls-3" d="M23.86,113.28c-.5,1.17-1.59,1.74-2.5,2.5,.33-1.25,1.73-2.13,2.5-2.5Z"/><path class="cls-3" d="M23.73,114.2c.06,1.2-1.44,1.98-2.37,2.63,.4-1.27,1.66-1.68,2.37-2.63Z"/><path class="cls-3" d="M23.73,115.39c.03,1.17-1.57,1.85-2.37,2.63,.32-1.35,1.65-1.68,2.37-2.63Z"/><path class="cls-3" d="M60.85,123.42c-.6-1.55-1.55-2.75-2.24-4.21-1.38,.51-3.27,.51-5.13,.53,.34,1.32,.89,2.44,1.32,3.69v.13c-.6-.06-1.45,.13-1.84-.13-.29-1.34-.8-2.44-1.18-3.69-2.06,.26-4.23-.03-6.06-.4-.74,1.1-.93,2.76-1.45,4.08-.37,.21-1.47,.21-1.84,0,.47-1.33,.71-2.88,1.19-4.21-1.66-.58-3.68-.8-5.27-1.45-1.26,1.77-2.39,3.67-3.42,5.66-.35,.26-1.15,.08-1.71,.13,1.09-2.6,2.75-4.63,3.95-7.11,5.8,1.7,14.07,2.84,21.19,1.58,1.23,1.84,2.58,3.56,3.69,5.53-.41-.03-.97,.09-1.19-.13Z"/><path class="cls-3" d="M41.1,123.42c-1.19,.21-3.28,.22-4.48,0,.83-1.45,1.48-3.08,2.5-4.34,.64,.67,1.97,.67,2.9,1.05-.19,1.21-.7,2.11-.92,3.29Z"/><path class="cls-3" d="M59.53,123.55h-3.29c-.25-1.02-.87-1.68-1.05-2.76,1.11,.06,1.88-.23,2.9-.26,.47,1.02,1.05,1.93,1.45,3.03Z"/><path class="cls-3" d="M51.37,123.42c-1.58,.22-4.08,.22-5.66,0,.25-.98,.39-2.07,.92-2.76,1.23,.17,2.5,.31,3.95,.26,.35,.75,.64,1.55,.79,2.5Z"/><path class="cls-4" d="M43.61,22.18c3.05-.27,5.71,.48,6.71,2.63-.91-.2-1.86-1.52-3.42-1.71-1.2-.14-3.27,.82-3.29-.92Z"/><path class="cls-3" d="M71.12,23.24c.12-.49,1.06-.17,1.58-.26-.26,.36-1.31-.08-1.58,.26Z"/><path class="cls-4" d="M45.58,24.42c2.16-.32,3.22,1.36,4.61,2.24-.36,.64-1.3,.01-1.58-.26-.7,.4-1.31,.89-2.5,.79-.01,.46,.96,1.06,1.58,1.32-1.75,.6-1.75-1.68-3.42-1.58-.11-.73,.72-.51,.66-1.19-.03-.8-.82-.85-.79-1.71,.25,.02,.44,.09,.53,.26,1.71-1.48,4.43-.06,5.27,1.32-.94-.27-2.57-2.17-4.34-1.18Zm.39,2.11c.47-.06,.63-.42,.66-.92-.59-.06-.66,.39-.66,.92Zm.66,.26c.56,.04,.87-.18,1.18-.4-.06-.47-.42-.63-.92-.66,.02,.47-.56,.72-.26,1.05Z"/><path class="cls-4" d="M20.3,13.23h60.42V124.6c-19.88,.22-40.68,.22-60.56,0V13.63c-.01-.19-.02-.37,.13-.39Zm2.37,40.68c-1.11-.47-.22-1.99-.4-2.9-.13-.66-.85-.75-.79-1.32,.67-.86,.19-.99,.13-2.24,.62-.59,.63-.98,.53-2.24,.64-.37,.82-1.2,1.18-1.84,.33-.11,.71-.17,1.19-.13,.53-.73,.5-1.39,.92-1.97,1.88-2.57,7.35-1.35,9.35-3.29-.1,2.43-.85,3.74-2.5,4.61-1.99,1.04-5.12,.19-6.45,2.11,2.57-.24,3.02,1.63,3.55,3.42,3.47-3.06,7.24-5.83,11.32-8.29-.58-2.93,1.88-4.02,3.69-3.03,.05-1.23-1.43-1.34-.79-2.76-.2-.24-.9,.02-.79-.53-.04-.61,.26-.88,.26-1.45-.73-.85-2.24-.94-2.37-2.11-.16-1.49,2.39-3.25,2.37-5.4-.01-1.17-.96-1.5-.66-3.03-1.62-2.38-3.25-4.74-4.87-7.11H21.36V55.88c.87-.86,2.29-1.81,2.37-3.03-.52,.19-.13,1.27-1.05,1.05ZM66.12,14.42h-26.2c-.32,.08-.96-.17-1.05,.13,.61,.87,1.23,1.71,1.84,2.63,.39,.58,1.2,2.41,1.98,2.63,.7,.2,2.16-.33,3.29-.39,6.37-.36,12.95,.67,17.64,1.98,1.52-2.21,2.78-4.68,4.21-6.98h-1.71Zm3.29,0c-.8,1.17-1.82,2.68-2.9,4.48-.82,1.37-2.27,3.38-2.37,4.34-.08,.74,.33,1.92,.53,2.9,.61,3.05,1.1,5.89,2.24,8.16,3.36-1.9,6.01,2.39,3.95,5.13,1.5,1.31,2.9,2.72,4.61,3.82v-14.35c-1.7,.71-2.88,3.08-2.63,6.19-4.65-2.61-5.58-13.79-.92-17.11,.12,3.21,1.31,5.36,3.69,6.32v-2.9c1.2-1.34,2.67-2.42,3.95-3.69v-3.29h-10.14Zm6.58,25.93c.41,.74-.62,3.22,.53,3.82V21.92c.68-1.21,2.61-1.86,2.76-3.16-.99,.94-2.02,1.84-3.03,2.76-.3,.36-.05,1.27-.13,1.84,.02,2.66-.02,6.39,0,9.48-.22,.27-.22,1.44,0,1.71v.79c-.3,.44-.05,1.45-.13,2.11,.2,.21,.2,.97,0,1.18v1.71Zm-3.55-6.32c.11-1.4-1.11-2.37-1.58-3.69-1.27-3.53-.71-7.49,.92-10.27-.28-.24-.09-.97-.4-1.19-3.15,3.46-2.7,12.73,1.05,15.14Zm4.61-11.59c.71-.39,1.94-1.39,2.5-2.37-.03-.1-.11-.15-.26-.13-.75,.82-1.81,1.35-2.24,2.5Zm-34.1-.92c-.5,1.43,.76,1.99,.79,3.03,.05,1.93-2.32,3.26-2.37,5.53,.58,.65,1.57,.89,2.11,1.58,.07,.51-.24,.64-.13,1.19,1.15,.13,2.02,1.11,2.76,.53,.03,.63,.53,1.48,.53,1.71-.89-.2-1.61-1.06-2.63-.39,.31,.87,1.03,1.34,.79,2.76,.57,.59,1.4,.82,2.5,.66,3.18-.46,6.53-3.79,7.11-6.58-1.25,.22-1.76-1.65-.79-2.11-.25,.69,0,1.31,.66,1.45,1.59-2.71,.08-7.13-.66-9.61-3.49-.37-7.37-.24-10.66,.26Zm34.1,2.11c.91-.76,2.02-1.32,2.5-2.5-.77,.37-2.17,1.25-2.5,2.5Zm-19.88,13.82c-1.52-3.79-1.04-10.58-2.24-14.48-.16-.52-.29-1.25-.79-1.45,2.3,4.58,.16,11.62,3.03,15.93Zm-2.24-16.06c1.08,2.33,1.25,5.18,1.45,8.29,.18,2.76,.26,5.96,1.84,7.77-1.97-4.48-.45-12.45-3.29-16.06Zm4.21,16.06c-1.57-4.18-.75-12.59-3.29-15.8,2.46,4.26,.65,11.6,3.29,15.8Zm-2.11-15.67c-.16-.02-.3-.23-.39,0,1.79,2.97,1.65,8.47,2.37,12.24,.25,1.29,.21,2.95,1.45,3.42-2.04-3.79-1.08-11.74-3.42-15.67Zm.79,.39c1.09,2.04,1.31,4.93,1.58,7.9,.26,2.84,.45,5.97,2.24,7.37-2.26-4.27-1.32-11.75-3.95-15.67,.02,.15-.02,.37,.13,.39Zm3.29,11.98c.28,1.21,.47,2.77,1.58,3.29-2.25-4.11-2-10.73-3.82-15.27,0-.13-.23-.17-.26,0,1.56,3.21,1.64,8.32,2.5,11.98Zm2.63,3.29c-2.52-3.97-1.95-11.04-4.21-15.27,1.82,4.68,1.13,11.86,4.21,15.27Zm8.95-15.01c-.05-.43-1.7-.38-1.19,.13,.36-.08,1.05,.17,1.19-.13Zm4.34,2.24c.76-.34,1.95-1.38,2.5-2.37-.85,.25-2.06,1.28-2.5,2.37Zm-9.61,15.4c4.74,1.33,4.87-7.5,0-5.53-.42,.54-.49,2.22,.53,2.11,.27-.3-.5-1.14,.13-1.45,2.95-1.24,3.17,3.5,1.18,4.21-1.39,.5-2.67-.13-3.29-.66-3.6-3.04-3.51-11.91-5.27-16.32-.16-.02-.3-.23-.4,0,2.35,5.55,1.47,16.06,7.11,17.64Zm-4.08-8.03c.85,3.18,2.34,7.73,5.53,6.98,1.51-.36,1.96-3.92-.53-3.42,.47,.69,1.13,.31,1.32,1.19,.5,2.38-2.92,1.58-3.69,.79-2.8-2.89-2.61-11.45-4.21-14.88-.17,0-.18-.17-.39-.13,1.11,2.42,1.06,6.07,1.98,9.48Zm3.16,5.27c.89,.82,3.14,1.04,2.5-.79-.73-.07-.5,.82-1.32,.66-3.99-2.55-3.13-9.95-5.27-14.35,1.41,3.65,1.43,12.06,4.08,14.48Zm6.19-14.35c-.52,.09-1.46-.23-1.58,.26,.44,.3,1.45,.05,2.11,.13,.04-.35-.28-.34-.53-.4Zm-6.05,12.51c-.46-1.96-1.29-3.83-1.71-5.92-.42-2.11-.82-4.21-1.32-6.32-.16-.02-.3-.23-.4,0,1.38,3.85,1.42,9.02,3.42,12.24Zm10.4-9.61c.95-.71,2.03-1.31,2.5-2.5-1.03,.64-2.07,1.26-2.5,2.5Zm-6.05-1.71c.79,.22,2.5,.22,3.29,0-.57-.38-2.74-.48-3.29,0Zm6.05,2.9c.91-.76,2.01-1.33,2.5-2.5-.78,.36-2.18,1.25-2.5,2.5Zm-1.58-2.11c-1.28-.3-3.11-.05-4.61-.13,.97,.52,3.42,.27,4.61,.13Zm-.39,.92c.21-.01,.46,.02,.39-.26-1.5,.17-3.68-.34-4.74,.26h.53c.97,.22,2.85,.22,3.82,0Zm1.97,2.24c.73-.37,1.97-1.36,2.5-2.37-.86,.24-2.07,1.27-2.5,2.37Zm-6.19-1.32c1.19,.22,3.29,.22,4.48,0h.13v-.4c-1.28,.19-4.88-.43-4.61,.4Zm6.19,2.5c.93-.73,2.03-1.3,2.5-2.5-.76,.38-2.13,1.29-2.5,2.5Zm-5.92-1.45c.53,.22,1.97,.22,2.5,0,.56-.15,1.71,.31,1.84-.26-.33-.47-1.52-.26-2.37-.26s-2.11-.3-2.24,.39c.03,.1,.11,.15,.26,.13Zm5.92,2.63c.91-.76,1.98-1.35,2.5-2.5-.78,.36-2.18,1.25-2.5,2.5Zm-2.11-2.11c-1.27,.09-2.89-.17-3.95,.13,.99,.14,3.17,.38,3.95-.13Zm2.11,3.16c.75-.35,1.94-1.39,2.5-2.37-.88,.21-2.05,1.29-2.5,2.37Zm-3.03-2.37h-2.76c.17,.66,2.59,.6,2.76,0Zm-2.5,1.05c.48-.09,2.07,.23,1.71-.26-.47,.48-1.49-.31-1.71,.26Zm5.53,2.5c.92-.75,2.03-1.31,2.5-2.5-.76,.38-2.15,1.27-2.5,2.5Zm-4.08-1.97h-1.18c-.15,.58,1.34,.58,1.18,0Zm4.21,3.16c.74-.89,1.9-1.35,2.37-2.5-.71,.3-2.46,1.4-2.37,2.5Zm-22.25-2.37c-.21,2.13,.13,4.76,1.32,5.92-.74-1.67-.93-3.9-1.32-5.92Zm22.12,3.42c.74-.36,1.93-1.4,2.5-2.37-.87,.23-2.08,1.26-2.5,2.37Zm-22.77-1.58c-.16,1.36-.06,3.56,1.05,4.08-.5-1.21-.73-2.69-1.05-4.08Zm22.77,2.76c.92-.75,2.03-1.31,2.5-2.5-.76,.38-2.16,1.26-2.5,2.5Zm-23.43-1.45c-.69-.1-.55,2.79,.66,2.76-.28-.86-.48-1.8-.66-2.76Zm23.56,2.63c.73-.89,1.89-1.36,2.37-2.5-.73,.28-2.45,1.41-2.37,2.5Zm-24.49-1.58c-.52-.34-.59,1.97,.39,1.71-.11-.59-.33-1.08-.39-1.71Zm24.35,2.63c.71-.39,1.94-1.39,2.5-2.37-.88,.22-2.09,1.25-2.5,2.37Zm-25.41-1.97c-.3,.18-.51,1.24,.26,1.05,0-.45,.04-.92-.26-1.05Zm-10.27,3.03c.06-.43-.17-1.14,.26-1.19,.2,.07,.33,.2,.53,.26-.15-1.02,1.06,.03,1.05-.92,.35,.06,.67,.49,1.05,.13-.88-2.1-4.17-.17-2.9,1.71Zm35.67,.13c.91-.76,2.02-1.31,2.5-2.5-.77,.37-2.17,1.25-2.5,2.5Zm-12.37-.79s0-.13,0-.13c-6.09-.55-15.18,.83-20.01-.53-.56,.36-1.24,.61-1.71,1.05,7.16-.08,14.65,.17,21.59-.13-.42,1.25-1.48,2.99-2.5,4.08h-13.69c-.58,0-5.01-.02-2.37,.13,3.55,.22,8.03,.22,11.58,0h.26c1.1,.39,3.11-.13,4.21,.26-3.67,6.07-7.38,12.1-11.06,18.17-.29,.3-.45-.11-.92,0-.61-7.95-3.41-14.53-6.45-20.01-.39-.71-.67-1.72-1.45-2.11,2.61,4.3,5.16,9.93,6.58,15.67,.48,1.94,1.05,4.06,.92,6.06-.65-.53-.67-1.15-1.45-1.58-.62-.34-1.61-.16-1.84-1.05-.35-1.35,1.15-2.49,1.32-3.82,.35-2.74-1.1-3.33-3.55-4.08-.17-2.58,1.75-5.84-.79-7.11-1.37-.68-3.83,.21-3.42-2.63-.52,.27-1.14,.44-1.32,1.05,.56,1.19,.28,1.86,1.32,2.5,.99,.61,3.06,.19,3.42,1.45,.56,1.96-1.9,3.9-.66,5.79,.63,.95,2.05,.5,3.16,1.05,1.64,2.36-1.43,3.46-1.32,5.92-1.17,0-2.37,1.02-3.16,1.84,.93,1.64,3.46,.7,3.42-1.19,.08,1.55,2.68,1.26,2.76,2.37-.64,.15-1.9-.32-2.11,.26v.4c.49,.39,1.88-.13,2.37,.26,0,.77-1.08,1.78-.53,2.24,1.09-.18,.7-1.84,1.45-2.37,.84,.09,2.02-.17,2.63,.13-.21,.78-.89,1.71-.79,2.37,1.08-.28,.84-1.88,1.58-2.5,.79,.09,1.93-.17,2.5,.13-.24,.77-.67,1.35-.79,2.24,1.54,.13,.78-2.03,1.71-2.5,1.12-.15,2.99,.45,3.16-.66h-1.05c.29-.4,.5-1.42-.4-1.32-.74,.21-.04,1.04-.26,1.32h-1.05c-.7-.76-.6-2.92,1.05-2.5,.49-.08,1.31,.17,1.58-.13h.53c2.9-.99-.12-5.35,1.58-7.11,2.34,.19,4.13-.26,4.34-2.24,.14-1.3-.88-2.78-.53-3.95,.44-1.45,1.57-.52,3.42-1.05,1.44-.41,2.13-2.71,1.58-4.34-.53,0-.79,.26-1.32,.26,.85,4.25-4.58,1.87-5.13,4.74-.24,1.22,.99,2.83,.53,4.21-.35,1.05-1.73,.54-2.9,.79-3.03,.65-1.47,3.97-1.71,6.71-2.12,.74-4.38,.29-4.87,2.63-.11,.53,.19,1.3-.13,1.97h-2.11c4.48-7.41,9.04-14.74,13.69-21.98-.13-.53-.57-.74-.92-1.05Zm12.51,1.97c.72-.9,1.89-1.36,2.37-2.5-.73,.28-2.45,1.41-2.37,2.5Zm-50.55,2.63c2.91-.6,8.05-.82,7.64-4.74-2.78,1.74-9.13,.61-9.08,4.74,1.33-2.41,3.68-2.98,5.92-2.9,.41-.85,1.08,.1,1.45-.79,.29,.57,.69-.26,1.05,.13-.59,2.92-4.85,2.17-6.98,3.55Zm50.42-1.58c.95-.71,2.03-1.31,2.5-2.5-1.03,.64-2.07,1.26-2.5,2.5Zm-33.96-1.97c.15,.2,.38,.32,.4,.66,.48-.14,.82-.41,1.05-.79-.44,.08-1.22-.17-1.45,.13Zm4.34-.13c-2-.29-2.44,.98-3.29,1.84,.13,.27,.27,.52,.4,.79,1.33-.51,1.79-1.89,2.9-2.63Zm-.13,1.45c-.59,.58-1.44,1.04-1.18,1.45,.82,.25,.27-.87,.79-.92,.4,0,.87-.08,.79,.39,1-.62,1.63-1.61,2.5-2.37-1.75-.26-2.1,.65-2.9,1.45Zm2.37,.53c.68-.2,.65,.31,1.05,.39,.67-.87,1.54-1.54,2.24-2.37-2.04-.29-2.32,1.19-3.29,1.98Zm6.19-1.98c-2.13-.33-2.44,1.15-3.42,1.98,.71-.18,.7,.36,1.18,.39,.61-.93,1.44-1.63,2.24-2.37Zm-3.69,2.11c-.11,.42-.68,.37-.79,.79h.79c-.18-.38,.36-.67,0-.79Zm3.16-.13c.66-.17,.56,.4,1.05,.39,.63-.9,1.46-1.61,2.24-2.37-2.08-.33-2.4,1.11-3.29,1.98Zm-.4,.13c-.14,.35-.52,.44-.66,.79h.66c-.04-.23,.37-.66,0-.79Zm6.45-2.11h-1.32c-1.03,.94-2.02,1.92-3.03,2.9h.92c-.02-.42,0-.79,.26-.92,.71-.18,.7,.36,1.19,.39,.33-.95,2.1-1.83,1.97-2.37Zm-.53,2.11c.52-.04,.4,.56,.92,.53,.52-.93,1.23-1.67,1.71-2.63-1.44,.14-1.66,1.5-2.63,2.11Zm16.19,1.19c.91-.76,2.01-1.33,2.5-2.5-.77,.37-2.17,1.25-2.5,2.5Zm-10.79-2.11c-.34,.37-.45,.71-.13,1.18h.66c.32-.45,.11-1.28-.53-1.18Zm-24.75,.26c-.26,.36-.19,1.27,.4,1.18,.64-.14,.51-1.46-.4-1.18Zm36.2,5c-1.36-1.17-2.64-2.31-3.95-3.42-.68-.58-1.42-1.46-1.97-1.32-.51,.8,.75,1.51,1.32,1.98,1.42,1.17,2.87,2.31,4.21,3.42,.68,.57,1.57,1.47,2.11,1.32-.03-.97-1.04-1.4-1.71-1.97Zm-.66-2.11c.76-.34,1.95-1.38,2.5-2.37-.86,.24-2.07,1.27-2.5,2.37Zm-28.43-1.45c.32,.02,.63,.02,.79-.13-.02-.2,.05-.49-.13-.53-.2,.24-.55,.33-.66,.66Zm-5.13,13.03c-1.31-4.74-3.37-9.31-5.53-12.9-.13,0-.16-.11-.26-.13-.03-.16-.15-.08-.26,0-.13,0-.16,.11-.26,.13,1.12,2.01,2.51,4.15,3.55,6.71,1.04,2.54,1.63,5.41,2.77,7.9,.6-.39,.13-1.22,0-1.71Zm27.25-12.51c1.13,.63,1.63,1.88,3.03,2.24,.57,1.45,2.38,1.66,3.03,3.03,.37,.07,.68,.19,1.05,.26,.33,.81,.84,1.44,1.71,1.71v-.92c-2.82-2.36-5.57-4.78-8.56-6.98-.06,.25-.28,.33-.26,.66Zm6.45,1.84c1.03-.5,1.92-1.15,2.37-2.24-.74,.27-1.9,1.26-2.37,2.24Zm-53.05,.39c.4-.22,.96-.27,1.18-.66-.34-2.25-3.31-.42-1.18,.66Zm47-.53c.1-.8-.24-1.16-.79-1.32-.44,.68,.49,.96,.79,1.32Zm6.71,.66c.7,.1,1.44-.82,1.71-1.58-.47,.03-1.75,1.03-1.71,1.58Zm-6.71,.66c.14-1.14-.58-1.43-1.32-1.71-.6,.79,.84,1.19,1.32,1.71Zm-34.36,2.11c1.49-.31,1.58-3.36,0-3.69-2.64-.54-2.62,4.23,0,3.69Zm-12.9-.53c-.52-.64-.72-1.62,0-2.24-2.09-1.84-1.47,2.64,0,2.24Zm.66-2.24c.57,.94-.47,1.58-.26,2.11,.57-.22,1.09-.49,1.58-.79,.29,.28,.69,.45,1.05,.66-1.06,.39-.6,2.32,.13,2.76,.71-.52,1.17-1.28,1.97-1.71,.07-2.63-2.11-4.4-4.48-3.03Zm48.58,.79c.17-.91-.57-.92-.92-1.32-.12,.87,.3,1.19,.92,1.32Zm5.4-.26c.46,.26,1-.35,1.05-.92-.36-.22-.91,.49-1.05,.92Zm-9.35-.53c.32,.95,1.31,1.23,1.97,1.84-.05-1.15-1.19-1.86-1.97-1.84Zm-32.25,7.5c-1.05-2.58-2.27-5.04-3.69-7.11-.03-.1-.11-.15-.26-.13-.72,.48,1.19,2.47,1.71,3.42,1.97,3.63,3.18,8.11,4.21,11.98,.37-2.95-.98-5.71-1.97-8.16Zm-13.17-6.06c.5-.03,.71-.34,.66-.92-.17,0-.18-.17-.39-.13-.17,.28-.6,.67-.26,1.05Zm42.39-.79c-.45,.33-.35,1.42,.53,1.18,.37-.38,.36-1.35-.53-1.18Zm6.98,1.45c.11-.86-.45-1.04-.92-1.32-.12,.87,.3,1.19,.92,1.32Zm-31.73,0c1.49-1.48-1.76-1.09,0,0h0Zm35.15,13.95c-.69-5.72-3.18-10.43-6.19-13.69-.45-.49-1.32-1.52-1.71-1.18,.71,1.24,1.85,2.21,2.76,3.42,2.8,3.73,4.57,8.58,5,14.09,.59-.74,.23-1.8,.13-2.63Zm-1.45-13.56c.06-.9-.5-1.16-1.05-1.45-.15,.98,.53,1.14,1.05,1.45Zm-52.92-.79c-.68,1.03,.51,2,1.32,2.37,.86-1.15-.11-1.94-1.32-2.37Zm49.89,21.06c.68-.79,3.44-2.93,3.69-3.82,.32-1.18-.33-4.05-.66-5.4-1.17-4.83-4.11-9.61-7.11-11.72-.04,1.25-2.13,2.44-2.11,3.82,0,.46,.97,1.72,1.45,2.63,.49,.94,1.03,1.99,1.32,2.76,1.68,4.59,1.9,11.63,.39,16.19,.83-1.68,1.76-3.02,3.03-4.48ZM29.65,50.09v1.71c2.34,.11,2.48-2.97,1.32-4.21-.5,.2-.86,.55-1.18,.92-.3,.27-.05,1.09-.13,1.58Zm43.44-1.32c.06-.77-.49-.92-.92-1.18-.1,.8,.35,1.05,.92,1.18Zm-48.97-.79c-.11,.42,.34,.27,.4,.53,.4-.08,.67-.29,.66-.79-.58-.14-.66,.22-1.05,.26Zm.13,2.37c.44,.05,.21,.76,.26,1.18-.29,.11-.45,.34-.92,.26,.13,.49,.22,1,.66,1.19,.69-.98,1.79-1.55,2.37-2.63-.42-.68-.69-1.5-.66-2.63h-.4c-.74,.81-.16,2.19-1.32,2.63Zm37.25-1.32c.41,.09,.25,.09,.66,0,.16-.36,.29-.55,.13-.92-.64-.56-1.28,.36-.79,.92Zm13.56,.26c.15-.98-.53-1.14-1.05-1.45-.09,.93,.55,1.12,1.05,1.45Zm2.11,.53c.17-1.05-.56-1.19-1.05-1.58-.17,1.05,.56,1.19,1.05,1.58Zm-43.57-1.32c-.21,.75-1.45,.48-1.45,1.45,.93,.43,1.3,1.42,1.97,2.11,.72-1.03,.4-3.05-.53-3.55Zm11.85,1.45c2.11-.32-.79-2.17,0,0h0Zm32.25,3.42c-.61-.62-.9-1.56-2.11-1.58-.9-1.17-2.39-2.43-3.55-2.9,2.14,2.38,4.87,4.17,7.5,6.06-.23-.91-.99-1.3-1.84-1.58Zm-53.84-4.34c-.05,.53,.05,.92,.53,.92,.34-.21,.49-.61,.26-1.05-.33-.02-.63-.02-.79,.13Zm4.61,.53c.17,6.36-1.99,10.55-4.61,13.82-.82,1.03-1.84,1.92-2.37,3.16,4.69-3.2,7.63-9.31,7.77-17.51-.46-.02-.43,.44-.79,.53Zm-5.27,1.58c0-.49,.2-.76,.39-1.05-.6-.19-.85-.73-1.45-.92-.72,.78,.43,1.69,1.05,1.97Zm16.06,1.71c1.47-.44,1.31-3.74-.66-3.69-2.34,.06-1.85,4.44,.66,3.69Zm35.81-2.37c.11-.9-.51-1.07-1.05-1.32-.07,.86,.64,.94,1.05,1.32Zm.92-.79c.06,.78,.73,.93,1.18,1.32,.1-.88-.69-1.46-1.18-1.32Zm2.11,.39c.04,.97,.75,1.26,1.45,1.58,.08-1.02-.99-1.53-1.45-1.58Zm-56.61,6.71c3.88-.25,7.06-2.84,6.19-6.58-2.17,2.09-4.39,4.12-6.19,6.58Zm2.11-5.4h.53c.28-.32,.1-.97-.39-.92-.1,.28-.32,.74-.13,.92Zm7.37,14.48c2.09-3.44,4.65-9.79,4.08-15.01,0-.07-.11-.15-.13,0-.65,10.29-4.59,17.57-11.06,21.72-.77,.49-2.61,.8-2.37,2.37,3.73-1.78,6.95-4.92,9.48-9.08Zm46.21-13.82c.02-.86-.62-1.04-1.18-1.32-.04,.87,.67,1,1.18,1.32Zm2.37,4.21c-.31-1.41-1.88-2.09-2.9-2.9-1.12-.89-2.13-1.96-3.29-2.37,1.67,2.15,3.93,3.71,6.19,5.27Zm0-3.42c-.03-.98-.86-1.16-1.45-1.58,.02,.99,.91,1.11,1.45,1.58Zm-56.61,.66c.09-.69,.55-1.98-.26-2.11-.11,.5-.42,2,.26,2.11Zm43.71-.4c-.4-.44-.58-1.09-1.05-1.45-1.18,.58,.15,2.69,1.05,1.45Zm-38.18,4.21c2.82,.53,3.34-4.26,1.05-4.74-.31,1.62-.61,3.26-1.05,4.74Zm5.66,3.42c.18-1.79,2.87-2.77,3.03-4.48,.11-1.19-1-2.58-1.45-3.82-.17,3.03-1.2,5.91-1.58,8.29Zm45.42-6.85c-.08-.89-.77-1.16-1.45-1.45,.06,.91,.85,1.08,1.45,1.45Zm0,3.55c-.34-1.09-1.45-1.71-2.24-2.37-.84-.69-1.72-1.39-2.63-1.97,.95,2.12,3.06,3.08,4.87,4.34Zm-17.51-2.9c.03-.19,.29-.15,.39-.26,.12-1.97-2.03-.05-.39,.26Zm-18.17,.53c.25-.03,.29,.15,.53,.13,.23-.21,.33-.55,.26-1.05-.63-.55-1.25,.39-.79,.92Zm-12.64,.66c.91,.62,1.19,1.88,1.84,2.76,.71-1,.74-2.69,1.05-4.08-.27-.04-.26-.36-.53-.4-.22,1.14-1.72,1-2.37,1.71Zm-9.87,1.71c1.07,1.35,3.72,.48,5.27,.13,.3-1.02,1.01-2.32,.79-3.42-1.29,1.83-3.29,2.94-6.06,3.29Zm19.22,.53c1.69-.07,2.2-4.04-.26-3.82-2.09,.19-1.69,3.9,.26,3.82Zm25.41,8.03c-.1,4.5-1.96,7.25-3.42,10.4,4.59-3.81,5.52-16.45,1.05-21.59,.12,1.38,1.24,2.71,1.71,4.34,.46,1.61,.71,3.9,.66,5.53v1.32Zm1.32-11.06c-1.08,.44-.36,2.5,.92,1.71-.21-.67-.26-1.49-.92-1.71Zm-10,.13c-1.49,1.63,2.06,.9,0,0h0Zm22.25,3.69c-.04-1.01-1.16-1.57-1.84-2.11-.72-.57-1.49-1.33-2.24-1.45,.95,1.59,2.64,2.45,4.08,3.55Zm-16.72-2.76c4.66,7.23,1.69,18.31-3.82,22.38-.77,.57-2.2,.91-2.11,1.84,7.5-2.43,11.51-16.34,6.32-24.49,0-.08-.02-.16-.13-.13,0,.23-.1,.34-.26,.4Zm-1.45,2.63c.35,.83,1.32,1.6,2.5,1.19-.33-1.21-.71-2.37-1.45-3.16-.22,.79-.85,1.17-1.05,1.97Zm18.17,1.32c-.49-1.75-2.36-2.11-3.42-3.29,.46,1.78,2.18,2.29,3.42,3.29Zm-42.39-2.9c-.12,.4-.64,.41-.66,.92,.15,.43,.42,.72,1.05,.66,.13-.33-.1-1.26-.39-1.58Zm11.06,1.32c1.49-1.48-1.76-1.09,0,0h0Zm-12.9,15.27c.04,2.8,.69,5.23,1.58,7.11,.22,.47,.41,1.33,.92,1.18,.35-.49-.2-1.16-.4-1.58-3.56-7.64-.58-17.31,4.74-21.06,.77-.54,1.92-.7,1.84-1.58-2.63,.77-4.53,3.05-5.92,5.4-1.44,2.44-2.62,5.45-2.76,8.95-.22,.23-.22,1.35,0,1.58Zm-8.95-11.45c2.67,1.06,3.86-3.28,1.84-4.21-.45,1.57-1.3,2.74-1.84,4.21Zm-5-3.82c.39,1.59,2.16,1.79,3.95,1.97,.2-.66,1.29-1.75,.79-2.24-1.19,.6-3.29,.66-4.74,.26Zm58.19,2.9c-.34-1.68-2-2.03-3.03-3.03,.32,1.7,1.9,2.14,3.03,3.03Zm-10.66-2.9c-1.16,.07-1.2,2.2,.26,1.97,.33-.6-.21-1.33-.26-1.97Zm-34.49,2.76c1.26,.69,1.9-1.23,.92-1.71-.28,.6-.85,.9-.92,1.71Zm-10.53,1.32c.44-.44,.79-.96,1.05-1.58-1.37-.21-2.52-.63-3.55-1.19,.11,1.64,1.39,2.12,2.5,2.76Zm55.69-.26c-.58-1.04-1.64-1.61-2.63-2.24,.33,1.21,1.72,2.04,2.63,2.24Zm-50.29-1.05c-.31,.56,.41,.9,.66,1.45,.26,.59,.15,1.4,.66,1.84,.8-.92,2.19-2.88,1.45-4.08-.51,.72-1.89,.82-2.76,.79Zm31.73,1.45c.96,0,1.27-1.45,.39-2.11-1.89-.23-1.55,2.11-.39,2.11Zm3.29-1.58c-1.76,0-2.36,4.61,.53,4.34,.02-1.64-.19-3.06-.53-4.34Zm14.61,1.45c-.68-.37-1.15-.96-1.84-1.32,.17,.84,1.19,2.19,1.84,1.32Zm-41.6,20.54c-.39-1.37-1.11-2.66-1.58-4.21-.48-1.59-.84-3.26-.92-5.13-.24-5.2,1.93-8.97,3.55-12.11-.03-.1-.11-.15-.26-.13-4.26,4.59-5.25,16.42-.79,21.59Zm-15.01-18.83c.59-.25,1.01-.66,1.18-1.32-.84-.34-1.28-1.09-2.11-1.45-.21,1.44,.27,2.19,.92,2.76Zm15.67,1.18c2.35,.91,3.66-2.29,2.37-3.82-.9,1.16-1.77,2.36-2.37,3.82Zm21.19-3.03c.56,4.24-.39,7.63-2.24,9.61-.43,.46-1.35,.72-1.19,1.58,3.18-1.31,5.16-6.57,3.82-11.59h-.39c-.02,.16-.23,.3,0,.4Zm9.61,1.58c.31,.08,.6,.19,1.05,.13,0-.67-.23-1.09-.13-1.84-1.12-.25-1.22,.95-.92,1.71Zm8.69-.4c.12-.23,.48-.22,.53-.53-.36-.08-.33-.55-.79-.53,.09,.35,.06,.82,.26,1.05Zm-51.34-.79c-1.09,1.02-1.94,2.27-3.03,3.29,1.81,1.86,4.29-.9,3.03-3.29Zm7.24,0c-.02,.72-.54,.95-.53,1.71,1.25,.81,1.9-1.7,.53-1.71Zm9.74,2.24c.88-.08,1.24-2.29-.13-2.24-1.4,.05-.87,2.33,.13,2.24Zm15.53-2.24c-.18,1.02,.07,2.06,0,3.03-.23,3.14-1.73,4.84-2.9,6.45,2.22-1.24,3.8-5.54,2.9-9.48Zm20.67,1.32c.3-.14,.05-.83,.13-1.18-6.99,3.79-12.22,11.01-13.56,20.4-.18,1.27-.59,2.8,.13,3.95,.61-11.54,5.36-18.95,13.3-23.17Zm-24.35,1.97c-.81-.07-1.91,.15-2.5-.13,.26-.75,.59-1.43,.79-2.24-1.46-.06-.94,1.87-1.84,2.37-.71-.09-1.75,.17-2.24-.13,.13-.74,.82-1.51,.53-2.24-1.16,.16-.77,1.86-1.58,2.37h-2.37c-.34,2.03,.29,5.03-1.05,6.06,.64,.5-.5,1.4-.39,2.24,1.27-.09,.91-1.81,1.71-2.37,.79,.09,1.93-.17,2.5,.13-.17,.73-.81,1.61-.66,2.24,1.25-.11,.86-1.86,1.71-2.37,.71,.09,1.75-.17,2.24,.13-.18,.74-.56,1.28-.66,2.11,1.41,.1,.86-1.78,1.71-2.24h2.37c.37-2-.34-5.08,1.05-6.06-.83-.39,.54-1.41,.4-2.37-1.26,.14-.95,1.85-1.71,2.5Zm-9.21-.26c.21-.67,.5-1.26,.66-1.97h-.66c-.19,.39-.24,1.6,0,1.97Zm-24.35-.53c.38-.06,.6-.28,.66-.66-.17-.23-.27-.52-.66-.53v1.19Zm20.27,6.32c.27-3.04,1.67-4.69,3.55-6.45,.17-.16-.13-.67,0-.79-3.06,1.27-5.49,7.12-3.55,11.72,.17-1.76-.12-3.14,0-4.48Zm19.75-4.61c.83-.07,1.12-1.4,.39-2.11-2.1-.29-1.53,2.2-.39,2.11Zm14.88,0c1.3-.07,1.91,.55,2.63,1.05,.87-.23,.62-2.67,.26-3.29-1.05,.66-2.54,.88-2.9,2.24Zm-51.08,6.45c.33,8.01,3.25,13.42,7.77,17.25,.53-1.49,1.61-2.43,2.11-3.95-3.83-4.46-5.38-14.49-3.16-21.46-1.67,3.29-4.17,5.74-6.71,8.16Zm17.11,1.71c-.34-3.9,.75-7.38,2.9-9.21-.03-.1,0-.26-.13-.26-2.2,1.74-3.62,5.54-2.76,9.48Zm-16.06-9.08c-.53,.73,.62,2.32,0,3.56,.72,.14,1.38-.67,1.84-1.19,.47-.53,1.18-1.31,1.05-2.24-.96,.53-1.98,.3-2.9-.13Zm43.31,1.98c.17-.49,.23-1.64,.13-1.98-1.32-.19-1.39,2.05-.13,1.98Zm-37.52-1.71c-.03,.71-.31,1.18-.39,1.84,1.31,.33,1.64-1.84,.39-1.84Zm4.34,4.48c2.53,.3,2.59-3.47,1.05-4.34-.4,1.4-.91,2.68-1.05,4.34Zm-14.88-3.55c.09,.79-.17,1.93,.13,2.5,1.35-.17,1.49-4.47-.13-2.5Zm19.22,1.45c.79-.11,.96-1.29,.4-1.97-1.92-.78-1.88,2.19-.4,1.97Zm22.78,2.76c.44-1.36,.95-2.64,1.05-4.34-2.4-.04-2.82,3.38-1.05,4.34Zm14.88-.13c.55,.03,.55-.5,1.05-.53v-2.5c-1.22,.25-1.44,1.91-1.05,3.03Zm-3.69-2.9c-.17,0-.18-.17-.39-.13-1.05,.93-2.32,1.63-2.5,3.42,.96-.41,2.19-.27,2.9,.26,.53-.81-.59-2.29,0-3.55Zm-14.22,3.03c.82-.08,1.33-2.34-.26-2.11-1.32,.2-.72,2.2,.26,2.11Zm8.29,.26c.26-.53,.35-1.23,.53-1.84-1.08-.61-1.73,1.64-.53,1.84Zm-46.87-1.71c-.71,.36-.39,2.39-.26,3.16,1.26-.4,2.43-.9,3.03-1.97-1.05-.19-2.21-.93-2.76-1.18Zm9.21,1.84c1.49,.42,1.54-1.99,.26-1.84-.29,.41,0,1.41-.26,1.84Zm7.77,1.05c.98,.82,2.04-.44,1.45-1.58-.99-.87-2.07,.44-1.45,1.58Zm35.94,2.37c1.06-1.09,1.94-2.36,3.03-3.42-2.14-1.77-4.3,1.29-3.03,3.42Zm-3.16,13.69h.13c.95-.45,.59-1.64,.66-2.76,.31-4.93,2.34-8.72,4.61-11.58,.82-1.04,1.82-1.96,2.37-3.16-4.57,2.94-7.34,8.81-7.77,16.32-.25,.05-.17,1.56,0,1.19Zm-16.98-14.74c.37,.11,.34-.19,.66-.13-.08-.57,.17-1.49-.13-1.84-.16,.61-.69,1.46-.53,1.97Zm5.92,2.11c.97-1.04,1.73-2.31,2.37-3.69-2.07-1.2-3.83,2.19-2.37,3.69Zm-24.49-3.82c.05,1.66,.07,3.35,.66,4.48,1.78-.55,1.87-4.67-.66-4.48Zm42.78,.92c.17,.23,.27,.52,.66,.53-.12-.36,.27-1.24-.26-1.19-.04,.31-.46,.25-.39,.66Zm-28.96,2.76c.35,0,.75-.05,.92,.13,.94,9.06,3.88,16.13,7.9,22.12-3.54-6.16-6.81-13.28-7.5-21.85,.72,.48,.36,.93,1.05,1.45,.58,.43,1.96,.26,2.24,1.18,.39,1.3-1.13,2.44-1.32,3.95-.13,1.02,0,2.52,.92,3.16,.75,.52,1.83,.02,2.63,.92,.16,2.49-1.54,5.15,.26,6.71,.92,.8,2.16,.17,3.16,.79,.71,.44,.65,1.36,.92,2.24,.24-.51,1.1-.39,1.18-1.05-.53-1.16-.18-1.57-.92-2.24-.97-.88-3.43-.38-3.82-1.71-.53-1.82,1.49-3.47,.92-5.27-.36-1.12-1.64-1.36-3.16-1.45-2.1-2.15,1.12-3.69,1.05-6.19,1.27,.2,2.16-1.08,3.16-1.58-.64-1.89-3.67-.95-3.42,1.05-.16-1.51-2.02-1.32-2.76-2.24,.4-.43,1.92,.26,2.11-.4,.25-1.3-1.84-.27-2.37-.79,.17-.74,.89-1.53,.66-2.24-1.12,.15-.85,1.7-1.45,2.37h-2.77c.11-.74,1.14-1.9,.66-2.37-.89,.38-.69,1.86-1.45,2.37h-2.5c.24-.77,.67-1.35,.79-2.24-1.46-.1-.84,1.89-1.71,2.37-1.14,.13-2.96-.42-3.16,.66,.14,.3,.94-.06,1.05,.26-.43,.3-.29,1.13,.26,1.19,.76-.24,.29-1.08,.26-1.32h1.32c.27,.49,.39,1.49,.13,2.11-1.88,.72-4.57-.09-4.87,2.5-.23,1.98,1.53,4.7-.53,5.27-.6,.16-1.81-.29-2.37-.13-2.53,.7-1.1,3.82-1.05,6.19-.5,1.44-2.15,.7-3.42,1.05-1.59,.44-2.05,2.65-1.58,4.34,.47-.06,.76-.29,1.32-.26-1.29-4.26,4.53-1.68,5.13-4.74,.32-1.62-.7-2.18-.53-4.34,.1-.03,.15-.11,.13-.26,.75-.81,1.54-.23,2.5-.39,2.9-.49,2.12-3.5,1.84-6.58,.58-.96,1.91-.42,3.03-.66,1.81-.38,2.09-1.96,2.11-4.08h2.11c-3.88,6.49-8.62,13.85-12.64,20.27-.45,.73-1.67,2.09-.13,2.76h.13c5.71,.31,11.98,.04,17.9,.13,1.73,.34,2.45,.61,3.55-.53-7.11,.09-14.56-.17-21.46,.13,.39-1.28,1.45-3.02,2.5-4.08h16.98c-.2-.45-2.78-.26-4.21-.26-4.3,0-9.03,.11-12.77-.13,3.6-6.19,7.45-12.12,11.06-18.3Zm8.56-3.03c-1.35-.62-1.91,1.03-1.18,1.84,1.34,.65,1.92-1.09,1.18-1.84Zm8.95,2.11c.24-.59,.66-1,.66-1.84-1.27-.66-1.79,1.52-.66,1.84Zm1.45,2.37c.37-.86,1.75-.7,2.76-.92-.06-.86-1.12-1.74-1.05-3.16-1.26,.54-2.4,2.85-1.71,4.08Zm8.56-2.5c.91,.27,1.28,1.09,2.11,1.45,.23-1.59-.34-2.38-1.18-2.9-.27,.52-.86,.72-.92,1.45Zm-46.34,14.74c-3.63-3.89-6.06-9.15-6.45-16.06-.78,.64-.36,1.89-.26,2.63,.82,6.53,3.92,11.88,7.9,15.01,.11-.81-.78-1.14-1.18-1.58Zm.26-14.09c.95,.12,1.08-1,.79-1.71-.28-.11-.45-.34-.92-.26-.21,.45,.01,1.43,.13,1.97Zm-8.43-1.05c.05,.44,.39,.57,.66,.79,.21-.21-.12-.55,0-1.05-.33-.02-.41,.21-.66,.26Zm-.79,.53c-.01,.5,1.06,1.04,1.58,1.45,.01-.96-.91-1.61-1.58-1.45Zm17.77,2.24c.86,0,1.19-1.08,.66-1.98-1.92-.78-2,1.96-.66,1.98Zm36.07-.4c1.5-.04,2.69,.9,3.55,1.05-.18-1.62-1.49-2.11-2.63-2.76-.18,.7-.79,.97-.92,1.71Zm-54.63-1.45c.47,1.2,1.71,1.63,2.63,2.37-.31-1.29-1.76-2.09-2.63-2.37Zm51.34,4.34c.44-1.58,1.22-2.81,1.84-4.21-2.78-1.15-3.8,3.28-1.84,4.21Zm-10,1.71c1.06,3.44,2.65,6.52,4.21,9.22,.2,.35,.49,1.53,1.18,1.05,.23-.53-.38-1.07-.66-1.45-2.62-3.6-4.2-8.49-5.13-13.56-.08,0-.16-.02-.13-.13,0-.08-.02-.16-.13-.13-.52,1.12,.14,3.33,.66,5Zm3.03-3.29c.12-.67,.76-.82,.79-1.58-1-1.01-2.18,1.31-.79,1.58Zm-41.34,1.19c-.41-1.56-1.82-2.13-3.03-2.9,.38,1.6,1.93,2.02,3.03,2.9Zm39.36,1.97c-.16,1.27,1.04,2.65,1.45,3.95,.17-3.17,1.16-6.22,1.71-8.56-.2,1.62-2.99,3.24-3.16,4.61Zm-31.86-4.08c-.6,.42,.11,1.34,.13,1.97,1.23,.07,.94-2.11-.13-1.97Zm43.71,.13c-.43,.63-.78,1.33-1.05,2.11,1.61-.49,3.6-.47,5-.26-.34-1.51-2.54-1.83-3.95-1.84Zm-38.57,.4c.19,1.26,.82,2.08,1.18,3.16,.66-.44,1.03-1.17,1.32-1.97-.53-.7-1.04-1.41-2.5-1.18Zm-12.24,3.16c-.52-1.67-2.11-2.28-3.42-3.16,.58,1.61,2.25,2.14,3.42,3.16Zm-3.42-1.45c.61,.43,1.28,1.15,1.97,1.71,.58,.47,1.68,1.31,1.97,1.19-.87-1.59-2.5-2.41-3.95-3.42v.53Zm42-.4c-.15,.24,.06,1.25,.39,1.45,.12-.4,.64-.41,.66-.92-.19-.34-.43-.63-1.05-.53Zm3.82,4.48c.58-.78,1.63-1.09,2.5-1.58-.83-.71-1.28-1.79-1.71-2.9-.74,.88-1.48,3.43-.79,4.48Zm-14.74-3.16c.41,.09,.25,.09,.66,0,.18-.17,.13-.57,.13-.92-.63-.55-1.25,.39-.79,.92Zm21.72-.13c-.27,1-.64,1.9-.79,3.03,1.41-1.14,3.24-2.99,6.19-3.03-.93-1.47-4.18-.6-5.4,0Zm-13.95,3.16c2.42,.26,2.44-4.32-.26-3.69-1.63,.38-1.42,3.51,.26,3.69Zm-38.84-2.76c1.59,1.36,3.19,2.69,4.87,3.95-.9-2.21-3.14-3.09-4.87-4.48v.53Zm36.2-.39c-.83,.32-.29,1.28-.13,1.84,1.06,3.69,2.33,6.93,3.95,10.01,.53,1,1.21,3.26,2.37,2.76-2.68-3.73-4.63-9.33-6.19-14.61Zm13.82,4.87c.29-1.64,.58-3.28,1.05-4.74-2.94-.58-3.25,4.25-1.05,4.74Zm-38.7-4.08c.15,.64,.41,1.17,.66,1.71,1.45-.18,.53-2.77-.66-1.71Zm40.28,6.45c2.48-1.91,4.57-4.21,6.45-6.71-3.75,.64-6.67,2.11-6.45,6.71Zm-51.61-5.53c1.99,1.56,4.15,3.66,6.19,4.74-1.6-2.26-4.02-3.7-6.19-5.4v.66Zm21.99,.66c.63-.07,.78-.79,.39-1.18-.96-.22-.94,.96-.39,1.18Zm33.83,2.11c.52-.18,.17-1.23,1.19-.92,.94,.73,.1,1.86,.26,2.76,.09,.5,.6,.86,.66,1.32,.07,.54-.39,.59-.39,1.05,0,.45,.75,.66,.39,1.18-.56,.7-.66,1.06-.53,2.37-.73,.33-.78,1.33-1.32,1.84-.22,.22-.77,.1-1.18,.13-.36,.91-.53,1.64-1.05,2.24-1.65,1.87-5.11,1.17-7.5,2.11-.76,.3-.97,.9-1.71,.92,.31-1.91,.53-2.99,1.58-3.95,1.95-1.79,5.68-.68,7.37-2.76-2.33,.09-3.04-1.44-3.29-3.42-3.71,2.83-7.19,5.88-11.45,8.16,.43,2.78-1.57,4.33-3.69,3.03-.11,1.3,1.43,1.35,.79,2.77,.19,.3,.86,.11,.79,.66,0,.57-.31,.83-.26,1.45,.85,.74,2.29,1,2.37,2.11,.09,1.28-2.43,3.99-2.5,5.13,.28,1.09,.94,1.78,.79,3.29,.81,1.16,1.63,2.28,2.5,3.55,.55,.81,1.73,3.26,2.63,3.55,.94,.31,2.71,0,3.95,0h11.85c.22-13.56,.22-28.04,0-41.6-.6,1.08-2.24,1.78-2.24,3.03Zm-21.06-1.45c.21,.15,.27,.43,.66,.39,1.27-.56-.75-2.04-.66-.39Zm-32.78,1.05c1.52,1.81,3.64,3.03,5.4,4.61-.57-1.49-2.2-2.31-3.42-3.29-1.28-1.02-2.73-2.29-3.95-3.03,.13,1.1,1.07,1.39,1.97,1.71Zm15.67,0c.44-.04,.52-.86,.26-1.19-.95-.3-1.07,1.22-.26,1.19Zm-16.19,.79c-.2-.72-.74-1.11-1.45-1.32,.13,.74,.94,1.39,1.45,1.32Zm11.59-.79c-.08,.48,.42,1.39,1.05,1.58,.73-.67,0-2.3-1.05-1.58Zm43.84,1.98c.08-.47,.48-2.05-.26-2.11-.24,.61-.53,1.91,.26,2.11Zm-17.64,.13c-.18,2.77,3.43,2.45,3.29,0-.06-.97-.53-1.95-1.97-1.71-.8,.13-1.27,.96-1.32,1.71Zm13.56,.79c.73,.54,.5,2.05,1.05,2.76,.39-.78,.89-.92,.66-2.11,.2-.15,.27-.43,.66-.4-.07-.37-.19-.68-.26-1.05,.24-.28,.38-.67,1.05-.53-.13-.49-.22-1-.66-1.19-.75,.92-1.66,1.67-2.5,2.5Zm-51.34-.92c-.11-.86-.82-1.12-1.45-1.45,.01,.89,1,1.42,1.45,1.45Zm44.5,2.9c.2-.77,1.38-.55,1.45-1.45-.86-.5-1.45-1.27-1.84-2.24-.97,.57-.57,3.16,.39,3.69Zm-42.39-2.37c-.06-.73-.64-.94-1.18-1.19-.06,.8,.81,1.25,1.18,1.19Zm46.47-.92c-2.2-.54-2.91,3.09-1.32,4.21,1.56-.57,1-2.57,1.32-4.21Zm-48.71,1.71c.07-1.04-.66-1.28-1.32-1.58-.08,1.04,.76,1.17,1.32,1.58Zm54.5-.39c.18-.19,.27-1.04-.13-1.05-.51,.12-.55,1.09,.13,1.05Zm.13,.39c.6,.19,.85,.73,1.45,.92,.69-.81-.41-1.67-1.05-1.98-.07,.41-.23,.73-.39,1.05Zm-52.53,.53c.14-.98-.57-1.1-1.05-1.45-.13,.96,.6,1.06,1.05,1.45Zm2.11,.4c.07-.86-.64-.94-1.05-1.32-.11,.9,.51,1.07,1.05,1.32Zm-3.56,1.45c2.3,1.92,4.56,3.75,6.58,5.27,.74-1.31-1.57-1.5-1.84-2.63-.3-.1-.67-.12-.92-.26-.56-1.46-2.37-1.67-3.03-3.03-.37-.07-.68-.19-1.05-.26-.35-.79-.81-1.48-1.71-1.71-.14,1.29,1.16,1.96,1.97,2.63Zm51.34-.66c-.23-.69-.13-1.72-.92-1.84-.43,.99-1.65,.97-1.84,1.98-.42,2.19,2.5,4.37,4.48,2.63,.02-.42-.35-.44-.26-.92,.14-.43,.68-.46,.66-1.05-.76,.07-1.14,.53-1.71,.79-.27-.25-.64-.42-.92-.66,.14-.34,.48-.49,.53-.92Zm-19.62-.39c.59,.08,.66-.83,.4-1.19-.96-.23-.95,.96-.4,1.19Zm21.2-.13c.74,.2,.98-.6,.66-1.05-.71-.08-.96,.5-.66,1.05Zm-51.47,.66c.17-1.05-.56-1.19-1.05-1.58-.19,1.07,.62,1.14,1.05,1.58Zm52.13-.26c.85,.2,.78,1.33,1.84,1.32,.53-1.25-.49-2.04-1.32-2.37-.03,.49-.31,.75-.53,1.05Zm-50.02,.53c.03-.82-.58-1-1.05-1.32-.14,.88,.66,1.39,1.05,1.32Zm11.98-1.18c-.34,.37-.45,.71-.13,1.18,1.03,.28,1.03-1.31,.13-1.18Zm-10.14,1.58c.1-.8-.35-1.05-.92-1.18-.06,.77,.49,.92,.92,1.18Zm-3.42,3.16c1.49,1.29,2.53,2.66,3.95,3.03,.3-.97-.91-1.4-1.45-1.84-2.01-1.64-4.08-3.38-5.92-5-.17,0-.18-.17-.39-.13,.22,1.65,2.65,2.94,3.82,3.95Zm50.42-3.29c.57,.04,.87-.18,1.05-.53-.41-.4-1.13-.25-1.05,.53Zm-11.19,3.16c2.13,.02,2.24-4.46-.53-3.69-1.65,.46-1.26,3.67,.53,3.69Zm-37.65-2.11c.12-.91-.55-1.03-1.05-1.32-.04,.83,.39,1.19,1.05,1.32Zm50.68-.13c.12,.81-1.09,1.5,.39,1.84,.27-.04,.26-.36,.53-.4,.09-1.41-.59-2.05-1.45-2.5-.17,.74,.45,.5,.53,1.05Zm-48.84,.53c.08-.83-.24-1.25-.92-1.32-.11,.86,.45,1.04,.92,1.32Zm30.54-1.32c-.32,.47-.21,.82,.13,1.18,.33,.02,.41-.21,.66-.26,.08-.65-.13-1.01-.79-.92Zm-24.62,1.45c.23-.21,.48-.4,.39-.92-.81-.93-1.54,.84-.39,.92Zm-2.9,.66c-.3-.97-1.28-1.26-1.97-1.84,.07,1.13,1.2,1.85,1.97,1.84Zm44.89-.4c.5-.03,.51-.54,.66-.92-.54-.5-1.08,.46-.66,.92Zm-55.29-.26c.35,.04,.43-.18,.4-.53-.35-.04-.43,.18-.4,.53Zm7.37,1.05c.06-.76-.29-1.12-.92-1.19-.13,.83,.42,.99,.92,1.19Zm-7.37,.13c.51-.19,.87-.54,1.05-1.05-.48-.24-1.09,.36-1.05,1.05Zm9.74,.53c.62-.82-.84-1.19-1.32-1.71-.14,1.14,.59,1.43,1.32,1.71Zm-9.74,.53c.61,.05,1.22-.95,1.71-1.45-.55-.48-1.47,.75-1.71,1.45Zm54.24-.79c.18,.84,1.25,1.64,1.97,.79,.27-1.61-1.42-1.68-1.97-.79Zm-54.24,1.97c.97-.57,1.83-1.24,2.37-2.24-1.12,.41-1.88,1.19-2.37,2.24Zm9.21-.79c.38-.68-.3-.98-.79-1.18-.08,.74,.29,1.03,.79,1.18Zm-9.21,1.98c.86-.73,2.43-1.43,2.37-2.63-.72,.95-2.05,1.28-2.37,2.63Zm3.55-.92c.03-.78,.07-1.56-.53-1.71v22.25c-.82,1.06-2.58,1.9-2.76,3.16,.88-1.09,2.13-1.82,3.03-2.9,.31-.88,.04-2.32,.13-3.42v-13.16c.31-1.14,.04-2.85,.13-4.21Zm41.6,3.69c3.02-1.54,9.27-.56,9.21-4.74-.77,1.78-2.63,2.93-4.21,2.63-.43,.55-1.12,.62-1.71,.4-.89,.68-1.33,.43-2.5,.79,.23-3.2,5.8-2.44,6.98-3.82-3.19,.98-7.63,.7-7.77,4.74Zm-41.21,10c2.05-.95,2.96-3.69,2.77-6.45,4.49,2.49,5.6,13.91,.92,17.11-.18-3.15-1.37-5.3-3.69-6.32v3.03c-.69,1.24-3.55,2.42-3.95,3.82-.22,.79,.05,2.04,.13,3.16h10c.82-1.35,1.8-2.73,2.76-4.34,.71-1.18,2.4-3.32,2.5-4.61,.07-.8-.46-1.81-.66-2.76-.62-2.98-.81-5.92-2.11-8.16-3.04,1.71-6.22-2.33-3.95-5.27-1.64-1.13-2.86-2.67-4.61-3.69,.09,4.96-.11,9.63-.13,14.48Zm-3.95-11.72c.78-.33,2.02-1.3,2.5-2.37-.79,.31-2.06,1.28-2.5,2.37Zm22.51-2.11h-.92c.05,.53-.05,.92-.53,.92-.58,.14-.43-.45-.92-.39-.51,.99-1.51,1.47-2.11,2.37,2.67,.21,2.92-1.99,4.48-2.9Zm1.97,.66c.44-.05,.57-.39,.79-.66h-.66c.11,.37-.19,.34-.13,.66Zm-3.55,2.24c2.04,.29,2.32-1.19,3.29-1.97-1.6-.93-2.16,1.27-3.29,1.97Zm7.24-2.9h-.79c.15,.35-.25,.77,0,.79,.11-.41,.68-.37,.79-.79Zm-2.24,.53c-.54,.95-1.5,1.49-2.11,2.37,2.01,.26,2.33-1.18,3.29-1.97-.71,.18-.7-.36-1.18-.39Zm4.34,.13c.09-.35,.6-.28,.66-.66h-.66c.08,.23-.39,.55,0,.66Zm2.24,.26c-.58,.14-.43-.45-.92-.39-.62,.91-1.54,1.53-2.24,2.37,2.55,.14,2.98-1.85,4.34-2.9h-.66c-.08,.4-.03,.93-.53,.92Zm2.37-.79c-.96,.84-1.79,1.8-2.63,2.76,1.85,.16,3.77-1.58,2.63-2.76Zm-18.83,2.76c1.31-.27,1.78-1.38,2.5-2.24-.47,.07-.32-.47-.79-.39-.52,.93-1.27,1.63-1.71,2.63Zm21.72-1.45c.3-.1,.39-.4,.53-.66-.38-1.32-1.82,.39-.53,.66Zm-25.01,.13h.66c.78-1.4-1.44-1.4-.66,0Zm13.82,1.32c2.01,.26,2.33-1.18,3.29-1.97-.71,.18-.55-.5-1.18-.39-.47,1.02-1.49,1.49-2.11,2.37Zm-26.59,.4c.92-.66,2.42-1.45,2.37-2.63-.71,.96-1.97,1.37-2.37,2.63Zm0,1.18c.93-.73,2.03-1.31,2.5-2.5-.76,.38-2.15,1.27-2.5,2.5Zm35.02-1.58h1.45c0-.48-.26-.7-.53-.92-.32,.29-.7,.53-.92,.92Zm-20.41,1.32c-.76-.99-2.08-1.87-3.29-1.84-3.79,.08-3.97,6.63,.53,5.79,.54-.26,.99-2.25-.13-2.24-.34,.48,.23,.96-.39,1.45-1.94,1.52-3.03-2.59-1.84-3.82,1.4-1.44,3.81-.13,4.61,.79,3.14,3.62,2.77,10.99,5,15.8-1.58-4.63-1.69-12.31-4.48-15.93Zm-14.61,1.32c1.04-.59,1.97-1.28,2.5-2.37-.81,.29-2.05,1.28-2.5,2.37Zm37.91-1.18c-.09-.18-.28-.25-.53-.26,.08,.96-1.02,0-1.05,.92-.4-.04-.47-.41-1.05-.26,.41,1.97,4.1,.71,3.03-1.71-.28,.29,.04,1.19-.4,1.32Zm-24.88-.26c-.77-.59-2.73-.76-3.29,0-.72,.98-.14,3.78,1.45,2.63-3.01-1.06,.01-3.6,1.97-2.11,3.32,2.52,2.84,12.29,4.87,15.27-1.22-3.83-1.57-13.17-5-15.8Zm-13.03,2.63c.93-.69,1.92-1.32,2.5-2.37-.03-.1,0-.26-.13-.26-.68,.99-2.06,1.28-2.37,2.63Zm31.59-2.11c-2.78,.82-5.92,3.66-6.45,6.32,1.26-.22,1.74,2.06,.79,2.11,.34-.67-.09-1.3-.66-1.45-1.52,2.79-.14,7.33,.79,9.74,3.44,.2,7.58,.3,10.53-.4,.43-1.44-.78-1.97-.79-3.03-.02-1.89,2.23-3.26,2.37-5.4-.53-.75-1.62-.93-2.11-1.71-.09-.49,.22-.56,.13-1.05-.54-.38-1.6-.25-1.84-.92-.58-.14-.43,.45-.92,.4,.06-.85-.42-1.16-.53-1.84,.63,.32,1.79,1.11,2.63,.39-.32-.82-1.07-1.21-.79-2.63-.7-.78-1.99-.87-3.16-.53Zm-18.83,.4c-.69-.45-3.06-.64-2.11,1.05,.53-.71,1.42-.84,2.11-.26,2.17,1.82,2.55,8.38,3.55,11.32-.65-3.4-1.15-10.55-3.55-12.11Zm4.34,14.61c-.16-.5-.25-1.06-.53-1.45,.1,.56,.04,1.28,.53,1.45Zm2.9,.79c-1.67-4.65-1.4-11.24-3.82-15.14-.16-.02-.3-.23-.39,0,2.62,3.83,1.96,10.94,4.21,15.14Zm-1.45-11.59c-.3-1.42-.59-3.05-1.71-3.69,1.03,2,1.81,5.39,2.37,8.29-.13-1.51-.35-3.17-.66-4.61Zm1.71,10.27c-.37-1.47-.62-3.07-.92-4.61,.07,1.78,.33,3.35,.92,4.61Zm1.58,1.58c-2.35-4.01-1-11.73-3.55-15.53-.15,.02-.37-.02-.4,.13,2.38,4.08,1.27,11.63,3.95,15.4Zm-2.5-15.53h-.26c2.21,3.71,.85,12.14,3.69,15.67-2.29-4.07-.9-11.83-3.42-15.67Zm4.08,15.4c-1.87-4.18-.84-11.27-2.76-15.4h-.4c1.91,4.28,.8,11.58,3.16,15.4Zm1.05,.53c-1.79-3.92-.86-11.69-2.76-15.93h-.39c1.96,4.41,.54,12.18,3.16,15.93Zm-.4-8.16c-.26-2.9-.2-6.12-1.71-7.77,1.92,4.45,.56,12.16,3.03,16.06-.66-2.06-1.27-4.17-1.32-6.85,.22-.18,.22-1.26,0-1.45Zm-.79-7.77c.75,1.62,.93,3.81,1.32,5.79,.19-2.06-.14-4.67-1.32-5.79Zm1.05,0c.22,.92,.6,2.82,1.05,3.95-.08-1.59-.07-3.26-1.05-3.95Zm1.71,2.9c.68-.7,.02-1.91-.13-2.9-.19,.07-.68-.15-.66,.13,.47,.72,.42,1.94,.79,2.76Zm.79-1.19c.79-.07,.18-1.27,.13-1.71-.2,.02-.49-.05-.53,.13,.23,.43,.35,.97,.39,1.58Zm1.19-.79c.14-.16,.37-1.14-.26-.92-.28,.17-.14,1.01,.26,.92Zm-28.04,1.71c.78-.33,2-1.32,2.5-2.37-.79,.31-2.06,1.28-2.5,2.37Zm0,1.19c.92-.66,2.42-1.45,2.37-2.63-.72,.94-1.98,1.36-2.37,2.63Zm12.9-1.84c.45,2.05,1.42,3.84,1.84,6.06,.42,2.22,.51,4.34,1.45,6.19-1.11-4.06-1.38-8.98-3.29-12.24Zm-12.9,3.03c.92-.75,2.03-1.31,2.5-2.5-.76,.38-2.15,1.27-2.5,2.5Zm8.56,1.84c.62,1.58,1.04,3.66,.79,5.92-.23,2.07-1.71,3.46-1.32,5.53,3.36-2.77,2.77-12.65-.92-15.01,0,1.7,.96,2.32,1.45,3.55Zm-8.56-.79c1.04-.58,1.95-1.3,2.5-2.37-.81,.29-2.05,1.28-2.5,2.37Zm0,1.19c.91-.67,2.4-1.46,2.37-2.63-.72,.94-1.98,1.35-2.37,2.63Zm0,1.18c.91-.76,2.02-1.32,2.5-2.5-.76,.39-2.15,1.27-2.5,2.5Zm7.77-1.71c.08-.61-.72-.33-1.18-.39v.39h1.18Zm-7.77,2.77c1.04-.58,1.93-1.32,2.5-2.37-.83,.27-2.05,1.29-2.5,2.37Zm5.4-1.19c.89-.16,2.44,.33,2.9-.26-.68-.15-2.61-.42-2.9,.26Zm-5.4,2.37c.88-.7,2.42-1.44,2.37-2.63-.72,.95-2.01,1.32-2.37,2.63Zm5-1.84c-1.07,.19,.81,.03,.92,.26h2.24c.41-.11,.5-.34-.13-.26-.7-.22-2.32-.22-3.03,0Zm-5,3.03c.91-.76,2.02-1.32,2.5-2.5-.77,.37-2.17,1.25-2.5,2.5Zm8.56-2.37h-.4c-1.2,.23-3.63-.49-4.08,.39,.94,.44,3.67,.44,4.61,0,0-.18-.06-.29-.13-.39Zm-8.56,3.42c1.04-.58,1.93-1.32,2.5-2.37-.86,.24-2.04,1.3-2.5,2.37Zm4.08-2.24v.26c1.05,.31,2.68,.05,3.95,.13,.09-.3,.91,.12,.79-.4h-.13c-1.23-.22-3.38-.22-4.61,0Zm-4.08,3.42c.86-.73,2.43-1.43,2.37-2.63-.72,.94-2.03,1.31-2.37,2.63Zm4.08-2.37c1.24,.14,3.72,.39,4.74-.13-1.24-.14-3.72-.39-4.74,.13Zm.66,.53c-.26,.32-.56-.22-.66,.26,1.2,.13,3.63,.39,4.61-.13-1.05-.31-2.68-.04-3.95-.13Zm-4.74,3.03c.91-.76,2-1.33,2.5-2.5-.77,.37-2.17,1.25-2.5,2.5Zm5.4-1.97c.5,.31,2.89,.62,3.16-.13-.83-.31-2.24-.04-3.29-.13,.03,.1,0,.26,.13,.26Zm-5.4,3.03c.93-.65,2.43-1.43,2.37-2.63-.71,.96-1.97,1.37-2.37,2.63Zm6.32-2.24c.2,.42,1.91,.42,2.11,0-.43,.08-.61-.09-.92-.13-.32,.04-1.5-.11-1.18,.13Zm.53,.92c.19,.32,1.32,.48,1.32-.13-.4,.08-1.13-.17-1.32,.13Zm-6.85,2.5c.8-.78,2.4-1.46,2.37-2.63-.72,.95-2.05,1.28-2.37,2.63Zm13.56,5.4c.3,.25,1.4,.18,1.71,0,1.19,.22,3.28,.21,4.48,0,.14,.22,1.17,.22,1.32,0,.37,.21,1.47,.21,1.84,0,.22,.25,1.21,.17,1.45,0,1.58,.22,4.08,.22,5.66,0,.27,.17,1.32,.25,1.58,0,.39,.27,1.24,.07,1.84,.13v-.13c.28,.24,.96,.09,1.45,.13h3.29c.4-.08,1.13,.17,1.32-.13,.22,.22,.77,.11,1.19,.13-1.1-1.97-2.45-3.69-3.69-5.53-7.12,1.26-15.39,.12-21.19-1.58-1.2,2.48-2.86,4.51-3.95,7.11,.56-.05,1.36,.13,1.71-.13Z"/><path class="cls-4" d="M50.32,67.6c2.05-.49,1.73,3.32-.26,2.63-1.13-.39-.94-2.34,.26-2.63Zm.13,2.24c.88,.12,1.26-1.15,.53-1.84-1.65-.27-1.47,1.71-.53,1.84Z"/><path class="cls-3" d="M49,76.16h.92c-3.61,6.18-7.46,12.11-11.06,18.3,3.74,.24,8.47,.13,12.77,.13,1.43,0,4.01-.19,4.21,.26-5.35-.22-11.63-.22-16.98,0-1.05,1.06-2.11,2.8-2.5,4.08-.13,0-.1,.16-.13,.26-1.54-.67-.32-2.04,.13-2.76,4.02-6.42,8.76-13.78,12.64-20.27Z"/><path class="cls-3" d="M66.91,76.95c-.55,2.34-1.54,5.39-1.71,8.56-.41-1.3-1.6-2.68-1.45-3.95,.17-1.37,2.96-2.99,3.16-4.61Z"/><path class="cls-4" d="M38.21,51.8c-.26-.31-.35-.88-.13-1.32,1.62-.88,1.66,2.03,.13,1.32Z"/><path class="cls-4" d="M61.51,80.9c.7,1.12,.11,2.56-1.18,2.5-2.95-.13-.37-4.98,1.18-2.5Zm-.66-.13c-1.46-.26-1.66,1.24-1.05,1.97,1.46,.78,2.07-1.37,1.05-1.97Z"/><path class="cls-4" d="M36.1,44.83c2.06-.26,2.08,2.84,.66,3.16-1.91,.43-2.62-2.92-.66-3.16Zm1.18,1.32c-.37-1.78-2.94-.16-1.45,1.32,1.23,.21,1.59-.64,1.45-1.32Z"/><path class="cls-4" d="M36.89,47.06c-3.1,.51,.56-3.36,0,0h0Z"/><path class="cls-4" d="M38.21,49.57c2.21-.72,2.34,3.09,.53,3.16-1.58,.06-2.05-2.67-.53-3.16Zm.53,2.63c1.01-.06,1.28-2.48-.26-2.24-1.26,.2-.75,2.3,.26,2.24Z"/><path class="cls-4" d="M40.45,54.44c2.1-.05,1.65,3.22,.13,3.29-1.73,.08-2.19-3.24-.13-3.29Zm0,2.76c.74,.01,1.05-.59,.92-1.71-1.54-1.82-2.65,1.68-.92,1.71Z"/><path class="cls-4" d="M40.97,56.81c-.37-.11-.34,.19-.66,.13-.54-.19-.69-1.13-.26-1.58,.92-.37,1.46,.71,.92,1.45Z"/><path class="cls-4" d="M60.19,81.03c1.2-.27,1.04,1.52,.26,1.58-.75,.06-1.18-1.37-.26-1.58Z"/><path class="cls-4" d="M61.9,85.24c2.11-.4,2.12,2.83,.79,3.16-1.86,.46-2.63-2.81-.79-3.16Zm1.32,1.45c-.24-2.2-3.31,.14-1.45,1.18,1.19,.27,1.49-.76,1.45-1.18Z"/><path class="cls-4" d="M62.04,86.03c1.2-.27,1.04,1.52,.26,1.58-.75,.06-1.18-1.37-.26-1.58Z"/><path class="cls-4" d="M64.8,89.98c1.72,.37,1.4,3.19-.26,3.16-1.71-.03-1.92-3.63,.26-3.16Zm-.26,2.63c.49,0,.46-.27,.92-.53,.16-4.12-3.59,.51-.92,.53Z"/><path class="cls-4" d="M64.67,92.35c-.4,0-.51-.28-.79-.39-.28-2.46,2.49-.52,.79,.39Z"/></g></g></g></svg>