<?xml version="1.0" encoding="UTF-8"?><svg id="Layer_2" xmlns="http://www.w3.org/2000/svg" viewBox="0 0 101.07 140"><defs><style>.cls-1{fill:#fff;}.cls-2{fill:#c4161c;}</style></defs><g id="cards"><g><path class="cls-1" d="M98.04,0s-29.21,.79-47.5,.79S3.03,0,3.03,0C1.36-.04,0,1.28,0,2.95V135.9c0,1.67,1.36,3.08,3.03,3.13,0,0,29.21,.97,47.5,.97s47.5-.97,47.5-.97c1.67-.06,3.03-1.47,3.03-3.13V2.95c0-1.67-1.36-2.99-3.03-2.95Z"/><path class="cls-2" d="M9.93,13.17c.64,0,1.15-.33,1.54-.99,.39-.66,.61-1.56,.66-2.71-.37,.47-.72,.81-1.05,1-.33,.19-.73,.29-1.18,.29-.78,0-1.42-.3-1.92-.9-.5-.6-.75-1.37-.75-2.32,0-1,.27-1.82,.82-2.47,.55-.65,1.23-.98,2.05-.98,.51,0,.99,.14,1.44,.43,.44,.29,.78,.67,1,1.15,.43,.93,.64,2.06,.64,3.39,0,1.5-.3,2.72-.91,3.66-.61,.94-1.4,1.41-2.36,1.41-.63,0-1.15-.2-1.57-.59-.42-.4-.63-.89-.63-1.48,0-.66,.24-.99,.73-.99,.19,0,.35,.07,.48,.21,.13,.14,.19,.32,.19,.54,0,.25-.11,.46-.33,.62,.23,.48,.62,.72,1.18,.72Zm.14-3.44c.52,0,.96-.2,1.3-.61,.34-.41,.52-.92,.52-1.54,0-.68-.17-1.26-.52-1.72s-.78-.69-1.29-.69-.94,.22-1.27,.66c-.33,.44-.5,1.01-.5,1.69s.16,1.19,.49,1.6c.32,.41,.75,.61,1.28,.61Z"/><path class="cls-2" d="M90.93,125.77c-.64,0-1.15,.33-1.54,.99-.39,.66-.61,1.56-.66,2.71,.37-.47,.72-.81,1.05-1,.33-.19,.73-.29,1.18-.29,.78,0,1.42,.3,1.92,.9,.5,.6,.75,1.37,.75,2.32,0,1-.27,1.82-.82,2.47-.55,.65-1.23,.98-2.05,.98-.51,0-.99-.14-1.44-.43-.44-.29-.78-.67-1-1.15-.43-.93-.64-2.06-.64-3.39,0-1.5,.3-2.72,.91-3.66,.61-.94,1.4-1.41,2.36-1.41,.63,0,1.15,.2,1.57,.59,.42,.4,.63,.89,.63,1.48,0,.66-.24,.99-.73,.99-.19,0-.35-.07-.48-.21-.13-.14-.19-.32-.19-.54,0-.25,.11-.46,.33-.62-.23-.48-.62-.72-1.18-.72Zm-.15,3.44c-.52,0-.95,.2-1.3,.61-.34,.41-.52,.92-.52,1.54,0,.68,.17,1.26,.52,1.72,.35,.46,.78,.69,1.29,.69s.94-.22,1.27-.66c.33-.44,.5-1.01,.5-1.69s-.16-1.19-.49-1.6c-.32-.41-.75-.61-1.28-.61Z"/><path class="cls-2" d="M15.75,21.05c0-1.51-1.23-2.74-2.74-2.74s-2.74,1.22-2.74,2.73c0-1.51-1.23-2.73-2.74-2.73s-2.74,1.23-2.74,2.74c0,4.06,5.46,7.17,5.48,7.18,0,0,5.48-3.12,5.48-7.18Z"/><path class="cls-2" d="M85.11,117.9c0,1.51,1.23,2.74,2.74,2.74s2.74-1.22,2.74-2.73c0,1.51,1.23,2.73,2.74,2.73s2.74-1.23,2.74-2.74c0-4.06-5.46-7.17-5.48-7.18,0,0-5.48,3.12-5.48,7.18Z"/><path class="cls-2" d="M39.05,20.65c0-3.18-2.58-5.76-5.76-5.76s-5.75,2.57-5.76,5.73c-.01-3.17-2.58-5.73-5.76-5.73s-5.76,2.58-5.76,5.76c0,8.52,11.46,15.05,11.51,15.08,0,0,11.51-6.56,11.51-15.08Z"/><path class="cls-2" d="M39.05,50.65c0-3.18-2.58-5.76-5.76-5.76s-5.75,2.57-5.76,5.73c-.01-3.17-2.58-5.73-5.76-5.73s-5.76,2.58-5.76,5.76c0,8.52,11.46,15.05,11.51,15.08,0,0,11.51-6.56,11.51-15.08Z"/><path class="cls-2" d="M39.05,80.65c0-3.18-2.58-5.76-5.76-5.76s-5.75,2.57-5.76,5.73c-.01-3.17-2.58-5.73-5.76-5.73s-5.76,2.58-5.76,5.76c0,8.52,11.46,15.05,11.51,15.08,0,0,11.51-6.56,11.51-15.08Z"/><path class="cls-2" d="M39.05,110.65c0-3.18-2.58-5.76-5.76-5.76s-5.75,2.57-5.76,5.73c-.01-3.17-2.58-5.73-5.76-5.73s-5.76,2.58-5.76,5.76c0,8.52,11.46,15.05,11.51,15.08,0,0,11.51-6.56,11.51-15.08Z"/><path class="cls-2" d="M84.05,20.65c0-3.18-2.58-5.76-5.76-5.76s-5.75,2.57-5.76,5.73c-.01-3.17-2.58-5.73-5.76-5.73s-5.76,2.58-5.76,5.76c0,8.52,11.46,15.05,11.51,15.08,0,0,11.51-6.56,11.51-15.08Z"/><path class="cls-2" d="M84.05,50.65c0-3.18-2.58-5.76-5.76-5.76s-5.75,2.57-5.76,5.73c-.01-3.17-2.58-5.73-5.76-5.73s-5.76,2.58-5.76,5.76c0,8.52,11.46,15.05,11.51,15.08,0,0,11.51-6.56,11.51-15.08Z"/><path class="cls-2" d="M84.05,80.65c0-3.18-2.58-5.76-5.76-5.76s-5.75,2.57-5.76,5.73c-.01-3.17-2.58-5.73-5.76-5.73s-5.76,2.58-5.76,5.76c0,8.52,11.46,15.05,11.51,15.08,0,0,11.51-6.56,11.51-15.08Z"/><path class="cls-2" d="M84.05,110.65c0-3.18-2.58-5.76-5.76-5.76s-5.75,2.57-5.76,5.73c-.01-3.17-2.58-5.73-5.76-5.73s-5.76,2.58-5.76,5.76c0,8.52,11.46,15.05,11.51,15.08,0,0,11.51-6.56,11.51-15.08Z"/><path class="cls-2" d="M61.96,34.65c0-3.18-2.58-5.76-5.76-5.76s-5.75,2.57-5.76,5.73c-.01-3.17-2.58-5.73-5.76-5.73s-5.76,2.58-5.76,5.76c0,8.52,11.46,15.05,11.51,15.08,0,0,11.51-6.56,11.51-15.08Z"/></g></g></svg>