<?xml version="1.0" encoding="UTF-8"?><svg id="Layer_2" xmlns="http://www.w3.org/2000/svg" viewBox="0 0 101.07 140"><defs><style>.cls-1{fill:#fff;}.cls-2{fill:#c4161c;}</style></defs><g id="cards"><g><path class="cls-1" d="M98.04,0s-29.21,.79-47.5,.79S3.03,0,3.03,0C1.36-.04,0,1.28,0,2.95V135.9c0,1.67,1.36,3.08,3.03,3.13,0,0,29.21,.97,47.5,.97s47.5-.97,47.5-.97c1.67-.06,3.03-1.47,3.03-3.13V2.95c0-1.67-1.36-2.99-3.03-2.95Z"/><g><path class="cls-2" d="M6.76,8.66v-2.76c-.03-.46-.16-.7-.4-.7-.08,0-.19,.02-.35,.05-.15,.03-.27,.05-.35,.05-.32,0-.47-.17-.47-.51,0-.15,.05-.28,.16-.38,.11-.1,.24-.15,.41-.15,.14,0,.31,.02,.52,.06,.21,.04,.41,.06,.58,.06,.15,0,.28-.01,.38-.04,.19-.08,.33-.12,.42-.12,.14,0,.22,.12,.22,.35v.15l-.04,.55c-.01,.48-.04,1.21-.09,2.19v1.22l.04,3.44c.02,.42,.06,.67,.11,.78,.05,.1,.19,.15,.4,.15,.09,0,.21,0,.38-.02,.16-.01,.29-.02,.38-.02,.34,0,.51,.16,.51,.49,0,.36-.17,.54-.52,.54-.18,0-.46-.03-.84-.09-.38-.06-.66-.09-.86-.09-.31,0-.65,.03-1.02,.09-.37,.06-.62,.09-.75,.09-.35,0-.52-.17-.52-.52s.15-.51,.45-.51c.08,0,.19,.01,.33,.04,.15,.02,.26,.04,.33,.04,.33,0,.5-.26,.51-.78,0-.11,0-.34,.03-.7,.04-.71,.06-1.68,.06-2.93Z"/><path class="cls-2" d="M11.27,12.8c-.61-.89-.91-2.13-.91-3.69s.31-2.8,.92-3.68c.61-.89,1.34-1.33,2.17-1.33,.9,0,1.64,.44,2.22,1.32,.62,.93,.93,2.17,.93,3.71s-.31,2.8-.92,3.69c-.61,.89-1.34,1.33-2.17,1.33-.88,0-1.62-.45-2.23-1.34Zm2.2-7.68c-.57,0-1.04,.38-1.42,1.13-.38,.75-.57,1.71-.57,2.86s.19,2.11,.57,2.87c.38,.76,.85,1.14,1.42,1.14s1.04-.38,1.42-1.13c.38-.75,.57-1.71,.57-2.86s-.19-2.11-.57-2.87c-.38-.76-.85-1.14-1.42-1.14Z"/></g><g><path class="cls-2" d="M94.1,130.29v2.76c.03,.46,.16,.7,.4,.7,.08,0,.19-.02,.35-.05,.15-.03,.27-.05,.35-.05,.32,0,.47,.17,.47,.51,0,.15-.05,.28-.16,.38-.11,.1-.24,.15-.41,.15-.14,0-.31-.02-.52-.06-.21-.04-.41-.06-.58-.06-.15,0-.28,.01-.38,.04-.19,.08-.33,.12-.42,.12-.14,0-.22-.12-.22-.35v-.14l.04-.55c.01-.48,.04-1.21,.09-2.19v-1.22l-.04-3.44c-.02-.42-.06-.67-.11-.78-.05-.1-.19-.15-.4-.15-.09,0-.21,0-.38,.02-.16,.01-.29,.02-.38,.02-.34,0-.51-.17-.51-.49,0-.36,.17-.54,.52-.54,.18,0,.46,.03,.84,.09,.38,.06,.66,.09,.86,.09,.31,0,.65-.03,1.02-.09,.37-.06,.62-.09,.75-.09,.35,0,.52,.17,.52,.52s-.15,.51-.45,.51c-.08,0-.19-.01-.33-.04-.14-.02-.26-.04-.33-.04-.33,0-.5,.26-.51,.78,0,.11,0,.34-.03,.7-.04,.71-.06,1.68-.06,2.93Z"/><path class="cls-2" d="M89.59,126.15c.61,.89,.91,2.13,.91,3.69s-.31,2.8-.92,3.68c-.61,.89-1.34,1.33-2.17,1.33-.9,0-1.64-.44-2.22-1.32-.62-.93-.93-2.17-.93-3.71s.31-2.8,.92-3.69c.61-.89,1.34-1.33,2.17-1.33,.88,0,1.62,.45,2.23,1.34Zm-2.21,7.68c.57,0,1.04-.38,1.42-1.13,.38-.75,.57-1.71,.57-2.86s-.19-2.11-.57-2.87c-.38-.76-.85-1.14-1.42-1.14s-1.04,.38-1.42,1.13c-.38,.75-.57,1.71-.57,2.86s.19,2.11,.57,2.87c.38,.76,.85,1.14,1.42,1.14Z"/></g><path class="cls-2" d="M15.75,21.05c0-1.51-1.23-2.74-2.74-2.74s-2.74,1.22-2.74,2.73c0-1.51-1.23-2.73-2.74-2.73s-2.74,1.23-2.74,2.74c0,4.06,5.46,7.17,5.48,7.18,0,0,5.48-3.12,5.48-7.18Z"/><path class="cls-2" d="M85.11,117.9c0,1.51,1.23,2.74,2.74,2.74s2.74-1.22,2.74-2.73c0,1.51,1.23,2.73,2.74,2.73s2.74-1.23,2.74-2.74c0-4.06-5.46-7.17-5.48-7.18,0,0-5.48,3.12-5.48,7.18Z"/><path class="cls-2" d="M39.43,20.65c0-3.18-2.58-5.76-5.76-5.76s-5.75,2.57-5.76,5.73c-.01-3.17-2.58-5.73-5.76-5.73s-5.76,2.58-5.76,5.76c0,8.52,11.46,15.05,11.51,15.08,0,0,11.51-6.56,11.51-15.08Z"/><path class="cls-2" d="M39.43,50.65c0-3.18-2.58-5.76-5.76-5.76s-5.75,2.57-5.76,5.73c-.01-3.17-2.58-5.73-5.76-5.73s-5.76,2.58-5.76,5.76c0,8.52,11.46,15.05,11.51,15.08,0,0,11.51-6.56,11.51-15.08Z"/><path class="cls-2" d="M39.43,80.65c0-3.18-2.58-5.76-5.76-5.76s-5.75,2.57-5.76,5.73c-.01-3.17-2.58-5.73-5.76-5.73s-5.76,2.58-5.76,5.76c0,8.52,11.46,15.05,11.51,15.08,0,0,11.51-6.56,11.51-15.08Z"/><path class="cls-2" d="M39.43,110.65c0-3.18-2.58-5.76-5.76-5.76s-5.75,2.57-5.76,5.73c-.01-3.17-2.58-5.73-5.76-5.73s-5.76,2.58-5.76,5.76c0,8.52,11.46,15.05,11.51,15.08,0,0,11.51-6.56,11.51-15.08Z"/><path class="cls-2" d="M84.43,20.65c0-3.18-2.58-5.76-5.76-5.76s-5.75,2.57-5.76,5.73c-.01-3.17-2.58-5.73-5.76-5.73s-5.76,2.58-5.76,5.76c0,8.52,11.46,15.05,11.51,15.08,0,0,11.51-6.56,11.51-15.08Z"/><path class="cls-2" d="M84.43,50.65c0-3.18-2.58-5.76-5.76-5.76s-5.75,2.57-5.76,5.73c-.01-3.17-2.58-5.73-5.76-5.73s-5.76,2.58-5.76,5.76c0,8.52,11.46,15.05,11.51,15.08,0,0,11.51-6.56,11.51-15.08Z"/><path class="cls-2" d="M84.43,80.65c0-3.18-2.58-5.76-5.76-5.76s-5.75,2.57-5.76,5.73c-.01-3.17-2.58-5.73-5.76-5.73s-5.76,2.58-5.76,5.76c0,8.52,11.46,15.05,11.51,15.08,0,0,11.51-6.56,11.51-15.08Z"/><path class="cls-2" d="M84.43,110.65c0-3.18-2.58-5.76-5.76-5.76s-5.75,2.57-5.76,5.73c-.01-3.17-2.58-5.73-5.76-5.73s-5.76,2.58-5.76,5.76c0,8.52,11.46,15.05,11.51,15.08,0,0,11.51-6.56,11.51-15.08Z"/><path class="cls-2" d="M62.34,34.65c0-3.18-2.58-5.76-5.76-5.76s-5.75,2.57-5.76,5.73c-.01-3.17-2.58-5.73-5.76-5.73s-5.76,2.58-5.76,5.76c0,8.52,11.46,15.05,11.51,15.08,0,0,11.51-6.56,11.51-15.08Z"/><path class="cls-2" d="M62.34,94.65c0-3.18-2.58-5.76-5.76-5.76s-5.75,2.57-5.76,5.73c-.01-3.17-2.58-5.73-5.76-5.73s-5.76,2.58-5.76,5.76c0,8.52,11.46,15.05,11.51,15.08,0,0,11.51-6.56,11.51-15.08Z"/></g></g></svg>