<?xml version="1.0" encoding="UTF-8"?><svg id="Layer_2" xmlns="http://www.w3.org/2000/svg" viewBox="0 0 101.07 140"><defs><style>.cls-1{fill:#fff;}.cls-2{fill:#c4161c;}</style></defs><g id="cards"><g><path class="cls-1" d="M98.04,0s-29.21,.79-47.5,.79S3.03,0,3.03,0C1.36-.04,0,1.28,0,2.95V135.9c0,1.67,1.36,3.08,3.03,3.13,0,0,29.21,.97,47.5,.97s47.5-.97,47.5-.97c1.67-.06,3.03-1.47,3.03-3.13V2.95c0-1.67-1.36-2.99-3.03-2.95Z"/><path class="cls-2" d="M8.04,9.29c.25-.29,.63-.5,1.13-.64-.88-.37-1.32-1.05-1.32-2.05,0-.73,.24-1.32,.73-1.8,.48-.47,1.09-.71,1.83-.71s1.28,.23,1.73,.68c.45,.45,.67,1.04,.67,1.76,0,.96-.43,1.66-1.29,2.12,1.11,.36,1.67,1.17,1.67,2.45,0,.9-.27,1.63-.82,2.2s-1.25,.85-2.13,.85-1.53-.27-2.08-.82c-.56-.55-.83-1.23-.83-2.05,0-.77,.24-1.44,.71-1.99Zm2.22-.09c-.53,0-.97,.18-1.33,.55-.35,.37-.53,.83-.53,1.4,0,.6,.17,1.08,.52,1.46,.34,.38,.78,.56,1.31,.56s.99-.19,1.33-.56c.35-.38,.52-.86,.52-1.45s-.16-1.07-.49-1.43c-.33-.36-.77-.53-1.33-.53Zm.09-4.13c-.41,0-.74,.14-1,.43-.26,.28-.39,.64-.39,1.08s.13,.78,.39,1.06c.26,.28,.59,.43,.99,.43s.71-.14,.98-.43c.27-.29,.4-.64,.4-1.05s-.13-.78-.39-1.07c-.26-.29-.59-.43-.97-.43Z"/><path class="cls-2" d="M92.82,129.66c-.25,.29-.63,.5-1.13,.64,.88,.37,1.32,1.05,1.32,2.05,0,.73-.24,1.32-.73,1.8-.48,.47-1.09,.71-1.83,.71s-1.28-.23-1.73-.68c-.45-.45-.67-1.04-.67-1.76,0-.96,.43-1.66,1.29-2.12-1.11-.36-1.67-1.17-1.67-2.45,0-.9,.27-1.63,.82-2.2,.55-.57,1.25-.85,2.13-.85s1.53,.27,2.08,.82c.56,.55,.83,1.23,.83,2.05,0,.77-.24,1.44-.71,1.99Zm-2.22,.09c.53,0,.97-.18,1.33-.55,.35-.37,.53-.83,.53-1.4,0-.6-.17-1.08-.52-1.46-.34-.38-.78-.56-1.31-.56s-.99,.19-1.33,.56c-.35,.38-.52,.86-.52,1.45s.16,1.07,.49,1.43c.33,.36,.77,.53,1.33,.53Zm-.09,4.13c.41,0,.74-.14,1-.43,.26-.28,.39-.64,.39-1.08s-.13-.78-.39-1.06c-.26-.28-.59-.43-.99-.43s-.71,.14-.98,.43c-.27,.29-.4,.64-.4,1.05s.13,.78,.39,1.07c.26,.29,.59,.43,.97,.43Z"/><path class="cls-2" d="M15.75,21.05c0-1.51-1.23-2.74-2.74-2.74s-2.74,1.22-2.74,2.73c0-1.51-1.23-2.73-2.74-2.73s-2.74,1.23-2.74,2.74c0,4.06,5.46,7.17,5.48,7.18,0,0,5.48-3.12,5.48-7.18Z"/><path class="cls-2" d="M85.11,117.9c0,1.51,1.23,2.74,2.74,2.74s2.74-1.22,2.74-2.73c0,1.51,1.23,2.73,2.74,2.73s2.74-1.23,2.74-2.74c0-4.06-5.46-7.17-5.48-7.18,0,0-5.48,3.12-5.48,7.18Z"/><path class="cls-2" d="M63.25,83.14c0-3.53-2.86-6.4-6.4-6.4s-6.38,2.85-6.4,6.37c-.01-3.52-2.87-6.37-6.4-6.37s-6.4,2.86-6.4,6.4c0,9.47,12.73,16.73,12.79,16.76,0,0,12.79-7.29,12.79-16.76Z"/><path class="cls-2" d="M63.31,43.14c0-3.53-2.86-6.4-6.4-6.4s-6.38,2.85-6.4,6.37c-.01-3.52-2.87-6.37-6.4-6.37s-6.4,2.86-6.4,6.4c0,9.47,12.73,16.73,12.79,16.76,0,0,12.79-7.29,12.79-16.76Z"/><path class="cls-2" d="M43.23,63.14c0-3.53-2.86-6.4-6.4-6.4s-6.38,2.85-6.4,6.37c-.01-3.52-2.87-6.37-6.4-6.37s-6.4,2.86-6.4,6.4c0,9.47,12.73,16.73,12.79,16.76,0,0,12.79-7.29,12.79-16.76Z"/><path class="cls-2" d="M43.23,23.14c0-3.53-2.86-6.4-6.4-6.4s-6.38,2.85-6.4,6.37c-.01-3.52-2.87-6.37-6.4-6.37s-6.4,2.86-6.4,6.4c0,9.47,12.73,16.73,12.79,16.76,0,0,12.79-7.29,12.79-16.76Z"/><path class="cls-2" d="M43.23,103.14c0-3.53-2.86-6.4-6.4-6.4s-6.38,2.85-6.4,6.37c-.01-3.52-2.87-6.37-6.4-6.37s-6.4,2.86-6.4,6.4c0,9.47,12.73,16.73,12.79,16.76,0,0,12.79-7.29,12.79-16.76Z"/><path class="cls-2" d="M83.23,63.14c0-3.53-2.86-6.4-6.4-6.4s-6.38,2.85-6.4,6.37c-.01-3.52-2.87-6.37-6.4-6.37s-6.4,2.86-6.4,6.4c0,9.47,12.73,16.73,12.79,16.76,0,0,12.79-7.29,12.79-16.76Z"/><path class="cls-2" d="M83.23,23.14c0-3.53-2.86-6.4-6.4-6.4s-6.38,2.85-6.4,6.37c-.01-3.52-2.87-6.37-6.4-6.37s-6.4,2.86-6.4,6.4c0,9.47,12.73,16.73,12.79,16.76,0,0,12.79-7.29,12.79-16.76Z"/><path class="cls-2" d="M83.23,103.14c0-3.53-2.86-6.4-6.4-6.4s-6.38,2.85-6.4,6.37c-.01-3.52-2.87-6.37-6.4-6.37s-6.4,2.86-6.4,6.4c0,9.47,12.73,16.73,12.79,16.76,0,0,12.79-7.29,12.79-16.76Z"/></g></g></svg>