<?xml version="1.0" encoding="UTF-8"?><svg id="Layer_2" xmlns="http://www.w3.org/2000/svg" viewBox="0 0 101.07 140"><defs><style>.cls-1{fill:#fff;}.cls-2{fill:#231f20;}</style></defs><g id="cards"><g><path class="cls-1" d="M98.04,0s-29.21,.79-47.5,.79S3.03,0,3.03,0C1.36-.04,0,1.28,0,2.95V135.9c0,1.67,1.36,3.08,3.03,3.13,0,0,29.21,.97,47.5,.97s47.5-.97,47.5-.97c1.67-.06,3.03-1.47,3.03-3.13V2.95c0-1.67-1.36-2.99-3.03-2.95Z"/><path class="cls-2" d="M8.88,5.88l-.2,2.28c.57-.51,1.19-.77,1.86-.77,.79,0,1.43,.3,1.92,.89s.73,1.37,.73,2.31c0,1.04-.28,1.89-.85,2.55-.57,.67-1.29,1-2.17,1-.77,0-1.43-.24-1.97-.71-.54-.47-.81-1.05-.81-1.74,0-.39,.08-.7,.25-.95,.16-.25,.38-.37,.64-.37,.21,0,.39,.08,.53,.23,.14,.15,.21,.35,.21,.58,0,.44-.21,.67-.62,.68,.26,.85,.84,1.28,1.74,1.28,.59,0,1.07-.24,1.44-.71,.37-.47,.56-1.08,.56-1.83,0-.66-.16-1.19-.49-1.6-.33-.41-.76-.61-1.31-.61-.66,0-1.17,.3-1.55,.9-.12,.18-.2,.29-.26,.33-.06,.04-.16,.06-.32,.06-.34,0-.51-.18-.51-.55,0-.18,.02-.43,.06-.73,.04-.37,.06-.61,.07-.74,.02-.22,.04-.56,.07-1,.05-.68,.07-1.24,.07-1.7v-.35c0-.16,.01-.28,.04-.34,.03-.06,.11-.09,.25-.09,.08,0,.14,0,.17,.01,.75,.06,1.28,.09,1.57,.09l.12-.03h1.15c.11,0,.27-.01,.49-.04,.22-.02,.38-.04,.5-.04,.13,0,.21,.02,.25,.07,.04,.04,.06,.14,.06,.28,0,.13,0,.22-.01,.29v.3c0,.15,.02,.38,.07,.67,.05,.29,.07,.51,.07,.65,0,.28-.14,.42-.42,.42s-.43-.15-.45-.45l-.03-.46c-.02-.26-.1-.44-.25-.53-.15-.1-.4-.14-.77-.14h-1.39c-.19,0-.32,.03-.38,.09-.06,.06-.1,.23-.12,.49Z"/><path class="cls-2" d="M91.97,133.07l.2-2.28c-.57,.51-1.19,.77-1.86,.77-.79,0-1.43-.3-1.92-.89s-.73-1.37-.73-2.31c0-1.04,.28-1.89,.85-2.55,.57-.67,1.29-1,2.17-1,.77,0,1.43,.24,1.97,.71,.54,.47,.81,1.05,.81,1.74,0,.39-.08,.7-.25,.95-.16,.25-.38,.37-.64,.37-.21,0-.39-.08-.53-.23-.14-.15-.21-.35-.21-.58,0-.44,.21-.67,.62-.68-.26-.85-.84-1.28-1.74-1.28-.59,0-1.07,.24-1.44,.71-.37,.47-.56,1.08-.56,1.83,0,.66,.16,1.19,.49,1.6,.33,.41,.76,.61,1.31,.61,.66,0,1.17-.3,1.55-.9,.12-.18,.2-.29,.26-.33,.06-.04,.16-.06,.32-.06,.34,0,.51,.18,.51,.55,0,.18-.02,.43-.06,.73-.04,.37-.06,.61-.07,.74-.02,.22-.04,.56-.07,1-.05,.68-.07,1.24-.07,1.7v.35c0,.16-.01,.28-.04,.34-.03,.06-.11,.09-.25,.09-.08,0-.14,0-.17-.01-.75-.06-1.28-.09-1.57-.09l-.12,.03h-1.15c-.11,0-.27,.01-.49,.04-.22,.02-.38,.04-.5,.04-.13,0-.21-.02-.25-.07-.04-.04-.06-.14-.06-.28,0-.13,0-.22,.01-.29v-.3c0-.15-.02-.38-.07-.67-.05-.29-.07-.51-.07-.65,0-.28,.14-.42,.42-.42s.43,.15,.45,.45l.03,.46c.02,.26,.1,.44,.25,.53,.15,.1,.4,.14,.77,.14h1.39c.19,0,.32-.03,.38-.09,.06-.06,.1-.23,.12-.49Z"/><path class="cls-2" d="M12.75,25.92c1.38,0,2.49-1.11,2.49-2.49,0-3.68-4.96-6.51-4.98-6.52,0,0-4.98,2.84-4.98,6.52,0,1.37,1.12,2.49,2.49,2.49,1.02,0,1.9-.61,2.28-1.49-.77,3.58-3.4,4.15-3.4,4.15h7.22s-2.64-.58-3.4-4.15c.38,.88,1.26,1.49,2.28,1.49Z"/><path class="cls-2" d="M88.11,113.03c-1.37,0-2.49,1.11-2.49,2.49,0,3.69,4.96,6.51,4.98,6.52,0,0,4.98-2.84,4.98-6.52,0-1.37-1.11-2.49-2.49-2.49-1.02,0-1.9,.61-2.28,1.49,.77-3.58,3.4-4.15,3.4-4.15h-7.22s2.64,.57,3.4,4.15c-.38-.88-1.26-1.49-2.28-1.49Z"/><path class="cls-2" d="M56.31,75.57c3.21,0,5.81-2.6,5.81-5.81,0-8.6-11.56-15.19-11.62-15.22,0,0-11.62,6.62-11.62,15.22,0,3.21,2.6,5.81,5.81,5.81,2.38,0,4.42-1.43,5.32-3.48-1.79,8.35-7.94,9.69-7.94,9.69h16.86s-6.15-1.34-7.94-9.69c.9,2.05,2.94,3.48,5.32,3.48Z"/><path class="cls-2" d="M36.31,35.57c3.21,0,5.81-2.6,5.81-5.81,0-8.6-11.56-15.19-11.62-15.22,0,0-11.62,6.62-11.62,15.22,0,3.21,2.6,5.81,5.81,5.81,2.38,0,4.42-1.43,5.32-3.48-1.79,8.35-7.94,9.69-7.94,9.69h16.86s-6.15-1.34-7.94-9.69c.9,2.05,2.94,3.48,5.32,3.48Z"/><path class="cls-2" d="M36.31,115.57c3.21,0,5.81-2.6,5.81-5.81,0-8.6-11.56-15.19-11.62-15.22,0,0-11.62,6.62-11.62,15.22,0,3.21,2.6,5.81,5.81,5.81,2.38,0,4.42-1.43,5.32-3.48-1.79,8.35-7.94,9.69-7.94,9.69h16.86s-6.15-1.34-7.94-9.69c.9,2.05,2.94,3.48,5.32,3.48Z"/><path class="cls-2" d="M76.31,35.57c3.21,0,5.81-2.6,5.81-5.81,0-8.6-11.56-15.19-11.62-15.22,0,0-11.62,6.62-11.62,15.22,0,3.21,2.6,5.81,5.81,5.81,2.38,0,4.42-1.43,5.32-3.48-1.79,8.35-7.94,9.69-7.94,9.69h16.86s-6.15-1.34-7.94-9.69c.9,2.05,2.94,3.48,5.32,3.48Z"/><path class="cls-2" d="M76.31,115.57c3.21,0,5.81-2.6,5.81-5.81,0-8.6-11.56-15.19-11.62-15.22,0,0-11.62,6.62-11.62,15.22,0,3.21,2.6,5.81,5.81,5.81,2.38,0,4.42-1.43,5.32-3.48-1.79,8.35-7.94,9.69-7.94,9.69h16.86s-6.15-1.34-7.94-9.69c.9,2.05,2.94,3.48,5.32,3.48Z"/></g></g></svg>