<?xml version="1.0" encoding="UTF-8"?><svg id="Layer_2" xmlns="http://www.w3.org/2000/svg" viewBox="0 0 101.07 140"><defs><style>.cls-1{fill:#fff;}.cls-2,.cls-3{fill:#231f20;}.cls-3,.cls-4{fill-rule:evenodd;}.cls-4{fill:#c4161c;}</style></defs><g id="cards"><g><path class="cls-1" d="M98.04,0s-29.21,.79-47.5,.79S3.03,0,3.03,0C1.36-.04,0,1.28,0,2.95V135.9c0,1.67,1.36,3.08,3.03,3.13,0,0,29.21,.97,47.5,.97s47.5-.97,47.5-.97c1.67-.06,3.03-1.47,3.03-3.13V2.95c0-1.67-1.37-2.99-3.03-2.95Z"/><path class="cls-2" d="M11.58,12.17l-1.86-3.37-1.07,1.26v1.87c.05,.73,.19,1.09,.42,1.09,.04,0,.13-.01,.26-.04,.06-.02,.13-.04,.22-.04,.14,0,.25,.05,.34,.14,.09,.09,.14,.21,.14,.35,0,.17-.05,.31-.16,.42-.11,.11-.24,.17-.39,.17-.08,0-.29-.03-.65-.1-.25-.05-.47-.07-.67-.07-.15,0-.38,.03-.68,.09s-.53,.09-.68,.09-.29-.06-.39-.17c-.11-.11-.16-.25-.16-.42,0-.32,.15-.49,.46-.49,.1,0,.17,.01,.22,.04,.15,.02,.24,.04,.26,.04,.18,0,.3-.14,.35-.43,.05-.29,.07-.98,.07-2.1v-2.76c0-1.12-.02-1.83-.07-2.11-.05-.29-.16-.43-.35-.43-.05,0-.13,.01-.23,.04-.11,.03-.19,.04-.25,.04-.31,0-.46-.17-.46-.5,0-.38,.19-.57,.57-.57,.17,0,.4,.02,.67,.07,.32,.06,.57,.09,.74,.09,.19,0,.38-.02,.57-.06,.32-.07,.55-.1,.7-.1,.15,0,.29,.06,.39,.17,.11,.11,.16,.25,.16,.4,0,.14-.05,.25-.14,.35-.09,.1-.21,.15-.34,.15-.03,0-.1-.01-.2-.04-.11-.03-.2-.04-.28-.04-.23,0-.37,.37-.42,1.1,0,0,0,.47,0,1.44v.91l1.81-1.95c.68-.73,1.02-1.16,1.02-1.29,0-.09-.05-.13-.16-.13h-.33c-.3,0-.45-.18-.45-.55,0-.35,.16-.52,.49-.52,.12,0,.26,.02,.44,.06,.23,.05,.38,.07,.45,.07,.13,.02,.28,.03,.46,.03,.15,0,.38-.03,.68-.08s.52-.08,.67-.08c.36,0,.54,.18,.54,.54,0,.15-.05,.28-.14,.38-.09,.1-.21,.16-.34,.16-.09,0-.16-.01-.22-.04-.14-.03-.21-.04-.23-.04-.16,0-.36,.14-.62,.42l-.49,.54-1.76,1.83,2.55,4.48c.14,.23,.24,.38,.31,.44,.07,.06,.17,.09,.3,.09,.11,0,.19,0,.25-.03,.15-.02,.25-.03,.28-.03,.3,0,.45,.17,.45,.52,0,.37-.17,.55-.52,.55-.15,0-.39-.03-.7-.09-.31-.06-.55-.09-.71-.09-.15,0-.38,.03-.69,.09-.3,.06-.53,.09-.69,.09-.36,0-.54-.18-.54-.54s.17-.53,.51-.53c.05,0,.11,0,.2,.01,.08,0,.15,.01,.2,.01,.13,0,.19-.06,.19-.17,0-.13-.03-.25-.1-.36l-.16-.28Z"/><path class="cls-2" d="M89.28,126.78l1.86,3.37,1.07-1.26v-1.87c-.05-.73-.19-1.09-.42-1.09-.04,0-.13,.01-.26,.04-.06,.02-.13,.04-.22,.04-.14,0-.25-.05-.34-.14-.09-.09-.14-.21-.14-.35,0-.17,.05-.31,.16-.42,.11-.11,.24-.17,.39-.17,.08,0,.29,.03,.65,.1,.25,.05,.47,.07,.67,.07,.15,0,.38-.03,.68-.09s.53-.09,.68-.09,.29,.06,.39,.17c.11,.11,.16,.25,.16,.42,0,.32-.15,.49-.46,.49-.1,0-.17-.01-.22-.04-.15-.02-.24-.04-.26-.04-.18,0-.3,.14-.35,.43-.05,.29-.07,.98-.07,2.1v2.76c0,1.12,.02,1.83,.07,2.11,.05,.29,.16,.43,.35,.43,.05,0,.13-.01,.23-.04,.11-.03,.19-.04,.25-.04,.31,0,.46,.17,.46,.5,0,.38-.19,.57-.57,.57-.17,0-.4-.02-.67-.07-.32-.06-.57-.09-.74-.09-.19,0-.38,.02-.57,.06-.32,.07-.55,.1-.7,.1-.15,0-.29-.06-.39-.17-.11-.11-.16-.25-.16-.4,0-.14,.05-.25,.14-.35,.09-.1,.21-.15,.34-.15,.03,0,.1,.01,.2,.04,.11,.03,.2,.04,.28,.04,.23,0,.37-.37,.42-1.1,0,0,0-.47,0-1.44v-.91l-1.81,1.95c-.68,.73-1.02,1.16-1.02,1.29,0,.09,.05,.13,.16,.13h.33c.3,0,.45,.18,.45,.55,0,.35-.16,.52-.49,.52-.12,0-.26-.02-.44-.06-.23-.05-.38-.07-.45-.07-.13-.02-.28-.03-.46-.03-.15,0-.38,.03-.68,.08-.3,.05-.52,.08-.67,.08-.36,0-.54-.18-.54-.54,0-.15,.05-.28,.14-.38,.09-.1,.21-.16,.34-.16,.09,0,.16,.01,.22,.04,.14,.03,.21,.04,.23,.04,.16,0,.36-.14,.62-.42l.49-.54,1.76-1.83-2.55-4.48c-.14-.23-.24-.38-.31-.44-.07-.06-.17-.09-.3-.09-.11,0-.19,0-.25,.03-.15,.02-.25,.03-.28,.03-.3,0-.45-.17-.45-.52,0-.37,.17-.55,.52-.55,.15,0,.39,.03,.7,.09,.31,.06,.55,.09,.71,.09,.15,0,.38-.03,.69-.09,.3-.06,.53-.09,.69-.09,.36,0,.54,.18,.54,.54s-.17,.53-.51,.53c-.05,0-.11,0-.2-.01-.08,0-.15-.01-.2-.01-.13,0-.19,.06-.19,.17,0,.13,.03,.25,.1,.36l.16,.28Z"/><path class="cls-2" d="M12.75,25.92c1.38,0,2.49-1.11,2.49-2.49,0-3.69-4.96-6.51-4.98-6.52,0,0-4.98,2.84-4.98,6.52,0,1.37,1.11,2.49,2.49,2.49,1.02,0,1.9-.61,2.28-1.49-.77,3.58-3.4,4.15-3.4,4.15h7.22s-2.64-.58-3.4-4.15c.38,.88,1.26,1.49,2.28,1.49Z"/><path class="cls-2" d="M88.11,113.03c-1.37,0-2.49,1.11-2.49,2.49,0,3.69,4.96,6.51,4.98,6.52,0,0,4.98-2.84,4.98-6.52,0-1.37-1.11-2.49-2.49-2.49-1.02,0-1.9,.61-2.28,1.49,.77-3.58,3.4-4.15,3.4-4.15h-7.22s2.64,.57,3.4,4.15c-.38-.88-1.26-1.49-2.28-1.49Z"/><g><path class="cls-4" d="M36.78,14.67h3.95c-1.01,.22-2.94,.22-3.95,0Z"/><path class="cls-4" d="M40.86,14.67h25.67c-8.25,.22-17.42,.22-25.67,0Z"/><path class="cls-3" d="M55.08,27.7c-1.54-.82-3.92-1.48-5.79-.53,.78-2.37,5.08-1.01,5.79,.53Z"/><path class="cls-3" d="M54.95,28.75c-1.14-.33-4.27-2.13-5.27,0,1.71-1.06,4.1,.12,5.66,1.05-1.67,.19-2.81,1.55-4.87,.92,.28,.91,1.31,1.06,1.71,1.84-1.52-.32-1.83-2.11-3.29-2.11,.55-.77-.13-1.07-.26-1.84,.24-.02,.28,.16,.53,.13,1.02-2.11,4.51-1.42,5.79,0Zm-3.82,1.84c1.08,.3,1.95-.76,1.32-1.32-.04,1.56-1.73,.78-1.84-.13-.13,.78,.24,1.07,.53,1.45Zm-.53-.26c-.08-.36-.14-.74-.66-.66-.03,.47,.19,.69,.66,.66Zm2.24,0c.37-.02,.56-.23,.53-.66h-.39c.05,.32-.24,.29-.13,.66Z"/><path class="cls-3" d="M49.42,33.49c.39,.19,.45,.78,.26,1.18-.85,.9-1.85-.42-3.03,.13-.09-.58,.07-.9,.4-1.05,.98-.06,1.16,.68,1.84,.92,.58-.05,.8-.65,.53-1.18Z"/><path class="cls-3" d="M50.47,36.78c0,.43,.22,.66,.13,1.18-.46-.03-.5-.47-.92-.53-1.64,.72-2.85-.22-4.34,.26-.08-.52,.11-.76,.26-1.05,1.21,.56,3.04-.5,4.08,.4,.49,.14,.38-.33,.79-.26Z"/><path class="cls-3" d="M46.79,38.36c.25-.17,1.39,.19,1.84-.13-.3,.71-1.33,.51-1.84,.13Z"/><path class="cls-4" d="M69.83,39.15c.73,.9,1.16,2.08,2.11,2.77,1.11-.39,1.62-1.37,2.11-2.37,1.08,.93,1.96,2.08,3.69,2.37-3.57,.29-7.7,.02-11.32,.26,1.27-.88,2.68-1.62,3.42-3.03Z"/><path class="cls-4" d="M47.97,40.6h.13c.8,2.53,1.8,4.87,5.13,4.87,.13,.41-.36,.84-.66,1.19-2.27,2.6-5.06,5.64-7.5,8.16-.9-3.97-2.5-7.25-3.95-10.66,1.24,.31,2.64,.58,3.95,.26,.95-.23,3.08-2.29,2.9-3.82Z"/><path class="cls-3" d="M36.12,42.31c.01,.5-.26,.71-.66,.79-1.07-.51,.3-2.07,.66-.79Z"/><path class="cls-3" d="M38.36,42.71v.79c-.2,.07-.33,.19-.53,.26-1.24-.13-.37-2.06,.53-1.05Z"/><path class="cls-3" d="M36.39,43.63c.87,.88,2,1.51,2.63,2.63-.64,.2-.99,.68-1.45,1.05-.58-1.04-.84-2.41-1.18-3.69Z"/><path class="cls-3" d="M62.72,44.16c.15,.54,.04,.81-.4,1.05-1.13,.03-.55-1.77,.4-1.05Z"/><path class="cls-3" d="M35.99,44.42c.05,.53,0,.96-.4,1.05-1.04-.06-.59-1.72,.4-1.05Z"/><path class="cls-3" d="M60.74,45.47c.05,.53,0,.96-.4,1.05-1.4,.04-.55-2.11,.4-1.05Z"/><path class="cls-3" d="M61.8,46c-.18,1.14-.27,2.37-.26,3.69-.6,.28-1.21-.42-1.84-.53,.69-1.07,1.2-2.31,2.11-3.16Z"/><path class="cls-3" d="M62.45,47.45c-.81-1.46,1.56-1.42,.79,0-.38,.12-.4,.12-.79,0Z"/><path class="cls-3" d="M38.89,48.5c-1.86-1.4,1.83-1.43,0,0h0Z"/><path class="cls-3" d="M41.39,48.24c.34,.47,.3,1.23-.39,1.32-.86,0-.68-1.72,.39-1.32Z"/><path class="cls-3" d="M39.55,49.29c.87,.84,1.6,1.82,2.24,2.9-.68,.11-1.05,.53-1.58,.79-.44-1.01-.5-2.4-.66-3.69Z"/><path class="cls-3" d="M39.02,49.95c.03,.47-.09,.79-.39,.92-1.43,.01-.2-2.18,.39-.92Z"/><path class="cls-4" d="M36.12,50.34c1.14,1.53,1.76,3.59,2.63,5.4-1.58,.18-3.08,.43-3.69,1.58-.32-.42-1.07-.03-1.45-.13-1.33-.36-2.77-2.46-2.5-3.55,.28-1.16,4.08-2.35,5-3.29Z"/><path class="cls-3" d="M59.82,50.87c.04,.57,.01,1.06-.53,1.05-1.02-.11-.35-1.77,.53-1.05Z"/><path class="cls-3" d="M57.85,52.19c-.01,.38,.07,.86-.13,1.05h-.79c-.48-.71,.15-1.63,.92-1.05Z"/><path class="cls-4" d="M69.83,52.45c1.55,.29,2.01,1.67,3.03,2.5v16.46h-3.42c-.76,1.3-1.32,2.8-2.9,3.29,.22-.93-.28-2.44,0-3.55,.17-.66,1-1.52,1.45-2.24,2.49-4,3.82-10.03,1.84-16.46Z"/><path class="cls-3" d="M58.77,52.71c.36,1.15-.19,2.53,0,3.95-.59-.24-1.08-.58-1.84-.66,.6-1.12,1.22-2.2,1.84-3.29Z"/><path class="cls-3" d="M40.73,54.03c.19-2.69,2.02,1.04,0,0h0Z"/><path class="cls-3" d="M60.48,53.11c.04,.57,0,1.06-.53,1.05-1-.1-.34-1.75,.53-1.05Z"/><path class="cls-3" d="M43.76,54.56c.09,.5,.09,.63-.13,1.05-1.6,.35-.79-2.12,.13-1.05Z"/><path class="cls-4" d="M29.15,54.82c.43,.13-.04,1.27,0,1.58-.97,.34-1.94,.7-2.9,1.05,.81-1.04,1.97-1.72,2.9-2.63Z"/><path class="cls-4" d="M54.03,56.79c-.07,2.48-.77,5.47-.92,8.29h-6.06c1.79-2.77,4.76-5.51,6.98-8.29Z"/><path class="cls-3" d="M57.71,58.9c-.48,.09-.7-.09-.92-.26-.3-1.54,1.73-.8,.92,.26Z"/><path class="cls-4" d="M65.48,57.98c.22,.18,.22,1.26,0,1.45v-1.45Z"/><path class="cls-3" d="M56.14,59.82c-.08,.4-.21,.76-.66,.79-1.38-.33,.22-2.2,.66-.79Z"/><path class="cls-3" d="M56.92,59.82c.35,1.1,.23,2.66,.4,3.95-.59-.31-.93-.28-1.84-.4,.39-1.28,1-2.34,1.45-3.55Z"/><path class="cls-3" d="M58.64,59.95c.19,.43,.24,1.22-.39,1.19-.84,.01-.69-1.61,.39-1.19Z"/><path class="cls-3" d="M75.62,62.59c.89,.07,2.09-.15,2.76,.13v1.05c-.64,.28-1.78,.06-2.63,.13-.23-.25-.1-.87-.13-1.32Z"/><path class="cls-4" d="M33.23,63.64c0,.88,.41,2.36,.13,3.55-.27,1.16-2.15,3.12-2.76,4.48-1.72,3.81-1.96,9.3-.53,14.35-1.68-.63-3.16-2.11-3.16-3.82,0-4.67,.08-10.29,.13-15.27h3.42c.73-1.29,1.41-2.62,2.76-3.29Z"/><path class="cls-3" d="M56.14,66.14c-1.86-1.4,1.83-1.43,0,0h0Z"/><path class="cls-3" d="M78.25,64.82v1.18h-2.63c-.51-1.78,1.51-1.04,2.63-1.18Z"/><path class="cls-3" d="M44.42,66.14c.28,.95-.79,1.16-1.18,.66-.28-.95,.79-1.16,1.18-.66Z"/><path class="cls-3" d="M55.08,67.06c.05,.53,0,.96-.39,1.05-1.44,.08-.54-2.13,.39-1.05Z"/><path class="cls-3" d="M57.32,68.11c-.76,.04-.6-1.16-.13-1.32,.77-.12,.94,1.34,.13,1.32Z"/><path class="cls-3" d="M55.87,67.06c.58,1,.69,2.47,.92,3.82-.6-.19-1-.03-1.84-.13,.28-1.26,.7-2.37,.92-3.69Z"/><path class="cls-3" d="M78.38,67.33v.92c-.68,.29-1.87,.06-2.76,.13-.59-1.79,1.9-1.15,2.76-1.05Z"/><path class="cls-3" d="M44.68,67.59c.23,1.24-.62,2.54-.79,3.82-.46-1.12-.58-2.58-.92-3.82,.73,.04,1.03,.08,1.71,0Z"/><path class="cls-3" d="M21.64,67.98h2.5v.92h-2.5v-.92Z"/><path class="cls-3" d="M78.25,69.43v1.05h-2.5c-.81-1.49,1.46-.98,2.5-1.05Z"/><path class="cls-3" d="M21.51,70.09h2.77v1.05h-2.77v-1.05Z"/><path class="cls-3" d="M42.84,70.35c.3,.33,.36,1.01-.13,1.18-.96,.1-1.04-1.44,.13-1.18Z"/><path class="cls-3" d="M45.87,70.62c.05,.53,0,.96-.4,1.05-1.38,.06-.54-2.1,.4-1.05Z"/><path class="cls-4" d="M39.02,70.75c.14-.22,1.17-.22,1.32,0h-1.32Z"/><path class="cls-4" d="M48.89,70.75c.3,.44,.05,1.45,.13,2.11-.3-.44-.05-1.45-.13-2.11Z"/><path class="cls-3" d="M56,72.59c-1.16-.1-.21-2.09,.53-1.05,.04,.57,0,1.06-.53,1.05Z"/><path class="cls-3" d="M44.02,72.33c.3,.35,.3,.84,0,1.18-1.1,.18-1.17-1.39,0-1.18Z"/><path class="cls-3" d="M21.64,72.46h2.63v1.05h-2.63v-1.05Z"/><path class="cls-4" d="M46.66,73.38h6.19c-2.24,2.8-4.82,5.97-7.24,8.16,.54-2.54,.9-5.24,1.05-8.16Z"/><path class="cls-3" d="M24.28,74.57v1.18h-2.77c-.51-1.83,1.62-1.01,2.77-1.18Z"/><path class="cls-3" d="M42.58,74.7c.84,.06,.89,.32,1.84,.4-.62,1.09-.84,2.58-1.71,3.42,.1-1.41-.22-2.42-.13-3.82Z"/><path class="cls-3" d="M41.92,77.33c.3,.33,.36,1.01-.13,1.19-.95,.1-1.03-1.44,.13-1.19Z"/><path class="cls-3" d="M44.95,78.12c.1,.63-.19,.87-.53,1.05-1.29-.1-.36-2.09,.53-1.05Z"/><path class="cls-4" d="M30.33,78.12v2.24c-.22-.44-.22-1.8,0-2.24Z"/><path class="cls-4" d="M29.67,78.38v1.32c-.22-.14-.22-1.17,0-1.32Z"/><path class="cls-3" d="M43.1,80.23c-.12,.1-.2,.24-.26,.39h-.66c-.07-.2-.19-.33-.26-.53,.02-.95,1.25-.72,1.19,.13Z"/><path class="cls-4" d="M73.51,80.88c-.36,1-1.97,1.89-2.89,2.76-.27-.28,.16-.97,0-1.58,.94-.41,2.1-.62,2.89-1.19Z"/><path class="cls-4" d="M68.77,84.83c-1.37,1.4-3.36,2.16-5,3.29-1.22-1.55-1.91-3.62-2.63-5.66,1.52,.24,3.15-.28,3.69-1.45,2.33,.26,3.69,1.49,3.95,3.82Z"/><path class="cls-3" d="M42.84,82.33c-.4,1.27-1.18,2.15-1.71,3.29-.31-.97-.04-2.5-.13-3.69,.65-.15,.89,.37,1.84,.4Z"/><path class="cls-3" d="M57.19,83.12c.08,.47-.15,.64-.26,.92-.48,.09-.7-.09-.92-.26-.26-1.02,.84-1.34,1.18-.66Z"/><path class="cls-4" d="M51.79,97.87h-.13c-.69-2.69-1.78-4.98-5.27-4.87,2.58-3.3,5.59-6.17,8.16-9.48,1.33,3.59,2.36,7.47,4.21,10.53-1.07,.14-2.93-.4-4.21,.13-.5,.21-.55,.61-1.19,1.18-.71,.65-1.71,.96-1.58,2.5Z"/><path class="cls-3" d="M58.9,84.17c.3,.35,.3,.84,0,1.18h-.66c-.36-.49-.28-1.32,.66-1.18Z"/><path class="cls-3" d="M40.34,84.44c.04,.57,0,1.06-.53,1.05-1.02-.11-.36-1.77,.53-1.05Z"/><path class="cls-3" d="M42.18,86.41c-.11-.11-.08-.36-.26-.39-.02-2.25,2.47,.51,.26,.39Z"/><path class="cls-3" d="M59.56,85.49c.61,.93,.52,2.55,.79,3.82-.79-.97-1.65-1.86-2.24-3.03,.54-.2,1.01-.48,1.45-.79Z"/><path class="cls-3" d="M40.86,86.55c.2,.21,.2,.97,0,1.18h-.66c-.42-.43-.31-1.41,.66-1.18Z"/><path class="cls-3" d="M61.66,88.78h-.66c-1.01-1.38,1.72-1.42,.66,0Z"/><path class="cls-3" d="M38.36,88.52c.59,.28,1.21,.55,1.84,.79-.66,1.05-1.36,2.06-1.97,3.16-.31-1.15,.19-2.61,.13-3.95Z"/><path class="cls-3" d="M59.43,89.31c.08,.47-.15,.64-.26,.92-.48,.09-.7-.09-.92-.26-.26-1.02,.84-1.34,1.18-.66Z"/><path class="cls-3" d="M61.53,90.89c-.22,.18-.44,.35-.92,.26-.78-1.09,1.18-1.76,.92-.26Z"/><path class="cls-3" d="M36.65,92.07c-.82-1.46,1.55-1.42,.79,0-.39,.12-.41,.12-.79,0Z"/><path class="cls-3" d="M62.19,91.15c.76,.9,.82,2.51,1.32,3.69-.96-.8-1.97-1.54-2.63-2.63,.54-.25,.97-.61,1.32-1.05Z"/><path class="cls-3" d="M39.94,93.26c-.52,.08-.71-.17-.92-.39-.1-1.63,1.99-.62,.92,.39Z"/><path class="cls-3" d="M64.69,94.18h-.66c-1.08-1.24,1.48-1.6,.66,0Z"/><path class="cls-3" d="M37.97,94.44c-.48,.09-.7-.09-.92-.26-.28-1.52,1.7-.83,.92,.26Z"/><path class="cls-3" d="M61.66,96.02c-.11-.11-.08-.36-.26-.39,.04-2.24,2.47,.47,.26,.39Z"/><path class="cls-3" d="M63.9,96.55c-.81-1.46,1.56-1.42,.79,0-.39,.12-.41,.12-.79,0Z"/><path class="cls-4" d="M33.36,96.42c-1.4,.66-2.44,1.69-3.42,2.76-.67-.9-1.05-2.11-2.11-2.63,1.75-.24,4.27-.16,5.53-.13Z"/><path class="cls-4" d="M22.17,96.55c1.49-.31,3.55-.04,5.27-.13,.24,.53-1.41,1.39-1.58,2.37-1.21-.76-1.94-2.01-3.68-2.24Z"/><path class="cls-3" d="M53.11,100.1c-.38,.23-1.26-.41-1.71,.13-.28-.71,1.35-.54,1.71-.13Z"/><path class="cls-3" d="M49.16,100.5c1.13,1.2,2.86-.5,4.08,.53,.55,.07,.74-.23,1.18-.26,.19,.19-.03,.64-.13,.92-1.81-.1-3.03,0-4.87-.13-.13-.31-.23-.65-.26-1.05Z"/><path class="cls-3" d="M53.24,103.66c.08,.47-.15,.64-.26,.92-1.22,.25-1.23-.7-2.11-.79-.54,0-.57,.49-.53,1.05-1.03-2.05,1.76-1.09,2.9-1.19Z"/><path class="cls-3" d="M47.58,106.03c1.48-.3,1.65,1.85,3.29,1.84-.26,.85,.06,1.29,.39,1.84-.11,.39-.33-.17-.66,0-.91,2.07-4.48,1.27-5.66,0,1.2,.25,4.14,2.12,5.13,0-1.69,.89-4.38-.1-5.53-1.32,1.76,.31,2.62-1.49,4.74-.79-.32-.78-1.04-1.15-1.71-1.58Zm-.4,3.03c.48-.13,.24-.99,.92-.92,.82-.07,.61,.88,1.19,1.05,.23-1.66-2.27-1.95-2.11-.13Zm-.79-.53c.3,.31,.7,.03,.66-.39-.41-.06-.54,.16-.66,.39Zm3.55,.26c.03-.47-.19-.69-.66-.66,.07,.36,.14,.74,.66,.66Z"/><path class="cls-3" d="M44.81,110.77c1.41,.84,4.22,1.21,5.66,.53-.37,2.1-5.09,1.07-5.66-.53Z"/><path class="cls-3" d="M19.8,13.48h60.42V124.85H19.67V13.88c-.01-.19-.02-.37,.13-.39Zm1.05,1.18V50.74c4.81-4.1,10.17-8.79,17.51-10.79-.35-1.64-.67-4.43,1.05-4.48,.8-.02,1.07,.49,1.45,1.19,.53-1.05,.81-2.35,1.05-3.69-2.28,1.61-3.76-2.02-1.84-2.76,.64-.25,.93,.37,1.32,0,.32-1.59,.76-3.65,.39-5.27-.16-.71-1.02-1.76-1.58-2.63-1.68-2.59-3.58-5.29-5-7.64h-14.35Zm15.93,0c-.15,.03-.21,.15-.26,.26,.64,1.38,1.73,2.31,3.03,3.03,1.85-.65,1.95,2.31,.53,2.63,.18,.13,.26,.35,.39,.53,.99,.15,.92-.75,1.58-.92,.71,.45,1.49,.07,1.71-.66-1.23,.42-1.88-.69-1.58-1.84,.32-.29,.67-.56,1.18-.66-.33-1.81,2.62-1.97,2.24,0,1.75-.03,1.42,2.87-.26,2.63,.6,.89,1.88,.38,2.5-.13,.47,.84,2.45,.67,2.5-.39-1.93,.37-1.64-2.93,.13-2.5-.37-1.91,2.71-1.66,2.11,.26,1.56-.12,1.43,3.04-.4,2.5,.03,1.1,1.78,.85,2.5,.53,.54,.89,2.34,.81,2.63-.26-1.98,.51-1.94-3,0-2.5-.05-1.57,1.62-1.82,2.11-.53,.05,.14-.02,.69,.13,.92,.28,.44,.78,.24,.92,.79,.32,1.21-.52,1.72-1.45,1.71,.02,.76,1.26,.81,1.71,.4,.21,1.04,2.16,1.44,2.5,.26-1.87,.38-1.89-2.19-.66-2.5,.58-.14,.65,.22,1.05,.26,.05-.64,.93-1.04,1.58-.66,.64-1.03,1.38-1.95,1.98-3.03-.3,.04-.51-.02-.66-.13h-29.75Zm26.72,5c-.08,.28-.45,.72,0,.79,.12-.36,.4-.56,.53-.92-.25-.03-.29,.15-.53,.13Zm5.13-5c-1.86,2.53-3.67,5.11-5.4,7.77h3.82c.1-1.59,.18-2.97,1.45-3.16,1.66-.25,2,1.27,2.11,2.77,.59-.58,1.8,.26,2.63-.13,1.09,.67,2.3,1.21,3.16,2.11,.35-.14,.81-.16,1.32-.13,2,.88,1.22,5-1.58,3.95-.17,.93-.53,1.67-.92,2.37,.05,1.55,1.83,3.06,.53,4.34,.49,2.04,1.29,4.26,2.11,5.92,.29,.58,.39,1.33,.92,1.58,.61-8.71,.09-18.43,.26-27.38h-10.4Zm-16.98,4.21c-.01-.45,.5-.66,.13-1.32-.16-.15-.47-.15-.79-.13-.5,.69,0,1.05-.13,1.58-.63,2.73-5.41,3.53-6.06,.13,.12-.45,.41-.82,.13-1.32-.31,0-.39-.23-.79-.13-.57,.59,.06,1.11,0,1.71-.18,1.67-1.44,2.32-3.29,2.5,1.26,1.56,3.37-.06,3.69-1.45,1.43,3.33,5.71,2.06,6.71-.53,.48,3.45,5.96,3.46,6.58,.13,.38,1.61,3,4.34,4.48,1.98-3.1,.41-4.25-1.83-3.69-3.95-.32,.05-.29-.24-.66-.13-.03,.1-.11,.15-.26,.13,.81,4.29-5.96,4.87-6.06,.79Zm16.59,.92c-1.49,2.65,.02,6.7-.66,10.14-.78-.13-1.07,.24-1.45,.53-.36,1.6,1.25,1.7,1.97,1.19,1.62-1.15,.08-7.54,.92-9.35-.18-.3-.97,0-.79-.66,.34-.33,1.15,.28,1.58-.13,.53-1.12-.5-2.17-1.58-1.71Zm1.05,3.95c1.03,.27,1.65-1.32,.79-1.71-.86-.03-.54,1.13-.79,1.71Zm1.71,1.18c.61-.37,1.03-.16,1.45,.26,.17-1.03-.3-2.03,0-2.76-1.72-1.23-1.61,.84-1.45,2.5Zm1.84,.53c.48-.12,.7,.23,.92,0-.05-1,.13-2.24-.13-3.03-.41,.06-.3-.4-.79-.26-.33,.66-.15,2.33,0,3.29Zm1.18,.26c.4-.1,.48,.13,.79,.13-.02-.9,0-1.76,.13-2.5-.22-.26-.4-.56-.79-.66-.29,.93,.16,1.97-.13,3.03Zm-11.45-2.24h1.32v-.66c-.72-.06-1.35-.04-1.32,.66Zm1.84,4.34c.87-.27,2.92,.64,2.76-.66-.49-.34-1.73,.06-2.24-.26,.09-1.01-.17-2.37,.13-3.16,.6-.15,1.81,.31,1.97-.26v-.53c-.62-.31-1.8-.05-2.63-.13v5Zm4.87-3.69c-.08,1.71,.12,3.67,0,5,1.35,1.96,7.2,1.8,6.58-1.71-.82,.23-1.8,1.01-2.9,.53,.43-.05,.85-.11,.92-.53-.33-.31-1.45-.13-1.84-.13,.22,.1,.22,1.09,0,1.19-.46-.95-1.07-1.74-1.84-2.37,.53-.32,.83-2.07,.26-2.63-.18,.43-.7,.53-1.18,.66Zm5.79,1.58c.47-.08,.64,.15,.92,.26,.34-.84,.53-2.48-.79-2.37-.28,.73,.1,1.53-.13,2.11Zm-13.17-1.45c.36,.12,1.83,.38,1.98-.13-.19-.48-1.94-.4-1.98,.13Zm-13.95,16.32c.19,1.53-1.94,3.58-2.9,3.82-1.31,.32-2.71,.04-3.95-.26,1.45,3.42,3.05,6.69,3.95,10.66,2.44-2.52,5.23-5.56,7.5-8.16,.3-.34,.78-.78,.66-1.19-3.34,0-4.33-2.34-5.13-4.87,.01-.21-.02-.46,.26-.4,.76,2.64,1.98,5.45,5.66,4.74,1.71-.75,1.62-4.06-.4-3.69-.82,.15-1.38,1.69-.53,2.5,.87,.09,1.38-.2,1.32-1.05-.03-.41-.77-.11-.92-.39,.07-.46,.76-.21,1.05-.13,.14,.59,.38,1.12,0,1.58-1.77,2.12-6.07-1.67-5.4-3.42,.94,1.29,1.23,3.24,3.29,3.42,.06-.41-.24-.46-.13-.92-1.32-.21-2.16-1.61-2.11-2.76,.71,.78,.77,2.21,2.11,2.37,.17-.88-1.58-1.54-1.05-2.76,.47,.62,.85,2.56,1.71,1.58-.27-.66-1.34-1.2-1.05-1.98,.69,.42,.91,1.82,1.84,1.58,.1-.5-1.2-1.43-.79-2.24,.61,.84,1.11,2.49,2.11,2.5-.12-1.27-1.95-2.14-1.32-3.29,.41,.69,.48,1.71,1.32,1.97,.33-1.05-1.09-1.91-.79-2.9,.72,.38,.45,1.75,1.32,1.98,.51-1.19-.91-2.23-.79-3.03,.98,.42,.82,1.99,1.58,2.63,.49-1.58-.82-3.09-.79-4.21,1.05,.84,.94,2.83,1.45,4.21,1.16-2.14-1.15-4.44-.92-5.66,.57,1.07,1.4,2.21,1.58,3.82,.15,1.33-.4,2.71,.39,3.29,.95-6.25-3.01-9.78-3.42-15.53-3.96-.31-9.22-.61-12.64,.4-.09,.75,.22,1.09,.13,1.84,.77-.37,1.07-.77,1.98-.79,4.32-.1,2.06,6.03,1.58,8.82,.49,.44,1.39,.46,1.58,1.19-2.1-.25-2.16-2.22-1.32-3.95-.56,.05-.56,.67-1.18,.66,.22-.7,1.32-1.23,1.05-1.98-.86,1.1-2.46,.18-3.42-.13-.53,2.73,.82,5.15,1.05,6.71,.41,2.74-1.2,4.26-3.82,4.08,.64,.58,1.56,.85,2.37,.66,1.35-.33,1.52-2.34,2.37-3.03-.21,2.29-2.05,3.91-4.34,3.29,2.4,2.58,4.47-.66,5-2.5,0,2.09-1.7,4.63-4.48,3.55,2.5,2.51,5-.56,5.27-3.03,.15,.72-.06,1.63-.4,2.37-.31,.69-1.22,1.21-.92,1.58,.64-.25,1.08-.3,1.45-.79,.63-.83,.15-2.3,.92-3.03,.03,.87-.01,1.65-.26,2.24,1.08-.15,.58-1.88,1.32-2.37v.4Zm28.7-16.19c.1,.8-.29,1.12-.26,1.84,1.01,.45,1.03-.81,1.05-1.45,.3,.14,.61,.27,.79,.53,0-.48-.37-.59-.53-.92h-1.05Zm1.58,1.18c.39,1.6-1.59,1.39-1.98,1.45,.82,1.32,2.77-.74,1.98-1.45Zm-20.01,14.88c-.51,.15-.75,.57-1.32,.66-.36-.21-.83-.31-.79-.92,.51,0,.63,.86,1.18,.4,.99-1.82-1.54-2.35-1.98-.79-.87,3.16,2.99,2.77,3.82,1.18,1.62-3.08-.81-6.88-1.71-9.61-.81-2.44-1.04-4.86-1.98-6.85h-.39c.39,5.72,4.85,9.84,3.16,15.93Zm8.69-15.8c-3.52-.2,.89,3.69,0,0h0Zm-9.08,6.71c1.16,3.48,3.41,7.71,.92,10.79,1.7-.23,2.1-1.96,1.98-3.69-.27-3.87-2.89-8.4-3.69-12.11-.12-.55,.12-1.55-.66-1.71h-.26c.45,1.92,.92,4.32,1.71,6.71Zm3.29-5.92h2.77v-.79c-1.15,.03-2.64-.27-2.77,.79Zm-3.82-.26c.38,5.8,5.73,11.84,2.9,16.98,3.91-1.69,.61-7.57-.53-10.4-1-2.51-1.43-4.97-2.11-6.98h-.39c.02,.16-.02,.37,.13,.4Zm4.21,16.98c1.5-.35,1.72-2.37,1.58-3.69-.22-2.09-1.58-4.35-2.37-6.58-.86-2.43-1.23-4.78-2.11-6.85-.18,0-.29-.06-.39-.13,0,5.74,6.18,11.74,3.29,17.25Zm10.27-15.53c.33-.46,.54-1.06,.13-1.58-1.12-.23-.86,1.52-.13,1.58Zm-10.53,5.79c1.3,3.39,3.29,6.48,1.45,9.74,1.51-.45,1.84-3.33,1.32-5-1.11-3.55-4.05-7.81-4.34-11.85-.17,0-.18-.17-.4-.13,.5,2.16,1.03,4.78,1.97,7.24Zm.79-.39c1.33,3.32,3.84,6.22,1.71,10.14,1.66-.27,1.87-2.91,1.45-4.48-1.08-3.96-4.38-8.06-4.74-12.24-.17,0-.18-.17-.4-.13,.49,2.26,1.1,4.54,1.97,6.71Zm10.14-5.27c.21,.23,.55,.33,1.05,.26-.1-.59,.17-.79,.13-1.32-.91-.17-1.11,.38-1.19,1.05Zm-11.06-.13h2.77v-.79h-2.9c-.1,.4,.23,.39,.13,.79Zm12.51,.39c.61,.31,1.26-.03,1.05-.92-.68-.37-1.31-.02-1.05,.92Zm1.32-.13c.33,.34,.44,.08,.92,.26,.06-.45-.05-.74-.13-1.05-.63-.1-.78,.28-.79,.79Zm-32.65,1.18c.92-.72,3.12-1.01,3.82,.13,.17-1.97-3.84-1.95-3.82-.13Zm19.22-.26h2.37v-.79h-2.63c.04,.31,.16,.54,.26,.79Zm-18.96,.79c1.23-.41,2.54-.54,3.42,.26-.27-1.48-2.84-1.44-3.42-.26Zm23.17,11.98c.76-1.59,2.85-4.09,2.76-6.19-.05-1.23-.17-2.06,.53-3.03-.66,1.23-3.09,1.43-3.42,0-.28-1.2,.65-1.6,1.58-2.24v-.92h-5.53c.9,4.5,4.3,7.19,4.08,12.38Zm-21.06-9.87c.22-.23,1.09-1.04,.4-1.32-.25,.23-.1,.87-.66,.79-.82,.16-.75-.56-1.05-.92-.29,.72,.22,1.69,1.32,1.45Zm-1.58-.53c-.08-.32-.11-.68-.53-.66-.05,.45,.04,.75,.53,.66Zm2.37,.13c.43,.03,.63-.16,.66-.53-.3-.29-.73,.04-.66,.53Zm-4.34,1.05c-.29-.24-.07-.99-.66-.92-1.46,.45-1,2.38,.13,2.5,1.37,.14,1.9-1.64,1.18-3.03-.13,.57-.11,1.3-.66,1.45Zm28.44-1.18c-.76,2.57,3.85,1.94,5.4,1.45-.01-.65,.13-.65,0-1.19-1.25,.43-4.41,.25-5.4-.26Zm-.66,3.82c.71,.02,1.13-1.39,.53-1.84-.35,.43-1.18,1.22-.53,1.84Zm5.92-1.58c-.24,.47-.06,1.51,.66,1.45,.69-.32,.25-1.58-.66-1.45Zm-4.21,1.84c.36-.29,.66-1.52,0-1.71-.33,.22-1.05,1.72,0,1.71Zm3.03,.13c.79,.07,.71-1.75,0-1.71-.38,.26-.38,1.45,0,1.71Zm-1.97,.13c1.04,.19,1.1-1.2,.66-1.71-.88-.08-.91,1.07-.66,1.71Zm-32.52,2.76c.48,.09,1.04,.26,1.32-.13-.34-3.1-3.37,.26-1.32,1.45,2.57,.19,3.5-2.62,2.9-4.74-.17,1.69-1.14,5.02-2.9,3.42Zm29.75-2.76c-.26,2.46-1.72,4.43-2.37,6.06,1.32-1.54,3.25-3.84,2.9-6.19-.02,.2-.32,.12-.53,.13Zm6.32-.13h-.66c-.06,2.13,1.32,3.94,2.37,5.4-.68-1.69-1.23-3.51-1.71-5.4Zm-3.16,4.34c.92-.8,1.57-2.55,1.58-3.82-.47,1.02-.41,2.57-1.58,2.9-.97-.48-1.05-1.84-1.32-3.03h-.39c.21,1.67,.54,3.23,1.71,3.95Zm-33.44,0c1.43,2.46,4.92-.69,3.82-2.76-.25,1.87-1.67,3.63-3.82,2.76Zm35.41-2.76c-.45,1.21-.67,3.15-1.84,3.29-1.28,.15-1.78-1.59-2.11-3.03-.99,1.77-2.29,3.94-3.42,5.13,1.36-.74,2.41-1.8,3.16-3.16,.81,.9,1.26,2.17,2.11,3.03,1.07-.51,1.55-1.61,2.11-2.63,.9,.98,2.08,2.4,3.29,2.63-1.46-1.4-2.29-3.42-3.29-5.27Zm-35.28,3.69c1.14,2.89,5.71,.04,4.21-2.5-.29,1.88-2.19,3.59-4.21,2.5Zm27.65,2.5c3.62-.24,7.75,.03,11.32-.26-1.73-.29-2.6-1.44-3.69-2.37-.49,1-1,1.98-2.11,2.37-.94-.68-1.38-1.87-2.11-2.77-.74,1.41-2.15,2.15-3.42,3.03Zm-20.01,29.09c.57-12.64-3.26-23.36-8.03-30.94-2.44,.63-4.47,1.68-6.45,2.76,2.37,2.85,4.46,6.17,6.05,9.74,.49,1.09,.68,2.74,1.98,3.29,.29-.19-.05-1.02,.66-.79,.85-.19,.13,1.18,.92,1.05,.38-.14-.12-1.17,.26-1.32,.69,1.16,1.37,2.32,1.98,3.55-.57,.92,.02,.66,.13,1.71,.05,.54-.56,.4-.66,.79,.73,.98,.99,2.43,1.45,3.69-.87,0-1.3,.32-1.84,.13-.05-.93,.5-1.96,.13-2.76-1.08,.19-1.09,1.46-1.84,1.98,2,13.11-2.83,23.82-8.56,30.67-.22,.26-.62,.67-.53,1.05h3.42c.01-.6,.08-1.15,.39-1.45,.44,.4,1.13,.54,1.58,.92,0,.26-.36,.17-.26,.53h2.63c3.87-6.28,6.14-14.87,6.58-24.62Zm11.72-28.7c-4.14,4.81-8.39,9.52-12.51,14.35,.68,.13,1.11-1.06,1.71-1.45,.6,.58,1.13,1.24,1.58,1.98-.58,.6-1.06,1.31-1.71,1.84-.42-.29-.73-.68-.92-1.19,.47-.36,.51-1.15,1.32-1.18,.41,.64-.83,.94-.53,1.45,.51-.19,.87-.54,1.05-1.05-.21-.31-.47-.58-.66-.92-1.68,.53-1.62,2.44-.4,3.42,1.09-.58,1.65-1.69,2.5-2.5-.6-.8-1.36-1.45-1.84-2.37,.92-.96,1.6-2.18,2.77-2.9,.69,.89,1.45,1.71,2.11,2.63-.73,.72-1.25,1.64-2.11,2.24-.51-.63-1.16-1.12-1.45-1.98,.4-.43,.66-1,1.18-1.32,.42,.32,.83,.66,1.05,1.19-.31,.22-.32,.73-.92,.66-.1-.48,.32-.73,0-1.05-.43-.03-.28,.51-.66,.53,.2,.5,.54,.86,.92,1.19,.31-.61,.93-.91,1.18-1.58-.56-.54-.89-1.31-1.58-1.71-.23,1.08-1.87,1.36-1.84,2.24,.02,.66,1.98,1.53,1.84,2.37-1.07,1.08-1.87,2.43-3.16,3.29-.16-.45-.53-.7-.79-1.05-.02,.94,.2,1.64,.26,2.5,2.39-2.4,4.68-5.25,6.84-7.77,.73-.85,1.85-1.57,1.97-2.76-.81,.81-1.45,1.8-2.37,2.5-.69-.89-1.63-1.53-2.11-2.63,.63-.77,1.31-1.5,1.97-2.24,.56,.58,1.16,1.12,1.58,1.84-.42,.59-.85,1.17-1.45,1.58-.41-.3-.76-.65-1.05-1.05,.4-.3,.72-1.24,1.32-.92,.15,.66-.84,.65-.39,1.18,.5-.07,.63-.51,.79-.92-.27-.3-.44-.7-.92-.79-.35,.57-.92,.92-1.18,1.58,.85,.2,.87,1.62,1.58,1.58,.59-.03,1.03-1.74,1.84-2.11-.35-1.01-1.29-1.43-1.71-2.37,.97-1,1.71-2.25,2.9-3.03,.41,.12,.81,1.5,1.05,.92,.3-.53-.85-.72-.79-1.45,.98-.6,1.57-2.95,2.76-2.11-.02-.33,.21-.41,.26-.66h-1.32Zm1.84,0c-3.45,5.99-6.04,14.09-6.45,23.17-.61,13.4,2.83,24.56,8.03,32.38,2.44-.63,4.39-1.75,6.45-2.77-2.42-2.86-4.44-6.2-6.06-9.74-.52-1.15-.83-2.57-1.84-3.42-.55,.06-.1,1.13-.92,.92-.67,.06-.02-1.2-.79-1.05-.48-.43-.06,1.16-.39,1.32-.54-1.35-1.35-2.42-1.97-3.69,.65-.73-.01-.71-.13-1.58,.02-.51,.65-.41,.66-.92-.61-1.06-1.03-2.3-1.31-3.69,.66,.25,1.31-.32,1.84,0-.14,.79-.49,2.05-.26,2.77,1.07-.21,1.17-1.38,1.84-1.98-1.72-13.18,2.71-23.89,8.56-30.67,.24-.28,.76-.59,.66-1.05h-3.42c-.09,.52-.16,1.07-.39,1.45-.44-.4-1.17-.5-1.58-.92,0-.2,.54-.59,0-.53h-2.5Zm-3.29,.13c-2.87,3.27-5.86,6.68-8.69,9.87-.9,1.02-2.33,2.04-2.5,3.29,3.43-3.2,6.99-7.91,10.27-11.58,.44-.49,1.26-.88,1.18-1.58h-.26Zm-25.28,.79c-3.14,1.67-6.01,4.03-8.56,6.32-.81,.72-2.21,1.41-1.97,2.76,3.43-3.16,6.77-6.4,10.93-8.82-.19-.03-.22-.22-.39-.26Zm27.12,.26c-.46,.59-.97,1.14-1.45,1.71,.26,.13,.21,.58,.66,.53,.02-.9,1.06-1.48,.79-2.24Zm-25.93,1.19c.06-.41-.35-.35-.39-.66-3.68,1.66-6.45,4.39-9.08,6.98-.84,.83-2.36,1.63-2.24,3.16,3.48-3.49,7.47-7.18,11.72-9.48Zm34.62,24.22c1.55-2.27,2.81-4.93,3.03-8.03,.44-6.18-1.26-11.36-4.48-14.48-.03-.1-.11-.15-.26-.13,0,.17-.17,.18-.13,.4,3.53,3.88,5.22,10.86,3.69,16.59-1.27,4.77-4.36,8.06-8.03,10.4,3-.03,4.69-2.54,6.19-4.74Zm-34.1-20.93c.67-.29,.52-1.23,0-1.58-1.16-.18-1.23,1.78,0,1.58Zm21.46,.4c.46-.31,.92-1.79,1.58-1.05-.22,.5-1.22,.96-.66,1.45,.61,.18,.96-.95,1.45-1.32-.42-.28-.44-.96-1.05-1.05-.46,.95-1.43,1.38-1.84,2.37,.57,.66,1.04,1.42,1.71,1.98-.07-.51,.49-1.08,.26-1.32-.58,.69-1.15-.62-1.45-1.05Zm-23.17,.66c.51-.14,.53-1.3,.13-1.58-1.32-.33-1.39,1.79-.13,1.58Zm33.96,1.45c-.79-.67-.16-1.73-.13-2.5-1.74,.89,.16,4.43,1.71,2.76-.44-.44-1.01,.22-1.58-.26Zm-38.05,3.03c-2.34,2-4.75,4.08-6.45,6.71,4.07-4.05,8.61-8.77,14.35-11.58-.02-.15,.02-.37-.13-.39-2.8,1.51-5.42,3.27-7.77,5.27Zm2.11-5c-.73,.06-1.01,1.4,.13,1.58,.98-.37,.71-1.65-.13-1.58Zm6.45,1.18c.03-.39-.3-.4-.26-.79-4.51,2.45-8.56,5.54-11.85,9.08-1.11,1.19-2.77,2.34-2.9,4.21,4.11-5.06,8.94-9.4,15.01-12.51Zm29.75-.79c-.07,.69,.06,1.17,.79,1.05-.22-.39-.26-.96-.79-1.05Zm10.66,1.18c-.44-.21-.57-.62-1.05-.66,0-.08-.02-.16-.13-.13-1.31,.96-3.47,1.67-5.79,1.19,.01,.52,.23,.82,.39,1.18,2.38,.19,3.82-.57,5.13-1.45,.88,.67,2.8,1.66,4.21,.92-.51-.84-1.87-.62-2.77-1.05Zm-48.84,1.05h.79c1.28-1.88-2.07-1.88-.79,0Zm3.69,2.24c-.26,1.1,1.17,3.19,2.5,3.55,.37,.1,1.13-.29,1.45,.13,.6-1.15,2.11-1.4,3.69-1.58-.87-1.8-1.49-3.86-2.63-5.4-.92,.94-4.72,2.13-5,3.29Zm34.36,5.79c-.15,4.11-1.85,6.87-4.08,8.69-.81,.66-1.82,.93-2.5,1.84,6.5-1.49,8.71-11.43,5.4-17.77-.21-.4-.29-1.3-.92-1.18,.76,1.74,2.22,3.93,2.11,6.98v1.45Zm-39.1-6.71c.74-.05,.86-1.11,.13-1.58-1.36,.08-1,1.64-.13,1.58Zm40.81-1.05c-1.74-.02-.73,4.35,1.05,3.03-1.46-.14-2.04-1.9-1.05-3.03Zm1.45,6.98c-.05-.75-.87-.57-1.05-1.32-.23-.95,.33-1.4,.79-2.11-1.59-.29-1.63,3.59,.26,3.42Zm-.26,3.82c-.02-.64-.82-.5-.92-1.05-.58-1.31,.6-1.81,1.18-2.37-2.12-.68-2.18,3.83-.26,3.42Zm4.21-8.56c1.61,1.42,3.36,3.36,4.87,4.87,.5,.5,1.22,1.37,1.58,1.18-.48-1.51-2.1-2.62-3.56-4.08-.9-.9-2.82-3.67-3.95-3.42-.1,.02-.26,0-.26,.13,.38,.49,.82,.93,1.32,1.32Zm-47.92-1.45c-.65,.26-.8,1.09-.26,1.58h.79c.36-.59,.35-1.56-.53-1.58Zm43.18,1.32c0-.52-.13-.93-.4-1.19-.31,.4-.12,1.2,.4,1.19Zm.13,15.14c-.45,.72-1.28,1.58-1.45,2.24-.28,1.11,.22,2.63,0,3.55,1.58-.49,2.13-1.99,2.9-3.29h3.42v-16.46c-1.02-.83-1.48-2.21-3.03-2.5,1.98,6.42,.65,12.46-1.84,16.46Zm-5.13-14.88c-.24-.12-.34-.37-.79-.26-.51,1.32,.95,1.75,1.84,2.11,0-1.13,.45-2.5-.53-2.9-.43,.1-.35,.7-.53,1.05Zm-8.16-.26c-2.54,3.34-5.64,6.12-8.03,9.61,2.74-3.05,5.89-6.4,8.03-9.61Zm-31.99,.26c-.29,.56-.06,1.25,.39,1.45,1.29,.1,.87-2.33-.39-1.45Zm7.37,.39c-.61,1.24-.26,2.71,.13,3.95-.66,.7-1.71,1.01-2.11,1.97,.55,.9,1.6,1.3,2.24,2.11-.32,.69-.62,2.1-.26,3.03,.2-1.38,.71-2.45,1.18-3.55-2.29-.38-1.91-3.22,.4-3.29-.46-.96-1.6-2.35-1.58-4.21Zm.66,.26c.16,1.68,.65,3.04,1.97,3.55,.25-.19,.58-.29,.53-.79-1.41-.35-1.85-1.66-2.5-2.76Zm-4.48,2.76c.96-.36,1.92-.71,2.9-1.05-.04-.3,.43-1.44,0-1.58-.93,.91-2.09,1.6-2.9,2.63Zm35.41,2.63c-.27,2.15-1.65,3.41-2.5,5.13,2.64-1.48,3.94-6.7,2.24-10.14-.13,1.37,.48,3.24,.26,5Zm-40.41-3.82c.04,.33,.23,.71,.92,.66,1.66-1.13-1.15-2.37-.92-.66Zm52.13-.26v11.85c0,1.23-.41,3.17,.53,3.55,.48-3.44,.26-8.23,.26-11.98,0-1.28,.28-2.73-.39-3.69-.17,0-.18-.17-.39-.13v.4Zm-37.39,.66c-1.82,1.23-1.74,5.34-.4,6.71,1.03,1.05,3.21,.84,4.87,.4-.02-.42-.3-.58-.26-1.05-.56-.17-1.04,.4-1.18-.13,.69-.27,1.93,0,2.63-.26-.15-.6,.02-.92-.13-1.32-.85-.1-2.04,.15-2.5,0,.67-.64,2.68,.05,3.55-.4-.24-.24-.17-.79-.4-1.05-1.05-.24-2.29,.51-2.9-.13,1.02,.01,1.79-.23,2.9-.13-.34-.47,.17-1.07-.13-1.45-1.24-.19-3.03,.33-3.69-.13,.53-.13,1.15-.16,1.84-.13v-1.05c-1.76-.34-2.99-.7-4.21,.13Zm32.65,.79c-.12-.36-.04-.93-.26-1.18-.38,.4-.22,.99,.26,1.18Zm-28.04,.13c.41-.03,.97,.09,1.18-.13,.16-.87-.58-.83-1.32-.79-.08,.43,.09,.61,.13,.92Zm33.96,13.82h4.48v-5.79c0-1.84,.48-4.34-.66-5.13-.08,.31,.17,.95-.13,1.05-.84-.09-2.02,.17-2.63-.13,.08-.31-.17-.95,.13-1.05h2.37c.16-.93-1.35-1.27-2.5-1.32,.22-1.37-.32-1.96-1.05-2.37v14.74Zm-27.51-6.32h6.06c.16-2.83,.86-5.81,.92-8.29-2.22,2.79-5.18,5.52-6.98,8.29Zm-18.04-8.16c-2.03,.82-4.64,1.77-5.4,3.42,1.63-1.27,3.52-2.28,5.66-3.03,0-.23-.1-.34-.26-.4Zm5.53,6.06c-.17-1.46-.32-3.98,0-5.4-2,.08-2.06,5.8,0,5.4Zm-5.4-5c-1.6,.66-3.46,1.5-4.87,2.5-1.36,.96-3.2,2.18-3.42,3.95,2.38-2.67,6.18-3.91,8.69-6.45h-.39Zm34.75,.4c-.27-.17-.24-.64-.79-.53-.66,.96,.2,2.34,.92,2.76,.28-.79,1.44-1.76,.66-2.76-.55-.11-.52,.36-.79,.53Zm-21.59,.53c.15,.03,.21,.15,.26,.26,.49,0,.91-.06,.92-.53-.2-.64-1.32-.73-1.18,.26Zm-12.24,1.45c.6,.81,1.54,1.26,2.63,1.58,.02-1.21-1.75-.62-1.84-1.71,.22-.83,1.8-.31,1.84-1.32-1.08,.28-2.17,.55-2.63,1.45Zm12.77,.4c.42-.02,.79-.09,.79-.53,0-.48-.39-.58-.92-.53-.06,.45,.05,.74,.13,1.05Zm-11.19-.4c.29,.1,.51,.28,.92,.26-.07-.19,.15-.68-.13-.66-.11,.28-.68,.11-.79,.39Zm36.99-.26c-.87-.22-.89,1.39-.13,1.32-.09-.58,.23-.74,.13-1.32Zm-40.94,.66c0-.13-.11-.16-.13-.26-1.48,.5-2.79,1.43-3.95,2.37-1.05,.84-2.66,1.8-2.76,3.55,2.33-1.84,4.34-4,6.85-5.66Zm14.22,1.45c.58-.03,1.13-.09,1.19-.66-.37-.73-1.56-.64-1.19,.66Zm-13.82-.79c-2.38,1.31-4.33,3.04-6.06,5h1.18c1.36-2.02,3.47-3.29,5.66-4.48-.36-.08-.33-.55-.79-.53Zm34.1,3.55c.92-.32,2.2-.94,1.71-2.24-.55-.15-.51,.28-.92,.26,.02-.32,.02-.63-.13-.79-1.53-.02-.63,1.75-.66,2.76Zm-30.41-2.63c-.4,.78-1.06,2.01-.92,2.9,.55-.86,1.2-1.61,2.24-1.97,.01-.76-.7-.8-1.32-.92Zm-7.77,4.08c1.28,.08,1.9-1.04,2.63-1.58,.83-.61,1.66-1.06,2.76-1.45,0-.39,.39-.67,.13-.92-2.3,.86-4.21,2.11-5.53,3.95Zm16.59-3.69c-.05,.54,.05,.92,.53,.92,.31-.09,.8-.69,.4-1.05-.06,.29-.65,.05-.92,.13Zm26.2,3.55c-1.88-1.32-3.28,2.58-1.58,2.9-.93-1.16,.03-3.41,1.58-2.37,.06-.34,.18-.6,.4-.79-.99-.96-.76-3.01,1.05-2.9-1.62-1.37-2.83,2.08-1.45,3.16Zm-36.33,.66h-3.42c-.05,4.98-.13,10.6-.13,15.27,0,1.71,1.48,3.19,3.16,3.82-1.43-5.05-1.19-10.54,.53-14.35,.61-1.36,2.49-3.32,2.76-4.48,.28-1.2-.12-2.67-.13-3.55-1.35,.67-2.03,2-2.76,3.29Zm36.86-1.84c.38,0,.82-1.11,.26-1.19-.38,.2-.5,.73-.26,1.19Zm-41.6,1.32c1.86,.15,2.22-1.2,3.55-1.58-.08-.23,.16-.77-.13-.79-1.25,.68-2.45,1.41-3.42,2.37Zm4.61,11.72c.44-7.02,4.2-10.72,8.69-13.69h-1.58c-4.21,3.03-7.42,7.06-7.77,13.95-.22,.14-.22,1.18,0,1.32,.05,4.23,1.19,7.73,2.9,10.27,.49,.73,1.16,2,1.84,1.71-1.76-2.85-4.06-6.3-4.08-11.32v-2.24Zm8.82-11.06c-.68,.02-.75-.73-1.32-.66,.37,2.24,4.01,.44,2.63-1.32-.15,1.07-.4,1.95-1.32,1.97Zm20.14,.66c1.26,.12,2.81-.02,2.37-1.19-.09-.26-.73,.03-.79-.26,.19-.18,.19-.75,0-.92-1.12-.31-1.28,1.42-1.58,2.37Zm-29.88-2.24c-.64,.2-1.11,.56-1.58,.92,.8-.03,1.44-.23,1.58-.92Zm9.35,.66c.43,.33,1.09,.02,.92-.66-.38,.14-.89,.16-.92,.66Zm10.27,6.71h1.97v-2.24h1.71c-.07-1.48,.2-2.06,0-2.9-.57,.08-1.49-.17-1.84,.13,1.03,.85,.58,2.79-.53,3.03-2,.42-2.59-2.66-.79-3.42,.58-.05,1.02,.04,1.32,.26v-2.24c-.64,.06-1.54-.14-1.98,.13v2.11h-1.71c-.15,.75-.14,1.7-.13,2.9,.57,.08,1.49-.17,1.84,.13,.09,.66-.17,1.66,.13,2.11Zm-13.82-4.21c.41,2.02,3.84-.38,2.24-1.97,.19,1.31-.64,2.92-2.24,1.97Zm-14.35-1.32c.01,2.55-.01,5.77,0,8.29,0,.78-.34,1.97,.53,2.24,.38-.02-.11-.9,.26-.92,.84,.09,2.02-.17,2.63,.13-.02,.38,.07,.86-.13,1.05h-2.37c.11,.59,1.04,1.5,2.5,1.18-.16,1.3,.17,2.12,1.05,2.37-.09-4.87,.17-10.09-.13-14.74h-4.34v.4Zm5-.4c0,.17-.17,.18-.13,.4,0,3.8,0,8.33,0,12.11,0,1.2-.38,2.79,.66,3.42,.24-3.7,.13-8.28,.13-12.11,0-1.4,.32-3.05-.4-3.82h-.26Zm39.89,1.45c.25-.32,.5-.64,.66-1.05-.1-.03-.26,0-.26-.13-.54-.06-.97,.94-.4,1.19Zm-28.96-1.05c-.41,.13-1.01,.57-.79,.92,.6,.03,.84-.3,.79-.92Zm-2.11,16.98c.44,1.29,.96,2.69,1.84,3.29-1.05-2.2-2.09-4.42-2.24-7.11-.22-3.8,1.29-7.69,3.68-9.87,.99-.9,2.09-1.16,3.03-2.11-.03-.1,0-.26-.13-.26-5.25,1.7-8.43,9.48-6.19,16.06Zm27.78-12.64c-.41-1.54,1.09-2.75,2.24-1.97-.46-1.86-3.95,.47-2.24,1.97Zm-28.57,.26c-.39,.03-.41-.3-.79-.26-.11,.33-.36,.52-.4,.92,.53,.4,.72,.93,.66,1.45-.12,1.01-1.24,.97-1.71,1.58,2.3,.37,2.42-2.31,1.45-3.42,2,.91,3.11-2.09,1.71-3.03,.19,.83,.52,2.6-.92,2.76Zm.26-1.98c-.15,.39-.75,.84-.53,1.19,.83,.23,1-.9,.53-1.19Zm28.96,1.05c.43-.14,.73-.41,.92-.79-.65-.08-1.01,.13-.92,.79Zm-24.09-.26c-.53,.12-1.02,.3-.92,1.05,.25,.38,.67,.11,.92,.26-.25,.32-.36,.78,0,1.05,1.15,0,1.45-1.53,1.32-2.37-.14-.22-1.17-.22-1.32,0Zm20.41,2.5c-.19-1.66,1.65-2.43,2.5-1.18,.16-2.12-3.96-.83-2.5,1.18Zm11.19-.26c.44-.4,1.09-.57,1.45-1.05-.7,.04-1.73,.46-1.45,1.05Zm3.55-1.05c-1.89-.17-2.1,1.32-3.55,1.58v.79c1.47-.51,2.61-1.33,3.55-2.37Zm1.71,.26c.03-.17,.21-.27-.13-.26-1.17,.04-1.76,1.03-2.5,1.58-.8,.59-1.58,1.21-2.76,1.45-.02,.37-.24,.55-.26,.92,2.56-.56,4.04-2.19,5.66-3.69Zm.92-.26c-1.5,1.87-3.3,3.46-5.79,4.34,.12,.36,.42,.55,.79,.66,2.4-1.29,4.43-2.94,6.06-5h-1.05Zm1.84,0c-1.29,1.63-3.22,3.48-4.87,4.61-.53,.36-1.45,.47-1.58,1.18,.68,.37,1.4-.45,1.97-.79,.73-.43,1.35-.81,1.98-1.32,1.15-.92,2.83-1.93,2.9-3.69h-.4Zm-18.56,.92c.51-.01,.96-.09,1.05-.53-.33-.53-1.07-.06-1.05,.53Zm8.42,3.55c2.51,.36,2,3.31-.39,3.42,.9,1.03,1.58,2.28,1.71,4.08,.67-1.16,.21-2.74-.13-3.95,.74-.62,1.7-1.02,2.11-1.97-.55-.89-1.72-1.18-2.24-2.11,.33-.52,.73-2.31,.13-2.9-.07,1.47-.54,2.53-1.19,3.42Zm-30.01,6.98c.17-1.38-.44-2.55-.39-3.95,.08-2.55,1.36-4.44,2.63-6.06-.03-.1,0-.26-.13-.26-2.44,1.62-3.92,6.81-2.11,10.27Zm30.67-10.14c-.48,.53-1.66,1.5-2.37,2.24,.18,.44,.86,.37,1.19,.66,.66-.69,.94-1.78,1.18-2.9Zm-36.86,0c.04,.52-.3,.66-.26,1.18,.8,.12,.8-1.02,.26-1.18Zm5.13,.13c-.64,.58-2.01,1.01-1.58,2.24,.55,.43,.67-.45,1.05-.13-.02,.32-.02,.63,.13,.79,1.34,.11,.77-2.38,.4-2.9Zm8.16,8.16c2.42-2.19,5-5.36,7.24-8.16h-6.19c-.15,2.92-.52,5.63-1.05,8.16Zm31.59-5c.91-.75,2.34-1.45,1.71-2.77-2.01,3.08-6.2,3.98-8.56,6.71,2.37-.55,4.99-2.42,6.84-3.95Zm-14.61,5.66c2.63-.4,3.92-5.5,1.45-7.37-1.15-.87-2.69-.56-4.61-.26-.03,.42,.23,.56,.13,1.05,.36,.12,1.23-.27,1.18,.26-.98-.1-1.57,.18-2.5,.13-.18,.22,.11,.77,0,1.32,1.01,.16,1.86-.05,2.63,.13-.93,.58-2.24-.04-3.55,.13,0,.43,.22,.66,.13,1.19,.97,.09,2.28-.17,3.03,.13-.66,.31-1.88,.05-2.76,.13,.04,.38,0,1.03,0,1.45,1.15,.17,2.97-.34,3.69,.26-.6,.06-1.45-.13-1.84,.13v.92c1.03,.24,1.89,.57,3.03,.39Zm-17.51,2.5c2.05-2.36,4.19-4.93,6.19-7.24,.67-.78,1.71-1.42,1.84-2.5-2.59,3.25-5.87,6.5-8.03,9.74Zm13.03-8.95c.48,.04,.86-.02,1.19-.13,.18-1.21-1.4-.84-1.19,.13Zm7.11-.13c.47,1.28,.29,3.78,.13,5.27,2.01-.04,2.08-6.3-.13-5.27Zm.79,12.64c5.06-3.05,9.43-7.01,13.03-11.19-.08-.4,.17-1.13-.13-1.32-3.3,4.78-8,8.74-13.03,11.72-.6,.36-1.71,.59-1.84,1.45,.68,.67,1.45-.34,1.97-.66Zm-34.49-12.24c.63,.55,1.51,1.51,.79,2.63-.18,.44-1.1,.13-1.05,.79,1.97,.58,2.29-3.79,.26-3.42Zm.79,5.13c.21,.9-.22,1.34-.79,1.97,1.7,.31,1.51-3.54-.26-3.42-.08,.77,.88,.71,1.05,1.45Zm.92,3.82c.17,.85-.39,1.07-.53,1.97,1.54-.57,1.09-3.88-1.05-3.42,.42,.73,1.4,.54,1.58,1.45Zm12.9,2.5c.74,1.26,1.69,.31,2.11-.79-.56-.49-.81-1.3-1.58-1.58-.49,.87-1.29,1.43-1.84,2.24,.64,.72,1.34,1.38,1.84,2.24-1,.97-1.79,2.16-2.9,3.03-.54-.16-.65-1.32-1.19-1.05,.05,.74,.73,.85,.92,1.45-.73,.85-1.36,1.8-2.24,2.5-.34-.46-.71-.11-.79,.4h1.32c3.16-3.52,6.21-7.48,9.35-10.93,1.05-1.15,2.47-2.15,2.9-3.69-.55,.5-.8,1.31-1.58,1.58-.51-.63-1.16-1.12-1.45-1.98,.52-.66,1.17-1.19,1.71-1.84,.28,.46,.76,.73,.92,1.32-.58,.26-.5,1.16-1.45,1.05-.02-.68,.62-.7,.66-1.32-.45-.21-.85,.6-1.19,.92,.36,.29,.49,.83,.92,1.05,1.41-.72,1.45-2.83,0-3.55-.71,.92-1.63,1.62-2.24,2.63,.59,.81,1.37,1.44,1.84,2.37-.98,.91-1.71,2.06-2.76,2.9-.66-.96-1.55-1.69-2.11-2.76,.73-.72,1.28-1.62,2.11-2.24,.39,.75,1.09,1.19,1.45,1.98-.39,.49-.77,.98-1.19,1.45-.45-.34-.87-.71-1.05-1.32,.29-.2,.31-.66,.79-.66,.4,.47-.32,.61,0,1.05,1.24-.22,.48-1.28-.26-1.58-.17,.66-.9,.77-1.05,1.45,.46,.63,.82,1.38,1.58,1.71,.45-.78,1.16-1.3,1.71-1.97-.35-1.06-1.39-1.42-1.71-2.5,.91-1.19,1.85-2.36,3.03-3.29,.37,.29,.58,.73,.92,1.05-.07-.94-.16-1.86-.4-2.63-2.16,2.62-4.68,5.26-6.84,7.77-.74,.85-1.75,1.74-1.84,2.9,.74-.93,1.46-1.88,2.37-2.63,.59,1.04,1.62,1.63,2.11,2.77-.75,.7-1.3,1.59-2.11,2.24-.41-.73-1.19-1.09-1.45-1.97,.5-.52,.89-1.13,1.45-1.58,.21,.49,.82,.58,.92,1.18-.4,.34-.43,1.06-1.18,1.05,.68-1.37,.13-1.62-.53-.39Zm10.66-10.53c.14,.34,.54,.43,1.05,.4,.73-1.19-.97-1.56-1.05-.4Zm12.24,1.18c-.19,.86-1.66,.44-1.84,1.32,.82-.02,2.29-.51,2.63-1.45-.63-.73-1.51-1.21-2.63-1.45,.05,1.09,1.68,.6,1.84,1.58Zm-37.78,.13c.55,.46,1.08-1.23,.13-1.18,.09,.53-.13,.75-.13,1.18Zm3.82,2.24c.67,.19,.56-.4,.92-.53,.15,.25,.16,.63,.66,.53,.98-.79-.28-2.21-.79-2.77-.28,.86-1.27,1.56-.79,2.77Zm21.06-2.24c.24,.28,.38,.67,1.05,.53,.1-.5-.16-.63-.13-1.05-.55-.06-.81,.16-.92,.53Zm11.19-.53c0,.22,0,.44,0,.66,.29-.15,.85-.03,.92-.4-.41,.01-.63-.16-.92-.26Zm4.87,7.11c2.69-2.3,5.52-4.43,6.85-6.98-3.97,4.33-8.98,8.75-14.48,11.98,2.56-.81,5.2-2.92,7.63-5Zm-1.58-3.55c2.13-.24,4.95-1.63,5.66-3.29-1.5,1.48-3.79,2.18-5.66,3.29Zm-47.26-.66c-.93-.65-1.46-1.7-2.5-2.24,.18,1.53,1.63,1.8,2.24,2.9,.96,1.06,1.96,2.07,3.03,3.03,.76,.6,.98,1.74,2.37,1.71-.43-1.24-2.22-2.25-3.16-3.42-.6-.71-1.26-1.37-1.97-1.97Zm33.04-1.18c-.12,.74,.47,.76,.92,.92,.46-.82-.25-1.53-.92-.92Zm10.66,.79c-.26,.09-.35,.35-.39,.66,1.27,.53,1.92,1.68,2.5,2.9-.14-1.75-.58-3.19-2.11-3.55Zm-8.95,1.32c.29,.19,.63,.33,1.19,.26v-.92c-.45-.28-1.51-.25-1.19,.66Zm12.51,.53c.16,.61-.27,1.3,0,1.58,.92-.88,2.53-1.76,2.89-2.76-.79,.57-1.95,.77-2.89,1.19Zm-39.36-1.05c.08,.32,.19,.6,.13,1.05,.47,.06,.38-1.26-.13-1.05Zm33.57,0c-.53,1.16-2.16,1.68-3.69,1.45,.72,2.05,1.42,4.11,2.63,5.66,1.64-1.13,3.63-1.9,5-3.29-.26-2.33-1.62-3.56-3.95-3.82Zm13.82,1.58c-.94-3.4-2.27,1.94,0,0h0Zm-32.91,10.14c1.93-2.18,3.88-4.18,5.79-6.32,.96-1.07,2.3-2.28,2.9-3.29,.12-.2,.05-.26,0-.53-.03-.1,0-.26-.13-.26-3.82,4.52-7.84,8.83-11.58,13.43,1.33-.56,2.09-1.97,3.03-3.03Zm-9.08-7.37c.41-.03,.11-.77,.39-.92,.25,.06,.24,.38,.66,.26,.76-1.09-.74-1.9-1.71-2.11-.04,.93-.57,2.76,.66,2.76Zm39.76-2.37c-.72,.28-.65,1.69,.4,1.58,.74-.22,.73-1.8-.4-1.58Zm-24.75,14.88v.4c-.89-1.06-.84-2.85-2.11-3.95-1.63-1.42-5.29-1.44-5,1.97,.1,.03,.15,.11,.13,.26,1.15,1.61,3.46-.33,2.11-1.84-.96-.12-1.46,.21-1.32,1.19,.11,.28,.84-.05,.92,.26-1.71,.75-1.56-1.53-.26-1.84,2.55-.62,4.69,2,4.48,3.82-.78-1.33-1.34-3.58-3.29-3.29,.53,1.31,2.71,1.67,2.24,3.55-.63-.87-.67-2.31-2.11-2.37,.27,.96,1.51,1.65,1.18,2.76-.61-.46-.61-2.17-1.58-1.84-.47,.85,1.52,1.55,.79,2.24-.49-.54-.88-1.81-1.71-1.58-.16,.47,1.32,1.68,.66,2.24-.57-.96-.87-2.2-1.97-2.63,.04,1.58,1.52,1.73,1.45,3.42-.71-.43-.57-1.72-1.45-1.97-.46,1.05,1.13,1.84,.66,2.9-.54-.51-.47-1.64-1.18-1.97-.76,.96,.97,2.11,.66,3.03-.85-.55-.75-2.06-1.58-2.63-.36,1.83,1.09,3.18,.79,4.08-1.09-.83-.79-3.22-1.58-4.21-.66,2.36,.99,4.16,1.19,5.66-1.75-1.47-1.34-4.64-1.98-6.98-1.17,5.91,3,9.66,3.29,15.4,3.95,.59,8.82,.48,12.64-.13-.09-.66,.17-1.66-.13-2.11-2,1.69-4.47,.6-4.61-1.84-.12-2.06,.98-4.24,1.18-5.92-.32-.65-1.38-.55-1.58-1.32,2.1,.07,2.01,2.2,1.32,3.82,.2,.28,.81-.84,1.05-.53-.3,.75-.99,1.11-1.18,1.97,.9-1.17,2.75,0,3.69-.13-.4-.7,.02-1.2,0-1.97-.05-1.73-1.06-3.54-1.18-4.87-.21-2.27,1.18-4.03,3.82-3.55-1.74-2.13-4.24,.39-4.48,2.24-.19-1.98,1.69-4.17,4.08-3.16-.14-1.12-1.78-1.19-2.9-.92-1.08,.72-1.29,2.3-2.11,3.29,.18-2.55,2.03-4.35,4.61-3.69-.62-.63-1.74-.89-2.5-.79-1.91,.26-2.19,2.53-2.9,3.95-.04-1.88,.83-2.85,1.58-3.95-1.94,.12-2.1,2.03-2.37,3.82-.67-.43,.22-1.74-.13-2.24-.75,.14-.64,2.91-1.19,1.97-.13-1.54,.87-1.86,1.58-2.5,.63-.57,.68-.98,1.19-1.18,1.28-.54,3.14,.01,4.21-.13-1.85-3.06-2.89-6.94-4.21-10.53-2.58,3.31-5.58,6.18-8.16,9.48,3.49-.11,4.58,2.18,5.27,4.87Zm16.98-5.27c-.43,.25-1.11,.56-1.32,1.05,.28,.78,1.12,.23,1.58,0,2.99-1.52,5.21-3.76,7.5-6.06,1.05-1.05,3.08-2.2,2.5-3.69-2.97,3.35-6.37,6.44-10.27,8.69Zm5.79-7.11c.32,.12,.35,.53,.92,.39,1.62-.86-1.14-2.68-.92-.39Zm-42,.39c.18-.17,.13-.57,.13-.92-.26,0-.17-.36-.53-.26,0,.52,.13,.93,.39,1.18Zm41.21,1.32c.79-.06,.88-1.84-.26-1.58-.89,.2-.48,1.64,.26,1.58Zm-2.63,5.66c-1,.69-2.23,1.03-2.76,1.84,1.05,.19,1.95-.82,2.9-1.45,2.03-1.35,3.63-2.54,5.53-4.21,.99-.87,2.8-2.13,2.24-3.29-2.37,2.45-5.15,5.2-7.9,7.11Zm-45.94-4.87c-.34-.18-.82-.7-1.45-.92-.64-.22-2.46-.63-2.76,.13,1.21,.63,3.02,.67,3.82,1.71,1.48-.99,3.48-1.67,5.92-1.32-.07-.41-.23-.73-.4-1.05-2.39-.2-3.83,.56-5.13,1.45Zm7.9-.53c.34,.33,.64-.13,1.18,0,1.36,.36,.23,2.44,.79,2.76,1.21-1.38-.42-4.24-1.97-2.76Zm39.23,1.18c.59-.15,.68-1.14,.26-1.58-1.49-.31-1.38,1.57-.26,1.58Zm-28.3,.13c0-.23,.1-.34,.26-.4,.4,.48,.93,.82,1.19,1.45-.56,.27-.79,1.58-1.58,1.18,0-.75,1.28-1.01,.53-1.71-.61,.27-.85,.91-1.32,1.32,.2,.5,.54,.86,.92,1.18,.6-.8,1.32-1.49,1.98-2.24-.44-.84-1.13-1.42-1.71-2.11,.01,.46-.55,1.02-.26,1.32Zm17.64,10c.34,1.69,.48,4.11-1.05,4.21-.85,.06-1.24-1.08-1.58-.92-.54,.86-.73,2.07-.92,3.29,1.8-1.47,3.83,1.84,1.97,2.76-.62,.31-1.26-.22-1.45,0-.79,1.45-.38,3.49-.4,5.53,2.15,3.34,4.36,6.61,6.45,10h14.48c-.09-11.98,.18-24.31-.13-36.07-4.72,4.8-10.49,8.55-17.38,11.19Zm-27.25-9.48c.06-.45-.05-.74-.13-1.05-.19,.07-.68-.15-.66,.13,.34,.23,.29,.86,.79,.92Zm36.2,.4c.78-.06,.92-1.85-.26-1.58-.92,.21-.48,1.64,.26,1.58Zm-1.98-.53c-.56,.25-.54,.93-.26,1.45,1.17,.75,1.76-1.66,.26-1.45Zm-2.24,1.84c.03,.4,.36,.66,.92,.79,1.72-1.19-1.04-2.47-.92-.79Zm-24.88,3.69c.28-.77,1.12-.99,1.32-1.84-.25-.05-.1-.51-.53-.4-.06,.83-1.24,1.75-.79,2.24Zm2.37,1.32c.18,0,.29,.06,.39,.13-.07-.19,.15-.68-.13-.66,0,.26-.36,.17-.26,.53Zm0,3.55c1.46-.46,.59-3.18-.26-3.42-2.62-.75-3.41,2.52-3.16,4.74,.31,2.73,2.28,6.76,3.03,9.74,.29,1.15,.32,2.46,1.05,3.29,.85-4.83-4.36-9.25-3.29-14.74,.18-.93,.72-1.61,1.84-1.84,.34,.19,.74,.31,.79,.79-.39,.35-.7-.84-1.32-.26-.58,.7,.02,2.12,1.32,1.71Zm-15.93-3.03c1.06,.52,1.43,1.73,2.11,2.63,.99-1.08,2.03-2.1,3.42-2.76-1.26-.02-3.78-.11-5.53,.13Zm6.71,3.42c.25,2.15,1.63,4.24,2.63,6.45,.78,1.72,1.22,3.15,1.71,5,.13,.48,.19,1.35,.79,1.58-.12-5.71-6.14-10.72-3.69-16.59,0-.08-.02-.16-.13-.13-1.15,.67-1.52,1.98-1.32,3.69Zm3.69,6.71c.9,2.37,1.36,4.55,2.24,6.58-.27-2.34-1.01-4.55-1.84-6.85-1.13-3.12-3.37-6.88-1.45-10-.17,0-.18-.17-.4-.13-2.82,3.58,.2,7.09,1.45,10.4Zm.79-.26c.43,1.22,.87,2.39,1.18,3.55,.32,1.17,.16,2.76,1.32,3.42,.14-4.53-3.64-8.79-4.08-13.3-.17-1.74,.18-2.78,.92-3.69-.17,0-.18-.17-.4-.13-2.75,2.87-.16,6.73,1.05,10.14Zm.26-10.14c-1.01,.43-1.58,1.71-1.58,3.03,0,2.9,1.62,5.22,2.63,7.9,.63,1.67,1.02,3.25,1.45,4.87,.12,.45,.06,1.35,.66,1.45,.08-5.52-5.7-12.19-2.9-17.25h-.26Zm.92,.13c-.96,.94-1.26,2.5-1.05,4.34,.35,3.09,2.41,6.72,3.16,9.74,.28,1.12,.38,2.38,1.05,3.29,.51-4.26-3-8.61-3.42-13.16-.2-2.16,.49-3.4,1.05-4.34-.4-.09-.39,.23-.79,.13Zm-19.35,27.25h10.53c1.72-2.62,3.61-5.08,5.27-7.77h-3.82c-.16,1.66-.18,3.16-1.58,3.29-1.58,.15-1.87-1.4-1.97-2.9-.76,.93-1.7-.35-2.5,.26-1.24-.65-2.33-1.44-3.55-2.11-2.95,.83-3.04-4.98,.53-3.95,.15-.9,.52-1.58,.92-2.24-.15-1.66-1.76-3.12-.53-4.61-.53-2.01-1.31-4.16-2.11-5.79-.24-.5-.47-1.22-.92-1.45h-.26v27.25Zm5-24.88c.18-.98,1.82-1.84,1.58-2.37-1.71,.09-3.77-.18-5.27,.13,1.75,.23,2.47,1.48,3.68,2.24Zm6.45-.66c.25-.3,.83-.68,.66-.92-1.33,.69-2.12,1.92-3.03,3.03-.55-.54-1.46-3.21-2.24-3.16-.68,.04-1.5,2.5-1.84,2.77-.87-.85-1.77-2.36-3.03-2.37,1.3,1.33,2.04,3.23,3.03,4.87,.44-1.36,.7-2.9,2.11-3.29,1.3,.46,1.39,2.12,2.11,3.16,.38-1.56,1.37-3.04,2.24-4.08Zm24.62,3.16c.15-2.01,2.22-3.56,4.21-2.5-1.09-2.86-5.84-.15-4.21,2.5Zm-26.46,2.63c.95-.65,.87-2.01,1.32-3.03,.45-1.04,1.17-1.95,1.58-2.9,.07,0,.15-.11,0-.13-1.28,1.47-3.27,3.88-2.9,6.06Zm.92,0c0,.41,.31,.77,.26,1.19-.08,.69-.94,1.27-.66,1.97,1.92-3.2,5.15,1.55,1.71,2.11-.04,.31-.21,.49-.13,.92,1.58,.3,3.73,.05,5.53,.13-.58-4.25-4.26-7.23-3.95-12.37-.84,1.77-2.81,3.7-2.76,6.06Zm-6.45,.13c1.09-.5,.07-1.77-.26-2.5-.43-.95-.87-2.02-1.45-2.5,.58,1.66,.99,3.48,1.71,5Zm32.39-1.58c.25-1.81,1.96-3.82,3.95-2.63-1.32-2.76-5.03,.57-3.95,2.63Zm-29.49-2.76c-.9,.77-1.55,2.48-1.58,3.69,.43-1.07,.51-2.48,1.58-2.9,1.08,.5,.87,2.28,1.58,3.16,.11-1.43-.49-3.29-1.58-3.95Zm29.88,4.87c.26-1.65,1.2-5.06,3.03-3.42-.63-.08-.79-.37-1.32,0,.08,3.22,3.25,.03,1.32-1.32-2.69-.22-3.54,2.62-3.03,4.74Zm-29.75,1.05c.35-.27,.58-1.19,.26-1.71-.97-.56-1.32,1.67-.26,1.71Zm-1.71,0c.41-.21,.35-1.36,0-1.58h-.4c-.18,.48-.29,1.58,.4,1.58Zm3.03-1.58c-.37,.41-.6,1.52,0,1.84,.29-.41,.58-.83,.53-1.58-.26,0-.17-.36-.53-.26Zm-4.21,1.98c.2-.6-.02-.98-.26-1.45-1.28-.12-.65,1.55,.26,1.45Zm6.06-1.58h-.39c-.47,.28-.58,.91-.53,1.71,.79-.08,1.14-1.03,.92-1.71Zm26.86,4.08c.22-.53,.22-1.27,.66-1.58,.24,.37,.24,.99,.79,1.05,1-.16,1.02-2.04,.26-2.5-1.96-.45-2.36,1.7-1.71,3.03Zm-33.04-1.71c-.04,.6-.13,.73,.13,1.18,1.56-.56,3.82-.45,5.13,.26,.25-.42,.28-.78,.13-1.32-1.26-.83-3.99-.83-5.4-.13Zm5.92,9.21c.05,.47,1.02,.03,.79,.79-.56,.05-1.36-.13-1.71,.13-.15,1.2,.42,1.98,1.45,1.71,1.93-.51,.25-8.35,.79-10,.85-.25,1.85-.34,1.58-1.71-4.36-2.18-1.94,6.4-2.9,9.08Zm23.7-6.98c.51-.19,.33-1.07,1.18-.92,.48,.09,.41,.73,.79,.92,.32-2.14-2.48-1.42-1.97,0Zm-30.54,1.97c.79-.31,1.83-1.07,2.9-.66-.29,.23-.95,.11-.92,.66,.54,.31,1.15-.2,1.71,.13,.08-.4-.17-1.13,.13-1.32,.3,1.1,1.21,1.59,1.71,2.5-.53,.72-.44,1.34-.39,2.5,.56-.1,.7-.61,1.45-.53,.07-1.87-.08-3.52-.13-5.27-1.65-1.75-7-1.55-6.45,1.97Zm29.75-2.37h.53c-.11-.37,.19-.34,.13-.66-.36,.08-.74,.14-.66,.66Zm3.42,.26c.35-.36-.05-.72-.4-.79,0,.4,.12,.67,.4,.79Zm.13,.79c-.96,.49-2.65,.57-3.42-.13,.27,1.41,2.97,1.32,3.42,.13Zm0,.53c-.73,1.1-2.88,.87-3.69,0-.07,1.91,4.21,1.91,3.69,0Zm-24.75,1.05c.51,.28,1.51,.07,2.24,.13,0,1.03,.35,2.34,0,3.29-.6,.15-1.81-.31-1.98,.26v.4c.62,.31,1.8,.05,2.63,.13-.08-1.63,.17-3.59-.13-5-.96,.22-2.97-.6-2.76,.79Zm3.29,0h2.63c.1-.4-.23-.39-.13-.79-.89,.21-2.78-.59-2.5,.79Zm-14.35,.66c-.2,2,.17-.43,.79-.53,.47-.5,1.21,.49,1.32-.13-.81-.81-2.05,.12-2.11,.66Zm1.84,.13c-.57-.13-.6,.27-.92,.39-.15,.43,.4,.81,0,1.05-.51,.11-.47-.32-.79-.4,.16,.63,.54,1.04,1.45,.92,.08-.62,.51-1.45,.26-1.97Zm.92,.26c.4-.08,.67-.29,.66-.79-.1-.03-.15-.11-.13-.26h-.79c-.06,.5,.04,.84,.26,1.05Zm.92-.13c.29,.1,.51,.28,.92,.26,.2-.21,.2-.97,0-1.18-.72-.11-1.03,.2-.92,.92Zm1.45,.53c.79,.13,.79-.53,1.05-.92-.43-1.09-1.72-.12-1.05,.92Zm9.21-.26c.72,.29,1.96,.06,2.9,.13v-.79c-.72-.29-1.96-.06-2.9-.13v.79Zm-8.16,.53c.31,.04,.24,.46,.66,.39,.47-.4,.31-.92,.13-1.58-.67-.01-.81,.5-.79,1.19Zm5.92,.92c.82-.05,1.01-1.31,.26-1.84-1.71-.06-1.25,1.9-.26,1.84Zm-8.95,.79c.21-.78-.04-1.2,0-2.11-.32,.02-.63,.02-.79-.13-.34,.7-.58,2.51,.79,2.24Zm.26,.26c.25,.28,.36,.69,.92,.66-.04-1.01-.25-1.95,0-2.9-.4,.1-.39-.23-.79-.13-.24,.76,.11,1.49-.13,2.37Zm2.11,1.18c.29-.81,.06-2.14,.13-3.16-.5,.1-.63-.16-1.05-.13,0,1.08-.54,3.3,.92,3.29Zm8.82-2.5c1.04-.15,2.85,.48,2.76-.79-.94,.25-3.01-.64-2.76,.79Zm-8.42,2.24c.32,.25,.69,.45,1.18,.53,.59-.63,.23-1.89,.13-2.9-.6,.36-.86-.12-1.32-.26-.11,.93,.18,2.06,0,2.63Zm8.42-1.32c.83-.05,2,.24,2.11-.53h-2.11v.53Zm-5.92,1.84c.6-.19,.45-1.13,.66-1.71-.79-.56-1.87,1.46-.66,1.71Zm5.92-.92c.68,.02,1.42,.1,1.45-.53h-1.45v.53Zm1.58,.92c2.08-.31,3.73,.59,3.95,2.37,.09,.7-.71,1.95,.66,1.58-1.01-4.1,6.23-5.13,6.19-.79-.21,.26-.42,.96-.13,1.32,.25-.03,.29,.15,.53,.13,.55-.08,.43-1.02,.26-1.45,.46-3.11,5.42-3.57,6.06-.53,.12,.56-.58,1.44,.53,1.71,.9-.41,.15-1.34,.26-2.11,.21-1.38,1.35-2.06,3.16-1.97-.97-2.04-3.19-.1-3.68,1.32-1.14-3.32-5.58-2.28-6.58,.53-.47-3.57-6.04-3.39-6.71-.13-.23-1.98-3.07-4.3-4.48-1.97Zm-.66,1.32c1.28-.65,1.85,2.01,.66,2.37-1.56-.52-1.44,1.02-2.9,.53-.49,1.13-1.35,1.89-1.84,3.03,10.18-.09,20.71,.18,30.67-.13-.5-.77-1.04-1.5-1.45-2.37-1.01,.22-1.16-.42-1.58-.79-1.88,.84-2.01-2.35-.53-2.5-.5-1.09-1.64-.2-1.97,.39-.48-.69-2.01,.05-1.58,.66,1.81-.76,1.92,2.71,.13,2.5,.39,1.88-2.5,1.86-2.11,0-1.61-.05-1.7-2.76,.13-2.63-.34-1.08-1.81-.26-2.37,0-.66-.68-2.29-.69-2.5,.4,2.08-.1,1.29,3.07-.13,2.63,.22,2.04-2.84,1.34-2.11-.26-1.52-.04-1.63-2.93,.39-2.5-.44-1.25-1.44-.95-2.5-.53-.38-.98-2.79-.77-2.5,.26,1.86-.55,1.49,3.07-.13,2.5-.07,1-.64,1.34-1.18,1.32-1.1-.05-.6-1.01-1.05-1.71-.29-.45-.81-.27-.92-.79-.23-1.04,.2-1.9,1.45-1.71-.18-.83-1-.81-1.71-.53-.12-.97-2.68-1.36-2.37-.13Zm-.39,.13c-.12,.36-.4,.56-.53,.92,.56,.16,.88-.6,.53-.92Z"/><path class="cls-4" d="M71.27,52.58c.49,.38,.93,.82,1.32,1.32-.49-.38-.93-.82-1.32-1.32Z"/><path class="cls-4" d="M23.09,81.28c1.06,.95,2.07,1.96,3.03,3.03-1.06-.95-2.07-1.96-3.03-3.03Z"/><path class="cls-4" d="M23.36,80.62c.71,.6,1.37,1.26,1.97,1.97-.71-.6-1.37-1.26-1.97-1.97Z"/></g></g></g></svg>