<?xml version="1.0" encoding="UTF-8"?><svg id="Layer_2" xmlns="http://www.w3.org/2000/svg" viewBox="0 0 101.07 140"><defs><style>.cls-1{fill:#fff;}.cls-2{fill:#231f20;}</style></defs><g id="cards"><g><path class="cls-1" d="M98.04,0s-29.21,.79-47.5,.79S3.03,0,3.03,0C1.36-.04,0,1.28,0,2.95V135.9c0,1.67,1.36,3.08,3.03,3.13,0,0,29.21,.97,47.5,.97s47.5-.97,47.5-.97c1.67-.06,3.03-1.47,3.03-3.13V2.95c0-1.67-1.36-2.99-3.03-2.95Z"/><path class="cls-2" d="M8.55,4.69v.38c.19-.33,.37-.55,.52-.65,.15-.11,.38-.16,.66-.16,.21,0,.55,.11,1.01,.34,.46,.23,.82,.34,1.08,.34,.09,0,.2-.02,.35-.06-.09-.09-.13-.19-.13-.32,0-.31,.16-.46,.49-.46,.5,0,.75,.45,.75,1.35,0,.74-.2,1.4-.61,2-.18,.28-.4,.56-.64,.84-.54,.65-.89,1.2-1.04,1.67-.17,.53-.26,1.17-.26,1.93v.22c0,.11,.01,.18,.01,.23,0,.3,.01,.55,.01,.74,0,.72-.21,1.07-.62,1.07-.33,0-.53-.21-.61-.62-.02-.12-.03-.45-.03-1,0-1.16,.22-2.21,.65-3.13,.26-.55,.71-1.2,1.35-1.94,.34-.39,.57-.69,.7-.92,.13-.23,.23-.53,.3-.91-.32,.26-.61,.39-.88,.39-.13,0-.27-.03-.42-.09-.08-.03-.27-.11-.57-.23-.42-.17-.76-.26-1.03-.26-.3,0-.55,.11-.75,.34-.2,.23-.3,.51-.3,.83,0,.14,0,.29,.03,.46,.03,.26,.04,.45,.04,.57,0,.49-.17,.74-.51,.74s-.51-.18-.51-.55c0-.19,.03-.45,.09-.77,.07-.38,.1-.73,.1-1.07,0-.15-.02-.39-.06-.7-.04-.31-.06-.54-.06-.7,0-.33,.15-.49,.45-.49,.28,0,.42,.2,.42,.59Z"/><path class="cls-2" d="M92.31,134.26v-.38c-.19,.33-.37,.55-.52,.65-.15,.11-.38,.16-.67,.16-.21,0-.55-.11-1.01-.34-.46-.23-.82-.34-1.08-.34-.09,0-.2,.02-.35,.06,.09,.09,.13,.19,.13,.32,0,.31-.16,.46-.49,.46-.5,0-.75-.45-.75-1.35,0-.74,.2-1.4,.61-2,.18-.28,.4-.56,.64-.84,.54-.65,.89-1.2,1.04-1.67,.17-.53,.26-1.17,.26-1.93v-.22c0-.11-.01-.18-.01-.23,0-.3-.01-.55-.01-.74,0-.72,.21-1.07,.62-1.07,.33,0,.53,.21,.61,.62,.02,.12,.03,.45,.03,1,0,1.16-.22,2.21-.65,3.13-.26,.55-.71,1.2-1.35,1.94-.34,.39-.57,.69-.7,.92-.13,.23-.23,.53-.3,.91,.32-.26,.61-.39,.88-.39,.13,0,.27,.03,.42,.09,.08,.03,.27,.11,.57,.23,.42,.17,.76,.26,1.03,.26,.3,0,.55-.11,.75-.34,.2-.23,.3-.51,.3-.83,0-.14,0-.29-.03-.46-.03-.26-.04-.45-.04-.57,0-.49,.17-.74,.51-.74s.51,.18,.51,.55c0,.19-.03,.45-.09,.77-.07,.38-.1,.73-.1,1.07,0,.15,.02,.39,.06,.7,.04,.31,.06,.54,.06,.7,0,.33-.15,.49-.45,.49-.28,0-.42-.2-.42-.59Z"/><path class="cls-2" d="M12.75,25.92c1.37,0,2.49-1.11,2.49-2.49,0-3.68-4.96-6.51-4.98-6.52,0,0-4.98,2.84-4.98,6.52,0,1.37,1.11,2.49,2.49,2.49,1.02,0,1.9-.61,2.28-1.49-.77,3.58-3.4,4.15-3.4,4.15h7.22s-2.64-.58-3.4-4.15c.38,.88,1.26,1.49,2.28,1.49Z"/><path class="cls-2" d="M88.11,113.03c-1.37,0-2.49,1.11-2.49,2.49,0,3.69,4.96,6.51,4.98,6.52,0,0,4.98-2.84,4.98-6.52,0-1.37-1.11-2.49-2.49-2.49-1.02,0-1.9,.61-2.28,1.49,.77-3.58,3.4-4.15,3.4-4.15h-7.22s2.64,.57,3.4,4.15c-.38-.88-1.26-1.49-2.28-1.49Z"/><path class="cls-2" d="M56.27,55.57c3.21,0,5.81-2.6,5.81-5.81,0-8.6-11.56-15.19-11.62-15.22,0,0-11.62,6.62-11.62,15.22,0,3.21,2.6,5.81,5.81,5.81,2.38,0,4.42-1.43,5.32-3.48-1.79,8.35-7.94,9.69-7.94,9.69h16.86s-6.15-1.34-7.94-9.69c.9,2.05,2.94,3.48,5.32,3.48Z"/><path class="cls-2" d="M36.19,75.57c3.21,0,5.81-2.6,5.81-5.81,0-8.6-11.56-15.19-11.62-15.22,0,0-11.62,6.62-11.62,15.22,0,3.21,2.6,5.81,5.81,5.81,2.38,0,4.42-1.43,5.32-3.48-1.79,8.35-7.94,9.69-7.94,9.69h16.86s-6.15-1.34-7.94-9.69c.9,2.05,2.94,3.48,5.32,3.48Z"/><path class="cls-2" d="M36.19,35.57c3.21,0,5.81-2.6,5.81-5.81,0-8.6-11.56-15.19-11.62-15.22,0,0-11.62,6.62-11.62,15.22,0,3.21,2.6,5.81,5.81,5.81,2.38,0,4.42-1.43,5.32-3.48-1.79,8.35-7.94,9.69-7.94,9.69h16.86s-6.15-1.34-7.94-9.69c.9,2.05,2.94,3.48,5.32,3.48Z"/><path class="cls-2" d="M36.19,115.57c3.21,0,5.81-2.6,5.81-5.81,0-8.6-11.56-15.19-11.62-15.22,0,0-11.62,6.62-11.62,15.22,0,3.21,2.6,5.81,5.81,5.81,2.38,0,4.42-1.43,5.32-3.48-1.79,8.35-7.94,9.69-7.94,9.69h16.86s-6.15-1.34-7.94-9.69c.9,2.05,2.94,3.48,5.32,3.48Z"/><path class="cls-2" d="M76.19,75.57c3.21,0,5.81-2.6,5.81-5.81,0-8.6-11.56-15.19-11.62-15.22,0,0-11.62,6.62-11.62,15.22,0,3.21,2.6,5.81,5.81,5.81,2.38,0,4.42-1.43,5.32-3.48-1.79,8.35-7.94,9.69-7.94,9.69h16.86s-6.15-1.34-7.94-9.69c.9,2.05,2.94,3.48,5.32,3.48Z"/><path class="cls-2" d="M76.19,35.57c3.21,0,5.81-2.6,5.81-5.81,0-8.6-11.56-15.19-11.62-15.22,0,0-11.62,6.62-11.62,15.22,0,3.21,2.6,5.81,5.81,5.81,2.38,0,4.42-1.43,5.32-3.48-1.79,8.35-7.94,9.69-7.94,9.69h16.86s-6.15-1.34-7.94-9.69c.9,2.05,2.94,3.48,5.32,3.48Z"/><path class="cls-2" d="M76.19,115.57c3.21,0,5.81-2.6,5.81-5.81,0-8.6-11.56-15.19-11.62-15.22,0,0-11.62,6.62-11.62,15.22,0,3.21,2.6,5.81,5.81,5.81,2.38,0,4.42-1.43,5.32-3.48-1.79,8.35-7.94,9.69-7.94,9.69h16.86s-6.15-1.34-7.94-9.69c.9,2.05,2.94,3.48,5.32,3.48Z"/></g></g></svg>